%TF.GenerationSoftware,KiCad,Pcbnew,(6.0.7)*%
%TF.CreationDate,2022-09-26T11:07:57-04:00*%
%TF.ProjectId,proj_3,70726f6a-5f33-42e6-9b69-6361645f7063,1*%
%TF.SameCoordinates,Original*%
%TF.FileFunction,Copper,L2,Bot*%
%TF.FilePolarity,Positive*%
%FSLAX46Y46*%
G04 Gerber Fmt 4.6, Leading zero omitted, Abs format (unit mm)*
G04 Created by KiCad (PCBNEW (6.0.7)) date 2022-09-26 11:07:57*
%MOMM*%
%LPD*%
G01*
G04 APERTURE LIST*
G04 Aperture macros list*
%AMRoundRect*
0 Rectangle with rounded corners*
0 $1 Rounding radius*
0 $2 $3 $4 $5 $6 $7 $8 $9 X,Y pos of 4 corners*
0 Add a 4 corners polygon primitive as box body*
4,1,4,$2,$3,$4,$5,$6,$7,$8,$9,$2,$3,0*
0 Add four circle primitives for the rounded corners*
1,1,$1+$1,$2,$3*
1,1,$1+$1,$4,$5*
1,1,$1+$1,$6,$7*
1,1,$1+$1,$8,$9*
0 Add four rect primitives between the rounded corners*
20,1,$1+$1,$2,$3,$4,$5,0*
20,1,$1+$1,$4,$5,$6,$7,0*
20,1,$1+$1,$6,$7,$8,$9,0*
20,1,$1+$1,$8,$9,$2,$3,0*%
G04 Aperture macros list end*
%TA.AperFunction,ComponentPad*%
%ADD10R,1.900000X1.900000*%
%TD*%
%TA.AperFunction,ComponentPad*%
%ADD11C,1.900000*%
%TD*%
%TA.AperFunction,ComponentPad*%
%ADD12R,1.700000X1.700000*%
%TD*%
%TA.AperFunction,ComponentPad*%
%ADD13O,1.700000X1.700000*%
%TD*%
%TA.AperFunction,ComponentPad*%
%ADD14C,1.400000*%
%TD*%
%TA.AperFunction,ComponentPad*%
%ADD15O,1.400000X1.400000*%
%TD*%
%TA.AperFunction,ComponentPad*%
%ADD16C,1.600000*%
%TD*%
%TA.AperFunction,ComponentPad*%
%ADD17R,1.905000X2.000000*%
%TD*%
%TA.AperFunction,ComponentPad*%
%ADD18O,1.905000X2.000000*%
%TD*%
%TA.AperFunction,ComponentPad*%
%ADD19R,1.800000X1.800000*%
%TD*%
%TA.AperFunction,ComponentPad*%
%ADD20C,1.800000*%
%TD*%
%TA.AperFunction,ComponentPad*%
%ADD21R,3.000000X3.000000*%
%TD*%
%TA.AperFunction,ComponentPad*%
%ADD22C,3.000000*%
%TD*%
%TA.AperFunction,ComponentPad*%
%ADD23R,3.500000X3.500000*%
%TD*%
%TA.AperFunction,ComponentPad*%
%ADD24RoundRect,0.750000X-0.750000X-1.000000X0.750000X-1.000000X0.750000X1.000000X-0.750000X1.000000X0*%
%TD*%
%TA.AperFunction,ComponentPad*%
%ADD25RoundRect,0.875000X-0.875000X-0.875000X0.875000X-0.875000X0.875000X0.875000X-0.875000X0.875000X0*%
%TD*%
%TA.AperFunction,Conductor*%
%ADD26C,0.250000*%
%TD*%
%TA.AperFunction,Conductor*%
%ADD27C,0.500000*%
%TD*%
G04 APERTURE END LIST*
D10*
%TO.P,S1,1*%
%TO.N,/12V*%
X157607000Y-88265000D03*
D11*
%TO.P,S1,2*%
%TO.N,/PWR_INPUT*%
X155107000Y-88265000D03*
%TO.P,S1,3*%
%TO.N,unconnected-(S1-Pad3)*%
X152607000Y-88265000D03*
%TD*%
D12*
%TO.P,J6,1,Pin_1*%
%TO.N,GND*%
X163830000Y-120396000D03*
%TO.P,J6,2,Pin_2*%
X166370000Y-120396000D03*
D13*
%TO.P,J6,3*%
%TO.N,/PWR_OUT_TOP*%
X163830000Y-122936000D03*
%TO.P,J6,4*%
X166370000Y-122936000D03*
%TD*%
D14*
%TO.P,R3,1*%
%TO.N,Net-(R2-Pad2)*%
X151765000Y-112522000D03*
D15*
%TO.P,R3,2*%
%TO.N,GND*%
X159385000Y-112522000D03*
%TD*%
D16*
%TO.P,C3,1*%
%TO.N,/5V*%
X156123000Y-102235000D03*
%TO.P,C3,2*%
%TO.N,GND*%
X158623000Y-102235000D03*
%TD*%
D12*
%TO.P,J2,1,Pin_1*%
%TO.N,/3.3V*%
X144018000Y-76708000D03*
D13*
%TO.P,J2,2,Pin_2*%
%TO.N,/PWR_OUT_BOT*%
X146558000Y-76708000D03*
%TO.P,J2,3,Pin_3*%
%TO.N,/5V*%
X149098000Y-76708000D03*
%TD*%
D17*
%TO.P,U2,1,VI*%
%TO.N,/12V*%
X136144000Y-98298000D03*
D18*
%TO.P,U2,2,GND*%
%TO.N,GND*%
X138684000Y-98298000D03*
%TO.P,U2,3,VO*%
%TO.N,/5V*%
X141224000Y-98298000D03*
%TD*%
D14*
%TO.P,R2,1*%
%TO.N,/3.3V*%
X151892000Y-108839000D03*
D15*
%TO.P,R2,2*%
%TO.N,Net-(R2-Pad2)*%
X159512000Y-108839000D03*
%TD*%
D19*
%TO.P,D1,1,K*%
%TO.N,GND*%
X137546000Y-116459000D03*
D20*
%TO.P,D1,2,A*%
%TO.N,Net-(D1-Pad2)*%
X135006000Y-116459000D03*
%TD*%
D12*
%TO.P,J5,1,Pin_1*%
%TO.N,/3.3V*%
X143637000Y-123063000D03*
D13*
%TO.P,J5,2,Pin_2*%
%TO.N,/PWR_OUT_TOP*%
X146177000Y-123063000D03*
%TO.P,J5,3,Pin_3*%
%TO.N,/5V*%
X148717000Y-123063000D03*
%TD*%
D14*
%TO.P,R1,1*%
%TO.N,/12V*%
X159639000Y-105029000D03*
D15*
%TO.P,R1,2*%
%TO.N,Net-(D1-Pad2)*%
X152019000Y-105029000D03*
%TD*%
D21*
%TO.P,J7,1,Pin_1*%
%TO.N,/PWR_OUT_TOP*%
X153797000Y-120650000D03*
D22*
%TO.P,J7,2,Pin_2*%
%TO.N,GND*%
X158877000Y-120650000D03*
%TD*%
D16*
%TO.P,C1,1*%
%TO.N,/12V*%
X158476000Y-95250000D03*
%TO.P,C1,2*%
%TO.N,GND*%
X155976000Y-95250000D03*
%TD*%
%TO.P,C2,1*%
%TO.N,/3.3V*%
X156123000Y-98679000D03*
%TO.P,C2,2*%
%TO.N,GND*%
X158623000Y-98679000D03*
%TD*%
D23*
%TO.P,J1,1*%
%TO.N,/PWR_INPUT*%
X147097000Y-107246500D03*
D24*
%TO.P,J1,2*%
%TO.N,GND*%
X141097000Y-107246500D03*
D25*
%TO.P,J1,3*%
X144097000Y-111946500D03*
%TD*%
D12*
%TO.P,J3,1,Pin_1*%
%TO.N,GND*%
X163830000Y-77470000D03*
%TO.P,J3,2,Pin_2*%
X166370000Y-77470000D03*
D13*
%TO.P,J3,3*%
%TO.N,/PWR_OUT_BOT*%
X163830000Y-80010000D03*
%TO.P,J3,4*%
X166370000Y-80010000D03*
%TD*%
D21*
%TO.P,J4,1,Pin_1*%
%TO.N,/PWR_OUT_BOT*%
X153924000Y-78740000D03*
D22*
%TO.P,J4,2,Pin_2*%
%TO.N,GND*%
X159004000Y-78740000D03*
%TD*%
D17*
%TO.P,U1,1,ADJ*%
%TO.N,Net-(R2-Pad2)*%
X136144000Y-88392000D03*
D18*
%TO.P,U1,2,VO*%
%TO.N,/3.3V*%
X138684000Y-88392000D03*
%TO.P,U1,3,VI*%
%TO.N,/12V*%
X141224000Y-88392000D03*
%TD*%
D26*
%TO.N,/12V*%
X136144000Y-98298000D02*
X136144000Y-95377000D01*
X141224000Y-90297000D02*
X141224000Y-88392000D01*
X136144000Y-95377000D02*
X141224000Y-90297000D01*
%TO.N,/3.3V*%
X144018000Y-76708000D02*
X140716000Y-76708000D01*
X154051000Y-100751000D02*
X154051000Y-108077000D01*
X138684000Y-78740000D02*
X138684000Y-88392000D01*
X156123000Y-98679000D02*
X154051000Y-100751000D01*
X140716000Y-76708000D02*
X138684000Y-78740000D01*
X153289000Y-108839000D02*
X151892000Y-108839000D01*
X154051000Y-108077000D02*
X153289000Y-108839000D01*
%TO.N,/5V*%
X150241000Y-121539000D02*
X150241000Y-115570000D01*
X155829000Y-114300000D02*
X156123000Y-114006000D01*
X149098000Y-76708000D02*
X149098000Y-90424000D01*
X149098000Y-90424000D02*
X141224000Y-98298000D01*
X150241000Y-115570000D02*
X151511000Y-114300000D01*
X148717000Y-123063000D02*
X150241000Y-121539000D01*
X151511000Y-114300000D02*
X155829000Y-114300000D01*
X156123000Y-114006000D02*
X156123000Y-102235000D01*
%TO.N,Net-(D1-Pad2)*%
X135006000Y-116459000D02*
X135006000Y-118496000D01*
X149606000Y-116205000D02*
X149606000Y-107442000D01*
X135006000Y-118496000D02*
X135890000Y-119380000D01*
X135890000Y-119380000D02*
X146431000Y-119380000D01*
X149606000Y-107442000D02*
X152019000Y-105029000D01*
X146431000Y-119380000D02*
X149606000Y-116205000D01*
D27*
%TO.N,/PWR_INPUT*%
X147097000Y-107246500D02*
X147097000Y-96275000D01*
X147097000Y-96275000D02*
X155107000Y-88265000D01*
%TD*%
%TA.AperFunction,Conductor*%
%TO.N,GND*%
G36*
X167610018Y-74932000D02*
G01*
X167624851Y-74934310D01*
X167624855Y-74934310D01*
X167633724Y-74935691D01*
X167642629Y-74934527D01*
X167651598Y-74934636D01*
X167651588Y-74935450D01*
X167673098Y-74935743D01*
X167698622Y-74939785D01*
X167736116Y-74951967D01*
X167771224Y-74969855D01*
X167803117Y-74993027D01*
X167830973Y-75020883D01*
X167854145Y-75052775D01*
X167872033Y-75087882D01*
X167884214Y-75125373D01*
X167888119Y-75150026D01*
X167889551Y-75169750D01*
X167888309Y-75177724D01*
X167889474Y-75186632D01*
X167892436Y-75209283D01*
X167893500Y-75225621D01*
X167893500Y-76293306D01*
X167873498Y-76361427D01*
X167819842Y-76407920D01*
X167749568Y-76418024D01*
X167684988Y-76388530D01*
X167666673Y-76368871D01*
X167588281Y-76264272D01*
X167575724Y-76251715D01*
X167473649Y-76175214D01*
X167458054Y-76166676D01*
X167337606Y-76121522D01*
X167322351Y-76117895D01*
X167271486Y-76112369D01*
X167264672Y-76112000D01*
X166642115Y-76112000D01*
X166626876Y-76116475D01*
X166625671Y-76117865D01*
X166624000Y-76125548D01*
X166624000Y-77598000D01*
X166603998Y-77666121D01*
X166550342Y-77712614D01*
X166498000Y-77724000D01*
X162490116Y-77724000D01*
X162474877Y-77728475D01*
X162473672Y-77729865D01*
X162472001Y-77737548D01*
X162472001Y-78364669D01*
X162472371Y-78371490D01*
X162477895Y-78422352D01*
X162481521Y-78437604D01*
X162526676Y-78558054D01*
X162535214Y-78573649D01*
X162611715Y-78675724D01*
X162624276Y-78688285D01*
X162726351Y-78764786D01*
X162741946Y-78773324D01*
X162850827Y-78814142D01*
X162907591Y-78856784D01*
X162932291Y-78923345D01*
X162917083Y-78992694D01*
X162897691Y-79019175D01*
X162812053Y-79108790D01*
X162770629Y-79152138D01*
X162767720Y-79156403D01*
X162767714Y-79156411D01*
X162682556Y-79281249D01*
X162644743Y-79336680D01*
X162550688Y-79539305D01*
X162490989Y-79754570D01*
X162490440Y-79759707D01*
X162489545Y-79768079D01*
X162467251Y-79976695D01*
X162480110Y-80199715D01*
X162481247Y-80204761D01*
X162481248Y-80204767D01*
X162499266Y-80284717D01*
X162529222Y-80417639D01*
X162613266Y-80624616D01*
X162650410Y-80685229D01*
X162727291Y-80810688D01*
X162729987Y-80815088D01*
X162876250Y-80983938D01*
X163048126Y-81126632D01*
X163241000Y-81239338D01*
X163449692Y-81319030D01*
X163454760Y-81320061D01*
X163454763Y-81320062D01*
X163562017Y-81341883D01*
X163668597Y-81363567D01*
X163673772Y-81363757D01*
X163673774Y-81363757D01*
X163886673Y-81371564D01*
X163886677Y-81371564D01*
X163891837Y-81371753D01*
X163896957Y-81371097D01*
X163896959Y-81371097D01*
X164108288Y-81344025D01*
X164108289Y-81344025D01*
X164113416Y-81343368D01*
X164118366Y-81341883D01*
X164322429Y-81280661D01*
X164322434Y-81280659D01*
X164327384Y-81279174D01*
X164527994Y-81180896D01*
X164709860Y-81051173D01*
X164868096Y-80893489D01*
X164927594Y-80810689D01*
X164998453Y-80712077D01*
X164999776Y-80713028D01*
X165046645Y-80669857D01*
X165116580Y-80657625D01*
X165182026Y-80685144D01*
X165209875Y-80716994D01*
X165225565Y-80742598D01*
X165269987Y-80815088D01*
X165416250Y-80983938D01*
X165588126Y-81126632D01*
X165781000Y-81239338D01*
X165989692Y-81319030D01*
X165994760Y-81320061D01*
X165994763Y-81320062D01*
X166102017Y-81341883D01*
X166208597Y-81363567D01*
X166213772Y-81363757D01*
X166213774Y-81363757D01*
X166426673Y-81371564D01*
X166426677Y-81371564D01*
X166431837Y-81371753D01*
X166436957Y-81371097D01*
X166436959Y-81371097D01*
X166648288Y-81344025D01*
X166648289Y-81344025D01*
X166653416Y-81343368D01*
X166658366Y-81341883D01*
X166862429Y-81280661D01*
X166862434Y-81280659D01*
X166867384Y-81279174D01*
X167067994Y-81180896D01*
X167249860Y-81051173D01*
X167408096Y-80893489D01*
X167467594Y-80810689D01*
X167535435Y-80716277D01*
X167538453Y-80712077D01*
X167542016Y-80704869D01*
X167635136Y-80516453D01*
X167635137Y-80516451D01*
X167637430Y-80511811D01*
X167646943Y-80480502D01*
X167685882Y-80421140D01*
X167750736Y-80392252D01*
X167820913Y-80403013D01*
X167874131Y-80450006D01*
X167893500Y-80517132D01*
X167893500Y-81534500D01*
X167873498Y-81602621D01*
X167819842Y-81649114D01*
X167767500Y-81660500D01*
X162486250Y-81660500D01*
X162465345Y-81658754D01*
X162450344Y-81656230D01*
X162450341Y-81656230D01*
X162445552Y-81655424D01*
X162439475Y-81655350D01*
X162437865Y-81655330D01*
X162437861Y-81655330D01*
X162433000Y-81655271D01*
X162428184Y-81655961D01*
X162428178Y-81655961D01*
X162412275Y-81658238D01*
X162405399Y-81659030D01*
X162261304Y-81671638D01*
X162261298Y-81671639D01*
X162255812Y-81672119D01*
X162250499Y-81673543D01*
X162250497Y-81673543D01*
X162089318Y-81716731D01*
X162089316Y-81716732D01*
X162084008Y-81718154D01*
X162079027Y-81720477D01*
X162079026Y-81720477D01*
X161927790Y-81790999D01*
X161927787Y-81791001D01*
X161922809Y-81793322D01*
X161777110Y-81895341D01*
X161651341Y-82021110D01*
X161549322Y-82166809D01*
X161474154Y-82328008D01*
X161428119Y-82499812D01*
X161427640Y-82505291D01*
X161415917Y-82639284D01*
X161414896Y-82647688D01*
X161411309Y-82670724D01*
X161412473Y-82679625D01*
X161412473Y-82679630D01*
X161415463Y-82702493D01*
X161416527Y-82718748D01*
X161431903Y-106256443D01*
X161438735Y-116714671D01*
X161438776Y-116778047D01*
X161437405Y-116796664D01*
X161433585Y-116822349D01*
X161434809Y-116831238D01*
X161434809Y-116831244D01*
X161438709Y-116859567D01*
X161438830Y-116860723D01*
X161438831Y-116861973D01*
X161439310Y-116865301D01*
X161443686Y-116895717D01*
X161443792Y-116896474D01*
X161453454Y-116966645D01*
X161454097Y-116968080D01*
X161454321Y-116969637D01*
X161457861Y-116977408D01*
X161457862Y-116977413D01*
X161483659Y-117034051D01*
X161483974Y-117034748D01*
X161511026Y-117095111D01*
X161511031Y-117095121D01*
X161513023Y-117099565D01*
X161514620Y-117102024D01*
X161514696Y-117102192D01*
X161514827Y-117102344D01*
X161519858Y-117110093D01*
X161523101Y-117113715D01*
X161523105Y-117113720D01*
X161533621Y-117125465D01*
X161539420Y-117132431D01*
X161641583Y-117264556D01*
X161644745Y-117267635D01*
X161644748Y-117267639D01*
X161692863Y-117314500D01*
X161782370Y-117401674D01*
X161785940Y-117404287D01*
X161785945Y-117404291D01*
X161937396Y-117515133D01*
X161937400Y-117515135D01*
X161940960Y-117517741D01*
X162114232Y-117610473D01*
X162131320Y-117616730D01*
X162294620Y-117676525D01*
X162294625Y-117676527D01*
X162298775Y-117678046D01*
X162303107Y-117678972D01*
X162486625Y-117718202D01*
X162486628Y-117718202D01*
X162490958Y-117719128D01*
X162606967Y-117727285D01*
X162642392Y-117729776D01*
X162654442Y-117731210D01*
X162674448Y-117734576D01*
X162680991Y-117734656D01*
X162682140Y-117734670D01*
X162682143Y-117734670D01*
X162687000Y-117734729D01*
X162714624Y-117730773D01*
X162732486Y-117729500D01*
X167780406Y-117729500D01*
X167848527Y-117749502D01*
X167895020Y-117803158D01*
X167906379Y-117858084D01*
X167906196Y-117866999D01*
X167894398Y-118442013D01*
X167894142Y-118447264D01*
X167893500Y-118451386D01*
X167893500Y-118484516D01*
X167893473Y-118487101D01*
X167892858Y-118517075D01*
X167893362Y-118521197D01*
X167893500Y-118526644D01*
X167893500Y-119219306D01*
X167873498Y-119287427D01*
X167819842Y-119333920D01*
X167749568Y-119344024D01*
X167684988Y-119314530D01*
X167666673Y-119294871D01*
X167588281Y-119190272D01*
X167575724Y-119177715D01*
X167473649Y-119101214D01*
X167458054Y-119092676D01*
X167337606Y-119047522D01*
X167322351Y-119043895D01*
X167271486Y-119038369D01*
X167264672Y-119038000D01*
X166642115Y-119038000D01*
X166626876Y-119042475D01*
X166625671Y-119043865D01*
X166624000Y-119051548D01*
X166624000Y-120524000D01*
X166603998Y-120592121D01*
X166550342Y-120638614D01*
X166498000Y-120650000D01*
X162490116Y-120650000D01*
X162474877Y-120654475D01*
X162473672Y-120655865D01*
X162472001Y-120663548D01*
X162472001Y-121290669D01*
X162472371Y-121297490D01*
X162477895Y-121348352D01*
X162481521Y-121363604D01*
X162526676Y-121484054D01*
X162535214Y-121499649D01*
X162611715Y-121601724D01*
X162624276Y-121614285D01*
X162726351Y-121690786D01*
X162741946Y-121699324D01*
X162850827Y-121740142D01*
X162907591Y-121782784D01*
X162932291Y-121849345D01*
X162917083Y-121918694D01*
X162897691Y-121945175D01*
X162778530Y-122069870D01*
X162770629Y-122078138D01*
X162644743Y-122262680D01*
X162619611Y-122316822D01*
X162571015Y-122421515D01*
X162550688Y-122465305D01*
X162490989Y-122680570D01*
X162467251Y-122902695D01*
X162467548Y-122907848D01*
X162467548Y-122907851D01*
X162476494Y-123063000D01*
X162480110Y-123125715D01*
X162481247Y-123130761D01*
X162481248Y-123130767D01*
X162481731Y-123132908D01*
X162529222Y-123343639D01*
X162613266Y-123550616D01*
X162664019Y-123633438D01*
X162727291Y-123736688D01*
X162729987Y-123741088D01*
X162876250Y-123909938D01*
X163048126Y-124052632D01*
X163241000Y-124165338D01*
X163245825Y-124167180D01*
X163245826Y-124167181D01*
X163419909Y-124233657D01*
X163476412Y-124276645D01*
X163500705Y-124343356D01*
X163485075Y-124412610D01*
X163434484Y-124462421D01*
X163374887Y-124477367D01*
X158048063Y-124474224D01*
X149476862Y-124469166D01*
X149408753Y-124449124D01*
X149362292Y-124395441D01*
X149352229Y-124325161D01*
X149381760Y-124260597D01*
X149411789Y-124235466D01*
X149414994Y-124233896D01*
X149596860Y-124104173D01*
X149648582Y-124052632D01*
X149721296Y-123980171D01*
X149755096Y-123946489D01*
X149781361Y-123909938D01*
X149882435Y-123769277D01*
X149885453Y-123765077D01*
X149906320Y-123722857D01*
X149982136Y-123569453D01*
X149982137Y-123569451D01*
X149984430Y-123564811D01*
X150049370Y-123351069D01*
X150078529Y-123129590D01*
X150080156Y-123063000D01*
X150061852Y-122840361D01*
X150033821Y-122728765D01*
X150036625Y-122657823D01*
X150066930Y-122608974D01*
X150477770Y-122198134D01*
X151788500Y-122198134D01*
X151795255Y-122260316D01*
X151846385Y-122396705D01*
X151933739Y-122513261D01*
X152050295Y-122600615D01*
X152186684Y-122651745D01*
X152248866Y-122658500D01*
X155345134Y-122658500D01*
X155407316Y-122651745D01*
X155543705Y-122600615D01*
X155660261Y-122513261D01*
X155747615Y-122396705D01*
X155798745Y-122260316D01*
X155800990Y-122239654D01*
X157652618Y-122239654D01*
X157659673Y-122249627D01*
X157690679Y-122275551D01*
X157697598Y-122280579D01*
X157922272Y-122421515D01*
X157929807Y-122425556D01*
X158171520Y-122534694D01*
X158179551Y-122537680D01*
X158433832Y-122613002D01*
X158442184Y-122614869D01*
X158704340Y-122654984D01*
X158712874Y-122655700D01*
X158978045Y-122659867D01*
X158986596Y-122659418D01*
X159249883Y-122627557D01*
X159258284Y-122625955D01*
X159514824Y-122558653D01*
X159522926Y-122555926D01*
X159767949Y-122454434D01*
X159775617Y-122450628D01*
X160004598Y-122316822D01*
X160011679Y-122312009D01*
X160091655Y-122249301D01*
X160100125Y-122237442D01*
X160093608Y-122225818D01*
X158889812Y-121022022D01*
X158875868Y-121014408D01*
X158874035Y-121014539D01*
X158867420Y-121018790D01*
X157659910Y-122226300D01*
X157652618Y-122239654D01*
X155800990Y-122239654D01*
X155805500Y-122198134D01*
X155805500Y-120633204D01*
X156864665Y-120633204D01*
X156879932Y-120897969D01*
X156881005Y-120906470D01*
X156932065Y-121166722D01*
X156934276Y-121174974D01*
X157020184Y-121425894D01*
X157023499Y-121433779D01*
X157142664Y-121670713D01*
X157147020Y-121678079D01*
X157276347Y-121866250D01*
X157286601Y-121874594D01*
X157300342Y-121867448D01*
X158504978Y-120662812D01*
X158511356Y-120651132D01*
X159241408Y-120651132D01*
X159241539Y-120652965D01*
X159245790Y-120659580D01*
X160452730Y-121866520D01*
X160464939Y-121873187D01*
X160476439Y-121864497D01*
X160573831Y-121731913D01*
X160578418Y-121724685D01*
X160704962Y-121491621D01*
X160708530Y-121483827D01*
X160802271Y-121235750D01*
X160804748Y-121227544D01*
X160863954Y-120969038D01*
X160865294Y-120960577D01*
X160889031Y-120694616D01*
X160889277Y-120689677D01*
X160889666Y-120652485D01*
X160889523Y-120647519D01*
X160871362Y-120381123D01*
X160870201Y-120372649D01*
X160818685Y-120123885D01*
X162472000Y-120123885D01*
X162476475Y-120139124D01*
X162477865Y-120140329D01*
X162485548Y-120142000D01*
X163557885Y-120142000D01*
X163573124Y-120137525D01*
X163574329Y-120136135D01*
X163576000Y-120128452D01*
X163576000Y-120123885D01*
X164084000Y-120123885D01*
X164088475Y-120139124D01*
X164089865Y-120140329D01*
X164097548Y-120142000D01*
X166097885Y-120142000D01*
X166113124Y-120137525D01*
X166114329Y-120136135D01*
X166116000Y-120128452D01*
X166116000Y-119056116D01*
X166111525Y-119040877D01*
X166110135Y-119039672D01*
X166102452Y-119038001D01*
X165475331Y-119038001D01*
X165468510Y-119038371D01*
X165417648Y-119043895D01*
X165402396Y-119047521D01*
X165281946Y-119092676D01*
X165266356Y-119101211D01*
X165175565Y-119169255D01*
X165109058Y-119194102D01*
X165039676Y-119179049D01*
X165024435Y-119169255D01*
X164933644Y-119101211D01*
X164918054Y-119092676D01*
X164797606Y-119047522D01*
X164782351Y-119043895D01*
X164731486Y-119038369D01*
X164724672Y-119038000D01*
X164102115Y-119038000D01*
X164086876Y-119042475D01*
X164085671Y-119043865D01*
X164084000Y-119051548D01*
X164084000Y-120123885D01*
X163576000Y-120123885D01*
X163576000Y-119056116D01*
X163571525Y-119040877D01*
X163570135Y-119039672D01*
X163562452Y-119038001D01*
X162935331Y-119038001D01*
X162928510Y-119038371D01*
X162877648Y-119043895D01*
X162862396Y-119047521D01*
X162741946Y-119092676D01*
X162726351Y-119101214D01*
X162624276Y-119177715D01*
X162611715Y-119190276D01*
X162535214Y-119292351D01*
X162526676Y-119307946D01*
X162481522Y-119428394D01*
X162477895Y-119443649D01*
X162472369Y-119494514D01*
X162472000Y-119501328D01*
X162472000Y-120123885D01*
X160818685Y-120123885D01*
X160816419Y-120112944D01*
X160814120Y-120104709D01*
X160725588Y-119854705D01*
X160722191Y-119846854D01*
X160600550Y-119611178D01*
X160596122Y-119603866D01*
X160477031Y-119434417D01*
X160466509Y-119426037D01*
X160453121Y-119433089D01*
X159249022Y-120637188D01*
X159241408Y-120651132D01*
X158511356Y-120651132D01*
X158512592Y-120648868D01*
X158512461Y-120647035D01*
X158508210Y-120640420D01*
X157300814Y-119433024D01*
X157288804Y-119426466D01*
X157277064Y-119435434D01*
X157168935Y-119585911D01*
X157164418Y-119593196D01*
X157040325Y-119827567D01*
X157036839Y-119835395D01*
X156945700Y-120084446D01*
X156943311Y-120092670D01*
X156886812Y-120351795D01*
X156885563Y-120360250D01*
X156864754Y-120624653D01*
X156864665Y-120633204D01*
X155805500Y-120633204D01*
X155805500Y-119101866D01*
X155801224Y-119062500D01*
X157653584Y-119062500D01*
X157659980Y-119073770D01*
X158864188Y-120277978D01*
X158878132Y-120285592D01*
X158879965Y-120285461D01*
X158886580Y-120281210D01*
X160093604Y-119074186D01*
X160100795Y-119061017D01*
X160093473Y-119050780D01*
X160046233Y-119012115D01*
X160039261Y-119007160D01*
X159813122Y-118868582D01*
X159805552Y-118864624D01*
X159562704Y-118758022D01*
X159554644Y-118755120D01*
X159299592Y-118682467D01*
X159291214Y-118680685D01*
X159028656Y-118643318D01*
X159020111Y-118642691D01*
X158754908Y-118641302D01*
X158746374Y-118641839D01*
X158483433Y-118676456D01*
X158475035Y-118678149D01*
X158219238Y-118748127D01*
X158211143Y-118750946D01*
X157967199Y-118854997D01*
X157959577Y-118858881D01*
X157732013Y-118995075D01*
X157724981Y-118999962D01*
X157662053Y-119050377D01*
X157653584Y-119062500D01*
X155801224Y-119062500D01*
X155798745Y-119039684D01*
X155747615Y-118903295D01*
X155660261Y-118786739D01*
X155543705Y-118699385D01*
X155407316Y-118648255D01*
X155345134Y-118641500D01*
X152248866Y-118641500D01*
X152186684Y-118648255D01*
X152050295Y-118699385D01*
X151933739Y-118786739D01*
X151846385Y-118903295D01*
X151795255Y-119039684D01*
X151788500Y-119101866D01*
X151788500Y-122198134D01*
X150477770Y-122198134D01*
X150633247Y-122042657D01*
X150641537Y-122035113D01*
X150648018Y-122031000D01*
X150694659Y-121981332D01*
X150697413Y-121978491D01*
X150717134Y-121958770D01*
X150719612Y-121955575D01*
X150727318Y-121946553D01*
X150752158Y-121920101D01*
X150757586Y-121914321D01*
X150767346Y-121896568D01*
X150778199Y-121880045D01*
X150782427Y-121874594D01*
X150790613Y-121864041D01*
X150808176Y-121823457D01*
X150813383Y-121812827D01*
X150834695Y-121774060D01*
X150836666Y-121766383D01*
X150836668Y-121766378D01*
X150839732Y-121754442D01*
X150846138Y-121735730D01*
X150851034Y-121724417D01*
X150854181Y-121717145D01*
X150855820Y-121706800D01*
X150861097Y-121673481D01*
X150863504Y-121661860D01*
X150872528Y-121626711D01*
X150872528Y-121626710D01*
X150874500Y-121619030D01*
X150874500Y-121598769D01*
X150876051Y-121579058D01*
X150877979Y-121566885D01*
X150879219Y-121559057D01*
X150875059Y-121515046D01*
X150874500Y-121503189D01*
X150874500Y-115884594D01*
X150894502Y-115816473D01*
X150911405Y-115795499D01*
X151736499Y-114970405D01*
X151798811Y-114936379D01*
X151825594Y-114933500D01*
X155750233Y-114933500D01*
X155761416Y-114934027D01*
X155768909Y-114935702D01*
X155776835Y-114935453D01*
X155776836Y-114935453D01*
X155836986Y-114933562D01*
X155840945Y-114933500D01*
X155868856Y-114933500D01*
X155872791Y-114933003D01*
X155872856Y-114932995D01*
X155884693Y-114932062D01*
X155916951Y-114931048D01*
X155920970Y-114930922D01*
X155928889Y-114930673D01*
X155948343Y-114925021D01*
X155967700Y-114921013D01*
X155979930Y-114919468D01*
X155979931Y-114919468D01*
X155987797Y-114918474D01*
X155995168Y-114915555D01*
X155995170Y-114915555D01*
X156028912Y-114902196D01*
X156040142Y-114898351D01*
X156074983Y-114888229D01*
X156074984Y-114888229D01*
X156082593Y-114886018D01*
X156089412Y-114881985D01*
X156089417Y-114881983D01*
X156100028Y-114875707D01*
X156117776Y-114867012D01*
X156136617Y-114859552D01*
X156172387Y-114833564D01*
X156182307Y-114827048D01*
X156185687Y-114825049D01*
X156220362Y-114804542D01*
X156225969Y-114798936D01*
X156234685Y-114790220D01*
X156249719Y-114777379D01*
X156259695Y-114770131D01*
X156259696Y-114770130D01*
X156266107Y-114765472D01*
X156294288Y-114731407D01*
X156302278Y-114722626D01*
X156515258Y-114509647D01*
X156523537Y-114502113D01*
X156530018Y-114498000D01*
X156576645Y-114448347D01*
X156579399Y-114445506D01*
X156599135Y-114425770D01*
X156601615Y-114422573D01*
X156609320Y-114413551D01*
X156634159Y-114387100D01*
X156639586Y-114381321D01*
X156643405Y-114374375D01*
X156643407Y-114374372D01*
X156649348Y-114363566D01*
X156660199Y-114347047D01*
X156667758Y-114337301D01*
X156672614Y-114331041D01*
X156675759Y-114323772D01*
X156675762Y-114323768D01*
X156690174Y-114290463D01*
X156695391Y-114279813D01*
X156716695Y-114241060D01*
X156721733Y-114221437D01*
X156728137Y-114202734D01*
X156733033Y-114191420D01*
X156733033Y-114191419D01*
X156736181Y-114184145D01*
X156737420Y-114176322D01*
X156737423Y-114176312D01*
X156743099Y-114140476D01*
X156745505Y-114128856D01*
X156754528Y-114093711D01*
X156754528Y-114093710D01*
X156756500Y-114086030D01*
X156756500Y-114065776D01*
X156758051Y-114046065D01*
X156759980Y-114033886D01*
X156761220Y-114026057D01*
X156757059Y-113982038D01*
X156756500Y-113970181D01*
X156756500Y-112788522D01*
X158205801Y-112788522D01*
X158244092Y-112931423D01*
X158247842Y-112941727D01*
X158332521Y-113123323D01*
X158337998Y-113132811D01*
X158452925Y-113296942D01*
X158459981Y-113305350D01*
X158601650Y-113447019D01*
X158610058Y-113454075D01*
X158774189Y-113569002D01*
X158783677Y-113574479D01*
X158965273Y-113659158D01*
X158975577Y-113662908D01*
X159113503Y-113699866D01*
X159127599Y-113699530D01*
X159131000Y-113691588D01*
X159131000Y-113686439D01*
X159639000Y-113686439D01*
X159642973Y-113699970D01*
X159651522Y-113701199D01*
X159794423Y-113662908D01*
X159804727Y-113659158D01*
X159986323Y-113574479D01*
X159995811Y-113569002D01*
X160159942Y-113454075D01*
X160168350Y-113447019D01*
X160310019Y-113305350D01*
X160317075Y-113296942D01*
X160432002Y-113132811D01*
X160437479Y-113123323D01*
X160522158Y-112941727D01*
X160525908Y-112931423D01*
X160562866Y-112793497D01*
X160562530Y-112779401D01*
X160554588Y-112776000D01*
X159657115Y-112776000D01*
X159641876Y-112780475D01*
X159640671Y-112781865D01*
X159639000Y-112789548D01*
X159639000Y-113686439D01*
X159131000Y-113686439D01*
X159131000Y-112794115D01*
X159126525Y-112778876D01*
X159125135Y-112777671D01*
X159117452Y-112776000D01*
X158220561Y-112776000D01*
X158207030Y-112779973D01*
X158205801Y-112788522D01*
X156756500Y-112788522D01*
X156756500Y-112250503D01*
X158207134Y-112250503D01*
X158207470Y-112264599D01*
X158215412Y-112268000D01*
X159112885Y-112268000D01*
X159128124Y-112263525D01*
X159129329Y-112262135D01*
X159131000Y-112254452D01*
X159131000Y-112249885D01*
X159639000Y-112249885D01*
X159643475Y-112265124D01*
X159644865Y-112266329D01*
X159652548Y-112268000D01*
X160549439Y-112268000D01*
X160562970Y-112264027D01*
X160564199Y-112255478D01*
X160525908Y-112112577D01*
X160522158Y-112102273D01*
X160437479Y-111920677D01*
X160432002Y-111911189D01*
X160317075Y-111747058D01*
X160310019Y-111738650D01*
X160168350Y-111596981D01*
X160159942Y-111589925D01*
X159995811Y-111474998D01*
X159986323Y-111469521D01*
X159804727Y-111384842D01*
X159794423Y-111381092D01*
X159656497Y-111344134D01*
X159642401Y-111344470D01*
X159639000Y-111352412D01*
X159639000Y-112249885D01*
X159131000Y-112249885D01*
X159131000Y-111357561D01*
X159127027Y-111344030D01*
X159118478Y-111342801D01*
X158975577Y-111381092D01*
X158965273Y-111384842D01*
X158783677Y-111469521D01*
X158774189Y-111474998D01*
X158610058Y-111589925D01*
X158601650Y-111596981D01*
X158459981Y-111738650D01*
X158452925Y-111747058D01*
X158337998Y-111911189D01*
X158332521Y-111920677D01*
X158247842Y-112102273D01*
X158244092Y-112112577D01*
X158207134Y-112250503D01*
X156756500Y-112250503D01*
X156756500Y-108839000D01*
X158298884Y-108839000D01*
X158317314Y-109049655D01*
X158318738Y-109054968D01*
X158318738Y-109054970D01*
X158369176Y-109243205D01*
X158372044Y-109253910D01*
X158374366Y-109258891D01*
X158374367Y-109258892D01*
X158458358Y-109439010D01*
X158461411Y-109445558D01*
X158582699Y-109618776D01*
X158732224Y-109768301D01*
X158905442Y-109889589D01*
X158910420Y-109891910D01*
X158910423Y-109891912D01*
X159092108Y-109976633D01*
X159097090Y-109978956D01*
X159102398Y-109980378D01*
X159102400Y-109980379D01*
X159296030Y-110032262D01*
X159296032Y-110032262D01*
X159301345Y-110033686D01*
X159512000Y-110052116D01*
X159722655Y-110033686D01*
X159727968Y-110032262D01*
X159727970Y-110032262D01*
X159921600Y-109980379D01*
X159921602Y-109980378D01*
X159926910Y-109978956D01*
X159931892Y-109976633D01*
X160113577Y-109891912D01*
X160113580Y-109891910D01*
X160118558Y-109889589D01*
X160291776Y-109768301D01*
X160441301Y-109618776D01*
X160562589Y-109445558D01*
X160565643Y-109439010D01*
X160649633Y-109258892D01*
X160649634Y-109258891D01*
X160651956Y-109253910D01*
X160654825Y-109243205D01*
X160705262Y-109054970D01*
X160705262Y-109054968D01*
X160706686Y-109049655D01*
X160725116Y-108839000D01*
X160706686Y-108628345D01*
X160705262Y-108623030D01*
X160653379Y-108429400D01*
X160653378Y-108429398D01*
X160651956Y-108424090D01*
X160649138Y-108418047D01*
X160564912Y-108237423D01*
X160564910Y-108237420D01*
X160562589Y-108232442D01*
X160441301Y-108059224D01*
X160291776Y-107909699D01*
X160118558Y-107788411D01*
X160113580Y-107786090D01*
X160113577Y-107786088D01*
X159931892Y-107701367D01*
X159931891Y-107701366D01*
X159926910Y-107699044D01*
X159921602Y-107697622D01*
X159921600Y-107697621D01*
X159727970Y-107645738D01*
X159727968Y-107645738D01*
X159722655Y-107644314D01*
X159512000Y-107625884D01*
X159301345Y-107644314D01*
X159296032Y-107645738D01*
X159296030Y-107645738D01*
X159102400Y-107697621D01*
X159102398Y-107697622D01*
X159097090Y-107699044D01*
X159092109Y-107701366D01*
X159092108Y-107701367D01*
X158910423Y-107786088D01*
X158910420Y-107786090D01*
X158905442Y-107788411D01*
X158732224Y-107909699D01*
X158582699Y-108059224D01*
X158461411Y-108232442D01*
X158459090Y-108237420D01*
X158459088Y-108237423D01*
X158374862Y-108418047D01*
X158372044Y-108424090D01*
X158370622Y-108429398D01*
X158370621Y-108429400D01*
X158318738Y-108623030D01*
X158317314Y-108628345D01*
X158298884Y-108839000D01*
X156756500Y-108839000D01*
X156756500Y-105029000D01*
X158425884Y-105029000D01*
X158444314Y-105239655D01*
X158445738Y-105244968D01*
X158445738Y-105244970D01*
X158495940Y-105432324D01*
X158499044Y-105443910D01*
X158588411Y-105635558D01*
X158709699Y-105808776D01*
X158859224Y-105958301D01*
X159032442Y-106079589D01*
X159037420Y-106081910D01*
X159037423Y-106081912D01*
X159219108Y-106166633D01*
X159224090Y-106168956D01*
X159229398Y-106170378D01*
X159229400Y-106170379D01*
X159423030Y-106222262D01*
X159423032Y-106222262D01*
X159428345Y-106223686D01*
X159639000Y-106242116D01*
X159849655Y-106223686D01*
X159854968Y-106222262D01*
X159854970Y-106222262D01*
X160048600Y-106170379D01*
X160048602Y-106170378D01*
X160053910Y-106168956D01*
X160058892Y-106166633D01*
X160240577Y-106081912D01*
X160240580Y-106081910D01*
X160245558Y-106079589D01*
X160418776Y-105958301D01*
X160568301Y-105808776D01*
X160689589Y-105635558D01*
X160778956Y-105443910D01*
X160782061Y-105432324D01*
X160832262Y-105244970D01*
X160832262Y-105244968D01*
X160833686Y-105239655D01*
X160852116Y-105029000D01*
X160833686Y-104818345D01*
X160778956Y-104614090D01*
X160689589Y-104422442D01*
X160568301Y-104249224D01*
X160418776Y-104099699D01*
X160245558Y-103978411D01*
X160240580Y-103976090D01*
X160240577Y-103976088D01*
X160058892Y-103891367D01*
X160058891Y-103891366D01*
X160053910Y-103889044D01*
X160048602Y-103887622D01*
X160048600Y-103887621D01*
X159854970Y-103835738D01*
X159854968Y-103835738D01*
X159849655Y-103834314D01*
X159639000Y-103815884D01*
X159428345Y-103834314D01*
X159423032Y-103835738D01*
X159423030Y-103835738D01*
X159229400Y-103887621D01*
X159229398Y-103887622D01*
X159224090Y-103889044D01*
X159219109Y-103891366D01*
X159219108Y-103891367D01*
X159037423Y-103976088D01*
X159037420Y-103976090D01*
X159032442Y-103978411D01*
X158859224Y-104099699D01*
X158709699Y-104249224D01*
X158588411Y-104422442D01*
X158499044Y-104614090D01*
X158444314Y-104818345D01*
X158425884Y-105029000D01*
X156756500Y-105029000D01*
X156756500Y-103454394D01*
X156776502Y-103386273D01*
X156810229Y-103351181D01*
X156853243Y-103321062D01*
X157901493Y-103321062D01*
X157910789Y-103333077D01*
X157961994Y-103368931D01*
X157971489Y-103374414D01*
X158168947Y-103466490D01*
X158179239Y-103470236D01*
X158389688Y-103526625D01*
X158400481Y-103528528D01*
X158617525Y-103547517D01*
X158628475Y-103547517D01*
X158845519Y-103528528D01*
X158856312Y-103526625D01*
X159066761Y-103470236D01*
X159077053Y-103466490D01*
X159274511Y-103374414D01*
X159284006Y-103368931D01*
X159336048Y-103332491D01*
X159344424Y-103322012D01*
X159337356Y-103308566D01*
X158635812Y-102607022D01*
X158621868Y-102599408D01*
X158620035Y-102599539D01*
X158613420Y-102603790D01*
X157907923Y-103309287D01*
X157901493Y-103321062D01*
X156853243Y-103321062D01*
X156962789Y-103244357D01*
X156962792Y-103244355D01*
X156967300Y-103241198D01*
X157129198Y-103079300D01*
X157260523Y-102891749D01*
X157262847Y-102886765D01*
X157264171Y-102884472D01*
X157315553Y-102835479D01*
X157385267Y-102822043D01*
X157451178Y-102848429D01*
X157482409Y-102884472D01*
X157489066Y-102896002D01*
X157525509Y-102948048D01*
X157535988Y-102956424D01*
X157549434Y-102949356D01*
X158250978Y-102247812D01*
X158257356Y-102236132D01*
X158987408Y-102236132D01*
X158987539Y-102237965D01*
X158991790Y-102244580D01*
X159697287Y-102950077D01*
X159709062Y-102956507D01*
X159721077Y-102947211D01*
X159756931Y-102896006D01*
X159762414Y-102886511D01*
X159854490Y-102689053D01*
X159858236Y-102678761D01*
X159914625Y-102468312D01*
X159916528Y-102457519D01*
X159935517Y-102240475D01*
X159935517Y-102229525D01*
X159916528Y-102012481D01*
X159914625Y-102001688D01*
X159858236Y-101791239D01*
X159854490Y-101780947D01*
X159762414Y-101583489D01*
X159756931Y-101573994D01*
X159720491Y-101521952D01*
X159710012Y-101513576D01*
X159696566Y-101520644D01*
X158995022Y-102222188D01*
X158987408Y-102236132D01*
X158257356Y-102236132D01*
X158258592Y-102233868D01*
X158258461Y-102232035D01*
X158254210Y-102225420D01*
X157548713Y-101519923D01*
X157536938Y-101513493D01*
X157524923Y-101522789D01*
X157489066Y-101573998D01*
X157482409Y-101585528D01*
X157431027Y-101634521D01*
X157361313Y-101647958D01*
X157295402Y-101621571D01*
X157264171Y-101585528D01*
X157262847Y-101583235D01*
X157260523Y-101578251D01*
X157129198Y-101390700D01*
X156967300Y-101228802D01*
X156962792Y-101225645D01*
X156962789Y-101225643D01*
X156851886Y-101147988D01*
X157901576Y-101147988D01*
X157908644Y-101161434D01*
X158610188Y-101862978D01*
X158624132Y-101870592D01*
X158625965Y-101870461D01*
X158632580Y-101866210D01*
X159338077Y-101160713D01*
X159344507Y-101148938D01*
X159335211Y-101136923D01*
X159284006Y-101101069D01*
X159274511Y-101095586D01*
X159077053Y-101003510D01*
X159066761Y-100999764D01*
X158856312Y-100943375D01*
X158845519Y-100941472D01*
X158628475Y-100922483D01*
X158617525Y-100922483D01*
X158400481Y-100941472D01*
X158389688Y-100943375D01*
X158179239Y-100999764D01*
X158168947Y-101003510D01*
X157971489Y-101095586D01*
X157961994Y-101101069D01*
X157909952Y-101137509D01*
X157901576Y-101147988D01*
X156851886Y-101147988D01*
X156836920Y-101137509D01*
X156779749Y-101097477D01*
X156774767Y-101095154D01*
X156774762Y-101095151D01*
X156577225Y-101003039D01*
X156577224Y-101003039D01*
X156572243Y-101000716D01*
X156566935Y-100999294D01*
X156566933Y-100999293D01*
X156356402Y-100942881D01*
X156356400Y-100942881D01*
X156351087Y-100941457D01*
X156123000Y-100921502D01*
X155894913Y-100941457D01*
X155889600Y-100942881D01*
X155889598Y-100942881D01*
X155679067Y-100999293D01*
X155679065Y-100999294D01*
X155673757Y-101000716D01*
X155668776Y-101003039D01*
X155668775Y-101003039D01*
X155471238Y-101095151D01*
X155471233Y-101095154D01*
X155466251Y-101097477D01*
X155409080Y-101137509D01*
X155283211Y-101225643D01*
X155283208Y-101225645D01*
X155278700Y-101228802D01*
X155116802Y-101390700D01*
X154985477Y-101578251D01*
X154983154Y-101583233D01*
X154983151Y-101583238D01*
X154924695Y-101708599D01*
X154877778Y-101761884D01*
X154809501Y-101781345D01*
X154741541Y-101760803D01*
X154695475Y-101706781D01*
X154684500Y-101655349D01*
X154684500Y-101065594D01*
X154704502Y-100997473D01*
X154721405Y-100976499D01*
X155709752Y-99988152D01*
X155772064Y-99954126D01*
X155831459Y-99955541D01*
X155889591Y-99971118D01*
X155889602Y-99971120D01*
X155894913Y-99972543D01*
X156123000Y-99992498D01*
X156351087Y-99972543D01*
X156356400Y-99971119D01*
X156356402Y-99971119D01*
X156566933Y-99914707D01*
X156566935Y-99914706D01*
X156572243Y-99913284D01*
X156578235Y-99910490D01*
X156774762Y-99818849D01*
X156774767Y-99818846D01*
X156779749Y-99816523D01*
X156853243Y-99765062D01*
X157901493Y-99765062D01*
X157910789Y-99777077D01*
X157961994Y-99812931D01*
X157971489Y-99818414D01*
X158168947Y-99910490D01*
X158179239Y-99914236D01*
X158389688Y-99970625D01*
X158400481Y-99972528D01*
X158617525Y-99991517D01*
X158628475Y-99991517D01*
X158845519Y-99972528D01*
X158856312Y-99970625D01*
X159066761Y-99914236D01*
X159077053Y-99910490D01*
X159274511Y-99818414D01*
X159284006Y-99812931D01*
X159336048Y-99776491D01*
X159344424Y-99766012D01*
X159337356Y-99752566D01*
X158635812Y-99051022D01*
X158621868Y-99043408D01*
X158620035Y-99043539D01*
X158613420Y-99047790D01*
X157907923Y-99753287D01*
X157901493Y-99765062D01*
X156853243Y-99765062D01*
X156948209Y-99698566D01*
X156962789Y-99688357D01*
X156962792Y-99688355D01*
X156967300Y-99685198D01*
X157129198Y-99523300D01*
X157260523Y-99335749D01*
X157262847Y-99330765D01*
X157264171Y-99328472D01*
X157315553Y-99279479D01*
X157385267Y-99266043D01*
X157451178Y-99292429D01*
X157482409Y-99328472D01*
X157489066Y-99340002D01*
X157525509Y-99392048D01*
X157535988Y-99400424D01*
X157549434Y-99393356D01*
X158250978Y-98691812D01*
X158257356Y-98680132D01*
X158987408Y-98680132D01*
X158987539Y-98681965D01*
X158991790Y-98688580D01*
X159697287Y-99394077D01*
X159709062Y-99400507D01*
X159721077Y-99391211D01*
X159756931Y-99340006D01*
X159762414Y-99330511D01*
X159854490Y-99133053D01*
X159858236Y-99122761D01*
X159914625Y-98912312D01*
X159916528Y-98901519D01*
X159935517Y-98684475D01*
X159935517Y-98673525D01*
X159916528Y-98456481D01*
X159914625Y-98445688D01*
X159858236Y-98235239D01*
X159854490Y-98224947D01*
X159762414Y-98027489D01*
X159756931Y-98017994D01*
X159720491Y-97965952D01*
X159710012Y-97957576D01*
X159696566Y-97964644D01*
X158995022Y-98666188D01*
X158987408Y-98680132D01*
X158257356Y-98680132D01*
X158258592Y-98677868D01*
X158258461Y-98676035D01*
X158254210Y-98669420D01*
X157548713Y-97963923D01*
X157536938Y-97957493D01*
X157524923Y-97966789D01*
X157489066Y-98017998D01*
X157482409Y-98029528D01*
X157431027Y-98078521D01*
X157361313Y-98091958D01*
X157295402Y-98065571D01*
X157264171Y-98029528D01*
X157262847Y-98027235D01*
X157260523Y-98022251D01*
X157129198Y-97834700D01*
X156967300Y-97672802D01*
X156962792Y-97669645D01*
X156962789Y-97669643D01*
X156851886Y-97591988D01*
X157901576Y-97591988D01*
X157908644Y-97605434D01*
X158610188Y-98306978D01*
X158624132Y-98314592D01*
X158625965Y-98314461D01*
X158632580Y-98310210D01*
X159338077Y-97604713D01*
X159344507Y-97592938D01*
X159335211Y-97580923D01*
X159284006Y-97545069D01*
X159274511Y-97539586D01*
X159077053Y-97447510D01*
X159066761Y-97443764D01*
X158856312Y-97387375D01*
X158845519Y-97385472D01*
X158628475Y-97366483D01*
X158617525Y-97366483D01*
X158400481Y-97385472D01*
X158389688Y-97387375D01*
X158179239Y-97443764D01*
X158168947Y-97447510D01*
X157971489Y-97539586D01*
X157961994Y-97545069D01*
X157909952Y-97581509D01*
X157901576Y-97591988D01*
X156851886Y-97591988D01*
X156836920Y-97581509D01*
X156779749Y-97541477D01*
X156774767Y-97539154D01*
X156774762Y-97539151D01*
X156577225Y-97447039D01*
X156577224Y-97447039D01*
X156572243Y-97444716D01*
X156566935Y-97443294D01*
X156566933Y-97443293D01*
X156356402Y-97386881D01*
X156356400Y-97386881D01*
X156351087Y-97385457D01*
X156123000Y-97365502D01*
X155894913Y-97385457D01*
X155889600Y-97386881D01*
X155889598Y-97386881D01*
X155679067Y-97443293D01*
X155679065Y-97443294D01*
X155673757Y-97444716D01*
X155668776Y-97447039D01*
X155668775Y-97447039D01*
X155471238Y-97539151D01*
X155471233Y-97539154D01*
X155466251Y-97541477D01*
X155409080Y-97581509D01*
X155283211Y-97669643D01*
X155283208Y-97669645D01*
X155278700Y-97672802D01*
X155116802Y-97834700D01*
X154985477Y-98022251D01*
X154983154Y-98027233D01*
X154983151Y-98027238D01*
X154959238Y-98078521D01*
X154888716Y-98229757D01*
X154887294Y-98235065D01*
X154887293Y-98235067D01*
X154836649Y-98424072D01*
X154829457Y-98450913D01*
X154809502Y-98679000D01*
X154829457Y-98907087D01*
X154830880Y-98912398D01*
X154830882Y-98912409D01*
X154846459Y-98970541D01*
X154844770Y-99041517D01*
X154813848Y-99092248D01*
X154226381Y-99679714D01*
X153658747Y-100247348D01*
X153650461Y-100254888D01*
X153643982Y-100259000D01*
X153638557Y-100264777D01*
X153597357Y-100308651D01*
X153594602Y-100311493D01*
X153574865Y-100331230D01*
X153572385Y-100334427D01*
X153564682Y-100343447D01*
X153534414Y-100375679D01*
X153530595Y-100382625D01*
X153530593Y-100382628D01*
X153524652Y-100393434D01*
X153513801Y-100409953D01*
X153501386Y-100425959D01*
X153498241Y-100433228D01*
X153498238Y-100433232D01*
X153483826Y-100466537D01*
X153478609Y-100477187D01*
X153457305Y-100515940D01*
X153455334Y-100523615D01*
X153455334Y-100523616D01*
X153452267Y-100535562D01*
X153445863Y-100554266D01*
X153437819Y-100572855D01*
X153436580Y-100580678D01*
X153436577Y-100580688D01*
X153430901Y-100616524D01*
X153428495Y-100628144D01*
X153417500Y-100670970D01*
X153417500Y-100691224D01*
X153415949Y-100710934D01*
X153412780Y-100730943D01*
X153413526Y-100738835D01*
X153416941Y-100774961D01*
X153417500Y-100786819D01*
X153417500Y-104621923D01*
X153397498Y-104690044D01*
X153343842Y-104736537D01*
X153273568Y-104746641D01*
X153208988Y-104717147D01*
X153169793Y-104654534D01*
X153160379Y-104619400D01*
X153160378Y-104619398D01*
X153158956Y-104614090D01*
X153069589Y-104422442D01*
X152948301Y-104249224D01*
X152798776Y-104099699D01*
X152625558Y-103978411D01*
X152620580Y-103976090D01*
X152620577Y-103976088D01*
X152438892Y-103891367D01*
X152438891Y-103891366D01*
X152433910Y-103889044D01*
X152428602Y-103887622D01*
X152428600Y-103887621D01*
X152234970Y-103835738D01*
X152234968Y-103835738D01*
X152229655Y-103834314D01*
X152019000Y-103815884D01*
X151808345Y-103834314D01*
X151803032Y-103835738D01*
X151803030Y-103835738D01*
X151609400Y-103887621D01*
X151609398Y-103887622D01*
X151604090Y-103889044D01*
X151599109Y-103891366D01*
X151599108Y-103891367D01*
X151417423Y-103976088D01*
X151417420Y-103976090D01*
X151412442Y-103978411D01*
X151239224Y-104099699D01*
X151089699Y-104249224D01*
X150968411Y-104422442D01*
X150879044Y-104614090D01*
X150824314Y-104818345D01*
X150805884Y-105029000D01*
X150806363Y-105034475D01*
X150823835Y-105234175D01*
X150824314Y-105239655D01*
X150825736Y-105244961D01*
X150826547Y-105249561D01*
X150818679Y-105320121D01*
X150791557Y-105360538D01*
X149570595Y-106581500D01*
X149508283Y-106615526D01*
X149437468Y-106610461D01*
X149380632Y-106567914D01*
X149355821Y-106501394D01*
X149355500Y-106492405D01*
X149355500Y-105448366D01*
X149348745Y-105386184D01*
X149297615Y-105249795D01*
X149210261Y-105133239D01*
X149093705Y-105045885D01*
X148957316Y-104994755D01*
X148895134Y-104988000D01*
X147981500Y-104988000D01*
X147913379Y-104967998D01*
X147866886Y-104914342D01*
X147855500Y-104862000D01*
X147855500Y-96641371D01*
X147875502Y-96573250D01*
X147892405Y-96552276D01*
X148108619Y-96336062D01*
X155254493Y-96336062D01*
X155263789Y-96348077D01*
X155314994Y-96383931D01*
X155324489Y-96389414D01*
X155521947Y-96481490D01*
X155532239Y-96485236D01*
X155742688Y-96541625D01*
X155753481Y-96543528D01*
X155970525Y-96562517D01*
X155981475Y-96562517D01*
X156198519Y-96543528D01*
X156209312Y-96541625D01*
X156419761Y-96485236D01*
X156430053Y-96481490D01*
X156627511Y-96389414D01*
X156637006Y-96383931D01*
X156689048Y-96347491D01*
X156697424Y-96337012D01*
X156690356Y-96323566D01*
X155988812Y-95622022D01*
X155974868Y-95614408D01*
X155973035Y-95614539D01*
X155966420Y-95618790D01*
X155260923Y-96324287D01*
X155254493Y-96336062D01*
X148108619Y-96336062D01*
X149189206Y-95255475D01*
X154663483Y-95255475D01*
X154682472Y-95472519D01*
X154684375Y-95483312D01*
X154740764Y-95693761D01*
X154744510Y-95704053D01*
X154836586Y-95901511D01*
X154842069Y-95911006D01*
X154878509Y-95963048D01*
X154888988Y-95971424D01*
X154902434Y-95964356D01*
X155603978Y-95262812D01*
X155610356Y-95251132D01*
X156340408Y-95251132D01*
X156340539Y-95252965D01*
X156344790Y-95259580D01*
X157050287Y-95965077D01*
X157062062Y-95971507D01*
X157074077Y-95962211D01*
X157109934Y-95911002D01*
X157116591Y-95899472D01*
X157167973Y-95850479D01*
X157237687Y-95837042D01*
X157303598Y-95863429D01*
X157334829Y-95899472D01*
X157336153Y-95901765D01*
X157338477Y-95906749D01*
X157341631Y-95911253D01*
X157419052Y-96021821D01*
X157469802Y-96094300D01*
X157631700Y-96256198D01*
X157636208Y-96259355D01*
X157636211Y-96259357D01*
X157672149Y-96284521D01*
X157819251Y-96387523D01*
X157824233Y-96389846D01*
X157824238Y-96389849D01*
X158020765Y-96481490D01*
X158026757Y-96484284D01*
X158032065Y-96485706D01*
X158032067Y-96485707D01*
X158242598Y-96542119D01*
X158242600Y-96542119D01*
X158247913Y-96543543D01*
X158476000Y-96563498D01*
X158704087Y-96543543D01*
X158709400Y-96542119D01*
X158709402Y-96542119D01*
X158919933Y-96485707D01*
X158919935Y-96485706D01*
X158925243Y-96484284D01*
X158931235Y-96481490D01*
X159127762Y-96389849D01*
X159127767Y-96389846D01*
X159132749Y-96387523D01*
X159279851Y-96284521D01*
X159315789Y-96259357D01*
X159315792Y-96259355D01*
X159320300Y-96256198D01*
X159482198Y-96094300D01*
X159532949Y-96021821D01*
X159610366Y-95911257D01*
X159613523Y-95906749D01*
X159615846Y-95901767D01*
X159615849Y-95901762D01*
X159707961Y-95704225D01*
X159707961Y-95704224D01*
X159710284Y-95699243D01*
X159730976Y-95622022D01*
X159768119Y-95483402D01*
X159768119Y-95483400D01*
X159769543Y-95478087D01*
X159789498Y-95250000D01*
X159769543Y-95021913D01*
X159731876Y-94881337D01*
X159711707Y-94806067D01*
X159711706Y-94806065D01*
X159710284Y-94800757D01*
X159707961Y-94795775D01*
X159615849Y-94598238D01*
X159615846Y-94598233D01*
X159613523Y-94593251D01*
X159482198Y-94405700D01*
X159320300Y-94243802D01*
X159315792Y-94240645D01*
X159315789Y-94240643D01*
X159189920Y-94152509D01*
X159132749Y-94112477D01*
X159127767Y-94110154D01*
X159127762Y-94110151D01*
X158930225Y-94018039D01*
X158930224Y-94018039D01*
X158925243Y-94015716D01*
X158919935Y-94014294D01*
X158919933Y-94014293D01*
X158709402Y-93957881D01*
X158709400Y-93957881D01*
X158704087Y-93956457D01*
X158476000Y-93936502D01*
X158247913Y-93956457D01*
X158242600Y-93957881D01*
X158242598Y-93957881D01*
X158032067Y-94014293D01*
X158032065Y-94014294D01*
X158026757Y-94015716D01*
X158021776Y-94018039D01*
X158021775Y-94018039D01*
X157824238Y-94110151D01*
X157824233Y-94110154D01*
X157819251Y-94112477D01*
X157762080Y-94152509D01*
X157636211Y-94240643D01*
X157636208Y-94240645D01*
X157631700Y-94243802D01*
X157469802Y-94405700D01*
X157338477Y-94593251D01*
X157336153Y-94598235D01*
X157334829Y-94600528D01*
X157283447Y-94649521D01*
X157213733Y-94662957D01*
X157147822Y-94636571D01*
X157116591Y-94600528D01*
X157109934Y-94588998D01*
X157073491Y-94536952D01*
X157063012Y-94528576D01*
X157049566Y-94535644D01*
X156348022Y-95237188D01*
X156340408Y-95251132D01*
X155610356Y-95251132D01*
X155611592Y-95248868D01*
X155611461Y-95247035D01*
X155607210Y-95240420D01*
X154901713Y-94534923D01*
X154889938Y-94528493D01*
X154877923Y-94537789D01*
X154842069Y-94588994D01*
X154836586Y-94598489D01*
X154744510Y-94795947D01*
X154740764Y-94806239D01*
X154684375Y-95016688D01*
X154682472Y-95027481D01*
X154663483Y-95244525D01*
X154663483Y-95255475D01*
X149189206Y-95255475D01*
X150281693Y-94162988D01*
X155254576Y-94162988D01*
X155261644Y-94176434D01*
X155963188Y-94877978D01*
X155977132Y-94885592D01*
X155978965Y-94885461D01*
X155985580Y-94881210D01*
X156691077Y-94175713D01*
X156697507Y-94163938D01*
X156688211Y-94151923D01*
X156637006Y-94116069D01*
X156627511Y-94110586D01*
X156430053Y-94018510D01*
X156419761Y-94014764D01*
X156209312Y-93958375D01*
X156198519Y-93956472D01*
X155981475Y-93937483D01*
X155970525Y-93937483D01*
X155753481Y-93956472D01*
X155742688Y-93958375D01*
X155532239Y-94014764D01*
X155521947Y-94018510D01*
X155324489Y-94110586D01*
X155314994Y-94116069D01*
X155262952Y-94152509D01*
X155254576Y-94162988D01*
X150281693Y-94162988D01*
X154713639Y-89731042D01*
X154775951Y-89697016D01*
X154827855Y-89696667D01*
X154928645Y-89717173D01*
X154928653Y-89717174D01*
X154933716Y-89718204D01*
X155068089Y-89723131D01*
X155168225Y-89726803D01*
X155168229Y-89726803D01*
X155173389Y-89726992D01*
X155178509Y-89726336D01*
X155178511Y-89726336D01*
X155406151Y-89697175D01*
X155406152Y-89697175D01*
X155411279Y-89696518D01*
X155416229Y-89695033D01*
X155636042Y-89629086D01*
X155636047Y-89629084D01*
X155640997Y-89627599D01*
X155856374Y-89522087D01*
X155934391Y-89466438D01*
X156017368Y-89407252D01*
X156084441Y-89383978D01*
X156153450Y-89400662D01*
X156201055Y-89449321D01*
X156203235Y-89453303D01*
X156206385Y-89461705D01*
X156293739Y-89578261D01*
X156410295Y-89665615D01*
X156546684Y-89716745D01*
X156608866Y-89723500D01*
X158605134Y-89723500D01*
X158667316Y-89716745D01*
X158803705Y-89665615D01*
X158920261Y-89578261D01*
X159007615Y-89461705D01*
X159058745Y-89325316D01*
X159065500Y-89263134D01*
X159065500Y-87266866D01*
X159058745Y-87204684D01*
X159007615Y-87068295D01*
X158920261Y-86951739D01*
X158803705Y-86864385D01*
X158667316Y-86813255D01*
X158605134Y-86806500D01*
X156608866Y-86806500D01*
X156546684Y-86813255D01*
X156410295Y-86864385D01*
X156293739Y-86951739D01*
X156288358Y-86958919D01*
X156211771Y-87061109D01*
X156206385Y-87068295D01*
X156203235Y-87076699D01*
X156200124Y-87082380D01*
X156149865Y-87132525D01*
X156080474Y-87147538D01*
X156011513Y-87120751D01*
X155937617Y-87062392D01*
X155916888Y-87046021D01*
X155706922Y-86930113D01*
X155571236Y-86882064D01*
X155485720Y-86851781D01*
X155485716Y-86851780D01*
X155480845Y-86850055D01*
X155475752Y-86849148D01*
X155475749Y-86849147D01*
X155249816Y-86808902D01*
X155249810Y-86808901D01*
X155244727Y-86807996D01*
X155152484Y-86806869D01*
X155010081Y-86805129D01*
X155010079Y-86805129D01*
X155004911Y-86805066D01*
X154767837Y-86841343D01*
X154539871Y-86915854D01*
X154470937Y-86951739D01*
X154359359Y-87009823D01*
X154327136Y-87026597D01*
X154323003Y-87029700D01*
X154323000Y-87029702D01*
X154139480Y-87167493D01*
X154135345Y-87170598D01*
X154131773Y-87174336D01*
X154021682Y-87289540D01*
X153969648Y-87343990D01*
X153961577Y-87355822D01*
X153906666Y-87400823D01*
X153836141Y-87408994D01*
X153772394Y-87377739D01*
X153764313Y-87369633D01*
X153605104Y-87194665D01*
X153601053Y-87191466D01*
X153601049Y-87191462D01*
X153437617Y-87062392D01*
X153416888Y-87046021D01*
X153206922Y-86930113D01*
X153071236Y-86882064D01*
X152985720Y-86851781D01*
X152985716Y-86851780D01*
X152980845Y-86850055D01*
X152975752Y-86849148D01*
X152975749Y-86849147D01*
X152749816Y-86808902D01*
X152749810Y-86808901D01*
X152744727Y-86807996D01*
X152652484Y-86806869D01*
X152510081Y-86805129D01*
X152510079Y-86805129D01*
X152504911Y-86805066D01*
X152267837Y-86841343D01*
X152039871Y-86915854D01*
X151970937Y-86951739D01*
X151859359Y-87009823D01*
X151827136Y-87026597D01*
X151823003Y-87029700D01*
X151823000Y-87029702D01*
X151639480Y-87167493D01*
X151635345Y-87170598D01*
X151631773Y-87174336D01*
X151521682Y-87289540D01*
X151469648Y-87343990D01*
X151334495Y-87542117D01*
X151233516Y-87759656D01*
X151169424Y-87990768D01*
X151143938Y-88229244D01*
X151157744Y-88468680D01*
X151158879Y-88473717D01*
X151158880Y-88473723D01*
X151169626Y-88521407D01*
X151210470Y-88702646D01*
X151300702Y-88924859D01*
X151426014Y-89129351D01*
X151429398Y-89133257D01*
X151429399Y-89133259D01*
X151459398Y-89167891D01*
X151583043Y-89310630D01*
X151767571Y-89463828D01*
X151974643Y-89584831D01*
X152198697Y-89670389D01*
X152203758Y-89671419D01*
X152203773Y-89671423D01*
X152326407Y-89696373D01*
X152389172Y-89729554D01*
X152424034Y-89791402D01*
X152419925Y-89862280D01*
X152390381Y-89908938D01*
X146608089Y-95691230D01*
X146593677Y-95703616D01*
X146582082Y-95712149D01*
X146582077Y-95712154D01*
X146576182Y-95716492D01*
X146571443Y-95722070D01*
X146571440Y-95722073D01*
X146541965Y-95756768D01*
X146535035Y-95764284D01*
X146529340Y-95769979D01*
X146527060Y-95772861D01*
X146511719Y-95792251D01*
X146508928Y-95795655D01*
X146473767Y-95837042D01*
X146461667Y-95851285D01*
X146458339Y-95857801D01*
X146454972Y-95862850D01*
X146451805Y-95867979D01*
X146447266Y-95873716D01*
X146416345Y-95939875D01*
X146414442Y-95943769D01*
X146381231Y-96008808D01*
X146379492Y-96015916D01*
X146377393Y-96021559D01*
X146375476Y-96027322D01*
X146372378Y-96033950D01*
X146360764Y-96089789D01*
X146357514Y-96105412D01*
X146356544Y-96109696D01*
X146339192Y-96180610D01*
X146338500Y-96191764D01*
X146338464Y-96191762D01*
X146338225Y-96195755D01*
X146337851Y-96199947D01*
X146336360Y-96207115D01*
X146336558Y-96214432D01*
X146338454Y-96284521D01*
X146338500Y-96287928D01*
X146338500Y-104862000D01*
X146318498Y-104930121D01*
X146264842Y-104976614D01*
X146212500Y-104988000D01*
X145298866Y-104988000D01*
X145236684Y-104994755D01*
X145100295Y-105045885D01*
X144983739Y-105133239D01*
X144896385Y-105249795D01*
X144845255Y-105386184D01*
X144838500Y-105448366D01*
X144838500Y-109044634D01*
X144845255Y-109106816D01*
X144896385Y-109243205D01*
X144983739Y-109359761D01*
X144990919Y-109365142D01*
X145089481Y-109439010D01*
X145100295Y-109447115D01*
X145108700Y-109450266D01*
X145111831Y-109451980D01*
X145161977Y-109502238D01*
X145176991Y-109571629D01*
X145152106Y-109638122D01*
X145095222Y-109680605D01*
X145051322Y-109688500D01*
X144369115Y-109688500D01*
X144353876Y-109692975D01*
X144352671Y-109694365D01*
X144351000Y-109702048D01*
X144351000Y-111674385D01*
X144355475Y-111689624D01*
X144356865Y-111690829D01*
X144364548Y-111692500D01*
X146336885Y-111692500D01*
X146352124Y-111688025D01*
X146353329Y-111686635D01*
X146355000Y-111678952D01*
X146355000Y-110980870D01*
X146354909Y-110977484D01*
X146352118Y-110925955D01*
X146351045Y-110917311D01*
X146307920Y-110696482D01*
X146305006Y-110686254D01*
X146225636Y-110476760D01*
X146221038Y-110467162D01*
X146107507Y-110274040D01*
X146101354Y-110265351D01*
X145956899Y-110094108D01*
X145949392Y-110086601D01*
X145778149Y-109942146D01*
X145769460Y-109935993D01*
X145576338Y-109822462D01*
X145566740Y-109817864D01*
X145384520Y-109748827D01*
X145327904Y-109705988D01*
X145303436Y-109639341D01*
X145318885Y-109570045D01*
X145369345Y-109520103D01*
X145429160Y-109505000D01*
X148846500Y-109505000D01*
X148914621Y-109525002D01*
X148961114Y-109578658D01*
X148972500Y-109631000D01*
X148972500Y-115890406D01*
X148952498Y-115958527D01*
X148935595Y-115979501D01*
X146205500Y-118709595D01*
X146143188Y-118743621D01*
X146116405Y-118746500D01*
X136204595Y-118746500D01*
X136136474Y-118726498D01*
X136115499Y-118709595D01*
X135676404Y-118270499D01*
X135642379Y-118208187D01*
X135639500Y-118181404D01*
X135639500Y-117795752D01*
X135659502Y-117727631D01*
X135710068Y-117682601D01*
X135719366Y-117678046D01*
X135725043Y-117675265D01*
X135725047Y-117675263D01*
X135729684Y-117672991D01*
X135733888Y-117669993D01*
X135733892Y-117669990D01*
X135820257Y-117608386D01*
X135918243Y-117538494D01*
X135921898Y-117534852D01*
X135921906Y-117534845D01*
X135963697Y-117493199D01*
X136026068Y-117459282D01*
X136096875Y-117464470D01*
X136153637Y-117507116D01*
X136170619Y-117538218D01*
X136192677Y-117597056D01*
X136201214Y-117612649D01*
X136277715Y-117714724D01*
X136290276Y-117727285D01*
X136392351Y-117803786D01*
X136407946Y-117812324D01*
X136528394Y-117857478D01*
X136543649Y-117861105D01*
X136594514Y-117866631D01*
X136601328Y-117867000D01*
X137273885Y-117867000D01*
X137289124Y-117862525D01*
X137290329Y-117861135D01*
X137292000Y-117853452D01*
X137292000Y-117848884D01*
X137800000Y-117848884D01*
X137804475Y-117864123D01*
X137805865Y-117865328D01*
X137813548Y-117866999D01*
X138490669Y-117866999D01*
X138497490Y-117866629D01*
X138548352Y-117861105D01*
X138563604Y-117857479D01*
X138684054Y-117812324D01*
X138699649Y-117803786D01*
X138801724Y-117727285D01*
X138814285Y-117714724D01*
X138890786Y-117612649D01*
X138899324Y-117597054D01*
X138944478Y-117476606D01*
X138948105Y-117461351D01*
X138953631Y-117410486D01*
X138954000Y-117403672D01*
X138954000Y-116731115D01*
X138949525Y-116715876D01*
X138948135Y-116714671D01*
X138940452Y-116713000D01*
X137818115Y-116713000D01*
X137802876Y-116717475D01*
X137801671Y-116718865D01*
X137800000Y-116726548D01*
X137800000Y-117848884D01*
X137292000Y-117848884D01*
X137292000Y-116186885D01*
X137800000Y-116186885D01*
X137804475Y-116202124D01*
X137805865Y-116203329D01*
X137813548Y-116205000D01*
X138935884Y-116205000D01*
X138951123Y-116200525D01*
X138952328Y-116199135D01*
X138953999Y-116191452D01*
X138953999Y-115514331D01*
X138953629Y-115507510D01*
X138948105Y-115456648D01*
X138944479Y-115441396D01*
X138899324Y-115320946D01*
X138890786Y-115305351D01*
X138814285Y-115203276D01*
X138801724Y-115190715D01*
X138699649Y-115114214D01*
X138684054Y-115105676D01*
X138563606Y-115060522D01*
X138548351Y-115056895D01*
X138497486Y-115051369D01*
X138490672Y-115051000D01*
X137818115Y-115051000D01*
X137802876Y-115055475D01*
X137801671Y-115056865D01*
X137800000Y-115064548D01*
X137800000Y-116186885D01*
X137292000Y-116186885D01*
X137292000Y-115069116D01*
X137287525Y-115053877D01*
X137286135Y-115052672D01*
X137278452Y-115051001D01*
X136601331Y-115051001D01*
X136594510Y-115051371D01*
X136543648Y-115056895D01*
X136528396Y-115060521D01*
X136407946Y-115105676D01*
X136392351Y-115114214D01*
X136290276Y-115190715D01*
X136277715Y-115203276D01*
X136201214Y-115305351D01*
X136192675Y-115320948D01*
X136171934Y-115376275D01*
X136129293Y-115433040D01*
X136062731Y-115457740D01*
X135993383Y-115442533D01*
X135970388Y-115425909D01*
X135969887Y-115425358D01*
X135907737Y-115376275D01*
X135792177Y-115285011D01*
X135792172Y-115285008D01*
X135788123Y-115281810D01*
X135783607Y-115279317D01*
X135783604Y-115279315D01*
X135589879Y-115172373D01*
X135589875Y-115172371D01*
X135585355Y-115169876D01*
X135580486Y-115168152D01*
X135580482Y-115168150D01*
X135371903Y-115094288D01*
X135371899Y-115094287D01*
X135367028Y-115092562D01*
X135361935Y-115091655D01*
X135361932Y-115091654D01*
X135144095Y-115052851D01*
X135144089Y-115052850D01*
X135139006Y-115051945D01*
X135061644Y-115051000D01*
X134912581Y-115049179D01*
X134912579Y-115049179D01*
X134907411Y-115049116D01*
X134678464Y-115084150D01*
X134458314Y-115156106D01*
X134453726Y-115158494D01*
X134453722Y-115158496D01*
X134257461Y-115260663D01*
X134252872Y-115263052D01*
X134248739Y-115266155D01*
X134248736Y-115266157D01*
X134102073Y-115376275D01*
X134067655Y-115402117D01*
X133907639Y-115569564D01*
X133777119Y-115760899D01*
X133679602Y-115970981D01*
X133617707Y-116194169D01*
X133614074Y-116228167D01*
X133601787Y-116343136D01*
X133574659Y-116408746D01*
X133516367Y-116449274D01*
X133445417Y-116451853D01*
X133384336Y-116415664D01*
X133352516Y-116352197D01*
X133350500Y-116329747D01*
X133350500Y-112912131D01*
X141839000Y-112912131D01*
X141839091Y-112915516D01*
X141841882Y-112967045D01*
X141842955Y-112975689D01*
X141886080Y-113196518D01*
X141888994Y-113206746D01*
X141968364Y-113416240D01*
X141972962Y-113425838D01*
X142086493Y-113618960D01*
X142092646Y-113627649D01*
X142237101Y-113798892D01*
X142244608Y-113806399D01*
X142415851Y-113950854D01*
X142424540Y-113957007D01*
X142617662Y-114070538D01*
X142627260Y-114075136D01*
X142836754Y-114154506D01*
X142846982Y-114157420D01*
X143067811Y-114200545D01*
X143076455Y-114201618D01*
X143127984Y-114204409D01*
X143131369Y-114204500D01*
X143824885Y-114204500D01*
X143840124Y-114200025D01*
X143841329Y-114198635D01*
X143843000Y-114190952D01*
X143843000Y-114186385D01*
X144351000Y-114186385D01*
X144355475Y-114201624D01*
X144356865Y-114202829D01*
X144364548Y-114204500D01*
X145062631Y-114204500D01*
X145066016Y-114204409D01*
X145117545Y-114201618D01*
X145126189Y-114200545D01*
X145347018Y-114157420D01*
X145357246Y-114154506D01*
X145566740Y-114075136D01*
X145576338Y-114070538D01*
X145769460Y-113957007D01*
X145778149Y-113950854D01*
X145949392Y-113806399D01*
X145956899Y-113798892D01*
X146101354Y-113627649D01*
X146107507Y-113618960D01*
X146221038Y-113425838D01*
X146225636Y-113416240D01*
X146305006Y-113206746D01*
X146307920Y-113196518D01*
X146351045Y-112975689D01*
X146352118Y-112967045D01*
X146354909Y-112915516D01*
X146355000Y-112912131D01*
X146355000Y-112218615D01*
X146350525Y-112203376D01*
X146349135Y-112202171D01*
X146341452Y-112200500D01*
X144369115Y-112200500D01*
X144353876Y-112204975D01*
X144352671Y-112206365D01*
X144351000Y-112214048D01*
X144351000Y-114186385D01*
X143843000Y-114186385D01*
X143843000Y-112218615D01*
X143838525Y-112203376D01*
X143837135Y-112202171D01*
X143829452Y-112200500D01*
X141857115Y-112200500D01*
X141841876Y-112204975D01*
X141840671Y-112206365D01*
X141839000Y-112214048D01*
X141839000Y-112912131D01*
X133350500Y-112912131D01*
X133350500Y-111674385D01*
X141839000Y-111674385D01*
X141843475Y-111689624D01*
X141844865Y-111690829D01*
X141852548Y-111692500D01*
X143824885Y-111692500D01*
X143840124Y-111688025D01*
X143841329Y-111686635D01*
X143843000Y-111678952D01*
X143843000Y-109706615D01*
X143838525Y-109691376D01*
X143837135Y-109690171D01*
X143829452Y-109688500D01*
X143131370Y-109688500D01*
X143127984Y-109688591D01*
X143076455Y-109691382D01*
X143067811Y-109692455D01*
X142846982Y-109735580D01*
X142836754Y-109738494D01*
X142627260Y-109817864D01*
X142617662Y-109822462D01*
X142424540Y-109935993D01*
X142415851Y-109942146D01*
X142244608Y-110086601D01*
X142237101Y-110094108D01*
X142092646Y-110265351D01*
X142086493Y-110274040D01*
X141972962Y-110467162D01*
X141968364Y-110476760D01*
X141888994Y-110686254D01*
X141886080Y-110696482D01*
X141842955Y-110917311D01*
X141841882Y-110925955D01*
X141839091Y-110977484D01*
X141839000Y-110980870D01*
X141839000Y-111674385D01*
X133350500Y-111674385D01*
X133350500Y-108306461D01*
X139089001Y-108306461D01*
X139089209Y-108311571D01*
X139100082Y-108445267D01*
X139101852Y-108455820D01*
X139154967Y-108662685D01*
X139158701Y-108673231D01*
X139247510Y-108867205D01*
X139253046Y-108876912D01*
X139374803Y-109052097D01*
X139381976Y-109060676D01*
X139532824Y-109211524D01*
X139541403Y-109218697D01*
X139716588Y-109340454D01*
X139726295Y-109345990D01*
X139920269Y-109434799D01*
X139930815Y-109438533D01*
X140137679Y-109491647D01*
X140148234Y-109493418D01*
X140281930Y-109504293D01*
X140287036Y-109504500D01*
X140824885Y-109504500D01*
X140840124Y-109500025D01*
X140841329Y-109498635D01*
X140843000Y-109490952D01*
X140843000Y-109486384D01*
X141351000Y-109486384D01*
X141355475Y-109501623D01*
X141356865Y-109502828D01*
X141364548Y-109504499D01*
X141906961Y-109504499D01*
X141912071Y-109504291D01*
X142045767Y-109493418D01*
X142056320Y-109491648D01*
X142263185Y-109438533D01*
X142273731Y-109434799D01*
X142467705Y-109345990D01*
X142477412Y-109340454D01*
X142652597Y-109218697D01*
X142661176Y-109211524D01*
X142812024Y-109060676D01*
X142819197Y-109052097D01*
X142940954Y-108876912D01*
X142946490Y-108867205D01*
X143035299Y-108673231D01*
X143039033Y-108662685D01*
X143092147Y-108455821D01*
X143093918Y-108445266D01*
X143104793Y-108311570D01*
X143105000Y-108306464D01*
X143105000Y-107518615D01*
X143100525Y-107503376D01*
X143099135Y-107502171D01*
X143091452Y-107500500D01*
X141369115Y-107500500D01*
X141353876Y-107504975D01*
X141352671Y-107506365D01*
X141351000Y-107514048D01*
X141351000Y-109486384D01*
X140843000Y-109486384D01*
X140843000Y-107518615D01*
X140838525Y-107503376D01*
X140837135Y-107502171D01*
X140829452Y-107500500D01*
X139107116Y-107500500D01*
X139091877Y-107504975D01*
X139090672Y-107506365D01*
X139089001Y-107514048D01*
X139089001Y-108306461D01*
X133350500Y-108306461D01*
X133350500Y-106974385D01*
X139089000Y-106974385D01*
X139093475Y-106989624D01*
X139094865Y-106990829D01*
X139102548Y-106992500D01*
X140824885Y-106992500D01*
X140840124Y-106988025D01*
X140841329Y-106986635D01*
X140843000Y-106978952D01*
X140843000Y-106974385D01*
X141351000Y-106974385D01*
X141355475Y-106989624D01*
X141356865Y-106990829D01*
X141364548Y-106992500D01*
X143086884Y-106992500D01*
X143102123Y-106988025D01*
X143103328Y-106986635D01*
X143104999Y-106978952D01*
X143104999Y-106186539D01*
X143104791Y-106181429D01*
X143093918Y-106047733D01*
X143092148Y-106037180D01*
X143039033Y-105830315D01*
X143035299Y-105819769D01*
X142946490Y-105625795D01*
X142940954Y-105616088D01*
X142819197Y-105440903D01*
X142812024Y-105432324D01*
X142661176Y-105281476D01*
X142652597Y-105274303D01*
X142477412Y-105152546D01*
X142467705Y-105147010D01*
X142273731Y-105058201D01*
X142263185Y-105054467D01*
X142056321Y-105001353D01*
X142045766Y-104999582D01*
X141912070Y-104988707D01*
X141906964Y-104988500D01*
X141369115Y-104988500D01*
X141353876Y-104992975D01*
X141352671Y-104994365D01*
X141351000Y-105002048D01*
X141351000Y-106974385D01*
X140843000Y-106974385D01*
X140843000Y-105006616D01*
X140838525Y-104991377D01*
X140837135Y-104990172D01*
X140829452Y-104988501D01*
X140287039Y-104988501D01*
X140281929Y-104988709D01*
X140148233Y-104999582D01*
X140137680Y-105001352D01*
X139930815Y-105054467D01*
X139920269Y-105058201D01*
X139726295Y-105147010D01*
X139716588Y-105152546D01*
X139541403Y-105274303D01*
X139532824Y-105281476D01*
X139381976Y-105432324D01*
X139374803Y-105440903D01*
X139253046Y-105616088D01*
X139247510Y-105625795D01*
X139158701Y-105819769D01*
X139154967Y-105830315D01*
X139101853Y-106037179D01*
X139100082Y-106047734D01*
X139089207Y-106181430D01*
X139089000Y-106186536D01*
X139089000Y-106974385D01*
X133350500Y-106974385D01*
X133350500Y-99346134D01*
X134683000Y-99346134D01*
X134689755Y-99408316D01*
X134740885Y-99544705D01*
X134828239Y-99661261D01*
X134944795Y-99748615D01*
X135081184Y-99799745D01*
X135143366Y-99806500D01*
X137144634Y-99806500D01*
X137206816Y-99799745D01*
X137343205Y-99748615D01*
X137459761Y-99661261D01*
X137547115Y-99544705D01*
X137554758Y-99524317D01*
X137597401Y-99467553D01*
X137663962Y-99442854D01*
X137733311Y-99458062D01*
X137750832Y-99469666D01*
X137868944Y-99562945D01*
X137877531Y-99568650D01*
X138078722Y-99679714D01*
X138088134Y-99683944D01*
X138304768Y-99760659D01*
X138314739Y-99763293D01*
X138412163Y-99780647D01*
X138425460Y-99779187D01*
X138430000Y-99764630D01*
X138430000Y-96829904D01*
X138426082Y-96816560D01*
X138411806Y-96814573D01*
X138349485Y-96824110D01*
X138339457Y-96826499D01*
X138121012Y-96897898D01*
X138111503Y-96901895D01*
X137907656Y-97008011D01*
X137898939Y-97013500D01*
X137747901Y-97126902D01*
X137681416Y-97151807D01*
X137612020Y-97136814D01*
X137561747Y-97086684D01*
X137554268Y-97070375D01*
X137547115Y-97051295D01*
X137459761Y-96934739D01*
X137343205Y-96847385D01*
X137206816Y-96796255D01*
X137144634Y-96789500D01*
X136903500Y-96789500D01*
X136835379Y-96769498D01*
X136788886Y-96715842D01*
X136777500Y-96663500D01*
X136777500Y-95691594D01*
X136797502Y-95623473D01*
X136814405Y-95602499D01*
X141616253Y-90800652D01*
X141624539Y-90793112D01*
X141631018Y-90789000D01*
X141677644Y-90739348D01*
X141680398Y-90736507D01*
X141700135Y-90716770D01*
X141702615Y-90713573D01*
X141710320Y-90704551D01*
X141740586Y-90672321D01*
X141744405Y-90665375D01*
X141744407Y-90665372D01*
X141750348Y-90654566D01*
X141761199Y-90638047D01*
X141768758Y-90628301D01*
X141773614Y-90622041D01*
X141776759Y-90614772D01*
X141776762Y-90614768D01*
X141791174Y-90581463D01*
X141796391Y-90570813D01*
X141817695Y-90532060D01*
X141822733Y-90512437D01*
X141829137Y-90493734D01*
X141834033Y-90482420D01*
X141834033Y-90482419D01*
X141837181Y-90475145D01*
X141838420Y-90467322D01*
X141838423Y-90467312D01*
X141844099Y-90431476D01*
X141846505Y-90419856D01*
X141855528Y-90384711D01*
X141855528Y-90384710D01*
X141857500Y-90377030D01*
X141857500Y-90356776D01*
X141859051Y-90337065D01*
X141860980Y-90324886D01*
X141862220Y-90317057D01*
X141858059Y-90273038D01*
X141857500Y-90261181D01*
X141857500Y-89833371D01*
X141877502Y-89765250D01*
X141925320Y-89721608D01*
X142000611Y-89682414D01*
X142000612Y-89682413D01*
X142005200Y-89680025D01*
X142009333Y-89676922D01*
X142009336Y-89676920D01*
X142193185Y-89538882D01*
X142193188Y-89538880D01*
X142197320Y-89535777D01*
X142363301Y-89362088D01*
X142440891Y-89248345D01*
X142495774Y-89167891D01*
X142495775Y-89167890D01*
X142498686Y-89163622D01*
X142516640Y-89124945D01*
X142597658Y-88950405D01*
X142597659Y-88950401D01*
X142599837Y-88945710D01*
X142664040Y-88714202D01*
X142685000Y-88518072D01*
X142685000Y-88283598D01*
X142680532Y-88229244D01*
X142670746Y-88110224D01*
X142670322Y-88105063D01*
X142611794Y-87872056D01*
X142515997Y-87651737D01*
X142405426Y-87480821D01*
X142388310Y-87454363D01*
X142388308Y-87454360D01*
X142385502Y-87450023D01*
X142223814Y-87272330D01*
X142121417Y-87191462D01*
X142039330Y-87126633D01*
X142039325Y-87126630D01*
X142035276Y-87123432D01*
X142030760Y-87120939D01*
X142030757Y-87120937D01*
X141829474Y-87009823D01*
X141829470Y-87009821D01*
X141824950Y-87007326D01*
X141820081Y-87005602D01*
X141820077Y-87005600D01*
X141603360Y-86928856D01*
X141603356Y-86928855D01*
X141598485Y-86927130D01*
X141593392Y-86926223D01*
X141593389Y-86926222D01*
X141367052Y-86885905D01*
X141367046Y-86885904D01*
X141361963Y-86884999D01*
X141269474Y-86883869D01*
X141126907Y-86882127D01*
X141126905Y-86882127D01*
X141121737Y-86882064D01*
X140884256Y-86918404D01*
X140785663Y-86950629D01*
X140660817Y-86991434D01*
X140660811Y-86991437D01*
X140655899Y-86993042D01*
X140651313Y-86995429D01*
X140651309Y-86995431D01*
X140484283Y-87082380D01*
X140442800Y-87103975D01*
X140420209Y-87120937D01*
X140255013Y-87244970D01*
X140250680Y-87248223D01*
X140084699Y-87421912D01*
X140059465Y-87458903D01*
X140004556Y-87503904D01*
X139934032Y-87512075D01*
X139870284Y-87480821D01*
X139849589Y-87456340D01*
X139848311Y-87454365D01*
X139845502Y-87450023D01*
X139683814Y-87272330D01*
X139581417Y-87191462D01*
X139499331Y-87126634D01*
X139499328Y-87126632D01*
X139495276Y-87123432D01*
X139490420Y-87120751D01*
X139395395Y-87068295D01*
X139382606Y-87061235D01*
X139332636Y-87010803D01*
X139317500Y-86950927D01*
X139317500Y-79054594D01*
X139337502Y-78986473D01*
X139354405Y-78965499D01*
X140941500Y-77378405D01*
X141003812Y-77344379D01*
X141030595Y-77341500D01*
X142533500Y-77341500D01*
X142601621Y-77361502D01*
X142648114Y-77415158D01*
X142659500Y-77467500D01*
X142659500Y-77606134D01*
X142666255Y-77668316D01*
X142717385Y-77804705D01*
X142804739Y-77921261D01*
X142921295Y-78008615D01*
X143057684Y-78059745D01*
X143119866Y-78066500D01*
X144916134Y-78066500D01*
X144978316Y-78059745D01*
X145114705Y-78008615D01*
X145231261Y-77921261D01*
X145318615Y-77804705D01*
X145343791Y-77737548D01*
X145362598Y-77687382D01*
X145405240Y-77630618D01*
X145471802Y-77605918D01*
X145541150Y-77621126D01*
X145575817Y-77649114D01*
X145604250Y-77681938D01*
X145776126Y-77824632D01*
X145969000Y-77937338D01*
X146177692Y-78017030D01*
X146182760Y-78018061D01*
X146182763Y-78018062D01*
X146290017Y-78039883D01*
X146396597Y-78061567D01*
X146401772Y-78061757D01*
X146401774Y-78061757D01*
X146614673Y-78069564D01*
X146614677Y-78069564D01*
X146619837Y-78069753D01*
X146624957Y-78069097D01*
X146624959Y-78069097D01*
X146836288Y-78042025D01*
X146836289Y-78042025D01*
X146841416Y-78041368D01*
X146846366Y-78039883D01*
X147050429Y-77978661D01*
X147050434Y-77978659D01*
X147055384Y-77977174D01*
X147255994Y-77878896D01*
X147437860Y-77749173D01*
X147458631Y-77728475D01*
X147581616Y-77605918D01*
X147596096Y-77591489D01*
X147650314Y-77516037D01*
X147726453Y-77410077D01*
X147727776Y-77411028D01*
X147774645Y-77367857D01*
X147844580Y-77355625D01*
X147910026Y-77383144D01*
X147937875Y-77414994D01*
X147953852Y-77441066D01*
X147997987Y-77513088D01*
X148144250Y-77681938D01*
X148316126Y-77824632D01*
X148320593Y-77827242D01*
X148402070Y-77874853D01*
X148450794Y-77926491D01*
X148464500Y-77983641D01*
X148464500Y-90109406D01*
X148444498Y-90177527D01*
X148427595Y-90198501D01*
X141798322Y-96827773D01*
X141736010Y-96861799D01*
X141667168Y-96857451D01*
X141603364Y-96834857D01*
X141603356Y-96834855D01*
X141598485Y-96833130D01*
X141593392Y-96832223D01*
X141593389Y-96832222D01*
X141367052Y-96791905D01*
X141367046Y-96791904D01*
X141361963Y-96790999D01*
X141269474Y-96789869D01*
X141126907Y-96788127D01*
X141126905Y-96788127D01*
X141121737Y-96788064D01*
X140884256Y-96824404D01*
X140783148Y-96857451D01*
X140660817Y-96897434D01*
X140660811Y-96897437D01*
X140655899Y-96899042D01*
X140651313Y-96901429D01*
X140651309Y-96901431D01*
X140447393Y-97007584D01*
X140442800Y-97009975D01*
X140438657Y-97013085D01*
X140438658Y-97013085D01*
X140273867Y-97136814D01*
X140250680Y-97154223D01*
X140084699Y-97327912D01*
X140059160Y-97365351D01*
X140004249Y-97410352D01*
X139933725Y-97418523D01*
X139869978Y-97387269D01*
X139849284Y-97362790D01*
X139847915Y-97360674D01*
X139841622Y-97352502D01*
X139686950Y-97182520D01*
X139679417Y-97175494D01*
X139499056Y-97033055D01*
X139490469Y-97027350D01*
X139289278Y-96916286D01*
X139279866Y-96912056D01*
X139063232Y-96835341D01*
X139053261Y-96832707D01*
X138955837Y-96815353D01*
X138942540Y-96816813D01*
X138938000Y-96831370D01*
X138938000Y-99766096D01*
X138941918Y-99779440D01*
X138956194Y-99781427D01*
X139018515Y-99771890D01*
X139028543Y-99769501D01*
X139246988Y-99698102D01*
X139256497Y-99694105D01*
X139460344Y-99587989D01*
X139469069Y-99582495D01*
X139652852Y-99444507D01*
X139660559Y-99437664D01*
X139819339Y-99271509D01*
X139825823Y-99263502D01*
X139848237Y-99230644D01*
X139903148Y-99185641D01*
X139973672Y-99177468D01*
X140037420Y-99208722D01*
X140058116Y-99233204D01*
X140062498Y-99239977D01*
X140224186Y-99417670D01*
X140275331Y-99458062D01*
X140408670Y-99563367D01*
X140408675Y-99563370D01*
X140412724Y-99566568D01*
X140417240Y-99569061D01*
X140417243Y-99569063D01*
X140618526Y-99680177D01*
X140618530Y-99680179D01*
X140623050Y-99682674D01*
X140627919Y-99684398D01*
X140627923Y-99684400D01*
X140844640Y-99761144D01*
X140844644Y-99761145D01*
X140849515Y-99762870D01*
X140854608Y-99763777D01*
X140854611Y-99763778D01*
X141080948Y-99804095D01*
X141080954Y-99804096D01*
X141086037Y-99805001D01*
X141173400Y-99806068D01*
X141321093Y-99807873D01*
X141321095Y-99807873D01*
X141326263Y-99807936D01*
X141563744Y-99771596D01*
X141675997Y-99734906D01*
X141787183Y-99698566D01*
X141787189Y-99698563D01*
X141792101Y-99696958D01*
X141796687Y-99694571D01*
X141796691Y-99694569D01*
X142000607Y-99588416D01*
X142005200Y-99586025D01*
X142071431Y-99536297D01*
X142193185Y-99444882D01*
X142193188Y-99444880D01*
X142197320Y-99441777D01*
X142363301Y-99268088D01*
X142498686Y-99069622D01*
X142510794Y-99043539D01*
X142597658Y-98856405D01*
X142597659Y-98856401D01*
X142599837Y-98851710D01*
X142664040Y-98620202D01*
X142685000Y-98424072D01*
X142685000Y-98189598D01*
X142683548Y-98171928D01*
X142670892Y-98017994D01*
X142670322Y-98011063D01*
X142634828Y-97869757D01*
X142637632Y-97798817D01*
X142667937Y-97749967D01*
X149490247Y-90927657D01*
X149498537Y-90920113D01*
X149505018Y-90916000D01*
X149551659Y-90866332D01*
X149554413Y-90863491D01*
X149574135Y-90843769D01*
X149576612Y-90840576D01*
X149584317Y-90831555D01*
X149609159Y-90805100D01*
X149614586Y-90799321D01*
X149623436Y-90783223D01*
X149624346Y-90781568D01*
X149635202Y-90765041D01*
X149642757Y-90755302D01*
X149642758Y-90755300D01*
X149647614Y-90749040D01*
X149665174Y-90708460D01*
X149670391Y-90697812D01*
X149687875Y-90666009D01*
X149687876Y-90666007D01*
X149691695Y-90659060D01*
X149696733Y-90639437D01*
X149703137Y-90620734D01*
X149708033Y-90609420D01*
X149708033Y-90609419D01*
X149711181Y-90602145D01*
X149712420Y-90594322D01*
X149712423Y-90594312D01*
X149718099Y-90558476D01*
X149720505Y-90546856D01*
X149729528Y-90511711D01*
X149729528Y-90511710D01*
X149731500Y-90504030D01*
X149731500Y-90483776D01*
X149733051Y-90464065D01*
X149734980Y-90451886D01*
X149736220Y-90444057D01*
X149732059Y-90400038D01*
X149731500Y-90388181D01*
X149731500Y-80288134D01*
X151915500Y-80288134D01*
X151922255Y-80350316D01*
X151973385Y-80486705D01*
X152060739Y-80603261D01*
X152177295Y-80690615D01*
X152313684Y-80741745D01*
X152375866Y-80748500D01*
X155472134Y-80748500D01*
X155534316Y-80741745D01*
X155670705Y-80690615D01*
X155787261Y-80603261D01*
X155874615Y-80486705D01*
X155925745Y-80350316D01*
X155927990Y-80329654D01*
X157779618Y-80329654D01*
X157786673Y-80339627D01*
X157817679Y-80365551D01*
X157824598Y-80370579D01*
X158049272Y-80511515D01*
X158056807Y-80515556D01*
X158298520Y-80624694D01*
X158306551Y-80627680D01*
X158560832Y-80703002D01*
X158569184Y-80704869D01*
X158831340Y-80744984D01*
X158839874Y-80745700D01*
X159105045Y-80749867D01*
X159113596Y-80749418D01*
X159376883Y-80717557D01*
X159385284Y-80715955D01*
X159641824Y-80648653D01*
X159649926Y-80645926D01*
X159894949Y-80544434D01*
X159902617Y-80540628D01*
X160131598Y-80406822D01*
X160138679Y-80402009D01*
X160218655Y-80339301D01*
X160227125Y-80327442D01*
X160220608Y-80315818D01*
X159016812Y-79112022D01*
X159002868Y-79104408D01*
X159001035Y-79104539D01*
X158994420Y-79108790D01*
X157786910Y-80316300D01*
X157779618Y-80329654D01*
X155927990Y-80329654D01*
X155932500Y-80288134D01*
X155932500Y-78723204D01*
X156991665Y-78723204D01*
X157006932Y-78987969D01*
X157008005Y-78996470D01*
X157059065Y-79256722D01*
X157061276Y-79264974D01*
X157147184Y-79515894D01*
X157150499Y-79523779D01*
X157269664Y-79760713D01*
X157274020Y-79768079D01*
X157403347Y-79956250D01*
X157413601Y-79964594D01*
X157427342Y-79957448D01*
X158631978Y-78752812D01*
X158638356Y-78741132D01*
X159368408Y-78741132D01*
X159368539Y-78742965D01*
X159372790Y-78749580D01*
X160579730Y-79956520D01*
X160591939Y-79963187D01*
X160603439Y-79954497D01*
X160700831Y-79821913D01*
X160705418Y-79814685D01*
X160831962Y-79581621D01*
X160835530Y-79573827D01*
X160929271Y-79325750D01*
X160931748Y-79317544D01*
X160990954Y-79059038D01*
X160992294Y-79050577D01*
X161016031Y-78784616D01*
X161016277Y-78779677D01*
X161016666Y-78742485D01*
X161016523Y-78737519D01*
X160998362Y-78471123D01*
X160997201Y-78462649D01*
X160943419Y-78202944D01*
X160941120Y-78194709D01*
X160852588Y-77944705D01*
X160849191Y-77936854D01*
X160727550Y-77701178D01*
X160723122Y-77693866D01*
X160604031Y-77524417D01*
X160593509Y-77516037D01*
X160580121Y-77523089D01*
X159376022Y-78727188D01*
X159368408Y-78741132D01*
X158638356Y-78741132D01*
X158639592Y-78738868D01*
X158639461Y-78737035D01*
X158635210Y-78730420D01*
X157427814Y-77523024D01*
X157415804Y-77516466D01*
X157404064Y-77525434D01*
X157295935Y-77675911D01*
X157291418Y-77683196D01*
X157167325Y-77917567D01*
X157163839Y-77925395D01*
X157072700Y-78174446D01*
X157070311Y-78182670D01*
X157013812Y-78441795D01*
X157012563Y-78450250D01*
X156991754Y-78714653D01*
X156991665Y-78723204D01*
X155932500Y-78723204D01*
X155932500Y-77191866D01*
X155928224Y-77152500D01*
X157780584Y-77152500D01*
X157786980Y-77163770D01*
X158991188Y-78367978D01*
X159005132Y-78375592D01*
X159006965Y-78375461D01*
X159013580Y-78371210D01*
X160186905Y-77197885D01*
X162472000Y-77197885D01*
X162476475Y-77213124D01*
X162477865Y-77214329D01*
X162485548Y-77216000D01*
X163557885Y-77216000D01*
X163573124Y-77211525D01*
X163574329Y-77210135D01*
X163576000Y-77202452D01*
X163576000Y-77197885D01*
X164084000Y-77197885D01*
X164088475Y-77213124D01*
X164089865Y-77214329D01*
X164097548Y-77216000D01*
X166097885Y-77216000D01*
X166113124Y-77211525D01*
X166114329Y-77210135D01*
X166116000Y-77202452D01*
X166116000Y-76130116D01*
X166111525Y-76114877D01*
X166110135Y-76113672D01*
X166102452Y-76112001D01*
X165475331Y-76112001D01*
X165468510Y-76112371D01*
X165417648Y-76117895D01*
X165402396Y-76121521D01*
X165281946Y-76166676D01*
X165266356Y-76175211D01*
X165175565Y-76243255D01*
X165109058Y-76268102D01*
X165039676Y-76253049D01*
X165024435Y-76243255D01*
X164933644Y-76175211D01*
X164918054Y-76166676D01*
X164797606Y-76121522D01*
X164782351Y-76117895D01*
X164731486Y-76112369D01*
X164724672Y-76112000D01*
X164102115Y-76112000D01*
X164086876Y-76116475D01*
X164085671Y-76117865D01*
X164084000Y-76125548D01*
X164084000Y-77197885D01*
X163576000Y-77197885D01*
X163576000Y-76130116D01*
X163571525Y-76114877D01*
X163570135Y-76113672D01*
X163562452Y-76112001D01*
X162935331Y-76112001D01*
X162928510Y-76112371D01*
X162877648Y-76117895D01*
X162862396Y-76121521D01*
X162741946Y-76166676D01*
X162726351Y-76175214D01*
X162624276Y-76251715D01*
X162611715Y-76264276D01*
X162535214Y-76366351D01*
X162526676Y-76381946D01*
X162481522Y-76502394D01*
X162477895Y-76517649D01*
X162472369Y-76568514D01*
X162472000Y-76575328D01*
X162472000Y-77197885D01*
X160186905Y-77197885D01*
X160220604Y-77164186D01*
X160227795Y-77151017D01*
X160220473Y-77140780D01*
X160173233Y-77102115D01*
X160166261Y-77097160D01*
X159940122Y-76958582D01*
X159932552Y-76954624D01*
X159689704Y-76848022D01*
X159681644Y-76845120D01*
X159426592Y-76772467D01*
X159418214Y-76770685D01*
X159155656Y-76733318D01*
X159147111Y-76732691D01*
X158881908Y-76731302D01*
X158873374Y-76731839D01*
X158610433Y-76766456D01*
X158602035Y-76768149D01*
X158346238Y-76838127D01*
X158338143Y-76840946D01*
X158094199Y-76944997D01*
X158086577Y-76948881D01*
X157859013Y-77085075D01*
X157851981Y-77089962D01*
X157789053Y-77140377D01*
X157780584Y-77152500D01*
X155928224Y-77152500D01*
X155925745Y-77129684D01*
X155874615Y-76993295D01*
X155787261Y-76876739D01*
X155670705Y-76789385D01*
X155534316Y-76738255D01*
X155472134Y-76731500D01*
X152375866Y-76731500D01*
X152313684Y-76738255D01*
X152177295Y-76789385D01*
X152060739Y-76876739D01*
X151973385Y-76993295D01*
X151922255Y-77129684D01*
X151915500Y-77191866D01*
X151915500Y-80288134D01*
X149731500Y-80288134D01*
X149731500Y-77988427D01*
X149751502Y-77920306D01*
X149792618Y-77880550D01*
X149795994Y-77878896D01*
X149977860Y-77749173D01*
X149998631Y-77728475D01*
X150121616Y-77605918D01*
X150136096Y-77591489D01*
X150190314Y-77516037D01*
X150263435Y-77414277D01*
X150266453Y-77410077D01*
X150287320Y-77367857D01*
X150363136Y-77214453D01*
X150363137Y-77214451D01*
X150365430Y-77209811D01*
X150430370Y-76996069D01*
X150459529Y-76774590D01*
X150459611Y-76771240D01*
X150461074Y-76711365D01*
X150461074Y-76711361D01*
X150461156Y-76708000D01*
X150442852Y-76485361D01*
X150388431Y-76268702D01*
X150299354Y-76063840D01*
X150178014Y-75876277D01*
X150027670Y-75711051D01*
X150023619Y-75707852D01*
X150023615Y-75707848D01*
X149856414Y-75575800D01*
X149856410Y-75575798D01*
X149852359Y-75572598D01*
X149656789Y-75464638D01*
X149651920Y-75462914D01*
X149651916Y-75462912D01*
X149451087Y-75391795D01*
X149451083Y-75391794D01*
X149446212Y-75390069D01*
X149441119Y-75389162D01*
X149441116Y-75389161D01*
X149231373Y-75351800D01*
X149231367Y-75351799D01*
X149226284Y-75350894D01*
X149152452Y-75349992D01*
X149008081Y-75348228D01*
X149008079Y-75348228D01*
X149002911Y-75348165D01*
X148782091Y-75381955D01*
X148569756Y-75451357D01*
X148371607Y-75554507D01*
X148367474Y-75557610D01*
X148367471Y-75557612D01*
X148197100Y-75685530D01*
X148192965Y-75688635D01*
X148189393Y-75692373D01*
X148081729Y-75805037D01*
X148038629Y-75850138D01*
X147931201Y-76007621D01*
X147876293Y-76052621D01*
X147805768Y-76060792D01*
X147742021Y-76029538D01*
X147721324Y-76005054D01*
X147640822Y-75880617D01*
X147640820Y-75880614D01*
X147638014Y-75876277D01*
X147487670Y-75711051D01*
X147483619Y-75707852D01*
X147483615Y-75707848D01*
X147316414Y-75575800D01*
X147316410Y-75575798D01*
X147312359Y-75572598D01*
X147116789Y-75464638D01*
X147111920Y-75462914D01*
X147111916Y-75462912D01*
X146911087Y-75391795D01*
X146911083Y-75391794D01*
X146906212Y-75390069D01*
X146901119Y-75389162D01*
X146901116Y-75389161D01*
X146691373Y-75351800D01*
X146691367Y-75351799D01*
X146686284Y-75350894D01*
X146612452Y-75349992D01*
X146468081Y-75348228D01*
X146468079Y-75348228D01*
X146462911Y-75348165D01*
X146242091Y-75381955D01*
X146029756Y-75451357D01*
X145831607Y-75554507D01*
X145827474Y-75557610D01*
X145827471Y-75557612D01*
X145657100Y-75685530D01*
X145652965Y-75688635D01*
X145596537Y-75747684D01*
X145572283Y-75773064D01*
X145510759Y-75808494D01*
X145439846Y-75805037D01*
X145382060Y-75763791D01*
X145363207Y-75730243D01*
X145321767Y-75619703D01*
X145318615Y-75611295D01*
X145231261Y-75494739D01*
X145114705Y-75407385D01*
X144978316Y-75356255D01*
X144916134Y-75349500D01*
X143119866Y-75349500D01*
X143057684Y-75356255D01*
X142921295Y-75407385D01*
X142804739Y-75494739D01*
X142717385Y-75611295D01*
X142666255Y-75747684D01*
X142659500Y-75809866D01*
X142659500Y-75948500D01*
X142639498Y-76016621D01*
X142585842Y-76063114D01*
X142533500Y-76074500D01*
X140794767Y-76074500D01*
X140783584Y-76073973D01*
X140776091Y-76072298D01*
X140768165Y-76072547D01*
X140768164Y-76072547D01*
X140708001Y-76074438D01*
X140704043Y-76074500D01*
X140676144Y-76074500D01*
X140672154Y-76075004D01*
X140660320Y-76075936D01*
X140616111Y-76077326D01*
X140608497Y-76079538D01*
X140608492Y-76079539D01*
X140596659Y-76082977D01*
X140577296Y-76086988D01*
X140557203Y-76089526D01*
X140549836Y-76092443D01*
X140549831Y-76092444D01*
X140516092Y-76105802D01*
X140504865Y-76109646D01*
X140462407Y-76121982D01*
X140455581Y-76126019D01*
X140444972Y-76132293D01*
X140427224Y-76140988D01*
X140408383Y-76148448D01*
X140401967Y-76153110D01*
X140401966Y-76153110D01*
X140372613Y-76174436D01*
X140362693Y-76180952D01*
X140331465Y-76199420D01*
X140331462Y-76199422D01*
X140324638Y-76203458D01*
X140310317Y-76217779D01*
X140295284Y-76230619D01*
X140278893Y-76242528D01*
X140257736Y-76268102D01*
X140250702Y-76276605D01*
X140242712Y-76285384D01*
X138291747Y-78236348D01*
X138283461Y-78243888D01*
X138276982Y-78248000D01*
X138271557Y-78253777D01*
X138230357Y-78297651D01*
X138227602Y-78300493D01*
X138207865Y-78320230D01*
X138205385Y-78323427D01*
X138197682Y-78332447D01*
X138167414Y-78364679D01*
X138163595Y-78371625D01*
X138163593Y-78371628D01*
X138157652Y-78382434D01*
X138146801Y-78398953D01*
X138134386Y-78414959D01*
X138131241Y-78422228D01*
X138131238Y-78422232D01*
X138116826Y-78455537D01*
X138111609Y-78466187D01*
X138090305Y-78504940D01*
X138088334Y-78512615D01*
X138088334Y-78512616D01*
X138085267Y-78524562D01*
X138078863Y-78543266D01*
X138070819Y-78561855D01*
X138069580Y-78569678D01*
X138069577Y-78569688D01*
X138063901Y-78605524D01*
X138061495Y-78617144D01*
X138053017Y-78650165D01*
X138050500Y-78659970D01*
X138050500Y-78680224D01*
X138048949Y-78699934D01*
X138045780Y-78719943D01*
X138046526Y-78727835D01*
X138049941Y-78763961D01*
X138050500Y-78775819D01*
X138050500Y-86950629D01*
X138030498Y-87018750D01*
X137982680Y-87062392D01*
X137902800Y-87103975D01*
X137898667Y-87107078D01*
X137898664Y-87107080D01*
X137872622Y-87126633D01*
X137747717Y-87220415D01*
X137681235Y-87245320D01*
X137611839Y-87230328D01*
X137561565Y-87180198D01*
X137554085Y-87163885D01*
X137550269Y-87153707D01*
X137550267Y-87153703D01*
X137547115Y-87145295D01*
X137459761Y-87028739D01*
X137343205Y-86941385D01*
X137206816Y-86890255D01*
X137144634Y-86883500D01*
X135143366Y-86883500D01*
X135081184Y-86890255D01*
X134944795Y-86941385D01*
X134828239Y-87028739D01*
X134740885Y-87145295D01*
X134689755Y-87281684D01*
X134683000Y-87343866D01*
X134683000Y-89440134D01*
X134689755Y-89502316D01*
X134740885Y-89638705D01*
X134828239Y-89755261D01*
X134944795Y-89842615D01*
X135081184Y-89893745D01*
X135143366Y-89900500D01*
X137144634Y-89900500D01*
X137206816Y-89893745D01*
X137343205Y-89842615D01*
X137459761Y-89755261D01*
X137547115Y-89638705D01*
X137554573Y-89618811D01*
X137597213Y-89562047D01*
X137663774Y-89537346D01*
X137733123Y-89552553D01*
X137750647Y-89564158D01*
X137868670Y-89657367D01*
X137868675Y-89657370D01*
X137872724Y-89660568D01*
X137877240Y-89663061D01*
X137877243Y-89663063D01*
X138078526Y-89774177D01*
X138078530Y-89774179D01*
X138083050Y-89776674D01*
X138087919Y-89778398D01*
X138087923Y-89778400D01*
X138304640Y-89855144D01*
X138304644Y-89855145D01*
X138309515Y-89856870D01*
X138314608Y-89857777D01*
X138314611Y-89857778D01*
X138540948Y-89898095D01*
X138540954Y-89898096D01*
X138546037Y-89899001D01*
X138633400Y-89900068D01*
X138781093Y-89901873D01*
X138781095Y-89901873D01*
X138786263Y-89901936D01*
X139023744Y-89865596D01*
X139135997Y-89828906D01*
X139247183Y-89792566D01*
X139247189Y-89792563D01*
X139252101Y-89790958D01*
X139256687Y-89788571D01*
X139256691Y-89788569D01*
X139460607Y-89682416D01*
X139465200Y-89680025D01*
X139589532Y-89586674D01*
X139653185Y-89538882D01*
X139653188Y-89538880D01*
X139657320Y-89535777D01*
X139786439Y-89400662D01*
X139819730Y-89365825D01*
X139819731Y-89365824D01*
X139823301Y-89362088D01*
X139848535Y-89325097D01*
X139903444Y-89280096D01*
X139973968Y-89271925D01*
X140037716Y-89303179D01*
X140058411Y-89327660D01*
X140062498Y-89333977D01*
X140224186Y-89511670D01*
X140299414Y-89571081D01*
X140408669Y-89657366D01*
X140408671Y-89657367D01*
X140412724Y-89660568D01*
X140417244Y-89663063D01*
X140417247Y-89663065D01*
X140452298Y-89682414D01*
X140523299Y-89721608D01*
X140525393Y-89722764D01*
X140575364Y-89773197D01*
X140590500Y-89833073D01*
X140590500Y-89982406D01*
X140570498Y-90050527D01*
X140553595Y-90071501D01*
X135751747Y-94873348D01*
X135743461Y-94880888D01*
X135736982Y-94885000D01*
X135731557Y-94890777D01*
X135690357Y-94934651D01*
X135687602Y-94937493D01*
X135667865Y-94957230D01*
X135665385Y-94960427D01*
X135657682Y-94969447D01*
X135627414Y-95001679D01*
X135623595Y-95008625D01*
X135623593Y-95008628D01*
X135617652Y-95019434D01*
X135606801Y-95035953D01*
X135594386Y-95051959D01*
X135591241Y-95059228D01*
X135591238Y-95059232D01*
X135576826Y-95092537D01*
X135571609Y-95103187D01*
X135550305Y-95141940D01*
X135548334Y-95149615D01*
X135548334Y-95149616D01*
X135545267Y-95161562D01*
X135538863Y-95180266D01*
X135530819Y-95198855D01*
X135529580Y-95206678D01*
X135529577Y-95206688D01*
X135523901Y-95242524D01*
X135521495Y-95254144D01*
X135519270Y-95262812D01*
X135510500Y-95296970D01*
X135510500Y-95317224D01*
X135508949Y-95336934D01*
X135505780Y-95356943D01*
X135506526Y-95364835D01*
X135509941Y-95400961D01*
X135510500Y-95412819D01*
X135510500Y-96663500D01*
X135490498Y-96731621D01*
X135436842Y-96778114D01*
X135384500Y-96789500D01*
X135143366Y-96789500D01*
X135081184Y-96796255D01*
X134944795Y-96847385D01*
X134828239Y-96934739D01*
X134740885Y-97051295D01*
X134689755Y-97187684D01*
X134683000Y-97249866D01*
X134683000Y-99346134D01*
X133350500Y-99346134D01*
X133350500Y-75143711D01*
X133350820Y-75134731D01*
X133353798Y-75093046D01*
X133354438Y-75084095D01*
X133352539Y-75075321D01*
X133351903Y-75066370D01*
X133355462Y-75066117D01*
X133359394Y-75012289D01*
X133402026Y-74955518D01*
X133468584Y-74930808D01*
X133477383Y-74930500D01*
X167590633Y-74930500D01*
X167610018Y-74932000D01*
G37*
%TD.AperFunction*%
%TD*%
M02*
