M48
; DRILL file {KiCad (6.0.7)} date Mon Sep 26 11:07:59 2022
; FORMAT={-:-/ absolute / inch / decimal}
; #@! TF.CreationDate,2022-09-26T11:07:59-04:00
; #@! TF.GenerationSoftware,Kicad,Pcbnew,(6.0.7)
; #@! TF.FileFunction,Plated,1,2,PTH
FMAT,2
INCH
; #@! TA.AperFunction,Plated,PTH,ComponentDrill
T1C0.0276
; #@! TA.AperFunction,Plated,PTH,ComponentDrill
T2C0.0315
; #@! TA.AperFunction,Plated,PTH,ComponentDrill
T3C0.0354
; #@! TA.AperFunction,Plated,PTH,ComponentDrill
T4C0.0394
; #@! TA.AperFunction,Plated,PTH,ComponentDrill
T5C0.0433
; #@! TA.AperFunction,Plated,PTH,ComponentDrill
T6C0.0598
%
G90
G05
T1
X5.975Y-4.43
X5.98Y-4.285
X5.985Y-4.135
X6.275Y-4.43
X6.28Y-4.285
X6.285Y-4.135
T2
X6.1408Y-3.75
X6.1466Y-3.885
X6.1466Y-4.025
X6.2392Y-3.75
X6.245Y-3.885
X6.245Y-4.025
T3
X5.3152Y-4.585
X5.4152Y-4.585
X6.0081Y-3.475
X6.1066Y-3.475
X6.205Y-3.475
T4
X5.655Y-4.845
X5.67Y-3.02
X5.755Y-4.845
X5.77Y-3.02
X5.855Y-4.845
X5.87Y-3.02
X6.45Y-3.05
X6.45Y-3.15
X6.45Y-4.74
X6.45Y-4.84
X6.55Y-3.05
X6.55Y-3.15
X6.55Y-4.74
X6.55Y-4.84
T5
X5.36Y-3.48
X5.36Y-3.87
X5.46Y-3.48
X5.46Y-3.87
X5.56Y-3.48
X5.56Y-3.87
T6
X6.055Y-4.75
X6.06Y-3.1
X6.255Y-4.75
X6.26Y-3.1
T4
G00X5.555Y-4.1829
M15
G01X5.555Y-4.2617
M16
G05
G00X5.6337Y-4.4073
M15
G01X5.7125Y-4.4073
M16
G05
G00X5.7912Y-4.1829
M15
G01X5.7912Y-4.2617
M16
G05
T0
M30
