%TF.GenerationSoftware,KiCad,Pcbnew,(6.0.7)*%
%TF.CreationDate,2022-11-04T10:53:51-04:00*%
%TF.ProjectId,proj_7,70726f6a-5f37-42e6-9b69-6361645f7063,rev?*%
%TF.SameCoordinates,Original*%
%TF.FileFunction,Legend,Top*%
%TF.FilePolarity,Positive*%
%FSLAX46Y46*%
G04 Gerber Fmt 4.6, Leading zero omitted, Abs format (unit mm)*
G04 Created by KiCad (PCBNEW (6.0.7)) date 2022-11-04 10:53:51*
%MOMM*%
%LPD*%
G01*
G04 APERTURE LIST*
%ADD10C,0.150000*%
%ADD11C,0.125000*%
%ADD12C,0.120000*%
%ADD13C,0.249999*%
G04 APERTURE END LIST*
D10*
%TO.C,H2*%
X133883495Y-67284980D02*
X133883495Y-66284980D01*
X133883495Y-66761171D02*
X134454923Y-66761171D01*
X134454923Y-67284980D02*
X134454923Y-66284980D01*
X134883495Y-66380219D02*
X134931114Y-66332600D01*
X135026352Y-66284980D01*
X135264447Y-66284980D01*
X135359685Y-66332600D01*
X135407304Y-66380219D01*
X135454923Y-66475457D01*
X135454923Y-66570695D01*
X135407304Y-66713552D01*
X134835876Y-67284980D01*
X135454923Y-67284980D01*
%TO.C,D2*%
X132750380Y-106286095D02*
X131750380Y-106286095D01*
X131750380Y-106048000D01*
X131798000Y-105905142D01*
X131893238Y-105809904D01*
X131988476Y-105762285D01*
X132178952Y-105714666D01*
X132321809Y-105714666D01*
X132512285Y-105762285D01*
X132607523Y-105809904D01*
X132702761Y-105905142D01*
X132750380Y-106048000D01*
X132750380Y-106286095D01*
X131845619Y-105333714D02*
X131798000Y-105286095D01*
X131750380Y-105190857D01*
X131750380Y-104952761D01*
X131798000Y-104857523D01*
X131845619Y-104809904D01*
X131940857Y-104762285D01*
X132036095Y-104762285D01*
X132178952Y-104809904D01*
X132750380Y-105381333D01*
X132750380Y-104762285D01*
%TO.C,J1*%
X134515266Y-81037180D02*
X134515266Y-81751466D01*
X134467647Y-81894323D01*
X134372409Y-81989561D01*
X134229552Y-82037180D01*
X134134314Y-82037180D01*
X135515266Y-82037180D02*
X134943838Y-82037180D01*
X135229552Y-82037180D02*
X135229552Y-81037180D01*
X135134314Y-81180038D01*
X135039076Y-81275276D01*
X134943838Y-81322895D01*
%TO.C,U3*%
X131267295Y-90079580D02*
X131267295Y-90889104D01*
X131314914Y-90984342D01*
X131362533Y-91031961D01*
X131457771Y-91079580D01*
X131648247Y-91079580D01*
X131743485Y-91031961D01*
X131791104Y-90984342D01*
X131838723Y-90889104D01*
X131838723Y-90079580D01*
X132219676Y-90079580D02*
X132838723Y-90079580D01*
X132505390Y-90460533D01*
X132648247Y-90460533D01*
X132743485Y-90508152D01*
X132791104Y-90555771D01*
X132838723Y-90651009D01*
X132838723Y-90889104D01*
X132791104Y-90984342D01*
X132743485Y-91031961D01*
X132648247Y-91079580D01*
X132362533Y-91079580D01*
X132267295Y-91031961D01*
X132219676Y-90984342D01*
%TO.C,SW1*%
X118385666Y-66343061D02*
X118528523Y-66390680D01*
X118766619Y-66390680D01*
X118861857Y-66343061D01*
X118909476Y-66295442D01*
X118957095Y-66200204D01*
X118957095Y-66104966D01*
X118909476Y-66009728D01*
X118861857Y-65962109D01*
X118766619Y-65914490D01*
X118576142Y-65866871D01*
X118480904Y-65819252D01*
X118433285Y-65771633D01*
X118385666Y-65676395D01*
X118385666Y-65581157D01*
X118433285Y-65485919D01*
X118480904Y-65438300D01*
X118576142Y-65390680D01*
X118814238Y-65390680D01*
X118957095Y-65438300D01*
X119290428Y-65390680D02*
X119528523Y-66390680D01*
X119719000Y-65676395D01*
X119909476Y-66390680D01*
X120147571Y-65390680D01*
X121052333Y-66390680D02*
X120480904Y-66390680D01*
X120766619Y-66390680D02*
X120766619Y-65390680D01*
X120671380Y-65533538D01*
X120576142Y-65628776D01*
X120480904Y-65676395D01*
%TO.C,H1*%
X99974495Y-67792980D02*
X99974495Y-66792980D01*
X99974495Y-67269171D02*
X100545923Y-67269171D01*
X100545923Y-67792980D02*
X100545923Y-66792980D01*
X101545923Y-67792980D02*
X100974495Y-67792980D01*
X101260209Y-67792980D02*
X101260209Y-66792980D01*
X101164971Y-66935838D01*
X101069733Y-67031076D01*
X100974495Y-67078695D01*
%TO.C,D1*%
X132750380Y-102222095D02*
X131750380Y-102222095D01*
X131750380Y-101984000D01*
X131798000Y-101841142D01*
X131893238Y-101745904D01*
X131988476Y-101698285D01*
X132178952Y-101650666D01*
X132321809Y-101650666D01*
X132512285Y-101698285D01*
X132607523Y-101745904D01*
X132702761Y-101841142D01*
X132750380Y-101984000D01*
X132750380Y-102222095D01*
X132750380Y-100698285D02*
X132750380Y-101269714D01*
X132750380Y-100984000D02*
X131750380Y-100984000D01*
X131893238Y-101079238D01*
X131988476Y-101174476D01*
X132036095Y-101269714D01*
%TO.C,H4*%
X133934295Y-113970180D02*
X133934295Y-112970180D01*
X133934295Y-113446371D02*
X134505723Y-113446371D01*
X134505723Y-113970180D02*
X134505723Y-112970180D01*
X135410485Y-113303514D02*
X135410485Y-113970180D01*
X135172390Y-112922561D02*
X134934295Y-113636847D01*
X135553342Y-113636847D01*
%TO.C,C3*%
X106487933Y-109170742D02*
X106440314Y-109218361D01*
X106297457Y-109265980D01*
X106202219Y-109265980D01*
X106059361Y-109218361D01*
X105964123Y-109123123D01*
X105916504Y-109027885D01*
X105868885Y-108837409D01*
X105868885Y-108694552D01*
X105916504Y-108504076D01*
X105964123Y-108408838D01*
X106059361Y-108313600D01*
X106202219Y-108265980D01*
X106297457Y-108265980D01*
X106440314Y-108313600D01*
X106487933Y-108361219D01*
X106821266Y-108265980D02*
X107440314Y-108265980D01*
X107106980Y-108646933D01*
X107249838Y-108646933D01*
X107345076Y-108694552D01*
X107392695Y-108742171D01*
X107440314Y-108837409D01*
X107440314Y-109075504D01*
X107392695Y-109170742D01*
X107345076Y-109218361D01*
X107249838Y-109265980D01*
X106964123Y-109265980D01*
X106868885Y-109218361D01*
X106821266Y-109170742D01*
%TO.C,R4*%
X123591580Y-110732866D02*
X123115390Y-111066200D01*
X123591580Y-111304295D02*
X122591580Y-111304295D01*
X122591580Y-110923342D01*
X122639200Y-110828104D01*
X122686819Y-110780485D01*
X122782057Y-110732866D01*
X122924914Y-110732866D01*
X123020152Y-110780485D01*
X123067771Y-110828104D01*
X123115390Y-110923342D01*
X123115390Y-111304295D01*
X122924914Y-109875723D02*
X123591580Y-109875723D01*
X122543961Y-110113819D02*
X123258247Y-110351914D01*
X123258247Y-109732866D01*
%TO.C,Y2*%
X111710790Y-99231390D02*
X112186980Y-99231390D01*
X111186980Y-99564723D02*
X111710790Y-99231390D01*
X111186980Y-98898057D01*
X111282219Y-98612342D02*
X111234600Y-98564723D01*
X111186980Y-98469485D01*
X111186980Y-98231390D01*
X111234600Y-98136152D01*
X111282219Y-98088533D01*
X111377457Y-98040914D01*
X111472695Y-98040914D01*
X111615552Y-98088533D01*
X112186980Y-98659961D01*
X112186980Y-98040914D01*
%TO.C,U1*%
X116586095Y-74244380D02*
X116586095Y-75053904D01*
X116633714Y-75149142D01*
X116681333Y-75196761D01*
X116776571Y-75244380D01*
X116967047Y-75244380D01*
X117062285Y-75196761D01*
X117109904Y-75149142D01*
X117157523Y-75053904D01*
X117157523Y-74244380D01*
X118157523Y-75244380D02*
X117586095Y-75244380D01*
X117871809Y-75244380D02*
X117871809Y-74244380D01*
X117776571Y-74387238D01*
X117681333Y-74482476D01*
X117586095Y-74530095D01*
%TO.C,J2*%
X106850666Y-75934380D02*
X106850666Y-76648666D01*
X106803047Y-76791523D01*
X106707809Y-76886761D01*
X106564952Y-76934380D01*
X106469714Y-76934380D01*
X107279238Y-76029619D02*
X107326857Y-75982000D01*
X107422095Y-75934380D01*
X107660190Y-75934380D01*
X107755428Y-75982000D01*
X107803047Y-76029619D01*
X107850666Y-76124857D01*
X107850666Y-76220095D01*
X107803047Y-76362952D01*
X107231619Y-76934380D01*
X107850666Y-76934380D01*
%TO.C,J3*%
X100377666Y-88707980D02*
X100377666Y-89422266D01*
X100330047Y-89565123D01*
X100234809Y-89660361D01*
X100091952Y-89707980D01*
X99996714Y-89707980D01*
X100758619Y-88707980D02*
X101377666Y-88707980D01*
X101044333Y-89088933D01*
X101187190Y-89088933D01*
X101282428Y-89136552D01*
X101330047Y-89184171D01*
X101377666Y-89279409D01*
X101377666Y-89517504D01*
X101330047Y-89612742D01*
X101282428Y-89660361D01*
X101187190Y-89707980D01*
X100901476Y-89707980D01*
X100806238Y-89660361D01*
X100758619Y-89612742D01*
%TO.C,C2*%
X111939342Y-91911466D02*
X111986961Y-91959085D01*
X112034580Y-92101942D01*
X112034580Y-92197180D01*
X111986961Y-92340038D01*
X111891723Y-92435276D01*
X111796485Y-92482895D01*
X111606009Y-92530514D01*
X111463152Y-92530514D01*
X111272676Y-92482895D01*
X111177438Y-92435276D01*
X111082200Y-92340038D01*
X111034580Y-92197180D01*
X111034580Y-92101942D01*
X111082200Y-91959085D01*
X111129819Y-91911466D01*
X111129819Y-91530514D02*
X111082200Y-91482895D01*
X111034580Y-91387657D01*
X111034580Y-91149561D01*
X111082200Y-91054323D01*
X111129819Y-91006704D01*
X111225057Y-90959085D01*
X111320295Y-90959085D01*
X111463152Y-91006704D01*
X112034580Y-91578133D01*
X112034580Y-90959085D01*
%TO.C,Y1*%
X123501209Y-75083990D02*
X123501209Y-75560180D01*
X123167876Y-74560180D02*
X123501209Y-75083990D01*
X123834542Y-74560180D01*
X124691685Y-75560180D02*
X124120257Y-75560180D01*
X124405971Y-75560180D02*
X124405971Y-74560180D01*
X124310733Y-74703038D01*
X124215495Y-74798276D01*
X124120257Y-74845895D01*
%TO.C,R2*%
X123591580Y-103493866D02*
X123115390Y-103827200D01*
X123591580Y-104065295D02*
X122591580Y-104065295D01*
X122591580Y-103684342D01*
X122639200Y-103589104D01*
X122686819Y-103541485D01*
X122782057Y-103493866D01*
X122924914Y-103493866D01*
X123020152Y-103541485D01*
X123067771Y-103589104D01*
X123115390Y-103684342D01*
X123115390Y-104065295D01*
X122686819Y-103112914D02*
X122639200Y-103065295D01*
X122591580Y-102970057D01*
X122591580Y-102731961D01*
X122639200Y-102636723D01*
X122686819Y-102589104D01*
X122782057Y-102541485D01*
X122877295Y-102541485D01*
X123020152Y-102589104D01*
X123591580Y-103160533D01*
X123591580Y-102541485D01*
D11*
%TO.C,U2*%
X131361126Y-78682904D02*
X131361126Y-79330523D01*
X131399221Y-79406714D01*
X131437316Y-79444809D01*
X131513507Y-79482904D01*
X131665888Y-79482904D01*
X131742078Y-79444809D01*
X131780173Y-79406714D01*
X131818269Y-79330523D01*
X131818269Y-78682904D01*
X132161126Y-78759095D02*
X132199221Y-78721000D01*
X132275411Y-78682904D01*
X132465888Y-78682904D01*
X132542078Y-78721000D01*
X132580173Y-78759095D01*
X132618269Y-78835285D01*
X132618269Y-78911476D01*
X132580173Y-79025761D01*
X132123030Y-79482904D01*
X132618269Y-79482904D01*
D10*
X132518104Y-86048476D02*
X131718104Y-86048476D01*
X131718104Y-85858000D01*
X131756200Y-85743714D01*
X131832390Y-85667523D01*
X131908580Y-85629428D01*
X132060961Y-85591333D01*
X132175247Y-85591333D01*
X132327628Y-85629428D01*
X132403819Y-85667523D01*
X132480009Y-85743714D01*
X132518104Y-85858000D01*
X132518104Y-86048476D01*
X132480009Y-85286571D02*
X132518104Y-85172285D01*
X132518104Y-84981809D01*
X132480009Y-84905619D01*
X132441914Y-84867523D01*
X132365723Y-84829428D01*
X132289533Y-84829428D01*
X132213342Y-84867523D01*
X132175247Y-84905619D01*
X132137152Y-84981809D01*
X132099057Y-85134190D01*
X132060961Y-85210380D01*
X132022866Y-85248476D01*
X131946676Y-85286571D01*
X131870485Y-85286571D01*
X131794295Y-85248476D01*
X131756200Y-85210380D01*
X131718104Y-85134190D01*
X131718104Y-84943714D01*
X131756200Y-84829428D01*
X132518104Y-84067523D02*
X132518104Y-84524666D01*
X132518104Y-84296095D02*
X131718104Y-84296095D01*
X131832390Y-84372285D01*
X131908580Y-84448476D01*
X131946676Y-84524666D01*
X131718104Y-83800857D02*
X131718104Y-83305619D01*
X132022866Y-83572285D01*
X132022866Y-83458000D01*
X132060961Y-83381809D01*
X132099057Y-83343714D01*
X132175247Y-83305619D01*
X132365723Y-83305619D01*
X132441914Y-83343714D01*
X132480009Y-83381809D01*
X132518104Y-83458000D01*
X132518104Y-83686571D01*
X132480009Y-83762761D01*
X132441914Y-83800857D01*
X131718104Y-83038952D02*
X131718104Y-82543714D01*
X132022866Y-82810380D01*
X132022866Y-82696095D01*
X132060961Y-82619904D01*
X132099057Y-82581809D01*
X132175247Y-82543714D01*
X132365723Y-82543714D01*
X132441914Y-82581809D01*
X132480009Y-82619904D01*
X132518104Y-82696095D01*
X132518104Y-82924666D01*
X132480009Y-83000857D01*
X132441914Y-83038952D01*
X131718104Y-82277047D02*
X131718104Y-81743714D01*
X132518104Y-82086571D01*
X132480009Y-81477047D02*
X132518104Y-81362761D01*
X132518104Y-81172285D01*
X132480009Y-81096095D01*
X132441914Y-81058000D01*
X132365723Y-81019904D01*
X132289533Y-81019904D01*
X132213342Y-81058000D01*
X132175247Y-81096095D01*
X132137152Y-81172285D01*
X132099057Y-81324666D01*
X132060961Y-81400857D01*
X132022866Y-81438952D01*
X131946676Y-81477047D01*
X131870485Y-81477047D01*
X131794295Y-81438952D01*
X131756200Y-81400857D01*
X131718104Y-81324666D01*
X131718104Y-81134190D01*
X131756200Y-81019904D01*
X132213342Y-80677047D02*
X132213342Y-80067523D01*
X132518104Y-80372285D02*
X131908580Y-80372285D01*
%TO.C,R1*%
X123870980Y-87491866D02*
X123394790Y-87825200D01*
X123870980Y-88063295D02*
X122870980Y-88063295D01*
X122870980Y-87682342D01*
X122918600Y-87587104D01*
X122966219Y-87539485D01*
X123061457Y-87491866D01*
X123204314Y-87491866D01*
X123299552Y-87539485D01*
X123347171Y-87587104D01*
X123394790Y-87682342D01*
X123394790Y-88063295D01*
X123870980Y-86539485D02*
X123870980Y-87110914D01*
X123870980Y-86825200D02*
X122870980Y-86825200D01*
X123013838Y-86920438D01*
X123109076Y-87015676D01*
X123156695Y-87110914D01*
%TO.C,J6*%
X100377666Y-77404980D02*
X100377666Y-78119266D01*
X100330047Y-78262123D01*
X100234809Y-78357361D01*
X100091952Y-78404980D01*
X99996714Y-78404980D01*
X101282428Y-77404980D02*
X101091952Y-77404980D01*
X100996714Y-77452600D01*
X100949095Y-77500219D01*
X100853857Y-77643076D01*
X100806238Y-77833552D01*
X100806238Y-78214504D01*
X100853857Y-78309742D01*
X100901476Y-78357361D01*
X100996714Y-78404980D01*
X101187190Y-78404980D01*
X101282428Y-78357361D01*
X101330047Y-78309742D01*
X101377666Y-78214504D01*
X101377666Y-77976409D01*
X101330047Y-77881171D01*
X101282428Y-77833552D01*
X101187190Y-77785933D01*
X100996714Y-77785933D01*
X100901476Y-77833552D01*
X100853857Y-77881171D01*
X100806238Y-77976409D01*
%TO.C,U4*%
X131191095Y-96607380D02*
X131191095Y-97416904D01*
X131238714Y-97512142D01*
X131286333Y-97559761D01*
X131381571Y-97607380D01*
X131572047Y-97607380D01*
X131667285Y-97559761D01*
X131714904Y-97512142D01*
X131762523Y-97416904D01*
X131762523Y-96607380D01*
X132667285Y-96940714D02*
X132667285Y-97607380D01*
X132429190Y-96559761D02*
X132191095Y-97274047D01*
X132810142Y-97274047D01*
%TO.C,D3*%
X132750380Y-110341095D02*
X131750380Y-110341095D01*
X131750380Y-110103000D01*
X131798000Y-109960142D01*
X131893238Y-109864904D01*
X131988476Y-109817285D01*
X132178952Y-109769666D01*
X132321809Y-109769666D01*
X132512285Y-109817285D01*
X132607523Y-109864904D01*
X132702761Y-109960142D01*
X132750380Y-110103000D01*
X132750380Y-110341095D01*
X131750380Y-109436333D02*
X131750380Y-108817285D01*
X132131333Y-109150619D01*
X132131333Y-109007761D01*
X132178952Y-108912523D01*
X132226571Y-108864904D01*
X132321809Y-108817285D01*
X132559904Y-108817285D01*
X132655142Y-108864904D01*
X132702761Y-108912523D01*
X132750380Y-109007761D01*
X132750380Y-109293476D01*
X132702761Y-109388714D01*
X132655142Y-109436333D01*
%TO.C,C1*%
X106699066Y-87255314D02*
X106660971Y-87293409D01*
X106546685Y-87331504D01*
X106470495Y-87331504D01*
X106356209Y-87293409D01*
X106280019Y-87217219D01*
X106241923Y-87141028D01*
X106203828Y-86988647D01*
X106203828Y-86874361D01*
X106241923Y-86721980D01*
X106280019Y-86645790D01*
X106356209Y-86569600D01*
X106470495Y-86531504D01*
X106546685Y-86531504D01*
X106660971Y-86569600D01*
X106699066Y-86607695D01*
X107460971Y-87331504D02*
X107003828Y-87331504D01*
X107232400Y-87331504D02*
X107232400Y-86531504D01*
X107156209Y-86645790D01*
X107080019Y-86721980D01*
X107003828Y-86760076D01*
%TO.C,R3*%
X123616980Y-107100666D02*
X123140790Y-107434000D01*
X123616980Y-107672095D02*
X122616980Y-107672095D01*
X122616980Y-107291142D01*
X122664600Y-107195904D01*
X122712219Y-107148285D01*
X122807457Y-107100666D01*
X122950314Y-107100666D01*
X123045552Y-107148285D01*
X123093171Y-107195904D01*
X123140790Y-107291142D01*
X123140790Y-107672095D01*
X122616980Y-106767333D02*
X122616980Y-106148285D01*
X122997933Y-106481619D01*
X122997933Y-106338761D01*
X123045552Y-106243523D01*
X123093171Y-106195904D01*
X123188409Y-106148285D01*
X123426504Y-106148285D01*
X123521742Y-106195904D01*
X123569361Y-106243523D01*
X123616980Y-106338761D01*
X123616980Y-106624476D01*
X123569361Y-106719714D01*
X123521742Y-106767333D01*
%TO.C,R5*%
X107183180Y-82488066D02*
X106706990Y-82821400D01*
X107183180Y-83059495D02*
X106183180Y-83059495D01*
X106183180Y-82678542D01*
X106230800Y-82583304D01*
X106278419Y-82535685D01*
X106373657Y-82488066D01*
X106516514Y-82488066D01*
X106611752Y-82535685D01*
X106659371Y-82583304D01*
X106706990Y-82678542D01*
X106706990Y-83059495D01*
X106183180Y-81583304D02*
X106183180Y-82059495D01*
X106659371Y-82107114D01*
X106611752Y-82059495D01*
X106564133Y-81964257D01*
X106564133Y-81726161D01*
X106611752Y-81630923D01*
X106659371Y-81583304D01*
X106754609Y-81535685D01*
X106992704Y-81535685D01*
X107087942Y-81583304D01*
X107135561Y-81630923D01*
X107183180Y-81726161D01*
X107183180Y-81964257D01*
X107135561Y-82059495D01*
X107087942Y-82107114D01*
%TO.C,J5*%
X134439066Y-73747380D02*
X134439066Y-74461666D01*
X134391447Y-74604523D01*
X134296209Y-74699761D01*
X134153352Y-74747380D01*
X134058114Y-74747380D01*
X135391447Y-73747380D02*
X134915257Y-73747380D01*
X134867638Y-74223571D01*
X134915257Y-74175952D01*
X135010495Y-74128333D01*
X135248590Y-74128333D01*
X135343828Y-74175952D01*
X135391447Y-74223571D01*
X135439066Y-74318809D01*
X135439066Y-74556904D01*
X135391447Y-74652142D01*
X135343828Y-74699761D01*
X135248590Y-74747380D01*
X135010495Y-74747380D01*
X134915257Y-74699761D01*
X134867638Y-74652142D01*
%TO.C,H3*%
X100330095Y-114173380D02*
X100330095Y-113173380D01*
X100330095Y-113649571D02*
X100901523Y-113649571D01*
X100901523Y-114173380D02*
X100901523Y-113173380D01*
X101282476Y-113173380D02*
X101901523Y-113173380D01*
X101568190Y-113554333D01*
X101711047Y-113554333D01*
X101806285Y-113601952D01*
X101853904Y-113649571D01*
X101901523Y-113744809D01*
X101901523Y-113982904D01*
X101853904Y-114078142D01*
X101806285Y-114125761D01*
X101711047Y-114173380D01*
X101425333Y-114173380D01*
X101330095Y-114125761D01*
X101282476Y-114078142D01*
%TO.C,BT1*%
X126976285Y-67516571D02*
X127119142Y-67564190D01*
X127166761Y-67611809D01*
X127214380Y-67707047D01*
X127214380Y-67849904D01*
X127166761Y-67945142D01*
X127119142Y-67992761D01*
X127023904Y-68040380D01*
X126642952Y-68040380D01*
X126642952Y-67040380D01*
X126976285Y-67040380D01*
X127071523Y-67088000D01*
X127119142Y-67135619D01*
X127166761Y-67230857D01*
X127166761Y-67326095D01*
X127119142Y-67421333D01*
X127071523Y-67468952D01*
X126976285Y-67516571D01*
X126642952Y-67516571D01*
X127500095Y-67040380D02*
X128071523Y-67040380D01*
X127785809Y-68040380D02*
X127785809Y-67040380D01*
X128928666Y-68040380D02*
X128357238Y-68040380D01*
X128642952Y-68040380D02*
X128642952Y-67040380D01*
X128547714Y-67183238D01*
X128452476Y-67278476D01*
X128357238Y-67326095D01*
D12*
%TO.C,D2*%
X132988000Y-107408000D02*
X134908000Y-107408000D01*
X132988000Y-104548000D02*
X132988000Y-107408000D01*
X134908000Y-107408000D02*
X134908000Y-104548000D01*
%TO.C,J1*%
X136040000Y-95143000D02*
X133380000Y-95143000D01*
X136040000Y-82383000D02*
X133380000Y-82383000D01*
X136040000Y-95143000D02*
X136040000Y-82383000D01*
X136040000Y-96413000D02*
X136040000Y-97743000D01*
X133380000Y-95143000D02*
X133380000Y-82383000D01*
X136040000Y-97743000D02*
X134710000Y-97743000D01*
%TO.C,U3*%
X127348000Y-89769000D02*
X129298000Y-89769000D01*
X127348000Y-94889000D02*
X129298000Y-94889000D01*
X127348000Y-89769000D02*
X123898000Y-89769000D01*
X127348000Y-94889000D02*
X125398000Y-94889000D01*
%TO.C,SW1*%
X113319000Y-71188300D02*
X113319000Y-70878300D01*
X122139000Y-71188300D02*
X113319000Y-71188300D01*
X122139000Y-66668300D02*
X122139000Y-66978300D01*
X115729000Y-66468300D02*
X116229000Y-65968300D01*
X115229000Y-65968300D02*
X115729000Y-66468300D01*
X113319000Y-66668300D02*
X122139000Y-66668300D01*
X113319000Y-66978300D02*
X113319000Y-66668300D01*
X122139000Y-71188300D02*
X122139000Y-70878300D01*
X116229000Y-65968300D02*
X115229000Y-65968300D01*
%TO.C,D1*%
X132988000Y-103344000D02*
X134908000Y-103344000D01*
X134908000Y-103344000D02*
X134908000Y-100484000D01*
X132988000Y-100484000D02*
X132988000Y-103344000D01*
%TO.C,C3*%
X107704248Y-106008000D02*
X109126752Y-106008000D01*
X107704248Y-107828000D02*
X109126752Y-107828000D01*
%TO.C,R4*%
X125651936Y-111977000D02*
X128706064Y-111977000D01*
X125651936Y-109257000D02*
X128706064Y-109257000D01*
%TO.C,Y2*%
X110979000Y-96088000D02*
X110979000Y-102488000D01*
X105929000Y-96088000D02*
X105929000Y-102488000D01*
X110979000Y-96088000D02*
G75*
G03*
X105929000Y-96088000I-2525000J0D01*
G01*
X105929000Y-102488000D02*
G75*
G03*
X110979000Y-102488000I2525000J0D01*
G01*
%TO.C,U1*%
X119998000Y-75792000D02*
X118348000Y-75792000D01*
X114698000Y-111472000D02*
X119998000Y-111472000D01*
X114698000Y-75792000D02*
X114698000Y-111472000D01*
X116348000Y-75792000D02*
X114698000Y-75792000D01*
X119998000Y-111472000D02*
X119998000Y-75792000D01*
X116348000Y-75792000D02*
G75*
G03*
X118348000Y-75792000I1000000J0D01*
G01*
%TO.C,J2*%
X107184000Y-72882000D02*
X107184000Y-75482000D01*
X109784000Y-67742000D02*
X104584000Y-67742000D01*
X109784000Y-74152000D02*
X109784000Y-75482000D01*
X109784000Y-72882000D02*
X109784000Y-67742000D01*
X104584000Y-75482000D02*
X104584000Y-67742000D01*
X109784000Y-75482000D02*
X108454000Y-75482000D01*
X107184000Y-75482000D02*
X104584000Y-75482000D01*
X109784000Y-72882000D02*
X107184000Y-72882000D01*
%TO.C,J3*%
X102048000Y-90678000D02*
X102048000Y-89348000D01*
X102048000Y-112328000D02*
X104708000Y-112328000D01*
X102048000Y-91948000D02*
X102048000Y-112328000D01*
X102048000Y-91948000D02*
X104708000Y-91948000D01*
X104708000Y-91948000D02*
X104708000Y-112328000D01*
X102048000Y-89348000D02*
X103378000Y-89348000D01*
%TO.C,C2*%
X107742748Y-90768000D02*
X109165252Y-90768000D01*
X107742748Y-92588000D02*
X109165252Y-92588000D01*
%TO.C,Y1*%
X123281500Y-76370000D02*
X123281500Y-78570000D01*
X125956500Y-76320000D02*
X128456500Y-76320000D01*
X125956500Y-78620000D02*
X128456500Y-78620000D01*
%TO.C,R2*%
X125651936Y-104865000D02*
X128706064Y-104865000D01*
X125651936Y-102145000D02*
X128706064Y-102145000D01*
D10*
%TO.C,U2*%
X126358999Y-85050000D02*
X127959001Y-85050000D01*
X127959001Y-85050000D02*
X127959001Y-80050000D01*
X126358999Y-85050000D02*
X126358999Y-80050000D01*
X126358999Y-80050000D02*
X127959001Y-80050000D01*
D13*
X124834001Y-79744999D02*
G75*
G03*
X124834001Y-79744999I-125001J0D01*
G01*
D12*
%TO.C,R1*%
X125745936Y-86270000D02*
X128800064Y-86270000D01*
X125745936Y-88990000D02*
X128800064Y-88990000D01*
%TO.C,J6*%
X102048000Y-87700000D02*
X104708000Y-87700000D01*
X102048000Y-80020000D02*
X104708000Y-80020000D01*
X102048000Y-80020000D02*
X102048000Y-87700000D01*
X102048000Y-78750000D02*
X102048000Y-77420000D01*
X102048000Y-77420000D02*
X103378000Y-77420000D01*
X104708000Y-80020000D02*
X104708000Y-87700000D01*
%TO.C,U4*%
X127254000Y-101366000D02*
X125304000Y-101366000D01*
X127254000Y-96246000D02*
X129204000Y-96246000D01*
X127254000Y-96246000D02*
X123804000Y-96246000D01*
X127254000Y-101366000D02*
X129204000Y-101366000D01*
%TO.C,D3*%
X134908000Y-111463000D02*
X134908000Y-108603000D01*
X132988000Y-108603000D02*
X132988000Y-111463000D01*
X132988000Y-111463000D02*
X134908000Y-111463000D01*
%TO.C,C1*%
X107742748Y-87720000D02*
X109165252Y-87720000D01*
X107742748Y-89540000D02*
X109165252Y-89540000D01*
%TO.C,R3*%
X125651936Y-105701000D02*
X128706064Y-105701000D01*
X125651936Y-108421000D02*
X128706064Y-108421000D01*
%TO.C,R5*%
X107602000Y-84061064D02*
X107602000Y-81006936D01*
X110322000Y-84061064D02*
X110322000Y-81006936D01*
%TO.C,J5*%
X136134000Y-79268000D02*
X136134000Y-80598000D01*
X133474000Y-77998000D02*
X133474000Y-75398000D01*
X136134000Y-77998000D02*
X136134000Y-75398000D01*
X136134000Y-75398000D02*
X133474000Y-75398000D01*
X136134000Y-80598000D02*
X134804000Y-80598000D01*
X136134000Y-77998000D02*
X133474000Y-77998000D01*
%TO.C,BT1*%
X126432000Y-74228000D02*
X129092000Y-74228000D01*
X129092000Y-69028000D02*
X129092000Y-70358000D01*
X127762000Y-69028000D02*
X129092000Y-69028000D01*
X126432000Y-71628000D02*
X129092000Y-71628000D01*
X126432000Y-71628000D02*
X126432000Y-74228000D01*
X129092000Y-71628000D02*
X129092000Y-74228000D01*
%TD*%
M02*
