M48
; DRILL file {KiCad (6.0.7)} date Fri Nov  4 10:53:55 2022
; FORMAT={-:-/ absolute / inch / decimal}
; #@! TF.CreationDate,2022-11-04T10:53:55-04:00
; #@! TF.GenerationSoftware,Kicad,Pcbnew,(6.0.7)
; #@! TF.FileFunction,Plated,1,2,PTH
FMAT,2
INCH
; #@! TA.AperFunction,Plated,PTH,ViaDrill
T1C0.0157
; #@! TA.AperFunction,Plated,PTH,ComponentDrill
T2C0.0315
; #@! TA.AperFunction,Plated,PTH,ComponentDrill
T3C0.0394
; #@! TA.AperFunction,Plated,PTH,ComponentDrill
T4C0.0591
%
G90
G05
T1
X4.379Y-3.107
X4.684Y-3.384
X4.686Y-3.492
X4.916Y-3.746
X4.975Y-3.965
X5.006Y-3.258
X5.045Y-3.61
X5.046Y-3.865
X5.109Y-3.767
X5.168Y-3.45
X5.354Y-4.016
T2
X4.2698Y-3.8129
X4.2698Y-4.005
X4.47Y-3.0363
X4.47Y-3.1363
X4.47Y-3.2363
X4.47Y-3.3363
X4.47Y-3.4363
X4.47Y-3.5363
X4.47Y-3.6363
X4.47Y-3.7363
X4.47Y-3.8363
X4.47Y-3.9363
X4.47Y-4.0363
X4.47Y-4.1363
X4.47Y-4.2363
X4.47Y-4.3363
X4.5563Y-2.7137
X4.635Y-2.7137
X4.7137Y-2.7137
X4.77Y-3.0363
X4.77Y-3.1363
X4.77Y-3.2363
X4.77Y-3.3363
X4.77Y-3.4363
X4.77Y-3.5363
X4.77Y-3.6363
X4.77Y-3.7363
X4.77Y-3.8363
X4.77Y-3.9363
X4.77Y-4.0363
X4.77Y-4.1363
X4.77Y-4.2363
X4.77Y-4.3363
T3
X4.07Y-3.1004
X4.07Y-3.2004
X4.07Y-3.3004
X4.07Y-3.4004
X4.07Y-3.57
X4.07Y-3.67
X4.07Y-3.77
X4.07Y-3.87
X4.07Y-3.97
X4.07Y-4.07
X4.07Y-4.17
X4.07Y-4.27
X4.07Y-4.37
X4.1698Y-2.7194
X4.1698Y-2.8194
X4.1698Y-2.9194
X4.2698Y-2.7194
X4.2698Y-2.8194
X4.2698Y-2.9194
X5.03Y-2.77
X5.03Y-2.87
X5.3035Y-3.2958
X5.3035Y-3.3958
X5.3035Y-3.4958
X5.3035Y-3.5958
X5.3035Y-3.6958
X5.3035Y-3.7958
X5.3072Y-3.0208
X5.3072Y-3.1208
T4
X4.4736Y-2.7137
X4.7964Y-2.7137
T0
M30
