%TF.GenerationSoftware,KiCad,Pcbnew,(6.0.7)*%
%TF.CreationDate,2022-11-04T10:53:51-04:00*%
%TF.ProjectId,proj_7,70726f6a-5f37-42e6-9b69-6361645f7063,rev?*%
%TF.SameCoordinates,Original*%
%TF.FileFunction,Soldermask,Bot*%
%TF.FilePolarity,Negative*%
%FSLAX46Y46*%
G04 Gerber Fmt 4.6, Leading zero omitted, Abs format (unit mm)*
G04 Created by KiCad (PCBNEW (6.0.7)) date 2022-11-04 10:53:51*
%MOMM*%
%LPD*%
G01*
G04 APERTURE LIST*
%ADD10C,2.500000*%
%ADD11R,1.700000X1.700000*%
%ADD12O,1.700000X1.700000*%
%ADD13O,2.200000X3.500000*%
%ADD14R,1.500000X2.500000*%
%ADD15O,1.500000X2.500000*%
%ADD16C,1.500000*%
%ADD17R,1.600000X1.600000*%
%ADD18O,1.600000X1.600000*%
G04 APERTURE END LIST*
D10*
%TO.C,H2*%
X134645400Y-70332600D03*
%TD*%
D11*
%TO.C,J1*%
X134710000Y-96413000D03*
D12*
X134710000Y-93873000D03*
X134710000Y-91333000D03*
X134710000Y-88793000D03*
X134710000Y-86253000D03*
X134710000Y-83713000D03*
%TD*%
D13*
%TO.C,SW1*%
X113629000Y-68928300D03*
X121829000Y-68928300D03*
D14*
X115729000Y-68928300D03*
D15*
X117729000Y-68928300D03*
X119729000Y-68928300D03*
%TD*%
D10*
%TO.C,H1*%
X100736400Y-70840600D03*
%TD*%
%TO.C,H4*%
X134696200Y-117017800D03*
%TD*%
D16*
%TO.C,Y2*%
X108454000Y-96848000D03*
X108454000Y-101728000D03*
%TD*%
D17*
%TO.C,U1*%
X113538000Y-77122000D03*
D18*
X113538000Y-79662000D03*
X113538000Y-82202000D03*
X113538000Y-84742000D03*
X113538000Y-87282000D03*
X113538000Y-89822000D03*
X113538000Y-92362000D03*
X113538000Y-94902000D03*
X113538000Y-97442000D03*
X113538000Y-99982000D03*
X113538000Y-102522000D03*
X113538000Y-105062000D03*
X113538000Y-107602000D03*
X113538000Y-110142000D03*
X121158000Y-110142000D03*
X121158000Y-107602000D03*
X121158000Y-105062000D03*
X121158000Y-102522000D03*
X121158000Y-99982000D03*
X121158000Y-97442000D03*
X121158000Y-94902000D03*
X121158000Y-92362000D03*
X121158000Y-89822000D03*
X121158000Y-87282000D03*
X121158000Y-84742000D03*
X121158000Y-82202000D03*
X121158000Y-79662000D03*
X121158000Y-77122000D03*
%TD*%
D11*
%TO.C,J2*%
X108454000Y-74152000D03*
D12*
X105914000Y-74152000D03*
X108454000Y-71612000D03*
X105914000Y-71612000D03*
X108454000Y-69072000D03*
X105914000Y-69072000D03*
%TD*%
D11*
%TO.C,J3*%
X103378000Y-90678000D03*
D12*
X103378000Y-93218000D03*
X103378000Y-95758000D03*
X103378000Y-98298000D03*
X103378000Y-100838000D03*
X103378000Y-103378000D03*
X103378000Y-105918000D03*
X103378000Y-108458000D03*
X103378000Y-110998000D03*
%TD*%
D11*
%TO.C,J6*%
X103378000Y-78750000D03*
D12*
X103378000Y-81290000D03*
X103378000Y-83830000D03*
X103378000Y-86370000D03*
%TD*%
D11*
%TO.C,J5*%
X134804000Y-79268000D03*
D12*
X134804000Y-76728000D03*
%TD*%
D10*
%TO.C,H3*%
X101092000Y-117221000D03*
%TD*%
D11*
%TO.C,BT1*%
X127762000Y-70358000D03*
D12*
X127762000Y-72898000D03*
%TD*%
M02*
