%TF.GenerationSoftware,KiCad,Pcbnew,(6.0.7)*%
%TF.CreationDate,2022-10-10T10:06:43-04:00*%
%TF.ProjectId,proj_6,70726f6a-5f36-42e6-9b69-6361645f7063,rev?*%
%TF.SameCoordinates,Original*%
%TF.FileFunction,Legend,Bot*%
%TF.FilePolarity,Positive*%
%FSLAX46Y46*%
G04 Gerber Fmt 4.6, Leading zero omitted, Abs format (unit mm)*
G04 Created by KiCad (PCBNEW (6.0.7)) date 2022-10-10 10:06:43*
%MOMM*%
%LPD*%
G01*
G04 APERTURE LIST*
%ADD10C,0.150000*%
%ADD11C,0.120000*%
G04 APERTURE END LIST*
D10*
%TO.C,BT1*%
X146581714Y-67976571D02*
X146438857Y-68024190D01*
X146391238Y-68071809D01*
X146343619Y-68167047D01*
X146343619Y-68309904D01*
X146391238Y-68405142D01*
X146438857Y-68452761D01*
X146534095Y-68500380D01*
X146915047Y-68500380D01*
X146915047Y-67500380D01*
X146581714Y-67500380D01*
X146486476Y-67548000D01*
X146438857Y-67595619D01*
X146391238Y-67690857D01*
X146391238Y-67786095D01*
X146438857Y-67881333D01*
X146486476Y-67928952D01*
X146581714Y-67976571D01*
X146915047Y-67976571D01*
X146057904Y-67500380D02*
X145486476Y-67500380D01*
X145772190Y-68500380D02*
X145772190Y-67500380D01*
X144629333Y-68500380D02*
X145200761Y-68500380D01*
X144915047Y-68500380D02*
X144915047Y-67500380D01*
X145010285Y-67643238D01*
X145105523Y-67738476D01*
X145200761Y-67786095D01*
D11*
X135326000Y-74363000D02*
X136933090Y-74363000D01*
X135326000Y-76248000D02*
X135326000Y-74363000D01*
X156266000Y-82248000D02*
X156266000Y-84133000D01*
X156266000Y-76248000D02*
X156266000Y-74363000D01*
X135326000Y-84133000D02*
X136933090Y-84133000D01*
X135326000Y-82248000D02*
X135326000Y-84133000D01*
X156266000Y-74363000D02*
X154658910Y-74363000D01*
X156266000Y-84133000D02*
X154658910Y-84133000D01*
X136930979Y-84129168D02*
G75*
G03*
X154658910Y-84133000I8865021J4881167D01*
G01*
X154658910Y-74363000D02*
G75*
G03*
X136933090Y-74363000I-8862910J-4885000D01*
G01*
%TD*%
M02*
