%TF.GenerationSoftware,KiCad,Pcbnew,(6.0.7)*%
%TF.CreationDate,2022-09-19T10:22:26-04:00*%
%TF.ProjectId,proj_2,70726f6a-5f32-42e6-9b69-6361645f7063,rev?*%
%TF.SameCoordinates,Original*%
%TF.FileFunction,Copper,L1,Top*%
%TF.FilePolarity,Positive*%
%FSLAX46Y46*%
G04 Gerber Fmt 4.6, Leading zero omitted, Abs format (unit mm)*
G04 Created by KiCad (PCBNEW (6.0.7)) date 2022-09-19 10:22:26*
%MOMM*%
%LPD*%
G01*
G04 APERTURE LIST*
%TA.AperFunction,ComponentPad*%
%ADD10C,1.600000*%
%TD*%
%TA.AperFunction,ComponentPad*%
%ADD11O,1.600000X1.600000*%
%TD*%
%TA.AperFunction,ComponentPad*%
%ADD12R,1.600000X1.600000*%
%TD*%
%TA.AperFunction,ComponentPad*%
%ADD13R,2.170000X2.170000*%
%TD*%
%TA.AperFunction,ComponentPad*%
%ADD14C,2.500000*%
%TD*%
%TA.AperFunction,ComponentPad*%
%ADD15R,1.500000X1.050000*%
%TD*%
%TA.AperFunction,ComponentPad*%
%ADD16O,1.500000X1.050000*%
%TD*%
%TA.AperFunction,ComponentPad*%
%ADD17R,1.800000X1.800000*%
%TD*%
%TA.AperFunction,ComponentPad*%
%ADD18C,1.800000*%
%TD*%
%TA.AperFunction,ComponentPad*%
%ADD19C,1.524000*%
%TD*%
%TA.AperFunction,ComponentPad*%
%ADD20R,1.900000X1.900000*%
%TD*%
%TA.AperFunction,ComponentPad*%
%ADD21C,1.900000*%
%TD*%
%TA.AperFunction,Conductor*%
%ADD22C,0.762000*%
%TD*%
%TA.AperFunction,Conductor*%
%ADD23C,0.250000*%
%TD*%
G04 APERTURE END LIST*
D10*
%TO.P,R5,1*%
%TO.N,Net-(C2-Pad1)*%
X171450000Y-94272000D03*
D11*
%TO.P,R5,2*%
%TO.N,Net-(Q1-Pad2)*%
X163830000Y-94272000D03*
%TD*%
D10*
%TO.P,R6,1*%
%TO.N,VCC*%
X156210000Y-88392000D03*
D11*
%TO.P,R6,2*%
%TO.N,Net-(D1-Pad2)*%
X156210000Y-80772000D03*
%TD*%
D12*
%TO.P,C1,1*%
%TO.N,Net-(C1-Pad1)*%
X155702000Y-101152888D03*
D10*
%TO.P,C1,2*%
%TO.N,GND*%
X155702000Y-103152888D03*
%TD*%
%TO.P,R7,1*%
%TO.N,VCC*%
X160782000Y-88392000D03*
D11*
%TO.P,R7,2*%
%TO.N,Net-(D2-Pad2)*%
X160782000Y-80772000D03*
%TD*%
D13*
%TO.P,BAT1,Neg*%
%TO.N,GND*%
X122936000Y-101231700D03*
D14*
%TO.P,BAT1,Pos*%
%TO.N,Net-(BAT1-PadPos)*%
X122936000Y-81231700D03*
%TD*%
D10*
%TO.P,R1,1*%
%TO.N,VCC*%
X146558000Y-88392000D03*
D11*
%TO.P,R1,2*%
%TO.N,Net-(R1-Pad2)*%
X146558000Y-80772000D03*
%TD*%
D15*
%TO.P,Q1,1,E*%
%TO.N,GND*%
X155808000Y-95504000D03*
D16*
%TO.P,Q1,2,B*%
%TO.N,Net-(Q1-Pad2)*%
X155808000Y-94234000D03*
%TO.P,Q1,3,C*%
%TO.N,Net-(D1-Pad1)*%
X155808000Y-92964000D03*
%TD*%
D17*
%TO.P,D2,1,K*%
%TO.N,Net-(D1-Pad1)*%
X152654000Y-34295000D03*
D18*
%TO.P,D2,2,A*%
%TO.N,Net-(D2-Pad2)*%
X152654000Y-31755000D03*
%TD*%
D10*
%TO.P,R4,1*%
%TO.N,Net-(C2-Pad1)*%
X170434000Y-88392000D03*
D11*
%TO.P,R4,2*%
%TO.N,GND*%
X170434000Y-80772000D03*
%TD*%
D17*
%TO.P,D1,1,K*%
%TO.N,Net-(D1-Pad1)*%
X131826000Y-34295000D03*
D18*
%TO.P,D1,2,A*%
%TO.N,Net-(D1-Pad2)*%
X131826000Y-31755000D03*
%TD*%
D19*
%TO.P,U1,1,GND*%
%TO.N,GND*%
X138430000Y-104648000D03*
%TO.P,U1,2,~{TRIG}*%
%TO.N,Net-(C1-Pad1)*%
X140970000Y-104648000D03*
%TO.P,U1,3,OUT*%
%TO.N,Net-(R3-Pad1)*%
X143510000Y-104648000D03*
%TO.P,U1,4,~{RST}*%
%TO.N,VCC*%
X146050000Y-104648000D03*
%TO.P,U1,5,CV*%
%TO.N,unconnected-(U1-Pad5)*%
X146050000Y-97028000D03*
%TO.P,U1,6,THRESH*%
%TO.N,Net-(C1-Pad1)*%
X143510000Y-97028000D03*
%TO.P,U1,7,DIS*%
%TO.N,Net-(R1-Pad2)*%
X140970000Y-97028000D03*
%TO.P,U1,8,VDD*%
%TO.N,VCC*%
X138430000Y-97028000D03*
%TD*%
D20*
%TO.P,S1,1*%
%TO.N,unconnected-(S1-Pad1)*%
X139700000Y-88138000D03*
D21*
%TO.P,S1,2*%
%TO.N,VCC*%
X139700000Y-85638000D03*
%TO.P,S1,3*%
%TO.N,Net-(BAT1-PadPos)*%
X139700000Y-83138000D03*
%TD*%
D12*
%TO.P,C2,1*%
%TO.N,Net-(C2-Pad1)*%
X167640000Y-100584000D03*
D10*
%TO.P,C2,2*%
%TO.N,GND*%
X167640000Y-103084000D03*
%TD*%
%TO.P,R2,1*%
%TO.N,Net-(R1-Pad2)*%
X151384000Y-88392000D03*
D11*
%TO.P,R2,2*%
%TO.N,Net-(C1-Pad1)*%
X151384000Y-80772000D03*
%TD*%
D10*
%TO.P,R3,1*%
%TO.N,Net-(R3-Pad1)*%
X165608000Y-88392000D03*
D11*
%TO.P,R3,2*%
%TO.N,Net-(C2-Pad1)*%
X165608000Y-80772000D03*
%TD*%
D22*
%TO.N,Net-(BAT1-PadPos)*%
X122936000Y-81231700D02*
X137793700Y-81231700D01*
X137793700Y-81231700D02*
X139700000Y-83138000D01*
D23*
%TO.N,Net-(C1-Pad1)*%
X143510000Y-97028000D02*
X147634888Y-101152888D01*
X142494000Y-106172000D02*
X147695776Y-106172000D01*
X147695776Y-106172000D02*
X152714888Y-101152888D01*
X140970000Y-104648000D02*
X142494000Y-106172000D01*
X147634888Y-101152888D02*
X152714888Y-101152888D01*
X152714888Y-101152888D02*
X155702000Y-101152888D01*
%TO.N,Net-(C2-Pad1)*%
X171450000Y-89408000D02*
X170434000Y-88392000D01*
X170434000Y-85598000D02*
X170434000Y-88392000D01*
X165608000Y-80772000D02*
X170434000Y-85598000D01*
X171450000Y-94272000D02*
X171450000Y-89408000D01*
X167640000Y-100584000D02*
X171450000Y-96774000D01*
X171450000Y-96774000D02*
X171450000Y-94272000D01*
%TO.N,Net-(Q1-Pad2)*%
X155846000Y-94272000D02*
X155808000Y-94234000D01*
X163830000Y-94272000D02*
X155846000Y-94272000D01*
D22*
%TO.N,VCC*%
X155194000Y-90170000D02*
X156210000Y-89154000D01*
X143804000Y-85638000D02*
X146558000Y-88392000D01*
X138136000Y-85638000D02*
X139700000Y-85638000D01*
X146558000Y-88392000D02*
X148336000Y-90170000D01*
X148336000Y-90170000D02*
X155194000Y-90170000D01*
X136398000Y-87376000D02*
X138136000Y-85638000D01*
X138430000Y-97028000D02*
X146050000Y-104648000D01*
X138430000Y-97028000D02*
X138430000Y-93980000D01*
X138430000Y-93980000D02*
X136398000Y-91948000D01*
X136398000Y-91948000D02*
X136398000Y-87376000D01*
X160782000Y-88392000D02*
X156210000Y-88392000D01*
X139700000Y-85638000D02*
X143804000Y-85638000D01*
X156210000Y-89154000D02*
X156210000Y-88392000D01*
D23*
%TO.N,Net-(R1-Pad2)*%
X151384000Y-88392000D02*
X151384000Y-85598000D01*
X151384000Y-85598000D02*
X146558000Y-80772000D01*
%TD*%
M02*
