%TF.GenerationSoftware,KiCad,Pcbnew,(6.0.7)*%
%TF.CreationDate,2022-09-19T10:22:26-04:00*%
%TF.ProjectId,proj_2,70726f6a-5f32-42e6-9b69-6361645f7063,rev?*%
%TF.SameCoordinates,Original*%
%TF.FileFunction,Legend,Top*%
%TF.FilePolarity,Positive*%
%FSLAX46Y46*%
G04 Gerber Fmt 4.6, Leading zero omitted, Abs format (unit mm)*
G04 Created by KiCad (PCBNEW (6.0.7)) date 2022-09-19 10:22:26*
%MOMM*%
%LPD*%
G01*
G04 APERTURE LIST*
%ADD10C,0.150000*%
%ADD11C,0.120000*%
%ADD12C,0.100000*%
%ADD13C,0.203200*%
G04 APERTURE END LIST*
D10*
X113792000Y-36322000D02*
X170688000Y-36322000D01*
X170688000Y-36322000D02*
X170688000Y-74930000D01*
X170688000Y-74930000D02*
X113792000Y-74930000D01*
X113792000Y-74930000D02*
X113792000Y-36322000D01*
%TO.C,R5*%
X167473333Y-97094380D02*
X167140000Y-96618190D01*
X166901904Y-97094380D02*
X166901904Y-96094380D01*
X167282857Y-96094380D01*
X167378095Y-96142000D01*
X167425714Y-96189619D01*
X167473333Y-96284857D01*
X167473333Y-96427714D01*
X167425714Y-96522952D01*
X167378095Y-96570571D01*
X167282857Y-96618190D01*
X166901904Y-96618190D01*
X168378095Y-96094380D02*
X167901904Y-96094380D01*
X167854285Y-96570571D01*
X167901904Y-96522952D01*
X167997142Y-96475333D01*
X168235238Y-96475333D01*
X168330476Y-96522952D01*
X168378095Y-96570571D01*
X168425714Y-96665809D01*
X168425714Y-96903904D01*
X168378095Y-96999142D01*
X168330476Y-97046761D01*
X168235238Y-97094380D01*
X167997142Y-97094380D01*
X167901904Y-97046761D01*
X167854285Y-96999142D01*
%TO.C,R6*%
X154292380Y-84748666D02*
X153816190Y-85082000D01*
X154292380Y-85320095D02*
X153292380Y-85320095D01*
X153292380Y-84939142D01*
X153340000Y-84843904D01*
X153387619Y-84796285D01*
X153482857Y-84748666D01*
X153625714Y-84748666D01*
X153720952Y-84796285D01*
X153768571Y-84843904D01*
X153816190Y-84939142D01*
X153816190Y-85320095D01*
X153292380Y-83891523D02*
X153292380Y-84082000D01*
X153340000Y-84177238D01*
X153387619Y-84224857D01*
X153530476Y-84320095D01*
X153720952Y-84367714D01*
X154101904Y-84367714D01*
X154197142Y-84320095D01*
X154244761Y-84272476D01*
X154292380Y-84177238D01*
X154292380Y-83986761D01*
X154244761Y-83891523D01*
X154197142Y-83843904D01*
X154101904Y-83796285D01*
X153863809Y-83796285D01*
X153768571Y-83843904D01*
X153720952Y-83891523D01*
X153673333Y-83986761D01*
X153673333Y-84177238D01*
X153720952Y-84272476D01*
X153768571Y-84320095D01*
X153863809Y-84367714D01*
%TO.C,C1*%
X159809142Y-102319554D02*
X159856761Y-102367173D01*
X159904380Y-102510030D01*
X159904380Y-102605268D01*
X159856761Y-102748126D01*
X159761523Y-102843364D01*
X159666285Y-102890983D01*
X159475809Y-102938602D01*
X159332952Y-102938602D01*
X159142476Y-102890983D01*
X159047238Y-102843364D01*
X158952000Y-102748126D01*
X158904380Y-102605268D01*
X158904380Y-102510030D01*
X158952000Y-102367173D01*
X158999619Y-102319554D01*
X159904380Y-101367173D02*
X159904380Y-101938602D01*
X159904380Y-101652888D02*
X158904380Y-101652888D01*
X159047238Y-101748126D01*
X159142476Y-101843364D01*
X159190095Y-101938602D01*
%TO.C,R7*%
X158864380Y-84748666D02*
X158388190Y-85082000D01*
X158864380Y-85320095D02*
X157864380Y-85320095D01*
X157864380Y-84939142D01*
X157912000Y-84843904D01*
X157959619Y-84796285D01*
X158054857Y-84748666D01*
X158197714Y-84748666D01*
X158292952Y-84796285D01*
X158340571Y-84843904D01*
X158388190Y-84939142D01*
X158388190Y-85320095D01*
X157864380Y-84415333D02*
X157864380Y-83748666D01*
X158864380Y-84177238D01*
%TO.C,BAT1*%
X110558271Y-94917425D02*
X110605890Y-94774568D01*
X110653509Y-94726949D01*
X110748747Y-94679330D01*
X110891604Y-94679330D01*
X110986842Y-94726949D01*
X111034461Y-94774568D01*
X111082080Y-94869806D01*
X111082080Y-95250759D01*
X110082080Y-95250759D01*
X110082080Y-94917425D01*
X110129700Y-94822187D01*
X110177319Y-94774568D01*
X110272557Y-94726949D01*
X110367795Y-94726949D01*
X110463033Y-94774568D01*
X110510652Y-94822187D01*
X110558271Y-94917425D01*
X110558271Y-95250759D01*
X110796366Y-94298378D02*
X110796366Y-93822187D01*
X111082080Y-94393616D02*
X110082080Y-94060282D01*
X111082080Y-93726949D01*
X110082080Y-93536473D02*
X110082080Y-92965044D01*
X111082080Y-93250759D02*
X110082080Y-93250759D01*
X111082080Y-92107901D02*
X111082080Y-92679330D01*
X111082080Y-92393616D02*
X110082080Y-92393616D01*
X110224938Y-92488854D01*
X110320176Y-92584092D01*
X110367795Y-92679330D01*
%TO.C,R1*%
X144640380Y-84748666D02*
X144164190Y-85082000D01*
X144640380Y-85320095D02*
X143640380Y-85320095D01*
X143640380Y-84939142D01*
X143688000Y-84843904D01*
X143735619Y-84796285D01*
X143830857Y-84748666D01*
X143973714Y-84748666D01*
X144068952Y-84796285D01*
X144116571Y-84843904D01*
X144164190Y-84939142D01*
X144164190Y-85320095D01*
X144640380Y-83796285D02*
X144640380Y-84367714D01*
X144640380Y-84082000D02*
X143640380Y-84082000D01*
X143783238Y-84177238D01*
X143878476Y-84272476D01*
X143926095Y-84367714D01*
%TO.C,Q1*%
X152795619Y-94329238D02*
X152748000Y-94424476D01*
X152652761Y-94519714D01*
X152509904Y-94662571D01*
X152462285Y-94757809D01*
X152462285Y-94853047D01*
X152700380Y-94805428D02*
X152652761Y-94900666D01*
X152557523Y-94995904D01*
X152367047Y-95043523D01*
X152033714Y-95043523D01*
X151843238Y-94995904D01*
X151748000Y-94900666D01*
X151700380Y-94805428D01*
X151700380Y-94614952D01*
X151748000Y-94519714D01*
X151843238Y-94424476D01*
X152033714Y-94376857D01*
X152367047Y-94376857D01*
X152557523Y-94424476D01*
X152652761Y-94519714D01*
X152700380Y-94614952D01*
X152700380Y-94805428D01*
X152700380Y-93424476D02*
X152700380Y-93995904D01*
X152700380Y-93710190D02*
X151700380Y-93710190D01*
X151843238Y-93805428D01*
X151938476Y-93900666D01*
X151986095Y-93995904D01*
%TO.C,D2*%
X150146380Y-33763095D02*
X149146380Y-33763095D01*
X149146380Y-33525000D01*
X149194000Y-33382142D01*
X149289238Y-33286904D01*
X149384476Y-33239285D01*
X149574952Y-33191666D01*
X149717809Y-33191666D01*
X149908285Y-33239285D01*
X150003523Y-33286904D01*
X150098761Y-33382142D01*
X150146380Y-33525000D01*
X150146380Y-33763095D01*
X149241619Y-32810714D02*
X149194000Y-32763095D01*
X149146380Y-32667857D01*
X149146380Y-32429761D01*
X149194000Y-32334523D01*
X149241619Y-32286904D01*
X149336857Y-32239285D01*
X149432095Y-32239285D01*
X149574952Y-32286904D01*
X150146380Y-32858333D01*
X150146380Y-32239285D01*
%TO.C,R4*%
X168516380Y-84748666D02*
X168040190Y-85082000D01*
X168516380Y-85320095D02*
X167516380Y-85320095D01*
X167516380Y-84939142D01*
X167564000Y-84843904D01*
X167611619Y-84796285D01*
X167706857Y-84748666D01*
X167849714Y-84748666D01*
X167944952Y-84796285D01*
X167992571Y-84843904D01*
X168040190Y-84939142D01*
X168040190Y-85320095D01*
X167849714Y-83891523D02*
X168516380Y-83891523D01*
X167468761Y-84129619D02*
X168183047Y-84367714D01*
X168183047Y-83748666D01*
%TO.C,D1*%
X129318380Y-33763095D02*
X128318380Y-33763095D01*
X128318380Y-33525000D01*
X128366000Y-33382142D01*
X128461238Y-33286904D01*
X128556476Y-33239285D01*
X128746952Y-33191666D01*
X128889809Y-33191666D01*
X129080285Y-33239285D01*
X129175523Y-33286904D01*
X129270761Y-33382142D01*
X129318380Y-33525000D01*
X129318380Y-33763095D01*
X129318380Y-32239285D02*
X129318380Y-32810714D01*
X129318380Y-32525000D02*
X128318380Y-32525000D01*
X128461238Y-32620238D01*
X128556476Y-32715476D01*
X128604095Y-32810714D01*
%TO.C,U1*%
X141478095Y-94575380D02*
X141478095Y-95384904D01*
X141525714Y-95480142D01*
X141573333Y-95527761D01*
X141668571Y-95575380D01*
X141859047Y-95575380D01*
X141954285Y-95527761D01*
X142001904Y-95480142D01*
X142049523Y-95384904D01*
X142049523Y-94575380D01*
X143049523Y-95575380D02*
X142478095Y-95575380D01*
X142763809Y-95575380D02*
X142763809Y-94575380D01*
X142668571Y-94718238D01*
X142573333Y-94813476D01*
X142478095Y-94861095D01*
%TO.C,S1*%
X137084761Y-86409904D02*
X137132380Y-86267047D01*
X137132380Y-86028952D01*
X137084761Y-85933714D01*
X137037142Y-85886095D01*
X136941904Y-85838476D01*
X136846666Y-85838476D01*
X136751428Y-85886095D01*
X136703809Y-85933714D01*
X136656190Y-86028952D01*
X136608571Y-86219428D01*
X136560952Y-86314666D01*
X136513333Y-86362285D01*
X136418095Y-86409904D01*
X136322857Y-86409904D01*
X136227619Y-86362285D01*
X136180000Y-86314666D01*
X136132380Y-86219428D01*
X136132380Y-85981333D01*
X136180000Y-85838476D01*
X137132380Y-84886095D02*
X137132380Y-85457523D01*
X137132380Y-85171809D02*
X136132380Y-85171809D01*
X136275238Y-85267047D01*
X136370476Y-85362285D01*
X136418095Y-85457523D01*
%TO.C,C2*%
X172397142Y-102000666D02*
X172444761Y-102048285D01*
X172492380Y-102191142D01*
X172492380Y-102286380D01*
X172444761Y-102429238D01*
X172349523Y-102524476D01*
X172254285Y-102572095D01*
X172063809Y-102619714D01*
X171920952Y-102619714D01*
X171730476Y-102572095D01*
X171635238Y-102524476D01*
X171540000Y-102429238D01*
X171492380Y-102286380D01*
X171492380Y-102191142D01*
X171540000Y-102048285D01*
X171587619Y-102000666D01*
X171587619Y-101619714D02*
X171540000Y-101572095D01*
X171492380Y-101476857D01*
X171492380Y-101238761D01*
X171540000Y-101143523D01*
X171587619Y-101095904D01*
X171682857Y-101048285D01*
X171778095Y-101048285D01*
X171920952Y-101095904D01*
X172492380Y-101667333D01*
X172492380Y-101048285D01*
%TO.C,R2*%
X149466380Y-84748666D02*
X148990190Y-85082000D01*
X149466380Y-85320095D02*
X148466380Y-85320095D01*
X148466380Y-84939142D01*
X148514000Y-84843904D01*
X148561619Y-84796285D01*
X148656857Y-84748666D01*
X148799714Y-84748666D01*
X148894952Y-84796285D01*
X148942571Y-84843904D01*
X148990190Y-84939142D01*
X148990190Y-85320095D01*
X148561619Y-84367714D02*
X148514000Y-84320095D01*
X148466380Y-84224857D01*
X148466380Y-83986761D01*
X148514000Y-83891523D01*
X148561619Y-83843904D01*
X148656857Y-83796285D01*
X148752095Y-83796285D01*
X148894952Y-83843904D01*
X149466380Y-84415333D01*
X149466380Y-83796285D01*
%TO.C,R3*%
X163690380Y-84748666D02*
X163214190Y-85082000D01*
X163690380Y-85320095D02*
X162690380Y-85320095D01*
X162690380Y-84939142D01*
X162738000Y-84843904D01*
X162785619Y-84796285D01*
X162880857Y-84748666D01*
X163023714Y-84748666D01*
X163118952Y-84796285D01*
X163166571Y-84843904D01*
X163214190Y-84939142D01*
X163214190Y-85320095D01*
X162690380Y-84415333D02*
X162690380Y-83796285D01*
X163071333Y-84129619D01*
X163071333Y-83986761D01*
X163118952Y-83891523D01*
X163166571Y-83843904D01*
X163261809Y-83796285D01*
X163499904Y-83796285D01*
X163595142Y-83843904D01*
X163642761Y-83891523D01*
X163690380Y-83986761D01*
X163690380Y-84272476D01*
X163642761Y-84367714D01*
X163595142Y-84415333D01*
D11*
%TO.C,R5*%
X170910000Y-92902000D02*
X164370000Y-92902000D01*
X164370000Y-92902000D02*
X164370000Y-93232000D01*
X164370000Y-95642000D02*
X164370000Y-95312000D01*
X170910000Y-93232000D02*
X170910000Y-92902000D01*
X170910000Y-95312000D02*
X170910000Y-95642000D01*
X170910000Y-95642000D02*
X164370000Y-95642000D01*
%TO.C,R6*%
X157250000Y-87852000D02*
X157580000Y-87852000D01*
X157580000Y-81312000D02*
X157250000Y-81312000D01*
X154840000Y-87852000D02*
X154840000Y-81312000D01*
X157580000Y-87852000D02*
X157580000Y-81312000D01*
X154840000Y-81312000D02*
X155170000Y-81312000D01*
X155170000Y-87852000D02*
X154840000Y-87852000D01*
%TO.C,C1*%
X154662000Y-102312888D02*
X153126000Y-102312888D01*
X157177000Y-99348113D02*
X157177000Y-99848113D01*
X156379000Y-104673888D02*
X155025000Y-104673888D01*
X157767000Y-103713888D02*
X156742000Y-103713888D01*
X154662000Y-102993888D02*
X153260000Y-102993888D01*
X156800000Y-104513888D02*
X154604000Y-104513888D01*
X154662000Y-103673888D02*
X153607000Y-103673888D01*
X158116000Y-103073888D02*
X156742000Y-103073888D01*
X157445000Y-104073888D02*
X156742000Y-104073888D01*
X156617000Y-104593888D02*
X154787000Y-104593888D01*
X154662000Y-103473888D02*
X153478000Y-103473888D01*
X154662000Y-102592888D02*
X153159000Y-102592888D01*
X154662000Y-103273888D02*
X153373000Y-103273888D01*
X158230000Y-102672888D02*
X156742000Y-102672888D01*
X154662000Y-104033888D02*
X153917000Y-104033888D01*
X154662000Y-102552888D02*
X153152000Y-102552888D01*
X158050000Y-103233888D02*
X156742000Y-103233888D01*
X157355000Y-104153888D02*
X156742000Y-104153888D01*
X154662000Y-103793888D02*
X153698000Y-103793888D01*
X156507000Y-104633888D02*
X154897000Y-104633888D01*
X154662000Y-103433888D02*
X153455000Y-103433888D01*
X158275000Y-102352888D02*
X156742000Y-102352888D01*
X158271000Y-102392888D02*
X156742000Y-102392888D01*
X154662000Y-103513888D02*
X153502000Y-103513888D01*
X156220000Y-104713888D02*
X155184000Y-104713888D01*
X154662000Y-103153888D02*
X153320000Y-103153888D01*
X158267000Y-102432888D02*
X156742000Y-102432888D01*
X158203000Y-102792888D02*
X156742000Y-102792888D01*
X158222000Y-102712888D02*
X156742000Y-102712888D01*
X154662000Y-103033888D02*
X153274000Y-103033888D01*
X157877000Y-103553888D02*
X156742000Y-103553888D01*
X157902000Y-103513888D02*
X156742000Y-103513888D01*
X156880000Y-104473888D02*
X154524000Y-104473888D01*
X158193000Y-102832888D02*
X156742000Y-102832888D01*
X157737000Y-103753888D02*
X156742000Y-103753888D01*
X157021000Y-104393888D02*
X154383000Y-104393888D01*
X154662000Y-103633888D02*
X153580000Y-103633888D01*
X157202000Y-104273888D02*
X154202000Y-104273888D01*
X157970000Y-103393888D02*
X156742000Y-103393888D01*
X154662000Y-102232888D02*
X153123000Y-102232888D01*
X154662000Y-103233888D02*
X153354000Y-103233888D01*
X154662000Y-103193888D02*
X153337000Y-103193888D01*
X158278000Y-102312888D02*
X156742000Y-102312888D01*
X157427000Y-99598113D02*
X156927000Y-99598113D01*
X154662000Y-102352888D02*
X153129000Y-102352888D01*
X154662000Y-103113888D02*
X153304000Y-103113888D01*
X157256000Y-104233888D02*
X154148000Y-104233888D01*
X154662000Y-103313888D02*
X153392000Y-103313888D01*
X154662000Y-102752888D02*
X153191000Y-102752888D01*
X158281000Y-102232888D02*
X156742000Y-102232888D01*
X154662000Y-102953888D02*
X153247000Y-102953888D01*
X154662000Y-103833888D02*
X153731000Y-103833888D01*
X158245000Y-102592888D02*
X156742000Y-102592888D01*
X158258000Y-102512888D02*
X156742000Y-102512888D01*
X157851000Y-103593888D02*
X156742000Y-103593888D01*
X158130000Y-103033888D02*
X156742000Y-103033888D01*
X154662000Y-103393888D02*
X153434000Y-103393888D01*
X154662000Y-102792888D02*
X153201000Y-102792888D01*
X154662000Y-103953888D02*
X153838000Y-103953888D01*
X157085000Y-104353888D02*
X154319000Y-104353888D01*
X154662000Y-103873888D02*
X153765000Y-103873888D01*
X158012000Y-103313888D02*
X156742000Y-103313888D01*
X158252000Y-102552888D02*
X156742000Y-102552888D01*
X154662000Y-103353888D02*
X153412000Y-103353888D01*
X154662000Y-102152888D02*
X153122000Y-102152888D01*
X154662000Y-103073888D02*
X153288000Y-103073888D01*
X157706000Y-103793888D02*
X156742000Y-103793888D01*
X154662000Y-102272888D02*
X153124000Y-102272888D01*
X157824000Y-103633888D02*
X156742000Y-103633888D01*
X154662000Y-102192888D02*
X153122000Y-102192888D01*
X154662000Y-102913888D02*
X153234000Y-102913888D01*
X154662000Y-102873888D02*
X153222000Y-102873888D01*
X156713000Y-104553888D02*
X154691000Y-104553888D01*
X154662000Y-103553888D02*
X153527000Y-103553888D01*
X158282000Y-102152888D02*
X156742000Y-102152888D01*
X154662000Y-102672888D02*
X153174000Y-102672888D01*
X158182000Y-102873888D02*
X156742000Y-102873888D01*
X158213000Y-102752888D02*
X156742000Y-102752888D01*
X154662000Y-103993888D02*
X153876000Y-103993888D01*
X154662000Y-102512888D02*
X153146000Y-102512888D01*
X158100000Y-103113888D02*
X156742000Y-103113888D01*
X155986000Y-104753888D02*
X155418000Y-104753888D01*
X157566000Y-103953888D02*
X156742000Y-103953888D01*
X158031000Y-103273888D02*
X156742000Y-103273888D01*
X157487000Y-104033888D02*
X156742000Y-104033888D01*
X157307000Y-104193888D02*
X154097000Y-104193888D01*
X157949000Y-103433888D02*
X156742000Y-103433888D01*
X158084000Y-103153888D02*
X156742000Y-103153888D01*
X158282000Y-102192888D02*
X156742000Y-102192888D01*
X158238000Y-102632888D02*
X156742000Y-102632888D01*
X158144000Y-102993888D02*
X156742000Y-102993888D01*
X157401000Y-104113888D02*
X156742000Y-104113888D01*
X157797000Y-103673888D02*
X156742000Y-103673888D01*
X158170000Y-102913888D02*
X156742000Y-102913888D01*
X157639000Y-103873888D02*
X156742000Y-103873888D01*
X157528000Y-103993888D02*
X156742000Y-103993888D01*
X154662000Y-104073888D02*
X153959000Y-104073888D01*
X158263000Y-102472888D02*
X156742000Y-102472888D01*
X154662000Y-104113888D02*
X154003000Y-104113888D01*
X157926000Y-103473888D02*
X156742000Y-103473888D01*
X154662000Y-102392888D02*
X153133000Y-102392888D01*
X154662000Y-102712888D02*
X153182000Y-102712888D01*
X157992000Y-103353888D02*
X156742000Y-103353888D01*
X157673000Y-103833888D02*
X156742000Y-103833888D01*
X154662000Y-103593888D02*
X153553000Y-103593888D01*
X158280000Y-102272888D02*
X156742000Y-102272888D01*
X154662000Y-102432888D02*
X153137000Y-102432888D01*
X157145000Y-104313888D02*
X154259000Y-104313888D01*
X154662000Y-102472888D02*
X153141000Y-102472888D01*
X154662000Y-103713888D02*
X153637000Y-103713888D01*
X158157000Y-102953888D02*
X156742000Y-102953888D01*
X158067000Y-103193888D02*
X156742000Y-103193888D01*
X154662000Y-102832888D02*
X153211000Y-102832888D01*
X154662000Y-102632888D02*
X153166000Y-102632888D01*
X157603000Y-103913888D02*
X156742000Y-103913888D01*
X154662000Y-104153888D02*
X154049000Y-104153888D01*
X156953000Y-104433888D02*
X154451000Y-104433888D01*
X154662000Y-103753888D02*
X153667000Y-103753888D01*
X154662000Y-103913888D02*
X153801000Y-103913888D01*
X158322000Y-102152888D02*
G75*
G03*
X158322000Y-102152888I-2620000J0D01*
G01*
%TO.C,R7*%
X162152000Y-81312000D02*
X161822000Y-81312000D01*
X159742000Y-87852000D02*
X159412000Y-87852000D01*
X159412000Y-81312000D02*
X159742000Y-81312000D01*
X161822000Y-87852000D02*
X162152000Y-87852000D01*
X159412000Y-87852000D02*
X159412000Y-81312000D01*
X162152000Y-87852000D02*
X162152000Y-81312000D01*
D12*
%TO.C,BAT1*%
X126847600Y-83197700D02*
X126847600Y-80454500D01*
X119024400Y-83197700D02*
X119024400Y-80454500D01*
X119024400Y-80454500D02*
X121869200Y-80454500D01*
X126847600Y-80454500D02*
X124002800Y-80454500D01*
X134162800Y-93764100D02*
G75*
G03*
X134162800Y-93764100I-11226800J0D01*
G01*
D11*
%TO.C,R1*%
X145188000Y-87852000D02*
X145188000Y-81312000D01*
X147928000Y-87852000D02*
X147928000Y-81312000D01*
X147598000Y-87852000D02*
X147928000Y-87852000D01*
X147928000Y-81312000D02*
X147598000Y-81312000D01*
X145518000Y-87852000D02*
X145188000Y-87852000D01*
X145188000Y-81312000D02*
X145518000Y-81312000D01*
%TO.C,Q1*%
X157658000Y-96034000D02*
X157658000Y-92434000D01*
X153207999Y-94234000D02*
G75*
G03*
X157646478Y-96072478I2600001J0D01*
G01*
X157646478Y-92395522D02*
G75*
G03*
X153208000Y-94234000I-1838478J-1838478D01*
G01*
%TO.C,D2*%
X153734000Y-34585000D02*
X153890000Y-34585000D01*
X151418000Y-34585000D02*
X151574000Y-34585000D01*
X153889516Y-34585000D02*
G75*
G03*
X153732608Y-31352665I-1235516J1560000D01*
G01*
X151574163Y-31983870D02*
G75*
G03*
X151574000Y-34065961I1079837J-1041130D01*
G01*
X153734000Y-34065961D02*
G75*
G03*
X153733837Y-31983870I-1080000J1040961D01*
G01*
X151575392Y-31352665D02*
G75*
G03*
X151418484Y-34585000I1078608J-1672335D01*
G01*
%TO.C,R4*%
X171804000Y-81312000D02*
X171474000Y-81312000D01*
X169064000Y-81312000D02*
X169394000Y-81312000D01*
X169394000Y-87852000D02*
X169064000Y-87852000D01*
X169064000Y-87852000D02*
X169064000Y-81312000D01*
X171804000Y-87852000D02*
X171804000Y-81312000D01*
X171474000Y-87852000D02*
X171804000Y-87852000D01*
%TO.C,D1*%
X132906000Y-34585000D02*
X133062000Y-34585000D01*
X130590000Y-34585000D02*
X130746000Y-34585000D01*
X130747392Y-31352665D02*
G75*
G03*
X130590484Y-34585000I1078608J-1672335D01*
G01*
X130746163Y-31983870D02*
G75*
G03*
X130746000Y-34065961I1079837J-1041130D01*
G01*
X132906000Y-34065961D02*
G75*
G03*
X132905837Y-31983870I-1080000J1040961D01*
G01*
X133061516Y-34585000D02*
G75*
G03*
X132904608Y-31352665I-1235516J1560000D01*
G01*
D13*
%TO.C,U1*%
X147320000Y-104394000D02*
X147320000Y-97282000D01*
X137160000Y-104394000D02*
X147320000Y-104394000D01*
X147320000Y-97282000D02*
X137160000Y-97282000D01*
X137160000Y-97282000D02*
X137160000Y-104394000D01*
D12*
%TO.C,S1*%
X141800000Y-79838000D02*
X141800000Y-80338000D01*
X137600000Y-91738000D02*
X138100000Y-91738000D01*
X137600000Y-91738000D02*
X137600000Y-91238000D01*
X141800000Y-91738000D02*
X141800000Y-91238000D01*
X141800000Y-79838000D02*
X141300000Y-79838000D01*
X137600000Y-79838000D02*
X137600000Y-80338000D01*
X141800000Y-91738000D02*
X141300000Y-91738000D01*
X137600000Y-79838000D02*
X138100000Y-79838000D01*
D11*
%TO.C,C2*%
X170556000Y-103235000D02*
X168680000Y-103235000D01*
X168902000Y-104835000D02*
X166378000Y-104835000D01*
X170430000Y-103475000D02*
X168680000Y-103475000D01*
X166600000Y-102875000D02*
X164579000Y-102875000D01*
X170714000Y-102835000D02*
X168680000Y-102835000D01*
X170452000Y-103435000D02*
X168680000Y-103435000D01*
X166600000Y-102795000D02*
X164554000Y-102795000D01*
X166600000Y-103475000D02*
X164850000Y-103475000D01*
X166600000Y-103755000D02*
X165033000Y-103755000D01*
X170592000Y-103155000D02*
X168680000Y-103155000D01*
X170868000Y-101954000D02*
X164412000Y-101954000D01*
X166600000Y-102234000D02*
X164434000Y-102234000D01*
X170474000Y-103395000D02*
X168680000Y-103395000D01*
X166600000Y-103795000D02*
X165062000Y-103795000D01*
X166600000Y-102995000D02*
X164622000Y-102995000D01*
X169732000Y-104315000D02*
X165548000Y-104315000D01*
X166600000Y-104035000D02*
X165260000Y-104035000D01*
X169479000Y-98333759D02*
X169479000Y-98963759D01*
X170218000Y-103795000D02*
X168680000Y-103795000D01*
X166600000Y-103435000D02*
X164828000Y-103435000D01*
X166600000Y-103715000D02*
X165004000Y-103715000D01*
X170761000Y-102675000D02*
X168680000Y-102675000D01*
X170673000Y-102955000D02*
X168680000Y-102955000D01*
X169777000Y-104275000D02*
X165503000Y-104275000D01*
X170822000Y-102394000D02*
X168680000Y-102394000D01*
X166600000Y-103195000D02*
X164706000Y-103195000D01*
X170851000Y-102194000D02*
X168680000Y-102194000D01*
X170056000Y-103995000D02*
X168680000Y-103995000D01*
X170156000Y-103875000D02*
X168680000Y-103875000D01*
X170496000Y-103355000D02*
X168680000Y-103355000D01*
X170835000Y-102314000D02*
X168680000Y-102314000D01*
X166600000Y-102314000D02*
X164445000Y-102314000D01*
X169072000Y-104755000D02*
X166208000Y-104755000D01*
X169221000Y-104675000D02*
X166059000Y-104675000D01*
X170642000Y-103035000D02*
X168680000Y-103035000D01*
X170610000Y-103115000D02*
X168680000Y-103115000D01*
X170356000Y-103595000D02*
X168680000Y-103595000D01*
X170815000Y-102434000D02*
X168680000Y-102434000D01*
X166600000Y-102474000D02*
X164473000Y-102474000D01*
X166600000Y-102154000D02*
X164425000Y-102154000D01*
X169416000Y-104555000D02*
X165864000Y-104555000D01*
X169822000Y-104235000D02*
X165458000Y-104235000D01*
X170382000Y-103555000D02*
X168680000Y-103555000D01*
X166600000Y-102675000D02*
X164519000Y-102675000D01*
X170862000Y-102074000D02*
X168680000Y-102074000D01*
X166600000Y-103595000D02*
X164924000Y-103595000D01*
X166600000Y-103115000D02*
X164670000Y-103115000D01*
X166600000Y-102514000D02*
X164481000Y-102514000D01*
X166600000Y-102715000D02*
X164530000Y-102715000D01*
X170771000Y-102635000D02*
X168680000Y-102635000D01*
X166600000Y-103035000D02*
X164638000Y-103035000D01*
X166600000Y-103915000D02*
X165156000Y-103915000D01*
X169354000Y-104595000D02*
X165926000Y-104595000D01*
X170090000Y-103955000D02*
X168680000Y-103955000D01*
X168699000Y-104915000D02*
X166581000Y-104915000D01*
X168580000Y-104955000D02*
X166700000Y-104955000D01*
X166600000Y-102354000D02*
X164451000Y-102354000D01*
X170738000Y-102755000D02*
X168680000Y-102755000D01*
X166600000Y-102635000D02*
X164509000Y-102635000D01*
X169474000Y-104515000D02*
X165806000Y-104515000D01*
X170726000Y-102795000D02*
X168680000Y-102795000D01*
X170867000Y-101994000D02*
X164413000Y-101994000D01*
X170687000Y-102915000D02*
X168680000Y-102915000D01*
X170870000Y-101914000D02*
X164410000Y-101914000D01*
X170247000Y-103755000D02*
X168680000Y-103755000D01*
X166600000Y-103355000D02*
X164784000Y-103355000D01*
X166600000Y-103275000D02*
X164744000Y-103275000D01*
X170750000Y-102715000D02*
X168680000Y-102715000D01*
X169794000Y-98648759D02*
X169164000Y-98648759D01*
X169584000Y-104435000D02*
X165696000Y-104435000D01*
X170701000Y-102875000D02*
X168680000Y-102875000D01*
X166600000Y-103155000D02*
X164688000Y-103155000D01*
X166600000Y-102555000D02*
X164490000Y-102555000D01*
X166600000Y-102595000D02*
X164499000Y-102595000D01*
X170781000Y-102595000D02*
X168680000Y-102595000D01*
X170516000Y-103315000D02*
X168680000Y-103315000D01*
X169530000Y-104475000D02*
X165750000Y-104475000D01*
X170124000Y-103915000D02*
X168680000Y-103915000D01*
X168990000Y-104795000D02*
X166290000Y-104795000D01*
X166600000Y-102835000D02*
X164566000Y-102835000D01*
X169983000Y-104075000D02*
X168680000Y-104075000D01*
X166600000Y-104115000D02*
X165335000Y-104115000D01*
X166600000Y-103515000D02*
X164874000Y-103515000D01*
X168042000Y-105075000D02*
X167238000Y-105075000D01*
X170536000Y-103275000D02*
X168680000Y-103275000D01*
X169945000Y-104115000D02*
X168680000Y-104115000D01*
X166600000Y-102394000D02*
X164458000Y-102394000D01*
X170855000Y-102154000D02*
X168680000Y-102154000D01*
X166600000Y-103075000D02*
X164654000Y-103075000D01*
X170574000Y-103195000D02*
X168680000Y-103195000D01*
X170790000Y-102555000D02*
X168680000Y-102555000D01*
X166600000Y-104075000D02*
X165297000Y-104075000D01*
X170846000Y-102234000D02*
X168680000Y-102234000D01*
X170799000Y-102514000D02*
X168680000Y-102514000D01*
X170304000Y-103675000D02*
X168680000Y-103675000D01*
X166600000Y-102114000D02*
X164422000Y-102114000D01*
X170858000Y-102114000D02*
X168680000Y-102114000D01*
X166600000Y-103955000D02*
X165190000Y-103955000D01*
X170330000Y-103635000D02*
X168680000Y-103635000D01*
X166600000Y-102074000D02*
X164418000Y-102074000D01*
X170020000Y-104035000D02*
X168680000Y-104035000D01*
X169864000Y-104195000D02*
X165416000Y-104195000D01*
X166600000Y-103315000D02*
X164764000Y-103315000D01*
X170807000Y-102474000D02*
X168680000Y-102474000D01*
X170864000Y-102034000D02*
X164416000Y-102034000D01*
X166600000Y-102955000D02*
X164607000Y-102955000D01*
X170626000Y-103075000D02*
X168680000Y-103075000D01*
X170870000Y-101834000D02*
X164410000Y-101834000D01*
X166600000Y-103675000D02*
X164976000Y-103675000D01*
X169684000Y-104355000D02*
X165596000Y-104355000D01*
X166600000Y-103835000D02*
X165092000Y-103835000D01*
X166600000Y-102915000D02*
X164593000Y-102915000D01*
X168273000Y-105035000D02*
X167007000Y-105035000D01*
X166600000Y-103555000D02*
X164898000Y-103555000D01*
X166600000Y-103635000D02*
X164950000Y-103635000D01*
X170829000Y-102354000D02*
X168680000Y-102354000D01*
X166600000Y-103875000D02*
X165124000Y-103875000D01*
X166600000Y-102755000D02*
X164542000Y-102755000D01*
X166600000Y-103395000D02*
X164806000Y-103395000D01*
X169149000Y-104715000D02*
X166131000Y-104715000D01*
X170841000Y-102274000D02*
X168680000Y-102274000D01*
X166600000Y-103995000D02*
X165224000Y-103995000D01*
X166600000Y-102434000D02*
X164465000Y-102434000D01*
X170276000Y-103715000D02*
X168680000Y-103715000D01*
X169290000Y-104635000D02*
X165990000Y-104635000D01*
X168805000Y-104875000D02*
X166475000Y-104875000D01*
X169905000Y-104155000D02*
X165375000Y-104155000D01*
X170406000Y-103515000D02*
X168680000Y-103515000D01*
X166600000Y-102274000D02*
X164439000Y-102274000D01*
X170188000Y-103835000D02*
X168680000Y-103835000D01*
X168442000Y-104995000D02*
X166838000Y-104995000D01*
X170870000Y-101874000D02*
X164410000Y-101874000D01*
X169635000Y-104395000D02*
X165645000Y-104395000D01*
X166600000Y-103235000D02*
X164724000Y-103235000D01*
X166600000Y-102194000D02*
X164429000Y-102194000D01*
X170658000Y-102995000D02*
X168680000Y-102995000D01*
X170910000Y-101834000D02*
G75*
G03*
X170910000Y-101834000I-3270000J0D01*
G01*
%TO.C,R2*%
X150344000Y-87852000D02*
X150014000Y-87852000D01*
X152424000Y-87852000D02*
X152754000Y-87852000D01*
X152754000Y-81312000D02*
X152424000Y-81312000D01*
X150014000Y-87852000D02*
X150014000Y-81312000D01*
X150014000Y-81312000D02*
X150344000Y-81312000D01*
X152754000Y-87852000D02*
X152754000Y-81312000D01*
%TO.C,R3*%
X166648000Y-87852000D02*
X166978000Y-87852000D01*
X164238000Y-87852000D02*
X164238000Y-81312000D01*
X164238000Y-81312000D02*
X164568000Y-81312000D01*
X164568000Y-87852000D02*
X164238000Y-87852000D01*
X166978000Y-87852000D02*
X166978000Y-81312000D01*
X166978000Y-81312000D02*
X166648000Y-81312000D01*
%TD*%
G36*
X170630121Y-36342002D02*
G01*
X170676614Y-36395658D01*
X170688000Y-36448000D01*
X170688000Y-74804000D01*
X170667998Y-74872121D01*
X170614342Y-74918614D01*
X170562000Y-74930000D01*
X113918000Y-74930000D01*
X113849879Y-74909998D01*
X113803386Y-74856342D01*
X113792000Y-74804000D01*
X113792000Y-36448000D01*
X113812002Y-36379879D01*
X113865658Y-36333386D01*
X113918000Y-36322000D01*
X170562000Y-36322000D01*
X170630121Y-36342002D01*
G37*
M02*
