%TF.GenerationSoftware,KiCad,Pcbnew,(6.0.7)*%
%TF.CreationDate,2022-09-19T10:22:26-04:00*%
%TF.ProjectId,proj_2,70726f6a-5f32-42e6-9b69-6361645f7063,rev?*%
%TF.SameCoordinates,Original*%
%TF.FileFunction,Legend,Bot*%
%TF.FilePolarity,Positive*%
%FSLAX46Y46*%
G04 Gerber Fmt 4.6, Leading zero omitted, Abs format (unit mm)*
G04 Created by KiCad (PCBNEW (6.0.7)) date 2022-09-19 10:22:26*
%MOMM*%
%LPD*%
G01*
G04 APERTURE LIST*
%ADD10C,0.150000*%
%ADD11C,0.010000*%
G04 APERTURE END LIST*
D10*
X146994000Y-53679380D02*
X146422571Y-53679380D01*
X146708285Y-54679380D02*
X146708285Y-53679380D01*
X146089238Y-53679380D02*
X146089238Y-54488904D01*
X146041619Y-54584142D01*
X145994000Y-54631761D01*
X145898761Y-54679380D01*
X145708285Y-54679380D01*
X145613047Y-54631761D01*
X145565428Y-54584142D01*
X145517809Y-54488904D01*
X145517809Y-53679380D01*
X144279714Y-54155571D02*
X143946380Y-54155571D01*
X143803523Y-54679380D02*
X144279714Y-54679380D01*
X144279714Y-53679380D01*
X143803523Y-53679380D01*
X142803523Y-54584142D02*
X142851142Y-54631761D01*
X142994000Y-54679380D01*
X143089238Y-54679380D01*
X143232095Y-54631761D01*
X143327333Y-54536523D01*
X143374952Y-54441285D01*
X143422571Y-54250809D01*
X143422571Y-54107952D01*
X143374952Y-53917476D01*
X143327333Y-53822238D01*
X143232095Y-53727000D01*
X143089238Y-53679380D01*
X142994000Y-53679380D01*
X142851142Y-53727000D01*
X142803523Y-53774619D01*
X142374952Y-54155571D02*
X142041619Y-54155571D01*
X141898761Y-54679380D02*
X142374952Y-54679380D01*
X142374952Y-53679380D01*
X141898761Y-53679380D01*
X141041619Y-54012714D02*
X141041619Y-54679380D01*
X141279714Y-53631761D02*
X141517809Y-54346047D01*
X140898761Y-54346047D01*
X139994000Y-54679380D02*
X140565428Y-54679380D01*
X140279714Y-54679380D02*
X140279714Y-53679380D01*
X140374952Y-53822238D01*
X140470190Y-53917476D01*
X140565428Y-53965095D01*
X139041619Y-54679380D02*
X139613047Y-54679380D01*
X139327333Y-54679380D02*
X139327333Y-53679380D01*
X139422571Y-53822238D01*
X139517809Y-53917476D01*
X139613047Y-53965095D01*
X138422571Y-53679380D02*
X138327333Y-53679380D01*
X138232095Y-53727000D01*
X138184476Y-53774619D01*
X138136857Y-53869857D01*
X138089238Y-54060333D01*
X138089238Y-54298428D01*
X138136857Y-54488904D01*
X138184476Y-54584142D01*
X138232095Y-54631761D01*
X138327333Y-54679380D01*
X138422571Y-54679380D01*
X138517809Y-54631761D01*
X138565428Y-54584142D01*
X138613047Y-54488904D01*
X138660666Y-54298428D01*
X138660666Y-54060333D01*
X138613047Y-53869857D01*
X138565428Y-53774619D01*
X138517809Y-53727000D01*
X138422571Y-53679380D01*
X153279714Y-56289380D02*
X153279714Y-55289380D01*
X152898761Y-55289380D01*
X152803523Y-55337000D01*
X152755904Y-55384619D01*
X152708285Y-55479857D01*
X152708285Y-55622714D01*
X152755904Y-55717952D01*
X152803523Y-55765571D01*
X152898761Y-55813190D01*
X153279714Y-55813190D01*
X152279714Y-56289380D02*
X152279714Y-55622714D01*
X152279714Y-55813190D02*
X152232095Y-55717952D01*
X152184476Y-55670333D01*
X152089238Y-55622714D01*
X151994000Y-55622714D01*
X151517809Y-56289380D02*
X151613047Y-56241761D01*
X151660666Y-56194142D01*
X151708285Y-56098904D01*
X151708285Y-55813190D01*
X151660666Y-55717952D01*
X151613047Y-55670333D01*
X151517809Y-55622714D01*
X151374952Y-55622714D01*
X151279714Y-55670333D01*
X151232095Y-55717952D01*
X151184476Y-55813190D01*
X151184476Y-56098904D01*
X151232095Y-56194142D01*
X151279714Y-56241761D01*
X151374952Y-56289380D01*
X151517809Y-56289380D01*
X150755904Y-55622714D02*
X150755904Y-56479857D01*
X150803523Y-56575095D01*
X150898761Y-56622714D01*
X150946380Y-56622714D01*
X150755904Y-55289380D02*
X150803523Y-55337000D01*
X150755904Y-55384619D01*
X150708285Y-55337000D01*
X150755904Y-55289380D01*
X150755904Y-55384619D01*
X149898761Y-56241761D02*
X149994000Y-56289380D01*
X150184476Y-56289380D01*
X150279714Y-56241761D01*
X150327333Y-56146523D01*
X150327333Y-55765571D01*
X150279714Y-55670333D01*
X150184476Y-55622714D01*
X149994000Y-55622714D01*
X149898761Y-55670333D01*
X149851142Y-55765571D01*
X149851142Y-55860809D01*
X150327333Y-55956047D01*
X148994000Y-56241761D02*
X149089238Y-56289380D01*
X149279714Y-56289380D01*
X149374952Y-56241761D01*
X149422571Y-56194142D01*
X149470190Y-56098904D01*
X149470190Y-55813190D01*
X149422571Y-55717952D01*
X149374952Y-55670333D01*
X149279714Y-55622714D01*
X149089238Y-55622714D01*
X148994000Y-55670333D01*
X148708285Y-55622714D02*
X148327333Y-55622714D01*
X148565428Y-55289380D02*
X148565428Y-56146523D01*
X148517809Y-56241761D01*
X148422571Y-56289380D01*
X148327333Y-56289380D01*
X147279714Y-55384619D02*
X147232095Y-55337000D01*
X147136857Y-55289380D01*
X146898761Y-55289380D01*
X146803523Y-55337000D01*
X146755904Y-55384619D01*
X146708285Y-55479857D01*
X146708285Y-55575095D01*
X146755904Y-55717952D01*
X147327333Y-56289380D01*
X146708285Y-56289380D01*
X146279714Y-56194142D02*
X146232095Y-56241761D01*
X146279714Y-56289380D01*
X146327333Y-56241761D01*
X146279714Y-56194142D01*
X146279714Y-56289380D01*
X146279714Y-55670333D02*
X146232095Y-55717952D01*
X146279714Y-55765571D01*
X146327333Y-55717952D01*
X146279714Y-55670333D01*
X146279714Y-55765571D01*
X144565428Y-55289380D02*
X145041619Y-55289380D01*
X145089238Y-55765571D01*
X145041619Y-55717952D01*
X144946380Y-55670333D01*
X144708285Y-55670333D01*
X144613047Y-55717952D01*
X144565428Y-55765571D01*
X144517809Y-55860809D01*
X144517809Y-56098904D01*
X144565428Y-56194142D01*
X144613047Y-56241761D01*
X144708285Y-56289380D01*
X144946380Y-56289380D01*
X145041619Y-56241761D01*
X145089238Y-56194142D01*
X143613047Y-55289380D02*
X144089238Y-55289380D01*
X144136857Y-55765571D01*
X144089238Y-55717952D01*
X143994000Y-55670333D01*
X143755904Y-55670333D01*
X143660666Y-55717952D01*
X143613047Y-55765571D01*
X143565428Y-55860809D01*
X143565428Y-56098904D01*
X143613047Y-56194142D01*
X143660666Y-56241761D01*
X143755904Y-56289380D01*
X143994000Y-56289380D01*
X144089238Y-56241761D01*
X144136857Y-56194142D01*
X142660666Y-55289380D02*
X143136857Y-55289380D01*
X143184476Y-55765571D01*
X143136857Y-55717952D01*
X143041619Y-55670333D01*
X142803523Y-55670333D01*
X142708285Y-55717952D01*
X142660666Y-55765571D01*
X142613047Y-55860809D01*
X142613047Y-56098904D01*
X142660666Y-56194142D01*
X142708285Y-56241761D01*
X142803523Y-56289380D01*
X143041619Y-56289380D01*
X143136857Y-56241761D01*
X143184476Y-56194142D01*
X141565428Y-55289380D02*
X140994000Y-55289380D01*
X141279714Y-56289380D02*
X141279714Y-55289380D01*
X140660666Y-56289380D02*
X140660666Y-55622714D01*
X140660666Y-55289380D02*
X140708285Y-55337000D01*
X140660666Y-55384619D01*
X140613047Y-55337000D01*
X140660666Y-55289380D01*
X140660666Y-55384619D01*
X140184476Y-56289380D02*
X140184476Y-55622714D01*
X140184476Y-55717952D02*
X140136857Y-55670333D01*
X140041619Y-55622714D01*
X139898761Y-55622714D01*
X139803523Y-55670333D01*
X139755904Y-55765571D01*
X139755904Y-56289380D01*
X139755904Y-55765571D02*
X139708285Y-55670333D01*
X139613047Y-55622714D01*
X139470190Y-55622714D01*
X139374952Y-55670333D01*
X139327333Y-55765571D01*
X139327333Y-56289380D01*
X138470190Y-56241761D02*
X138565428Y-56289380D01*
X138755904Y-56289380D01*
X138851142Y-56241761D01*
X138898761Y-56146523D01*
X138898761Y-55765571D01*
X138851142Y-55670333D01*
X138755904Y-55622714D01*
X138565428Y-55622714D01*
X138470190Y-55670333D01*
X138422571Y-55765571D01*
X138422571Y-55860809D01*
X138898761Y-55956047D01*
X137994000Y-56289380D02*
X137994000Y-55622714D01*
X137994000Y-55813190D02*
X137946380Y-55717952D01*
X137898761Y-55670333D01*
X137803523Y-55622714D01*
X137708285Y-55622714D01*
X136613047Y-56289380D02*
X136613047Y-55289380D01*
X136232095Y-55289380D01*
X136136857Y-55337000D01*
X136089238Y-55384619D01*
X136041619Y-55479857D01*
X136041619Y-55622714D01*
X136089238Y-55717952D01*
X136136857Y-55765571D01*
X136232095Y-55813190D01*
X136613047Y-55813190D01*
X135755904Y-55289380D02*
X135184476Y-55289380D01*
X135470190Y-56289380D02*
X135470190Y-55289380D01*
X134851142Y-56289380D02*
X134851142Y-55289380D01*
X134851142Y-55765571D02*
X134279714Y-55765571D01*
X134279714Y-56289380D02*
X134279714Y-55289380D01*
X133184476Y-55289380D02*
X132851142Y-56289380D01*
X132517809Y-55289380D01*
X131660666Y-56289380D02*
X132232095Y-56289380D01*
X131946380Y-56289380D02*
X131946380Y-55289380D01*
X132041619Y-55432238D01*
X132136857Y-55527476D01*
X132232095Y-55575095D01*
X146589238Y-57899380D02*
X146398761Y-57899380D01*
X146303523Y-57851761D01*
X146255904Y-57804142D01*
X146160666Y-57661285D01*
X146113047Y-57470809D01*
X146113047Y-57089857D01*
X146160666Y-56994619D01*
X146208285Y-56947000D01*
X146303523Y-56899380D01*
X146494000Y-56899380D01*
X146589238Y-56947000D01*
X146636857Y-56994619D01*
X146684476Y-57089857D01*
X146684476Y-57327952D01*
X146636857Y-57423190D01*
X146589238Y-57470809D01*
X146494000Y-57518428D01*
X146303523Y-57518428D01*
X146208285Y-57470809D01*
X146160666Y-57423190D01*
X146113047Y-57327952D01*
X144970190Y-56851761D02*
X145827333Y-58137476D01*
X144113047Y-57899380D02*
X144684476Y-57899380D01*
X144398761Y-57899380D02*
X144398761Y-56899380D01*
X144494000Y-57042238D01*
X144589238Y-57137476D01*
X144684476Y-57185095D01*
X143636857Y-57899380D02*
X143446380Y-57899380D01*
X143351142Y-57851761D01*
X143303523Y-57804142D01*
X143208285Y-57661285D01*
X143160666Y-57470809D01*
X143160666Y-57089857D01*
X143208285Y-56994619D01*
X143255904Y-56947000D01*
X143351142Y-56899380D01*
X143541619Y-56899380D01*
X143636857Y-56947000D01*
X143684476Y-56994619D01*
X143732095Y-57089857D01*
X143732095Y-57327952D01*
X143684476Y-57423190D01*
X143636857Y-57470809D01*
X143541619Y-57518428D01*
X143351142Y-57518428D01*
X143255904Y-57470809D01*
X143208285Y-57423190D01*
X143160666Y-57327952D01*
X142017809Y-56851761D02*
X142874952Y-58137476D01*
X141732095Y-56994619D02*
X141684476Y-56947000D01*
X141589238Y-56899380D01*
X141351142Y-56899380D01*
X141255904Y-56947000D01*
X141208285Y-56994619D01*
X141160666Y-57089857D01*
X141160666Y-57185095D01*
X141208285Y-57327952D01*
X141779714Y-57899380D01*
X141160666Y-57899380D01*
X140541619Y-56899380D02*
X140446380Y-56899380D01*
X140351142Y-56947000D01*
X140303523Y-56994619D01*
X140255904Y-57089857D01*
X140208285Y-57280333D01*
X140208285Y-57518428D01*
X140255904Y-57708904D01*
X140303523Y-57804142D01*
X140351142Y-57851761D01*
X140446380Y-57899380D01*
X140541619Y-57899380D01*
X140636857Y-57851761D01*
X140684476Y-57804142D01*
X140732095Y-57708904D01*
X140779714Y-57518428D01*
X140779714Y-57280333D01*
X140732095Y-57089857D01*
X140684476Y-56994619D01*
X140636857Y-56947000D01*
X140541619Y-56899380D01*
X139827333Y-56994619D02*
X139779714Y-56947000D01*
X139684476Y-56899380D01*
X139446380Y-56899380D01*
X139351142Y-56947000D01*
X139303523Y-56994619D01*
X139255904Y-57089857D01*
X139255904Y-57185095D01*
X139303523Y-57327952D01*
X139874952Y-57899380D01*
X139255904Y-57899380D01*
X138874952Y-56994619D02*
X138827333Y-56947000D01*
X138732095Y-56899380D01*
X138494000Y-56899380D01*
X138398761Y-56947000D01*
X138351142Y-56994619D01*
X138303523Y-57089857D01*
X138303523Y-57185095D01*
X138351142Y-57327952D01*
X138922571Y-57899380D01*
X138303523Y-57899380D01*
X145970190Y-59509380D02*
X146303523Y-59033190D01*
X146541619Y-59509380D02*
X146541619Y-58509380D01*
X146160666Y-58509380D01*
X146065428Y-58557000D01*
X146017809Y-58604619D01*
X145970190Y-58699857D01*
X145970190Y-58842714D01*
X146017809Y-58937952D01*
X146065428Y-58985571D01*
X146160666Y-59033190D01*
X146541619Y-59033190D01*
X145398761Y-59509380D02*
X145494000Y-59461761D01*
X145541619Y-59414142D01*
X145589238Y-59318904D01*
X145589238Y-59033190D01*
X145541619Y-58937952D01*
X145494000Y-58890333D01*
X145398761Y-58842714D01*
X145255904Y-58842714D01*
X145160666Y-58890333D01*
X145113047Y-58937952D01*
X145065428Y-59033190D01*
X145065428Y-59318904D01*
X145113047Y-59414142D01*
X145160666Y-59461761D01*
X145255904Y-59509380D01*
X145398761Y-59509380D01*
X144636857Y-59509380D02*
X144636857Y-58509380D01*
X144636857Y-58890333D02*
X144541619Y-58842714D01*
X144351142Y-58842714D01*
X144255904Y-58890333D01*
X144208285Y-58937952D01*
X144160666Y-59033190D01*
X144160666Y-59318904D01*
X144208285Y-59414142D01*
X144255904Y-59461761D01*
X144351142Y-59509380D01*
X144541619Y-59509380D01*
X144636857Y-59461761D01*
X142494000Y-59509380D02*
X142970190Y-59509380D01*
X142970190Y-58509380D01*
X141065428Y-58985571D02*
X140922571Y-59033190D01*
X140874952Y-59080809D01*
X140827333Y-59176047D01*
X140827333Y-59318904D01*
X140874952Y-59414142D01*
X140922571Y-59461761D01*
X141017809Y-59509380D01*
X141398761Y-59509380D01*
X141398761Y-58509380D01*
X141065428Y-58509380D01*
X140970190Y-58557000D01*
X140922571Y-58604619D01*
X140874952Y-58699857D01*
X140874952Y-58795095D01*
X140922571Y-58890333D01*
X140970190Y-58937952D01*
X141065428Y-58985571D01*
X141398761Y-58985571D01*
X139970190Y-59509380D02*
X139970190Y-58985571D01*
X140017809Y-58890333D01*
X140113047Y-58842714D01*
X140303523Y-58842714D01*
X140398761Y-58890333D01*
X139970190Y-59461761D02*
X140065428Y-59509380D01*
X140303523Y-59509380D01*
X140398761Y-59461761D01*
X140446380Y-59366523D01*
X140446380Y-59271285D01*
X140398761Y-59176047D01*
X140303523Y-59128428D01*
X140065428Y-59128428D01*
X139970190Y-59080809D01*
X139494000Y-59509380D02*
X139494000Y-58842714D01*
X139494000Y-59033190D02*
X139446380Y-58937952D01*
X139398761Y-58890333D01*
X139303523Y-58842714D01*
X139208285Y-58842714D01*
X138446380Y-59509380D02*
X138446380Y-58985571D01*
X138494000Y-58890333D01*
X138589238Y-58842714D01*
X138779714Y-58842714D01*
X138874952Y-58890333D01*
X138446380Y-59461761D02*
X138541619Y-59509380D01*
X138779714Y-59509380D01*
X138874952Y-59461761D01*
X138922571Y-59366523D01*
X138922571Y-59271285D01*
X138874952Y-59176047D01*
X138779714Y-59128428D01*
X138541619Y-59128428D01*
X138446380Y-59080809D01*
%TO.C,REF\u002A\u002A*%
G36*
X137572895Y-69068666D02*
G01*
X137607140Y-69089566D01*
X137642622Y-69118297D01*
X137642622Y-69980295D01*
X137607140Y-70009026D01*
X137565388Y-70032291D01*
X137517725Y-70033404D01*
X137475869Y-70006120D01*
X137470708Y-69999910D01*
X137463431Y-69987305D01*
X137457830Y-69969090D01*
X137453687Y-69941771D01*
X137450785Y-69901857D01*
X137448907Y-69845854D01*
X137447834Y-69770271D01*
X137447350Y-69671614D01*
X137447237Y-69546390D01*
X137447237Y-69118297D01*
X137482719Y-69089566D01*
X137514289Y-69069901D01*
X137544930Y-69060834D01*
X137572895Y-69068666D01*
G37*
D11*
X137572895Y-69068666D02*
X137607140Y-69089566D01*
X137642622Y-69118297D01*
X137642622Y-69980295D01*
X137607140Y-70009026D01*
X137565388Y-70032291D01*
X137517725Y-70033404D01*
X137475869Y-70006120D01*
X137470708Y-69999910D01*
X137463431Y-69987305D01*
X137457830Y-69969090D01*
X137453687Y-69941771D01*
X137450785Y-69901857D01*
X137448907Y-69845854D01*
X137447834Y-69770271D01*
X137447350Y-69671614D01*
X137447237Y-69546390D01*
X137447237Y-69118297D01*
X137482719Y-69089566D01*
X137514289Y-69069901D01*
X137544930Y-69060834D01*
X137572895Y-69068666D01*
G36*
X144864077Y-69059270D02*
G01*
X144879265Y-69067441D01*
X144893309Y-69081636D01*
X144908336Y-69100435D01*
X144914264Y-69108372D01*
X144922250Y-69122344D01*
X144928347Y-69140751D01*
X144932809Y-69167251D01*
X144935890Y-69205507D01*
X144937844Y-69259179D01*
X144938926Y-69331927D01*
X144939388Y-69427412D01*
X144939486Y-69549296D01*
X144939455Y-69627221D01*
X144939165Y-69732515D01*
X144938354Y-69813651D01*
X144936768Y-69874290D01*
X144934155Y-69918093D01*
X144930259Y-69948720D01*
X144924826Y-69969833D01*
X144917603Y-69985091D01*
X144908336Y-69998157D01*
X144867824Y-70030633D01*
X144821303Y-70034466D01*
X144772068Y-70009050D01*
X144766498Y-70004424D01*
X144755613Y-69993070D01*
X144747544Y-69977692D01*
X144741709Y-69953950D01*
X144737526Y-69917508D01*
X144734414Y-69864028D01*
X144731790Y-69789171D01*
X144729072Y-69688601D01*
X144721557Y-69396859D01*
X144368362Y-69717238D01*
X144270062Y-69806142D01*
X144183284Y-69883515D01*
X144113795Y-69943370D01*
X144059110Y-69987201D01*
X144016747Y-70016501D01*
X143984225Y-70032764D01*
X143959059Y-70037484D01*
X143938768Y-70032155D01*
X143920869Y-70018270D01*
X143902880Y-69997323D01*
X143894565Y-69986029D01*
X143887067Y-69971947D01*
X143881461Y-69953097D01*
X143877531Y-69925867D01*
X143875061Y-69886645D01*
X143873837Y-69831818D01*
X143873644Y-69757772D01*
X143874266Y-69660895D01*
X143875487Y-69537574D01*
X143879900Y-69118259D01*
X143915382Y-69089547D01*
X143950084Y-69067990D01*
X143993830Y-69064301D01*
X144039803Y-69089534D01*
X144045544Y-69094306D01*
X144056371Y-69105662D01*
X144064398Y-69121095D01*
X144070203Y-69144934D01*
X144074367Y-69181508D01*
X144077469Y-69235146D01*
X144080086Y-69310178D01*
X144082799Y-69410932D01*
X144090314Y-69703631D01*
X144330788Y-69485562D01*
X144446267Y-69380872D01*
X144547146Y-69289816D01*
X144629872Y-69216126D01*
X144696571Y-69158384D01*
X144749369Y-69115173D01*
X144790392Y-69085073D01*
X144821767Y-69066668D01*
X144845620Y-69058540D01*
X144864077Y-69059270D01*
G37*
X144864077Y-69059270D02*
X144879265Y-69067441D01*
X144893309Y-69081636D01*
X144908336Y-69100435D01*
X144914264Y-69108372D01*
X144922250Y-69122344D01*
X144928347Y-69140751D01*
X144932809Y-69167251D01*
X144935890Y-69205507D01*
X144937844Y-69259179D01*
X144938926Y-69331927D01*
X144939388Y-69427412D01*
X144939486Y-69549296D01*
X144939455Y-69627221D01*
X144939165Y-69732515D01*
X144938354Y-69813651D01*
X144936768Y-69874290D01*
X144934155Y-69918093D01*
X144930259Y-69948720D01*
X144924826Y-69969833D01*
X144917603Y-69985091D01*
X144908336Y-69998157D01*
X144867824Y-70030633D01*
X144821303Y-70034466D01*
X144772068Y-70009050D01*
X144766498Y-70004424D01*
X144755613Y-69993070D01*
X144747544Y-69977692D01*
X144741709Y-69953950D01*
X144737526Y-69917508D01*
X144734414Y-69864028D01*
X144731790Y-69789171D01*
X144729072Y-69688601D01*
X144721557Y-69396859D01*
X144368362Y-69717238D01*
X144270062Y-69806142D01*
X144183284Y-69883515D01*
X144113795Y-69943370D01*
X144059110Y-69987201D01*
X144016747Y-70016501D01*
X143984225Y-70032764D01*
X143959059Y-70037484D01*
X143938768Y-70032155D01*
X143920869Y-70018270D01*
X143902880Y-69997323D01*
X143894565Y-69986029D01*
X143887067Y-69971947D01*
X143881461Y-69953097D01*
X143877531Y-69925867D01*
X143875061Y-69886645D01*
X143873837Y-69831818D01*
X143873644Y-69757772D01*
X143874266Y-69660895D01*
X143875487Y-69537574D01*
X143879900Y-69118259D01*
X143915382Y-69089547D01*
X143950084Y-69067990D01*
X143993830Y-69064301D01*
X144039803Y-69089534D01*
X144045544Y-69094306D01*
X144056371Y-69105662D01*
X144064398Y-69121095D01*
X144070203Y-69144934D01*
X144074367Y-69181508D01*
X144077469Y-69235146D01*
X144080086Y-69310178D01*
X144082799Y-69410932D01*
X144090314Y-69703631D01*
X144330788Y-69485562D01*
X144446267Y-69380872D01*
X144547146Y-69289816D01*
X144629872Y-69216126D01*
X144696571Y-69158384D01*
X144749369Y-69115173D01*
X144790392Y-69085073D01*
X144821767Y-69066668D01*
X144845620Y-69058540D01*
X144864077Y-69059270D01*
G36*
X138151101Y-69073364D02*
G01*
X138175012Y-69098009D01*
X138202439Y-69139390D01*
X138235500Y-69200214D01*
X138276313Y-69283187D01*
X138326997Y-69391018D01*
X138346480Y-69432800D01*
X138386086Y-69516920D01*
X138420828Y-69589620D01*
X138448779Y-69646931D01*
X138468013Y-69684879D01*
X138476604Y-69699493D01*
X138478413Y-69698720D01*
X138491716Y-69680151D01*
X138514737Y-69640825D01*
X138544821Y-69585418D01*
X138579315Y-69518604D01*
X138600580Y-69476682D01*
X138639123Y-69402986D01*
X138669063Y-69351041D01*
X138693315Y-69317121D01*
X138714791Y-69297503D01*
X138736405Y-69288464D01*
X138761070Y-69286278D01*
X138775053Y-69286911D01*
X138796509Y-69292512D01*
X138816898Y-69306976D01*
X138838996Y-69333966D01*
X138865582Y-69377149D01*
X138899433Y-69440189D01*
X138943327Y-69526752D01*
X138956285Y-69552387D01*
X138988847Y-69614520D01*
X139015788Y-69662665D01*
X139034603Y-69692473D01*
X139042790Y-69699592D01*
X139044610Y-69695237D01*
X139057091Y-69667399D01*
X139079539Y-69618220D01*
X139110049Y-69551850D01*
X139146716Y-69472438D01*
X139187635Y-69384131D01*
X139223202Y-69307949D01*
X139262642Y-69225419D01*
X139293358Y-69164524D01*
X139317294Y-69121866D01*
X139336395Y-69094049D01*
X139352606Y-69077677D01*
X139367871Y-69069355D01*
X139380399Y-69065504D01*
X139413823Y-69065306D01*
X139449960Y-69085732D01*
X139451691Y-69087044D01*
X139481093Y-69117180D01*
X139495802Y-69146769D01*
X139495864Y-69147621D01*
X139489819Y-69171135D01*
X139472692Y-69217155D01*
X139446386Y-69281520D01*
X139412803Y-69360069D01*
X139373845Y-69448645D01*
X139331415Y-69543085D01*
X139287415Y-69639231D01*
X139243747Y-69732923D01*
X139202313Y-69820000D01*
X139165016Y-69896304D01*
X139133757Y-69957673D01*
X139110439Y-69999949D01*
X139096964Y-70018971D01*
X139051155Y-70036769D01*
X138995641Y-70028300D01*
X138988499Y-70022046D01*
X138967425Y-69992555D01*
X138937866Y-69943614D01*
X138902696Y-69880085D01*
X138864787Y-69806831D01*
X138758579Y-69594821D01*
X138661141Y-69789987D01*
X138648233Y-69815670D01*
X138612314Y-69885364D01*
X138580324Y-69944995D01*
X138555342Y-69988910D01*
X138540449Y-70011456D01*
X138538923Y-70013111D01*
X138501484Y-70033463D01*
X138454804Y-70035704D01*
X138413477Y-70018971D01*
X138410247Y-70015178D01*
X138393924Y-69987718D01*
X138367647Y-69937724D01*
X138333159Y-69868722D01*
X138292203Y-69784238D01*
X138246523Y-69687797D01*
X138197862Y-69582927D01*
X138170915Y-69524183D01*
X138121957Y-69416705D01*
X138084071Y-69331926D01*
X138056080Y-69266777D01*
X138036805Y-69218188D01*
X138025071Y-69183091D01*
X138019698Y-69158416D01*
X138019509Y-69141096D01*
X138023327Y-69128060D01*
X138042841Y-69100258D01*
X138078259Y-69073230D01*
X138079265Y-69072774D01*
X138105346Y-69063454D01*
X138128585Y-69062748D01*
X138151101Y-69073364D01*
G37*
X138151101Y-69073364D02*
X138175012Y-69098009D01*
X138202439Y-69139390D01*
X138235500Y-69200214D01*
X138276313Y-69283187D01*
X138326997Y-69391018D01*
X138346480Y-69432800D01*
X138386086Y-69516920D01*
X138420828Y-69589620D01*
X138448779Y-69646931D01*
X138468013Y-69684879D01*
X138476604Y-69699493D01*
X138478413Y-69698720D01*
X138491716Y-69680151D01*
X138514737Y-69640825D01*
X138544821Y-69585418D01*
X138579315Y-69518604D01*
X138600580Y-69476682D01*
X138639123Y-69402986D01*
X138669063Y-69351041D01*
X138693315Y-69317121D01*
X138714791Y-69297503D01*
X138736405Y-69288464D01*
X138761070Y-69286278D01*
X138775053Y-69286911D01*
X138796509Y-69292512D01*
X138816898Y-69306976D01*
X138838996Y-69333966D01*
X138865582Y-69377149D01*
X138899433Y-69440189D01*
X138943327Y-69526752D01*
X138956285Y-69552387D01*
X138988847Y-69614520D01*
X139015788Y-69662665D01*
X139034603Y-69692473D01*
X139042790Y-69699592D01*
X139044610Y-69695237D01*
X139057091Y-69667399D01*
X139079539Y-69618220D01*
X139110049Y-69551850D01*
X139146716Y-69472438D01*
X139187635Y-69384131D01*
X139223202Y-69307949D01*
X139262642Y-69225419D01*
X139293358Y-69164524D01*
X139317294Y-69121866D01*
X139336395Y-69094049D01*
X139352606Y-69077677D01*
X139367871Y-69069355D01*
X139380399Y-69065504D01*
X139413823Y-69065306D01*
X139449960Y-69085732D01*
X139451691Y-69087044D01*
X139481093Y-69117180D01*
X139495802Y-69146769D01*
X139495864Y-69147621D01*
X139489819Y-69171135D01*
X139472692Y-69217155D01*
X139446386Y-69281520D01*
X139412803Y-69360069D01*
X139373845Y-69448645D01*
X139331415Y-69543085D01*
X139287415Y-69639231D01*
X139243747Y-69732923D01*
X139202313Y-69820000D01*
X139165016Y-69896304D01*
X139133757Y-69957673D01*
X139110439Y-69999949D01*
X139096964Y-70018971D01*
X139051155Y-70036769D01*
X138995641Y-70028300D01*
X138988499Y-70022046D01*
X138967425Y-69992555D01*
X138937866Y-69943614D01*
X138902696Y-69880085D01*
X138864787Y-69806831D01*
X138758579Y-69594821D01*
X138661141Y-69789987D01*
X138648233Y-69815670D01*
X138612314Y-69885364D01*
X138580324Y-69944995D01*
X138555342Y-69988910D01*
X138540449Y-70011456D01*
X138538923Y-70013111D01*
X138501484Y-70033463D01*
X138454804Y-70035704D01*
X138413477Y-70018971D01*
X138410247Y-70015178D01*
X138393924Y-69987718D01*
X138367647Y-69937724D01*
X138333159Y-69868722D01*
X138292203Y-69784238D01*
X138246523Y-69687797D01*
X138197862Y-69582927D01*
X138170915Y-69524183D01*
X138121957Y-69416705D01*
X138084071Y-69331926D01*
X138056080Y-69266777D01*
X138036805Y-69218188D01*
X138025071Y-69183091D01*
X138019698Y-69158416D01*
X138019509Y-69141096D01*
X138023327Y-69128060D01*
X138042841Y-69100258D01*
X138078259Y-69073230D01*
X138079265Y-69072774D01*
X138105346Y-69063454D01*
X138128585Y-69062748D01*
X138151101Y-69073364D01*
G36*
X136641424Y-69060836D02*
G01*
X136766736Y-69060956D01*
X136865941Y-69061408D01*
X136942371Y-69062396D01*
X136999352Y-69064121D01*
X137040216Y-69066785D01*
X137068290Y-69070593D01*
X137086905Y-69075745D01*
X137099389Y-69082444D01*
X137109072Y-69090894D01*
X137134109Y-69134453D01*
X137136035Y-69184481D01*
X137114257Y-69228734D01*
X137112446Y-69230669D01*
X137097531Y-69241800D01*
X137074761Y-69249195D01*
X137038589Y-69253581D01*
X136983466Y-69255680D01*
X136903843Y-69256219D01*
X136718302Y-69256219D01*
X136718302Y-69607387D01*
X136718202Y-69708342D01*
X136717659Y-69797098D01*
X136716351Y-69863379D01*
X136713960Y-69911197D01*
X136710164Y-69944570D01*
X136704645Y-69967510D01*
X136697081Y-69984034D01*
X136687152Y-69998157D01*
X136684103Y-70001893D01*
X136642593Y-70032038D01*
X136596822Y-70034120D01*
X136552977Y-70007698D01*
X136543686Y-69996947D01*
X136536401Y-69982836D01*
X136531049Y-69961743D01*
X136527333Y-69929822D01*
X136524957Y-69883226D01*
X136523627Y-69818109D01*
X136523046Y-69730625D01*
X136522918Y-69616929D01*
X136522918Y-69256219D01*
X136328624Y-69256219D01*
X136313846Y-69256218D01*
X136238601Y-69255918D01*
X136186885Y-69254401D01*
X136153078Y-69250674D01*
X136131561Y-69243742D01*
X136116714Y-69232610D01*
X136102917Y-69216284D01*
X136081819Y-69175427D01*
X136085949Y-69130453D01*
X136120090Y-69087136D01*
X136126668Y-69082187D01*
X136140262Y-69075749D01*
X136160799Y-69070738D01*
X136191582Y-69066981D01*
X136235913Y-69064300D01*
X136297094Y-69062520D01*
X136378428Y-69061467D01*
X136483216Y-69060963D01*
X136614760Y-69060834D01*
X136641424Y-69060836D01*
G37*
X136641424Y-69060836D02*
X136766736Y-69060956D01*
X136865941Y-69061408D01*
X136942371Y-69062396D01*
X136999352Y-69064121D01*
X137040216Y-69066785D01*
X137068290Y-69070593D01*
X137086905Y-69075745D01*
X137099389Y-69082444D01*
X137109072Y-69090894D01*
X137134109Y-69134453D01*
X137136035Y-69184481D01*
X137114257Y-69228734D01*
X137112446Y-69230669D01*
X137097531Y-69241800D01*
X137074761Y-69249195D01*
X137038589Y-69253581D01*
X136983466Y-69255680D01*
X136903843Y-69256219D01*
X136718302Y-69256219D01*
X136718302Y-69607387D01*
X136718202Y-69708342D01*
X136717659Y-69797098D01*
X136716351Y-69863379D01*
X136713960Y-69911197D01*
X136710164Y-69944570D01*
X136704645Y-69967510D01*
X136697081Y-69984034D01*
X136687152Y-69998157D01*
X136684103Y-70001893D01*
X136642593Y-70032038D01*
X136596822Y-70034120D01*
X136552977Y-70007698D01*
X136543686Y-69996947D01*
X136536401Y-69982836D01*
X136531049Y-69961743D01*
X136527333Y-69929822D01*
X136524957Y-69883226D01*
X136523627Y-69818109D01*
X136523046Y-69730625D01*
X136522918Y-69616929D01*
X136522918Y-69256219D01*
X136328624Y-69256219D01*
X136313846Y-69256218D01*
X136238601Y-69255918D01*
X136186885Y-69254401D01*
X136153078Y-69250674D01*
X136131561Y-69243742D01*
X136116714Y-69232610D01*
X136102917Y-69216284D01*
X136081819Y-69175427D01*
X136085949Y-69130453D01*
X136120090Y-69087136D01*
X136126668Y-69082187D01*
X136140262Y-69075749D01*
X136160799Y-69070738D01*
X136191582Y-69066981D01*
X136235913Y-69064300D01*
X136297094Y-69062520D01*
X136378428Y-69061467D01*
X136483216Y-69060963D01*
X136614760Y-69060834D01*
X136641424Y-69060836D01*
G36*
X145925514Y-69067641D02*
G01*
X146066647Y-69089362D01*
X146191545Y-69126709D01*
X146296450Y-69178507D01*
X146377602Y-69243586D01*
X146412311Y-69287337D01*
X146451596Y-69352838D01*
X146485242Y-69424543D01*
X146508740Y-69492665D01*
X146517581Y-69547417D01*
X146515504Y-69573665D01*
X146498274Y-69642007D01*
X146467436Y-69717264D01*
X146427639Y-69789046D01*
X146383533Y-69846966D01*
X146369958Y-69860743D01*
X146280643Y-69929674D01*
X146173967Y-69982786D01*
X146059190Y-70015273D01*
X145986013Y-70026073D01*
X145861593Y-70034866D01*
X145742063Y-70032087D01*
X145632239Y-70018447D01*
X145536937Y-69994656D01*
X145460972Y-69961422D01*
X145409160Y-69919457D01*
X145407329Y-69916827D01*
X145397893Y-69883242D01*
X145392249Y-69820334D01*
X145390373Y-69727852D01*
X145391518Y-69644998D01*
X145397802Y-69581915D01*
X145413365Y-69539174D01*
X145442348Y-69513143D01*
X145488891Y-69500188D01*
X145557134Y-69496677D01*
X145651217Y-69498978D01*
X145715948Y-69502988D01*
X145782777Y-69513895D01*
X145826038Y-69532605D01*
X145849282Y-69560877D01*
X145856060Y-69600472D01*
X145855919Y-69606518D01*
X145844333Y-69652841D01*
X145812368Y-69684018D01*
X145757429Y-69701592D01*
X145676924Y-69707107D01*
X145585758Y-69707107D01*
X145585758Y-69758167D01*
X145585825Y-69770330D01*
X145588781Y-69793297D01*
X145601119Y-69807002D01*
X145629585Y-69816238D01*
X145680924Y-69825800D01*
X145688212Y-69827044D01*
X145817288Y-69840229D01*
X145937099Y-69836342D01*
X146044817Y-69816731D01*
X146137611Y-69782741D01*
X146212653Y-69735717D01*
X146267113Y-69677005D01*
X146298163Y-69607951D01*
X146302972Y-69529902D01*
X146295625Y-69491432D01*
X146260100Y-69417023D01*
X146198606Y-69356234D01*
X146112092Y-69309855D01*
X146001507Y-69278676D01*
X145968656Y-69272753D01*
X145849727Y-69258775D01*
X145743475Y-69260411D01*
X145639506Y-69277633D01*
X145592717Y-69286672D01*
X145532223Y-69288027D01*
X145490532Y-69271343D01*
X145463700Y-69235680D01*
X145455201Y-69198073D01*
X145467831Y-69156502D01*
X145480251Y-69138628D01*
X145525829Y-69107299D01*
X145595888Y-69083506D01*
X145687109Y-69068200D01*
X145796172Y-69062333D01*
X145925514Y-69067641D01*
G37*
X145925514Y-69067641D02*
X146066647Y-69089362D01*
X146191545Y-69126709D01*
X146296450Y-69178507D01*
X146377602Y-69243586D01*
X146412311Y-69287337D01*
X146451596Y-69352838D01*
X146485242Y-69424543D01*
X146508740Y-69492665D01*
X146517581Y-69547417D01*
X146515504Y-69573665D01*
X146498274Y-69642007D01*
X146467436Y-69717264D01*
X146427639Y-69789046D01*
X146383533Y-69846966D01*
X146369958Y-69860743D01*
X146280643Y-69929674D01*
X146173967Y-69982786D01*
X146059190Y-70015273D01*
X145986013Y-70026073D01*
X145861593Y-70034866D01*
X145742063Y-70032087D01*
X145632239Y-70018447D01*
X145536937Y-69994656D01*
X145460972Y-69961422D01*
X145409160Y-69919457D01*
X145407329Y-69916827D01*
X145397893Y-69883242D01*
X145392249Y-69820334D01*
X145390373Y-69727852D01*
X145391518Y-69644998D01*
X145397802Y-69581915D01*
X145413365Y-69539174D01*
X145442348Y-69513143D01*
X145488891Y-69500188D01*
X145557134Y-69496677D01*
X145651217Y-69498978D01*
X145715948Y-69502988D01*
X145782777Y-69513895D01*
X145826038Y-69532605D01*
X145849282Y-69560877D01*
X145856060Y-69600472D01*
X145855919Y-69606518D01*
X145844333Y-69652841D01*
X145812368Y-69684018D01*
X145757429Y-69701592D01*
X145676924Y-69707107D01*
X145585758Y-69707107D01*
X145585758Y-69758167D01*
X145585825Y-69770330D01*
X145588781Y-69793297D01*
X145601119Y-69807002D01*
X145629585Y-69816238D01*
X145680924Y-69825800D01*
X145688212Y-69827044D01*
X145817288Y-69840229D01*
X145937099Y-69836342D01*
X146044817Y-69816731D01*
X146137611Y-69782741D01*
X146212653Y-69735717D01*
X146267113Y-69677005D01*
X146298163Y-69607951D01*
X146302972Y-69529902D01*
X146295625Y-69491432D01*
X146260100Y-69417023D01*
X146198606Y-69356234D01*
X146112092Y-69309855D01*
X146001507Y-69278676D01*
X145968656Y-69272753D01*
X145849727Y-69258775D01*
X145743475Y-69260411D01*
X145639506Y-69277633D01*
X145592717Y-69286672D01*
X145532223Y-69288027D01*
X145490532Y-69271343D01*
X145463700Y-69235680D01*
X145455201Y-69198073D01*
X145467831Y-69156502D01*
X145480251Y-69138628D01*
X145525829Y-69107299D01*
X145595888Y-69083506D01*
X145687109Y-69068200D01*
X145796172Y-69062333D01*
X145925514Y-69067641D01*
G36*
X148204408Y-69061992D02*
G01*
X148292606Y-69069221D01*
X148366231Y-69082000D01*
X148433974Y-69101785D01*
X148528917Y-69145896D01*
X148597025Y-69202722D01*
X148638062Y-69272039D01*
X148651794Y-69353623D01*
X148650546Y-69395226D01*
X148642834Y-69428240D01*
X148623120Y-69457090D01*
X148585879Y-69493504D01*
X148575257Y-69503261D01*
X148543691Y-69531090D01*
X148513877Y-69553684D01*
X148481879Y-69572261D01*
X148443765Y-69588039D01*
X148395601Y-69602236D01*
X148333453Y-69616071D01*
X148253387Y-69630762D01*
X148151469Y-69647527D01*
X148023767Y-69667585D01*
X147999318Y-69671624D01*
X147916335Y-69689758D01*
X147856134Y-69710705D01*
X147821140Y-69733433D01*
X147813779Y-69756911D01*
X147817268Y-69762596D01*
X147841143Y-69782653D01*
X147878588Y-69804799D01*
X147895629Y-69812775D01*
X147923985Y-69822351D01*
X147959114Y-69828711D01*
X148006836Y-69832464D01*
X148072969Y-69834218D01*
X148163332Y-69834582D01*
X148187010Y-69834485D01*
X148277038Y-69833006D01*
X148363495Y-69830043D01*
X148437552Y-69825961D01*
X148490382Y-69821122D01*
X148537660Y-69815706D01*
X148576605Y-69814664D01*
X148601769Y-69820787D01*
X148621891Y-69835000D01*
X148626759Y-69839783D01*
X148648516Y-69882086D01*
X148646758Y-69929554D01*
X148621520Y-69970319D01*
X148594399Y-69985770D01*
X148546492Y-70002672D01*
X148490011Y-70016052D01*
X148485417Y-70016849D01*
X148428609Y-70023794D01*
X148352206Y-70029617D01*
X148265645Y-70033728D01*
X148178362Y-70035537D01*
X148156750Y-70035593D01*
X148025861Y-70032294D01*
X147919283Y-70021635D01*
X147832505Y-70002288D01*
X147761017Y-69972926D01*
X147700306Y-69932222D01*
X147645862Y-69878848D01*
X147619074Y-69843931D01*
X147603595Y-69804593D01*
X147599723Y-69751716D01*
X147599910Y-69735781D01*
X147605066Y-69692270D01*
X147621555Y-69656955D01*
X147655058Y-69615884D01*
X147683299Y-69586408D01*
X147718442Y-69556391D01*
X147758006Y-69531937D01*
X147806240Y-69511626D01*
X147867393Y-69494036D01*
X147945712Y-69477747D01*
X148045447Y-69461337D01*
X148170847Y-69443386D01*
X148231173Y-69434054D01*
X148321645Y-69414670D01*
X148387062Y-69392704D01*
X148426427Y-69368875D01*
X148438743Y-69343906D01*
X148423011Y-69318517D01*
X148378235Y-69293429D01*
X148374180Y-69291813D01*
X148312459Y-69275733D01*
X148229049Y-69264815D01*
X148131282Y-69259276D01*
X148026491Y-69259333D01*
X147922008Y-69265202D01*
X147825166Y-69277099D01*
X147819938Y-69277963D01*
X147754946Y-69288224D01*
X147712007Y-69293032D01*
X147684052Y-69292237D01*
X147664010Y-69285685D01*
X147644811Y-69273225D01*
X147643254Y-69272066D01*
X147610613Y-69231628D01*
X147604231Y-69184363D01*
X147625276Y-69138323D01*
X147631328Y-69132390D01*
X147670755Y-69112234D01*
X147733305Y-69094762D01*
X147813591Y-69080383D01*
X147906230Y-69069508D01*
X148005835Y-69062545D01*
X148107023Y-69059903D01*
X148204408Y-69061992D01*
G37*
X148204408Y-69061992D02*
X148292606Y-69069221D01*
X148366231Y-69082000D01*
X148433974Y-69101785D01*
X148528917Y-69145896D01*
X148597025Y-69202722D01*
X148638062Y-69272039D01*
X148651794Y-69353623D01*
X148650546Y-69395226D01*
X148642834Y-69428240D01*
X148623120Y-69457090D01*
X148585879Y-69493504D01*
X148575257Y-69503261D01*
X148543691Y-69531090D01*
X148513877Y-69553684D01*
X148481879Y-69572261D01*
X148443765Y-69588039D01*
X148395601Y-69602236D01*
X148333453Y-69616071D01*
X148253387Y-69630762D01*
X148151469Y-69647527D01*
X148023767Y-69667585D01*
X147999318Y-69671624D01*
X147916335Y-69689758D01*
X147856134Y-69710705D01*
X147821140Y-69733433D01*
X147813779Y-69756911D01*
X147817268Y-69762596D01*
X147841143Y-69782653D01*
X147878588Y-69804799D01*
X147895629Y-69812775D01*
X147923985Y-69822351D01*
X147959114Y-69828711D01*
X148006836Y-69832464D01*
X148072969Y-69834218D01*
X148163332Y-69834582D01*
X148187010Y-69834485D01*
X148277038Y-69833006D01*
X148363495Y-69830043D01*
X148437552Y-69825961D01*
X148490382Y-69821122D01*
X148537660Y-69815706D01*
X148576605Y-69814664D01*
X148601769Y-69820787D01*
X148621891Y-69835000D01*
X148626759Y-69839783D01*
X148648516Y-69882086D01*
X148646758Y-69929554D01*
X148621520Y-69970319D01*
X148594399Y-69985770D01*
X148546492Y-70002672D01*
X148490011Y-70016052D01*
X148485417Y-70016849D01*
X148428609Y-70023794D01*
X148352206Y-70029617D01*
X148265645Y-70033728D01*
X148178362Y-70035537D01*
X148156750Y-70035593D01*
X148025861Y-70032294D01*
X147919283Y-70021635D01*
X147832505Y-70002288D01*
X147761017Y-69972926D01*
X147700306Y-69932222D01*
X147645862Y-69878848D01*
X147619074Y-69843931D01*
X147603595Y-69804593D01*
X147599723Y-69751716D01*
X147599910Y-69735781D01*
X147605066Y-69692270D01*
X147621555Y-69656955D01*
X147655058Y-69615884D01*
X147683299Y-69586408D01*
X147718442Y-69556391D01*
X147758006Y-69531937D01*
X147806240Y-69511626D01*
X147867393Y-69494036D01*
X147945712Y-69477747D01*
X148045447Y-69461337D01*
X148170847Y-69443386D01*
X148231173Y-69434054D01*
X148321645Y-69414670D01*
X148387062Y-69392704D01*
X148426427Y-69368875D01*
X148438743Y-69343906D01*
X148423011Y-69318517D01*
X148378235Y-69293429D01*
X148374180Y-69291813D01*
X148312459Y-69275733D01*
X148229049Y-69264815D01*
X148131282Y-69259276D01*
X148026491Y-69259333D01*
X147922008Y-69265202D01*
X147825166Y-69277099D01*
X147819938Y-69277963D01*
X147754946Y-69288224D01*
X147712007Y-69293032D01*
X147684052Y-69292237D01*
X147664010Y-69285685D01*
X147644811Y-69273225D01*
X147643254Y-69272066D01*
X147610613Y-69231628D01*
X147604231Y-69184363D01*
X147625276Y-69138323D01*
X147631328Y-69132390D01*
X147670755Y-69112234D01*
X147733305Y-69094762D01*
X147813591Y-69080383D01*
X147906230Y-69069508D01*
X148005835Y-69062545D01*
X148107023Y-69059903D01*
X148204408Y-69061992D01*
G36*
X147152230Y-60525263D02*
G01*
X147291672Y-60559429D01*
X147423848Y-60620749D01*
X147544592Y-60709234D01*
X147649739Y-60824894D01*
X147735123Y-60967737D01*
X147758014Y-61018057D01*
X147776559Y-61069060D01*
X147786965Y-61120048D01*
X147791526Y-61183115D01*
X147792536Y-61270353D01*
X147791925Y-61342963D01*
X147788243Y-61409694D01*
X147779215Y-61461758D01*
X147762587Y-61511110D01*
X147736105Y-61569710D01*
X147728445Y-61585326D01*
X147637899Y-61728317D01*
X147524018Y-61845967D01*
X147390034Y-61935513D01*
X147239179Y-61994196D01*
X147161774Y-62010571D01*
X147004742Y-62018234D01*
X146852646Y-61993440D01*
X146709947Y-61938730D01*
X146581105Y-61856647D01*
X146470579Y-61749733D01*
X146382829Y-61620531D01*
X146322316Y-61471582D01*
X146300176Y-61349689D01*
X146298181Y-61215175D01*
X146316188Y-61084332D01*
X146353339Y-60970996D01*
X146396265Y-60889967D01*
X146491826Y-60761411D01*
X146605114Y-60659951D01*
X146731964Y-60585596D01*
X146868211Y-60538357D01*
X147009688Y-60518242D01*
X147152230Y-60525263D01*
G37*
X147152230Y-60525263D02*
X147291672Y-60559429D01*
X147423848Y-60620749D01*
X147544592Y-60709234D01*
X147649739Y-60824894D01*
X147735123Y-60967737D01*
X147758014Y-61018057D01*
X147776559Y-61069060D01*
X147786965Y-61120048D01*
X147791526Y-61183115D01*
X147792536Y-61270353D01*
X147791925Y-61342963D01*
X147788243Y-61409694D01*
X147779215Y-61461758D01*
X147762587Y-61511110D01*
X147736105Y-61569710D01*
X147728445Y-61585326D01*
X147637899Y-61728317D01*
X147524018Y-61845967D01*
X147390034Y-61935513D01*
X147239179Y-61994196D01*
X147161774Y-62010571D01*
X147004742Y-62018234D01*
X146852646Y-61993440D01*
X146709947Y-61938730D01*
X146581105Y-61856647D01*
X146470579Y-61749733D01*
X146382829Y-61620531D01*
X146322316Y-61471582D01*
X146300176Y-61349689D01*
X146298181Y-61215175D01*
X146316188Y-61084332D01*
X146353339Y-60970996D01*
X146396265Y-60889967D01*
X146491826Y-60761411D01*
X146605114Y-60659951D01*
X146731964Y-60585596D01*
X146868211Y-60538357D01*
X147009688Y-60518242D01*
X147152230Y-60525263D01*
G36*
X135741379Y-69090894D02*
G01*
X135748878Y-69099135D01*
X135755655Y-69110060D01*
X135761095Y-69125739D01*
X135765327Y-69148983D01*
X135768477Y-69182605D01*
X135770675Y-69229416D01*
X135772048Y-69292227D01*
X135772725Y-69373851D01*
X135772833Y-69477098D01*
X135772501Y-69604781D01*
X135771857Y-69759710D01*
X135771765Y-69778582D01*
X135770985Y-69860810D01*
X135769224Y-69918968D01*
X135765835Y-69958084D01*
X135760170Y-69983185D01*
X135751581Y-69999300D01*
X135739420Y-70011456D01*
X135694876Y-70034644D01*
X135648347Y-70030781D01*
X135607204Y-69998157D01*
X135595209Y-69980579D01*
X135585289Y-69955901D01*
X135579474Y-69921248D01*
X135576738Y-69869929D01*
X135576054Y-69795257D01*
X135576054Y-69631959D01*
X134914752Y-69631959D01*
X134914752Y-69811462D01*
X134914655Y-69859112D01*
X134913640Y-69920794D01*
X134910742Y-69961446D01*
X134905021Y-69986782D01*
X134895537Y-70002516D01*
X134881349Y-70014361D01*
X134838411Y-70034424D01*
X134791432Y-70030873D01*
X134750518Y-69998157D01*
X134744319Y-69989829D01*
X134736417Y-69975818D01*
X134730384Y-69957272D01*
X134725970Y-69930547D01*
X134722922Y-69891994D01*
X134720990Y-69837968D01*
X134719921Y-69764822D01*
X134719464Y-69668910D01*
X134719368Y-69546586D01*
X134719368Y-69134616D01*
X134756258Y-69097725D01*
X134798034Y-69068112D01*
X134842274Y-69064531D01*
X134884693Y-69090894D01*
X134895724Y-69103902D01*
X134905592Y-69125060D01*
X134911367Y-69156969D01*
X134914077Y-69206060D01*
X134914752Y-69278763D01*
X134914752Y-69436574D01*
X135576054Y-69436574D01*
X135576054Y-69282784D01*
X135576637Y-69213957D01*
X135579252Y-69167992D01*
X135585264Y-69137935D01*
X135596040Y-69116831D01*
X135612945Y-69097725D01*
X135654721Y-69068112D01*
X135698960Y-69064531D01*
X135741379Y-69090894D01*
G37*
X135741379Y-69090894D02*
X135748878Y-69099135D01*
X135755655Y-69110060D01*
X135761095Y-69125739D01*
X135765327Y-69148983D01*
X135768477Y-69182605D01*
X135770675Y-69229416D01*
X135772048Y-69292227D01*
X135772725Y-69373851D01*
X135772833Y-69477098D01*
X135772501Y-69604781D01*
X135771857Y-69759710D01*
X135771765Y-69778582D01*
X135770985Y-69860810D01*
X135769224Y-69918968D01*
X135765835Y-69958084D01*
X135760170Y-69983185D01*
X135751581Y-69999300D01*
X135739420Y-70011456D01*
X135694876Y-70034644D01*
X135648347Y-70030781D01*
X135607204Y-69998157D01*
X135595209Y-69980579D01*
X135585289Y-69955901D01*
X135579474Y-69921248D01*
X135576738Y-69869929D01*
X135576054Y-69795257D01*
X135576054Y-69631959D01*
X134914752Y-69631959D01*
X134914752Y-69811462D01*
X134914655Y-69859112D01*
X134913640Y-69920794D01*
X134910742Y-69961446D01*
X134905021Y-69986782D01*
X134895537Y-70002516D01*
X134881349Y-70014361D01*
X134838411Y-70034424D01*
X134791432Y-70030873D01*
X134750518Y-69998157D01*
X134744319Y-69989829D01*
X134736417Y-69975818D01*
X134730384Y-69957272D01*
X134725970Y-69930547D01*
X134722922Y-69891994D01*
X134720990Y-69837968D01*
X134719921Y-69764822D01*
X134719464Y-69668910D01*
X134719368Y-69546586D01*
X134719368Y-69134616D01*
X134756258Y-69097725D01*
X134798034Y-69068112D01*
X134842274Y-69064531D01*
X134884693Y-69090894D01*
X134895724Y-69103902D01*
X134905592Y-69125060D01*
X134911367Y-69156969D01*
X134914077Y-69206060D01*
X134914752Y-69278763D01*
X134914752Y-69436574D01*
X135576054Y-69436574D01*
X135576054Y-69282784D01*
X135576637Y-69213957D01*
X135579252Y-69167992D01*
X135585264Y-69137935D01*
X135596040Y-69116831D01*
X135612945Y-69097725D01*
X135654721Y-69068112D01*
X135698960Y-69064531D01*
X135741379Y-69090894D01*
G36*
X149556913Y-69060856D02*
G01*
X149659556Y-69061112D01*
X149738035Y-69061890D01*
X149796065Y-69063476D01*
X149837362Y-69066156D01*
X149865643Y-69070214D01*
X149884625Y-69075936D01*
X149898022Y-69083607D01*
X149909553Y-69093514D01*
X149911929Y-69095751D01*
X149921573Y-69105788D01*
X149929084Y-69117794D01*
X149934730Y-69135281D01*
X149938776Y-69161758D01*
X149941489Y-69200739D01*
X149943135Y-69255734D01*
X149943981Y-69330254D01*
X149944293Y-69427811D01*
X149944338Y-69551916D01*
X149944289Y-69648825D01*
X149943958Y-69752905D01*
X149943111Y-69833072D01*
X149941517Y-69892822D01*
X149938946Y-69935652D01*
X149935168Y-69965058D01*
X149929951Y-69984536D01*
X149923064Y-69997584D01*
X149914279Y-70007698D01*
X149909840Y-70011928D01*
X149898494Y-70020064D01*
X149882515Y-70026287D01*
X149858270Y-70030854D01*
X149822128Y-70034019D01*
X149770456Y-70036037D01*
X149699621Y-70037163D01*
X149605991Y-70037651D01*
X149485936Y-70037758D01*
X149429874Y-70037742D01*
X149321838Y-70037499D01*
X149238638Y-70036763D01*
X149176642Y-70035278D01*
X149132218Y-70032789D01*
X149101733Y-70029042D01*
X149081555Y-70023781D01*
X149068052Y-70016751D01*
X149057592Y-70007698D01*
X149037986Y-69978942D01*
X149027533Y-69940065D01*
X149034854Y-69908237D01*
X149057592Y-69872432D01*
X149064221Y-69866297D01*
X149077235Y-69857927D01*
X149096028Y-69851769D01*
X149124646Y-69847487D01*
X149167136Y-69844744D01*
X149227544Y-69843202D01*
X149309917Y-69842524D01*
X149418302Y-69842373D01*
X149748953Y-69842373D01*
X149748953Y-69631959D01*
X149534368Y-69631959D01*
X149486682Y-69631765D01*
X149399313Y-69629472D01*
X149336418Y-69623567D01*
X149294167Y-69612777D01*
X149268730Y-69595828D01*
X149256277Y-69571445D01*
X149252977Y-69538355D01*
X149254039Y-69511387D01*
X149261031Y-69482329D01*
X149278064Y-69461891D01*
X149309138Y-69448583D01*
X149358250Y-69440920D01*
X149429401Y-69437413D01*
X149526589Y-69436574D01*
X149750453Y-69436574D01*
X149741439Y-69263734D01*
X149411638Y-69259675D01*
X149328307Y-69258505D01*
X149237161Y-69256582D01*
X149169389Y-69254012D01*
X149121123Y-69250483D01*
X149088495Y-69245685D01*
X149067639Y-69239309D01*
X149054686Y-69231044D01*
X149046677Y-69222519D01*
X149029358Y-69180340D01*
X149034098Y-69132828D01*
X149060426Y-69091479D01*
X149064756Y-69087587D01*
X149076711Y-69079131D01*
X149092825Y-69072671D01*
X149116798Y-69067939D01*
X149152330Y-69064668D01*
X149203120Y-69062589D01*
X149272869Y-69061436D01*
X149365277Y-69060940D01*
X149484043Y-69060834D01*
X149556913Y-69060856D01*
G37*
X149556913Y-69060856D02*
X149659556Y-69061112D01*
X149738035Y-69061890D01*
X149796065Y-69063476D01*
X149837362Y-69066156D01*
X149865643Y-69070214D01*
X149884625Y-69075936D01*
X149898022Y-69083607D01*
X149909553Y-69093514D01*
X149911929Y-69095751D01*
X149921573Y-69105788D01*
X149929084Y-69117794D01*
X149934730Y-69135281D01*
X149938776Y-69161758D01*
X149941489Y-69200739D01*
X149943135Y-69255734D01*
X149943981Y-69330254D01*
X149944293Y-69427811D01*
X149944338Y-69551916D01*
X149944289Y-69648825D01*
X149943958Y-69752905D01*
X149943111Y-69833072D01*
X149941517Y-69892822D01*
X149938946Y-69935652D01*
X149935168Y-69965058D01*
X149929951Y-69984536D01*
X149923064Y-69997584D01*
X149914279Y-70007698D01*
X149909840Y-70011928D01*
X149898494Y-70020064D01*
X149882515Y-70026287D01*
X149858270Y-70030854D01*
X149822128Y-70034019D01*
X149770456Y-70036037D01*
X149699621Y-70037163D01*
X149605991Y-70037651D01*
X149485936Y-70037758D01*
X149429874Y-70037742D01*
X149321838Y-70037499D01*
X149238638Y-70036763D01*
X149176642Y-70035278D01*
X149132218Y-70032789D01*
X149101733Y-70029042D01*
X149081555Y-70023781D01*
X149068052Y-70016751D01*
X149057592Y-70007698D01*
X149037986Y-69978942D01*
X149027533Y-69940065D01*
X149034854Y-69908237D01*
X149057592Y-69872432D01*
X149064221Y-69866297D01*
X149077235Y-69857927D01*
X149096028Y-69851769D01*
X149124646Y-69847487D01*
X149167136Y-69844744D01*
X149227544Y-69843202D01*
X149309917Y-69842524D01*
X149418302Y-69842373D01*
X149748953Y-69842373D01*
X149748953Y-69631959D01*
X149534368Y-69631959D01*
X149486682Y-69631765D01*
X149399313Y-69629472D01*
X149336418Y-69623567D01*
X149294167Y-69612777D01*
X149268730Y-69595828D01*
X149256277Y-69571445D01*
X149252977Y-69538355D01*
X149254039Y-69511387D01*
X149261031Y-69482329D01*
X149278064Y-69461891D01*
X149309138Y-69448583D01*
X149358250Y-69440920D01*
X149429401Y-69437413D01*
X149526589Y-69436574D01*
X149750453Y-69436574D01*
X149741439Y-69263734D01*
X149411638Y-69259675D01*
X149328307Y-69258505D01*
X149237161Y-69256582D01*
X149169389Y-69254012D01*
X149121123Y-69250483D01*
X149088495Y-69245685D01*
X149067639Y-69239309D01*
X149054686Y-69231044D01*
X149046677Y-69222519D01*
X149029358Y-69180340D01*
X149034098Y-69132828D01*
X149060426Y-69091479D01*
X149064756Y-69087587D01*
X149076711Y-69079131D01*
X149092825Y-69072671D01*
X149116798Y-69067939D01*
X149152330Y-69064668D01*
X149203120Y-69062589D01*
X149272869Y-69061436D01*
X149365277Y-69060940D01*
X149484043Y-69060834D01*
X149556913Y-69060856D01*
G36*
X153383453Y-67805977D02*
G01*
X153381134Y-67927170D01*
X153378318Y-68030364D01*
X153374957Y-68117059D01*
X153371003Y-68188756D01*
X153366410Y-68246954D01*
X153361131Y-68293154D01*
X153355118Y-68328857D01*
X153348323Y-68355561D01*
X153340701Y-68374769D01*
X153332202Y-68387979D01*
X153322782Y-68396692D01*
X153312391Y-68402409D01*
X153300983Y-68406630D01*
X153288511Y-68410854D01*
X153274927Y-68416583D01*
X153267284Y-68419454D01*
X153253264Y-68422589D01*
X153232431Y-68425461D01*
X153203314Y-68428083D01*
X153164437Y-68430464D01*
X153114327Y-68432618D01*
X153051510Y-68434554D01*
X152974513Y-68436286D01*
X152881862Y-68437824D01*
X152772083Y-68439180D01*
X152643703Y-68440365D01*
X152495247Y-68441392D01*
X152325243Y-68442270D01*
X152132216Y-68443013D01*
X151914693Y-68443631D01*
X151671201Y-68444137D01*
X151400264Y-68444540D01*
X151100410Y-68444854D01*
X150770166Y-68445089D01*
X150408057Y-68445258D01*
X150012609Y-68445371D01*
X149582349Y-68445440D01*
X149446001Y-68445453D01*
X149025079Y-68445462D01*
X148638540Y-68445409D01*
X148284927Y-68445284D01*
X147962783Y-68445076D01*
X147670654Y-68444775D01*
X147407081Y-68444370D01*
X147170609Y-68443850D01*
X146959783Y-68443206D01*
X146773144Y-68442426D01*
X146609238Y-68441500D01*
X146466608Y-68440417D01*
X146343798Y-68439167D01*
X146239351Y-68437739D01*
X146151812Y-68436122D01*
X146079723Y-68434307D01*
X146021629Y-68432282D01*
X145976073Y-68430037D01*
X145941600Y-68427561D01*
X145916752Y-68424844D01*
X145900074Y-68421875D01*
X145890110Y-68418644D01*
X145886939Y-68417206D01*
X145873960Y-68412482D01*
X145862058Y-68409032D01*
X145851185Y-68405354D01*
X145841291Y-68399945D01*
X145832330Y-68391303D01*
X145824252Y-68377926D01*
X145817009Y-68358310D01*
X145810554Y-68330955D01*
X145804838Y-68294357D01*
X145799812Y-68247014D01*
X145795429Y-68187424D01*
X145791640Y-68114083D01*
X145788397Y-68025491D01*
X145785652Y-67920144D01*
X145783356Y-67796541D01*
X145781461Y-67653178D01*
X145780839Y-67586791D01*
X146259266Y-67586791D01*
X146259791Y-67593149D01*
X146269414Y-67598301D01*
X146291157Y-67602374D01*
X146328041Y-67605494D01*
X146383086Y-67607789D01*
X146459312Y-67609383D01*
X146559741Y-67610403D01*
X146687394Y-67610975D01*
X146845291Y-67611226D01*
X147036452Y-67611281D01*
X147837207Y-67611281D01*
X147769514Y-67488817D01*
X147701822Y-67366353D01*
X147701822Y-63810353D01*
X147769514Y-63687889D01*
X147837207Y-63565424D01*
X146405886Y-63565424D01*
X146400711Y-65447746D01*
X146395536Y-67330067D01*
X146344796Y-67438432D01*
X146318044Y-67492143D01*
X146287753Y-67545948D01*
X146264877Y-67579039D01*
X146264819Y-67579103D01*
X146259266Y-67586791D01*
X145780839Y-67586791D01*
X145779919Y-67488553D01*
X145778682Y-67301164D01*
X145777701Y-67089509D01*
X145776928Y-66852085D01*
X145776315Y-66587390D01*
X145775814Y-66293922D01*
X145775377Y-65970177D01*
X145774954Y-65614654D01*
X145774498Y-65225850D01*
X145773961Y-64802264D01*
X145773892Y-64750984D01*
X145773293Y-64330081D01*
X145772720Y-63943786D01*
X145772216Y-63590596D01*
X145771823Y-63269008D01*
X145771583Y-62977518D01*
X145771539Y-62714624D01*
X145771733Y-62478822D01*
X145772207Y-62268610D01*
X145773005Y-62082484D01*
X145774167Y-61918941D01*
X145775737Y-61776479D01*
X145777757Y-61653594D01*
X145780270Y-61548783D01*
X145783317Y-61460543D01*
X145786942Y-61387371D01*
X145791186Y-61327764D01*
X145796091Y-61280219D01*
X145801701Y-61243232D01*
X145808058Y-61215302D01*
X145815204Y-61194924D01*
X145823181Y-61180595D01*
X145832032Y-61170814D01*
X145841799Y-61164075D01*
X145852525Y-61158878D01*
X145864251Y-61153717D01*
X145877021Y-61147091D01*
X145880758Y-61144980D01*
X145937298Y-61124542D01*
X145999193Y-61116141D01*
X146068965Y-61116144D01*
X146070127Y-61274891D01*
X146070422Y-61293159D01*
X146092599Y-61478851D01*
X146149081Y-61653571D01*
X146239085Y-61815467D01*
X146361825Y-61962689D01*
X146427691Y-62022735D01*
X146574347Y-62122262D01*
X146734363Y-62191666D01*
X146903078Y-62230911D01*
X147075832Y-62239961D01*
X147247965Y-62218777D01*
X147414815Y-62167323D01*
X147551973Y-62095853D01*
X148159020Y-62095853D01*
X148238850Y-62153286D01*
X148306363Y-62207265D01*
X148401496Y-62295310D01*
X148509400Y-62405654D01*
X148625990Y-62534094D01*
X148747178Y-62676424D01*
X148778387Y-62714486D01*
X148831522Y-62779767D01*
X148900976Y-62865412D01*
X148984449Y-62968564D01*
X149079639Y-63086363D01*
X149184247Y-63215952D01*
X149295970Y-63354471D01*
X149412508Y-63499063D01*
X149465960Y-63565424D01*
X149531560Y-63646868D01*
X149650825Y-63795027D01*
X149768002Y-63940684D01*
X149880789Y-64080978D01*
X149986887Y-64213051D01*
X150083994Y-64334045D01*
X150169809Y-64441102D01*
X150242031Y-64531362D01*
X150298359Y-64601967D01*
X150336492Y-64650059D01*
X150354130Y-64672779D01*
X150355585Y-64681317D01*
X150350743Y-64697556D01*
X150338195Y-64723103D01*
X150316690Y-64759771D01*
X150284973Y-64809373D01*
X150241793Y-64873719D01*
X150185898Y-64954622D01*
X150116034Y-65053895D01*
X150030950Y-65173350D01*
X149929392Y-65314798D01*
X149810109Y-65480053D01*
X149671847Y-65670925D01*
X149513355Y-65889228D01*
X149387070Y-66062995D01*
X149232998Y-66274831D01*
X149097473Y-66460864D01*
X148978917Y-66623158D01*
X148875754Y-66763778D01*
X148786408Y-66884789D01*
X148709304Y-66988256D01*
X148642865Y-67076242D01*
X148585516Y-67150814D01*
X148535679Y-67214034D01*
X148491779Y-67267969D01*
X148452240Y-67314682D01*
X148415486Y-67356238D01*
X148379940Y-67394703D01*
X148344028Y-67432139D01*
X148306171Y-67470613D01*
X148166664Y-67611281D01*
X150042250Y-67611357D01*
X150036357Y-67497699D01*
X150036072Y-67491988D01*
X150034953Y-67446551D01*
X150037074Y-67403017D01*
X150043851Y-67359000D01*
X150056705Y-67312117D01*
X150077053Y-67259982D01*
X150106313Y-67200210D01*
X150145905Y-67130418D01*
X150197246Y-67048221D01*
X150261755Y-66951233D01*
X150340850Y-66837071D01*
X150435950Y-66703349D01*
X150548474Y-66547684D01*
X150679839Y-66367689D01*
X150831465Y-66160981D01*
X151366679Y-65432335D01*
X151371394Y-66277179D01*
X151371812Y-66355986D01*
X151372549Y-66568256D01*
X151372214Y-66748805D01*
X151370412Y-66901052D01*
X151366749Y-67028412D01*
X151360829Y-67134302D01*
X151352260Y-67222139D01*
X151340644Y-67295340D01*
X151325590Y-67357322D01*
X151306700Y-67411500D01*
X151283582Y-67461293D01*
X151255840Y-67510117D01*
X151223080Y-67561388D01*
X151190149Y-67611281D01*
X152901597Y-67611281D01*
X152857389Y-67552317D01*
X152850465Y-67542989D01*
X152795114Y-67457494D01*
X152756957Y-67371068D01*
X152731901Y-67272037D01*
X152715852Y-67148728D01*
X152715411Y-67143353D01*
X152713082Y-67092491D01*
X152710980Y-67007630D01*
X152709112Y-66890710D01*
X152707489Y-66743670D01*
X152706120Y-66568450D01*
X152705013Y-66366987D01*
X152704178Y-66141222D01*
X152703625Y-65893093D01*
X152703361Y-65624539D01*
X152703396Y-65337501D01*
X152703740Y-65033916D01*
X152704401Y-64715724D01*
X152705102Y-64430305D01*
X152705851Y-64119620D01*
X152706589Y-63841650D01*
X152707408Y-63594446D01*
X152708400Y-63376061D01*
X152709659Y-63184549D01*
X152711276Y-63017961D01*
X152713345Y-62874349D01*
X152715958Y-62751768D01*
X152719208Y-62648268D01*
X152723186Y-62561903D01*
X152727987Y-62490725D01*
X152733702Y-62432787D01*
X152740425Y-62386141D01*
X152748247Y-62348840D01*
X152757261Y-62318936D01*
X152767560Y-62294482D01*
X152779237Y-62273530D01*
X152792385Y-62254133D01*
X152807095Y-62234344D01*
X152823460Y-62212215D01*
X152839289Y-62190039D01*
X152869884Y-62146193D01*
X152888210Y-62118531D01*
X152888652Y-62117373D01*
X152882253Y-62112142D01*
X152859672Y-62107777D01*
X152818395Y-62104212D01*
X152755910Y-62101378D01*
X152669705Y-62099211D01*
X152557266Y-62097641D01*
X152416081Y-62096603D01*
X152243638Y-62096029D01*
X152037423Y-62095853D01*
X151172953Y-62095853D01*
X151218514Y-62149998D01*
X151244919Y-62187187D01*
X151288871Y-62274870D01*
X151327388Y-62383923D01*
X151356786Y-62504892D01*
X151358659Y-62516376D01*
X151364234Y-62576916D01*
X151368456Y-62670480D01*
X151371336Y-62797716D01*
X151372885Y-62959270D01*
X151373114Y-63155792D01*
X151372036Y-63387928D01*
X151366679Y-64162932D01*
X150813322Y-63463166D01*
X150797472Y-63443122D01*
X150657146Y-63265476D01*
X150537346Y-63113338D01*
X150436163Y-62984122D01*
X150351693Y-62875241D01*
X150282028Y-62784109D01*
X150225261Y-62708138D01*
X150179487Y-62644741D01*
X150142799Y-62591332D01*
X150113289Y-62545325D01*
X150089052Y-62504131D01*
X150068181Y-62465165D01*
X150048770Y-62425839D01*
X150018908Y-62356229D01*
X149999617Y-62282796D01*
X149994485Y-62203589D01*
X149995001Y-62095853D01*
X148159020Y-62095853D01*
X147551973Y-62095853D01*
X147571723Y-62085562D01*
X147714029Y-61973456D01*
X147753588Y-61933934D01*
X147870513Y-61787599D01*
X147953481Y-61628791D01*
X148002936Y-61456487D01*
X148019322Y-61269662D01*
X148019322Y-61116139D01*
X150623723Y-61116138D01*
X150786433Y-61116131D01*
X151135982Y-61116084D01*
X151451749Y-61116050D01*
X151735481Y-61116097D01*
X151988924Y-61116296D01*
X152213824Y-61116715D01*
X152411927Y-61117422D01*
X152584980Y-61118489D01*
X152734728Y-61119982D01*
X152862918Y-61121971D01*
X152971296Y-61124526D01*
X153061608Y-61127715D01*
X153135600Y-61131607D01*
X153195018Y-61136272D01*
X153241609Y-61141778D01*
X153277119Y-61148195D01*
X153303293Y-61155591D01*
X153321879Y-61164035D01*
X153334621Y-61173597D01*
X153343267Y-61184346D01*
X153349563Y-61196350D01*
X153355253Y-61209679D01*
X153362086Y-61224402D01*
X153362209Y-61224642D01*
X153365526Y-61234280D01*
X153368569Y-61250417D01*
X153371349Y-61274545D01*
X153373878Y-61308151D01*
X153376167Y-61352725D01*
X153378227Y-61409757D01*
X153380072Y-61480735D01*
X153381710Y-61567149D01*
X153383156Y-61670488D01*
X153384419Y-61792242D01*
X153385512Y-61933899D01*
X153386446Y-62096950D01*
X153387233Y-62282882D01*
X153387884Y-62493186D01*
X153388410Y-62729351D01*
X153388824Y-62992866D01*
X153389137Y-63285221D01*
X153389360Y-63607904D01*
X153389505Y-63962405D01*
X153389584Y-64350213D01*
X153389607Y-64772817D01*
X153389608Y-64855838D01*
X153389648Y-65274038D01*
X153389710Y-65657737D01*
X153389747Y-66008433D01*
X153389710Y-66327628D01*
X153389555Y-66616822D01*
X153389232Y-66877515D01*
X153388694Y-67111208D01*
X153387894Y-67319400D01*
X153386785Y-67503592D01*
X153385809Y-67611281D01*
X153385321Y-67665284D01*
X153383453Y-67805977D01*
G37*
X153383453Y-67805977D02*
X153381134Y-67927170D01*
X153378318Y-68030364D01*
X153374957Y-68117059D01*
X153371003Y-68188756D01*
X153366410Y-68246954D01*
X153361131Y-68293154D01*
X153355118Y-68328857D01*
X153348323Y-68355561D01*
X153340701Y-68374769D01*
X153332202Y-68387979D01*
X153322782Y-68396692D01*
X153312391Y-68402409D01*
X153300983Y-68406630D01*
X153288511Y-68410854D01*
X153274927Y-68416583D01*
X153267284Y-68419454D01*
X153253264Y-68422589D01*
X153232431Y-68425461D01*
X153203314Y-68428083D01*
X153164437Y-68430464D01*
X153114327Y-68432618D01*
X153051510Y-68434554D01*
X152974513Y-68436286D01*
X152881862Y-68437824D01*
X152772083Y-68439180D01*
X152643703Y-68440365D01*
X152495247Y-68441392D01*
X152325243Y-68442270D01*
X152132216Y-68443013D01*
X151914693Y-68443631D01*
X151671201Y-68444137D01*
X151400264Y-68444540D01*
X151100410Y-68444854D01*
X150770166Y-68445089D01*
X150408057Y-68445258D01*
X150012609Y-68445371D01*
X149582349Y-68445440D01*
X149446001Y-68445453D01*
X149025079Y-68445462D01*
X148638540Y-68445409D01*
X148284927Y-68445284D01*
X147962783Y-68445076D01*
X147670654Y-68444775D01*
X147407081Y-68444370D01*
X147170609Y-68443850D01*
X146959783Y-68443206D01*
X146773144Y-68442426D01*
X146609238Y-68441500D01*
X146466608Y-68440417D01*
X146343798Y-68439167D01*
X146239351Y-68437739D01*
X146151812Y-68436122D01*
X146079723Y-68434307D01*
X146021629Y-68432282D01*
X145976073Y-68430037D01*
X145941600Y-68427561D01*
X145916752Y-68424844D01*
X145900074Y-68421875D01*
X145890110Y-68418644D01*
X145886939Y-68417206D01*
X145873960Y-68412482D01*
X145862058Y-68409032D01*
X145851185Y-68405354D01*
X145841291Y-68399945D01*
X145832330Y-68391303D01*
X145824252Y-68377926D01*
X145817009Y-68358310D01*
X145810554Y-68330955D01*
X145804838Y-68294357D01*
X145799812Y-68247014D01*
X145795429Y-68187424D01*
X145791640Y-68114083D01*
X145788397Y-68025491D01*
X145785652Y-67920144D01*
X145783356Y-67796541D01*
X145781461Y-67653178D01*
X145780839Y-67586791D01*
X146259266Y-67586791D01*
X146259791Y-67593149D01*
X146269414Y-67598301D01*
X146291157Y-67602374D01*
X146328041Y-67605494D01*
X146383086Y-67607789D01*
X146459312Y-67609383D01*
X146559741Y-67610403D01*
X146687394Y-67610975D01*
X146845291Y-67611226D01*
X147036452Y-67611281D01*
X147837207Y-67611281D01*
X147769514Y-67488817D01*
X147701822Y-67366353D01*
X147701822Y-63810353D01*
X147769514Y-63687889D01*
X147837207Y-63565424D01*
X146405886Y-63565424D01*
X146400711Y-65447746D01*
X146395536Y-67330067D01*
X146344796Y-67438432D01*
X146318044Y-67492143D01*
X146287753Y-67545948D01*
X146264877Y-67579039D01*
X146264819Y-67579103D01*
X146259266Y-67586791D01*
X145780839Y-67586791D01*
X145779919Y-67488553D01*
X145778682Y-67301164D01*
X145777701Y-67089509D01*
X145776928Y-66852085D01*
X145776315Y-66587390D01*
X145775814Y-66293922D01*
X145775377Y-65970177D01*
X145774954Y-65614654D01*
X145774498Y-65225850D01*
X145773961Y-64802264D01*
X145773892Y-64750984D01*
X145773293Y-64330081D01*
X145772720Y-63943786D01*
X145772216Y-63590596D01*
X145771823Y-63269008D01*
X145771583Y-62977518D01*
X145771539Y-62714624D01*
X145771733Y-62478822D01*
X145772207Y-62268610D01*
X145773005Y-62082484D01*
X145774167Y-61918941D01*
X145775737Y-61776479D01*
X145777757Y-61653594D01*
X145780270Y-61548783D01*
X145783317Y-61460543D01*
X145786942Y-61387371D01*
X145791186Y-61327764D01*
X145796091Y-61280219D01*
X145801701Y-61243232D01*
X145808058Y-61215302D01*
X145815204Y-61194924D01*
X145823181Y-61180595D01*
X145832032Y-61170814D01*
X145841799Y-61164075D01*
X145852525Y-61158878D01*
X145864251Y-61153717D01*
X145877021Y-61147091D01*
X145880758Y-61144980D01*
X145937298Y-61124542D01*
X145999193Y-61116141D01*
X146068965Y-61116144D01*
X146070127Y-61274891D01*
X146070422Y-61293159D01*
X146092599Y-61478851D01*
X146149081Y-61653571D01*
X146239085Y-61815467D01*
X146361825Y-61962689D01*
X146427691Y-62022735D01*
X146574347Y-62122262D01*
X146734363Y-62191666D01*
X146903078Y-62230911D01*
X147075832Y-62239961D01*
X147247965Y-62218777D01*
X147414815Y-62167323D01*
X147551973Y-62095853D01*
X148159020Y-62095853D01*
X148238850Y-62153286D01*
X148306363Y-62207265D01*
X148401496Y-62295310D01*
X148509400Y-62405654D01*
X148625990Y-62534094D01*
X148747178Y-62676424D01*
X148778387Y-62714486D01*
X148831522Y-62779767D01*
X148900976Y-62865412D01*
X148984449Y-62968564D01*
X149079639Y-63086363D01*
X149184247Y-63215952D01*
X149295970Y-63354471D01*
X149412508Y-63499063D01*
X149465960Y-63565424D01*
X149531560Y-63646868D01*
X149650825Y-63795027D01*
X149768002Y-63940684D01*
X149880789Y-64080978D01*
X149986887Y-64213051D01*
X150083994Y-64334045D01*
X150169809Y-64441102D01*
X150242031Y-64531362D01*
X150298359Y-64601967D01*
X150336492Y-64650059D01*
X150354130Y-64672779D01*
X150355585Y-64681317D01*
X150350743Y-64697556D01*
X150338195Y-64723103D01*
X150316690Y-64759771D01*
X150284973Y-64809373D01*
X150241793Y-64873719D01*
X150185898Y-64954622D01*
X150116034Y-65053895D01*
X150030950Y-65173350D01*
X149929392Y-65314798D01*
X149810109Y-65480053D01*
X149671847Y-65670925D01*
X149513355Y-65889228D01*
X149387070Y-66062995D01*
X149232998Y-66274831D01*
X149097473Y-66460864D01*
X148978917Y-66623158D01*
X148875754Y-66763778D01*
X148786408Y-66884789D01*
X148709304Y-66988256D01*
X148642865Y-67076242D01*
X148585516Y-67150814D01*
X148535679Y-67214034D01*
X148491779Y-67267969D01*
X148452240Y-67314682D01*
X148415486Y-67356238D01*
X148379940Y-67394703D01*
X148344028Y-67432139D01*
X148306171Y-67470613D01*
X148166664Y-67611281D01*
X150042250Y-67611357D01*
X150036357Y-67497699D01*
X150036072Y-67491988D01*
X150034953Y-67446551D01*
X150037074Y-67403017D01*
X150043851Y-67359000D01*
X150056705Y-67312117D01*
X150077053Y-67259982D01*
X150106313Y-67200210D01*
X150145905Y-67130418D01*
X150197246Y-67048221D01*
X150261755Y-66951233D01*
X150340850Y-66837071D01*
X150435950Y-66703349D01*
X150548474Y-66547684D01*
X150679839Y-66367689D01*
X150831465Y-66160981D01*
X151366679Y-65432335D01*
X151371394Y-66277179D01*
X151371812Y-66355986D01*
X151372549Y-66568256D01*
X151372214Y-66748805D01*
X151370412Y-66901052D01*
X151366749Y-67028412D01*
X151360829Y-67134302D01*
X151352260Y-67222139D01*
X151340644Y-67295340D01*
X151325590Y-67357322D01*
X151306700Y-67411500D01*
X151283582Y-67461293D01*
X151255840Y-67510117D01*
X151223080Y-67561388D01*
X151190149Y-67611281D01*
X152901597Y-67611281D01*
X152857389Y-67552317D01*
X152850465Y-67542989D01*
X152795114Y-67457494D01*
X152756957Y-67371068D01*
X152731901Y-67272037D01*
X152715852Y-67148728D01*
X152715411Y-67143353D01*
X152713082Y-67092491D01*
X152710980Y-67007630D01*
X152709112Y-66890710D01*
X152707489Y-66743670D01*
X152706120Y-66568450D01*
X152705013Y-66366987D01*
X152704178Y-66141222D01*
X152703625Y-65893093D01*
X152703361Y-65624539D01*
X152703396Y-65337501D01*
X152703740Y-65033916D01*
X152704401Y-64715724D01*
X152705102Y-64430305D01*
X152705851Y-64119620D01*
X152706589Y-63841650D01*
X152707408Y-63594446D01*
X152708400Y-63376061D01*
X152709659Y-63184549D01*
X152711276Y-63017961D01*
X152713345Y-62874349D01*
X152715958Y-62751768D01*
X152719208Y-62648268D01*
X152723186Y-62561903D01*
X152727987Y-62490725D01*
X152733702Y-62432787D01*
X152740425Y-62386141D01*
X152748247Y-62348840D01*
X152757261Y-62318936D01*
X152767560Y-62294482D01*
X152779237Y-62273530D01*
X152792385Y-62254133D01*
X152807095Y-62234344D01*
X152823460Y-62212215D01*
X152839289Y-62190039D01*
X152869884Y-62146193D01*
X152888210Y-62118531D01*
X152888652Y-62117373D01*
X152882253Y-62112142D01*
X152859672Y-62107777D01*
X152818395Y-62104212D01*
X152755910Y-62101378D01*
X152669705Y-62099211D01*
X152557266Y-62097641D01*
X152416081Y-62096603D01*
X152243638Y-62096029D01*
X152037423Y-62095853D01*
X151172953Y-62095853D01*
X151218514Y-62149998D01*
X151244919Y-62187187D01*
X151288871Y-62274870D01*
X151327388Y-62383923D01*
X151356786Y-62504892D01*
X151358659Y-62516376D01*
X151364234Y-62576916D01*
X151368456Y-62670480D01*
X151371336Y-62797716D01*
X151372885Y-62959270D01*
X151373114Y-63155792D01*
X151372036Y-63387928D01*
X151366679Y-64162932D01*
X150813322Y-63463166D01*
X150797472Y-63443122D01*
X150657146Y-63265476D01*
X150537346Y-63113338D01*
X150436163Y-62984122D01*
X150351693Y-62875241D01*
X150282028Y-62784109D01*
X150225261Y-62708138D01*
X150179487Y-62644741D01*
X150142799Y-62591332D01*
X150113289Y-62545325D01*
X150089052Y-62504131D01*
X150068181Y-62465165D01*
X150048770Y-62425839D01*
X150018908Y-62356229D01*
X149999617Y-62282796D01*
X149994485Y-62203589D01*
X149995001Y-62095853D01*
X148159020Y-62095853D01*
X147551973Y-62095853D01*
X147571723Y-62085562D01*
X147714029Y-61973456D01*
X147753588Y-61933934D01*
X147870513Y-61787599D01*
X147953481Y-61628791D01*
X148002936Y-61456487D01*
X148019322Y-61269662D01*
X148019322Y-61116139D01*
X150623723Y-61116138D01*
X150786433Y-61116131D01*
X151135982Y-61116084D01*
X151451749Y-61116050D01*
X151735481Y-61116097D01*
X151988924Y-61116296D01*
X152213824Y-61116715D01*
X152411927Y-61117422D01*
X152584980Y-61118489D01*
X152734728Y-61119982D01*
X152862918Y-61121971D01*
X152971296Y-61124526D01*
X153061608Y-61127715D01*
X153135600Y-61131607D01*
X153195018Y-61136272D01*
X153241609Y-61141778D01*
X153277119Y-61148195D01*
X153303293Y-61155591D01*
X153321879Y-61164035D01*
X153334621Y-61173597D01*
X153343267Y-61184346D01*
X153349563Y-61196350D01*
X153355253Y-61209679D01*
X153362086Y-61224402D01*
X153362209Y-61224642D01*
X153365526Y-61234280D01*
X153368569Y-61250417D01*
X153371349Y-61274545D01*
X153373878Y-61308151D01*
X153376167Y-61352725D01*
X153378227Y-61409757D01*
X153380072Y-61480735D01*
X153381710Y-61567149D01*
X153383156Y-61670488D01*
X153384419Y-61792242D01*
X153385512Y-61933899D01*
X153386446Y-62096950D01*
X153387233Y-62282882D01*
X153387884Y-62493186D01*
X153388410Y-62729351D01*
X153388824Y-62992866D01*
X153389137Y-63285221D01*
X153389360Y-63607904D01*
X153389505Y-63962405D01*
X153389584Y-64350213D01*
X153389607Y-64772817D01*
X153389608Y-64855838D01*
X153389648Y-65274038D01*
X153389710Y-65657737D01*
X153389747Y-66008433D01*
X153389710Y-66327628D01*
X153389555Y-66616822D01*
X153389232Y-66877515D01*
X153388694Y-67111208D01*
X153387894Y-67319400D01*
X153386785Y-67503592D01*
X153385809Y-67611281D01*
X153385321Y-67665284D01*
X153383453Y-67805977D01*
G36*
X147066472Y-69066688D02*
G01*
X147111944Y-69097725D01*
X147148835Y-69134616D01*
X147148835Y-69551402D01*
X147148780Y-69663276D01*
X147148436Y-69762092D01*
X147147543Y-69837650D01*
X147145842Y-69893528D01*
X147143074Y-69933306D01*
X147138981Y-69960560D01*
X147133302Y-69978871D01*
X147125781Y-69991815D01*
X147116156Y-70002972D01*
X147074267Y-70031549D01*
X147027449Y-70033900D01*
X146983510Y-70007698D01*
X146976444Y-69999885D01*
X146969189Y-69987791D01*
X146963643Y-69970029D01*
X146959576Y-69943114D01*
X146956762Y-69903562D01*
X146954970Y-69847889D01*
X146953974Y-69772609D01*
X146953543Y-69674240D01*
X146953450Y-69549296D01*
X146953503Y-69448564D01*
X146953842Y-69344838D01*
X146954700Y-69264943D01*
X146956303Y-69205395D01*
X146958881Y-69162708D01*
X146962662Y-69133399D01*
X146967875Y-69113983D01*
X146974748Y-69100976D01*
X146983510Y-69090894D01*
X147022363Y-69065569D01*
X147066472Y-69066688D01*
G37*
X147066472Y-69066688D02*
X147111944Y-69097725D01*
X147148835Y-69134616D01*
X147148835Y-69551402D01*
X147148780Y-69663276D01*
X147148436Y-69762092D01*
X147147543Y-69837650D01*
X147145842Y-69893528D01*
X147143074Y-69933306D01*
X147138981Y-69960560D01*
X147133302Y-69978871D01*
X147125781Y-69991815D01*
X147116156Y-70002972D01*
X147074267Y-70031549D01*
X147027449Y-70033900D01*
X146983510Y-70007698D01*
X146976444Y-69999885D01*
X146969189Y-69987791D01*
X146963643Y-69970029D01*
X146959576Y-69943114D01*
X146956762Y-69903562D01*
X146954970Y-69847889D01*
X146953974Y-69772609D01*
X146953543Y-69674240D01*
X146953450Y-69549296D01*
X146953503Y-69448564D01*
X146953842Y-69344838D01*
X146954700Y-69264943D01*
X146956303Y-69205395D01*
X146958881Y-69162708D01*
X146962662Y-69133399D01*
X146967875Y-69113983D01*
X146974748Y-69100976D01*
X146983510Y-69090894D01*
X147022363Y-69065569D01*
X147066472Y-69066688D01*
G36*
X142003342Y-69918374D02*
G01*
X141999443Y-69948890D01*
X141994015Y-69969928D01*
X141986807Y-69985135D01*
X141977567Y-69998157D01*
X141946417Y-70037758D01*
X141725821Y-70036967D01*
X141679495Y-70036570D01*
X141548378Y-70032003D01*
X141440589Y-70021775D01*
X141351262Y-70005056D01*
X141275530Y-69981019D01*
X141208527Y-69948833D01*
X141204055Y-69946281D01*
X141127087Y-69897396D01*
X141070698Y-69848181D01*
X141027008Y-69790286D01*
X140988132Y-69715361D01*
X140982432Y-69702559D01*
X140952373Y-69618436D01*
X140944738Y-69557786D01*
X141143437Y-69557786D01*
X141150910Y-69590708D01*
X141158533Y-69611848D01*
X141202375Y-69691607D01*
X141265399Y-69752521D01*
X141350294Y-69796636D01*
X141459744Y-69825999D01*
X141463463Y-69826667D01*
X141525086Y-69834605D01*
X141600170Y-69840234D01*
X141673311Y-69842373D01*
X141798302Y-69842373D01*
X141798302Y-69256219D01*
X141681823Y-69256816D01*
X141592729Y-69260112D01*
X141469714Y-69275092D01*
X141364117Y-69301106D01*
X141281606Y-69337018D01*
X141240414Y-69364615D01*
X141202976Y-69404244D01*
X141171903Y-69460731D01*
X141162414Y-69481988D01*
X141146672Y-69525260D01*
X141143437Y-69557786D01*
X140944738Y-69557786D01*
X140943092Y-69544708D01*
X140954544Y-69471448D01*
X140986685Y-69388728D01*
X140987744Y-69386474D01*
X141041600Y-69294048D01*
X141109079Y-69218695D01*
X141192590Y-69159359D01*
X141294540Y-69114987D01*
X141417338Y-69084525D01*
X141563392Y-69066917D01*
X141735110Y-69061111D01*
X141739865Y-69061105D01*
X141819774Y-69061291D01*
X141875599Y-69062671D01*
X141913028Y-69066125D01*
X141937750Y-69072532D01*
X141955453Y-69082772D01*
X141971826Y-69097725D01*
X142008717Y-69134616D01*
X142008717Y-69546586D01*
X142008683Y-69628605D01*
X142008383Y-69733496D01*
X142007561Y-69814324D01*
X142006819Y-69842373D01*
X142005964Y-69874735D01*
X142003342Y-69918374D01*
G37*
X142003342Y-69918374D02*
X141999443Y-69948890D01*
X141994015Y-69969928D01*
X141986807Y-69985135D01*
X141977567Y-69998157D01*
X141946417Y-70037758D01*
X141725821Y-70036967D01*
X141679495Y-70036570D01*
X141548378Y-70032003D01*
X141440589Y-70021775D01*
X141351262Y-70005056D01*
X141275530Y-69981019D01*
X141208527Y-69948833D01*
X141204055Y-69946281D01*
X141127087Y-69897396D01*
X141070698Y-69848181D01*
X141027008Y-69790286D01*
X140988132Y-69715361D01*
X140982432Y-69702559D01*
X140952373Y-69618436D01*
X140944738Y-69557786D01*
X141143437Y-69557786D01*
X141150910Y-69590708D01*
X141158533Y-69611848D01*
X141202375Y-69691607D01*
X141265399Y-69752521D01*
X141350294Y-69796636D01*
X141459744Y-69825999D01*
X141463463Y-69826667D01*
X141525086Y-69834605D01*
X141600170Y-69840234D01*
X141673311Y-69842373D01*
X141798302Y-69842373D01*
X141798302Y-69256219D01*
X141681823Y-69256816D01*
X141592729Y-69260112D01*
X141469714Y-69275092D01*
X141364117Y-69301106D01*
X141281606Y-69337018D01*
X141240414Y-69364615D01*
X141202976Y-69404244D01*
X141171903Y-69460731D01*
X141162414Y-69481988D01*
X141146672Y-69525260D01*
X141143437Y-69557786D01*
X140944738Y-69557786D01*
X140943092Y-69544708D01*
X140954544Y-69471448D01*
X140986685Y-69388728D01*
X140987744Y-69386474D01*
X141041600Y-69294048D01*
X141109079Y-69218695D01*
X141192590Y-69159359D01*
X141294540Y-69114987D01*
X141417338Y-69084525D01*
X141563392Y-69066917D01*
X141735110Y-69061111D01*
X141739865Y-69061105D01*
X141819774Y-69061291D01*
X141875599Y-69062671D01*
X141913028Y-69066125D01*
X141937750Y-69072532D01*
X141955453Y-69082772D01*
X141971826Y-69097725D01*
X142008717Y-69134616D01*
X142008717Y-69546586D01*
X142008683Y-69628605D01*
X142008383Y-69733496D01*
X142007561Y-69814324D01*
X142006819Y-69842373D01*
X142005964Y-69874735D01*
X142003342Y-69918374D01*
G36*
X143330229Y-69100435D02*
G01*
X143336818Y-69109334D01*
X143344599Y-69123408D01*
X143350538Y-69142163D01*
X143354884Y-69169223D01*
X143357883Y-69208214D01*
X143359785Y-69262763D01*
X143360836Y-69336493D01*
X143361285Y-69433032D01*
X143361379Y-69556004D01*
X143361341Y-69643763D01*
X143361032Y-69748031D01*
X143360206Y-69828269D01*
X143358618Y-69888045D01*
X143356025Y-69930926D01*
X143352184Y-69960480D01*
X143346851Y-69980276D01*
X143339783Y-69993881D01*
X143330735Y-70004864D01*
X143324724Y-70011065D01*
X143313767Y-70019701D01*
X143298643Y-70026240D01*
X143275653Y-70030974D01*
X143241097Y-70034193D01*
X143191279Y-70036190D01*
X143122497Y-70037255D01*
X143031054Y-70037680D01*
X142913250Y-70037758D01*
X142887056Y-70037749D01*
X142771195Y-70037394D01*
X142681125Y-70036375D01*
X142613286Y-70034492D01*
X142564117Y-70031547D01*
X142530055Y-70027343D01*
X142507539Y-70021680D01*
X142493008Y-70014361D01*
X142479038Y-70001066D01*
X142461383Y-69959638D01*
X142462957Y-69911858D01*
X142484478Y-69869858D01*
X142487393Y-69866828D01*
X142498959Y-69858483D01*
X142516722Y-69852271D01*
X142544658Y-69847882D01*
X142586744Y-69845008D01*
X142646958Y-69843338D01*
X142729275Y-69842563D01*
X142837673Y-69842373D01*
X143165995Y-69842373D01*
X143165995Y-69631959D01*
X142949731Y-69631959D01*
X142902243Y-69631852D01*
X142827993Y-69630790D01*
X142775886Y-69628121D01*
X142740667Y-69623273D01*
X142717078Y-69615673D01*
X142699864Y-69604749D01*
X142695014Y-69600510D01*
X142670507Y-69559271D01*
X142669663Y-69510895D01*
X142693013Y-69466135D01*
X142693096Y-69466044D01*
X142705971Y-69454559D01*
X142723670Y-69446497D01*
X142751239Y-69441263D01*
X142793724Y-69438261D01*
X142856172Y-69436897D01*
X142943630Y-69436574D01*
X143167495Y-69436574D01*
X143162987Y-69350154D01*
X143158480Y-69263734D01*
X142836188Y-69259669D01*
X142802882Y-69259233D01*
X142694217Y-69257263D01*
X142611247Y-69254089D01*
X142550519Y-69248769D01*
X142508578Y-69240364D01*
X142481971Y-69227930D01*
X142467242Y-69210527D01*
X142460938Y-69187214D01*
X142459604Y-69157050D01*
X142459612Y-69153900D01*
X142461148Y-69127232D01*
X142467536Y-69106206D01*
X142481925Y-69090155D01*
X142507466Y-69078408D01*
X142547312Y-69070298D01*
X142604611Y-69065154D01*
X142682516Y-69062308D01*
X142784177Y-69061091D01*
X142912745Y-69060834D01*
X143299079Y-69060834D01*
X143330229Y-69100435D01*
G37*
X143330229Y-69100435D02*
X143336818Y-69109334D01*
X143344599Y-69123408D01*
X143350538Y-69142163D01*
X143354884Y-69169223D01*
X143357883Y-69208214D01*
X143359785Y-69262763D01*
X143360836Y-69336493D01*
X143361285Y-69433032D01*
X143361379Y-69556004D01*
X143361341Y-69643763D01*
X143361032Y-69748031D01*
X143360206Y-69828269D01*
X143358618Y-69888045D01*
X143356025Y-69930926D01*
X143352184Y-69960480D01*
X143346851Y-69980276D01*
X143339783Y-69993881D01*
X143330735Y-70004864D01*
X143324724Y-70011065D01*
X143313767Y-70019701D01*
X143298643Y-70026240D01*
X143275653Y-70030974D01*
X143241097Y-70034193D01*
X143191279Y-70036190D01*
X143122497Y-70037255D01*
X143031054Y-70037680D01*
X142913250Y-70037758D01*
X142887056Y-70037749D01*
X142771195Y-70037394D01*
X142681125Y-70036375D01*
X142613286Y-70034492D01*
X142564117Y-70031547D01*
X142530055Y-70027343D01*
X142507539Y-70021680D01*
X142493008Y-70014361D01*
X142479038Y-70001066D01*
X142461383Y-69959638D01*
X142462957Y-69911858D01*
X142484478Y-69869858D01*
X142487393Y-69866828D01*
X142498959Y-69858483D01*
X142516722Y-69852271D01*
X142544658Y-69847882D01*
X142586744Y-69845008D01*
X142646958Y-69843338D01*
X142729275Y-69842563D01*
X142837673Y-69842373D01*
X143165995Y-69842373D01*
X143165995Y-69631959D01*
X142949731Y-69631959D01*
X142902243Y-69631852D01*
X142827993Y-69630790D01*
X142775886Y-69628121D01*
X142740667Y-69623273D01*
X142717078Y-69615673D01*
X142699864Y-69604749D01*
X142695014Y-69600510D01*
X142670507Y-69559271D01*
X142669663Y-69510895D01*
X142693013Y-69466135D01*
X142693096Y-69466044D01*
X142705971Y-69454559D01*
X142723670Y-69446497D01*
X142751239Y-69441263D01*
X142793724Y-69438261D01*
X142856172Y-69436897D01*
X142943630Y-69436574D01*
X143167495Y-69436574D01*
X143162987Y-69350154D01*
X143158480Y-69263734D01*
X142836188Y-69259669D01*
X142802882Y-69259233D01*
X142694217Y-69257263D01*
X142611247Y-69254089D01*
X142550519Y-69248769D01*
X142508578Y-69240364D01*
X142481971Y-69227930D01*
X142467242Y-69210527D01*
X142460938Y-69187214D01*
X142459604Y-69157050D01*
X142459612Y-69153900D01*
X142461148Y-69127232D01*
X142467536Y-69106206D01*
X142481925Y-69090155D01*
X142507466Y-69078408D01*
X142547312Y-69070298D01*
X142604611Y-69065154D01*
X142682516Y-69062308D01*
X142784177Y-69061091D01*
X142912745Y-69060834D01*
X143299079Y-69060834D01*
X143330229Y-69100435D01*
G36*
X137109148Y-65968857D02*
G01*
X137098140Y-66116926D01*
X137079122Y-66253222D01*
X137051242Y-66385799D01*
X137013647Y-66522710D01*
X136956636Y-66686360D01*
X136851929Y-66907281D01*
X136723491Y-67105158D01*
X136573286Y-67278121D01*
X136403280Y-67424300D01*
X136215438Y-67541825D01*
X136011725Y-67628826D01*
X135794105Y-67683433D01*
X135791486Y-67683871D01*
X135632446Y-67699174D01*
X135457702Y-67697131D01*
X135279713Y-67679003D01*
X135110939Y-67646048D01*
X134963841Y-67599525D01*
X134901054Y-67571215D01*
X134819280Y-67528185D01*
X134735252Y-67478970D01*
X134657738Y-67428987D01*
X134595505Y-67383653D01*
X134557322Y-67348384D01*
X134548556Y-67338701D01*
X134538107Y-67335316D01*
X134531122Y-67352120D01*
X134525975Y-67394469D01*
X134521036Y-67467719D01*
X134511965Y-67620353D01*
X133122253Y-67629857D01*
X133170332Y-67547817D01*
X133173198Y-67542967D01*
X133187178Y-67520196D01*
X133199862Y-67499911D01*
X133211316Y-67480349D01*
X133221608Y-67459748D01*
X133230808Y-67436344D01*
X133238983Y-67408377D01*
X133246202Y-67374084D01*
X133252533Y-67331702D01*
X133258044Y-67279470D01*
X133262803Y-67215624D01*
X133266878Y-67138403D01*
X133270339Y-67046044D01*
X133273252Y-66936785D01*
X133275687Y-66808864D01*
X133277711Y-66660518D01*
X133279345Y-66494980D01*
X134602679Y-66494980D01*
X134693393Y-66554481D01*
X134728279Y-66575915D01*
X134808158Y-66618735D01*
X134883893Y-66652834D01*
X134917061Y-66664379D01*
X135022598Y-66687428D01*
X135156036Y-66699197D01*
X135223889Y-66701646D01*
X135286873Y-66701090D01*
X135333759Y-66694799D01*
X135375813Y-66681050D01*
X135424302Y-66658116D01*
X135517488Y-66596683D01*
X135598217Y-66509782D01*
X135662838Y-66397793D01*
X135711966Y-66258963D01*
X135746214Y-66091535D01*
X135766199Y-65893753D01*
X135772534Y-65663864D01*
X135772226Y-65611599D01*
X135763118Y-65369439D01*
X135741002Y-65158726D01*
X135705340Y-64977238D01*
X135655594Y-64822751D01*
X135591226Y-64693043D01*
X135511698Y-64585890D01*
X135478705Y-64553187D01*
X135376453Y-64485056D01*
X135256419Y-64443597D01*
X135123803Y-64429046D01*
X134983806Y-64441638D01*
X134841626Y-64481609D01*
X134702465Y-64549195D01*
X134602679Y-64609008D01*
X134602679Y-66494980D01*
X133279345Y-66494980D01*
X133279394Y-66489986D01*
X133280802Y-66295505D01*
X133282005Y-66075312D01*
X133283070Y-65827645D01*
X133284066Y-65550742D01*
X133285061Y-65242841D01*
X133286124Y-64902180D01*
X133287322Y-64526996D01*
X133296393Y-61760210D01*
X134017572Y-61755466D01*
X134070017Y-61755147D01*
X134224322Y-61754513D01*
X134365457Y-61754385D01*
X134489570Y-61754735D01*
X134592808Y-61755536D01*
X134671319Y-61756764D01*
X134721250Y-61758391D01*
X134738750Y-61760391D01*
X134736511Y-61766729D01*
X134719810Y-61796780D01*
X134692148Y-61840481D01*
X134689388Y-61844659D01*
X134667941Y-61878401D01*
X134649958Y-61911230D01*
X134635135Y-61946529D01*
X134623167Y-61987679D01*
X134613749Y-62038062D01*
X134606576Y-62101058D01*
X134601343Y-62180051D01*
X134597745Y-62278421D01*
X134595477Y-62399550D01*
X134594235Y-62546820D01*
X134593714Y-62723612D01*
X134593607Y-62933308D01*
X134593798Y-63097027D01*
X134594380Y-63257763D01*
X134595312Y-63403507D01*
X134596552Y-63530710D01*
X134598057Y-63635824D01*
X134599786Y-63715299D01*
X134601695Y-63765587D01*
X134603743Y-63783138D01*
X134610348Y-63780414D01*
X134639383Y-63761231D01*
X134680850Y-63729727D01*
X134740965Y-63687360D01*
X134853914Y-63624935D01*
X134983009Y-63569252D01*
X135116202Y-63525949D01*
X135228108Y-63503868D01*
X135367480Y-63489792D01*
X135518319Y-63484916D01*
X135668986Y-63489244D01*
X135807839Y-63502783D01*
X135923238Y-63525539D01*
X136040740Y-63563871D01*
X136236762Y-63656795D01*
X136418264Y-63780332D01*
X136581897Y-63931636D01*
X136724312Y-64107864D01*
X136842163Y-64306170D01*
X136871421Y-64366980D01*
X136953411Y-64572094D01*
X137017512Y-64794709D01*
X137064535Y-65038749D01*
X137095288Y-65308137D01*
X137110583Y-65606798D01*
X137111293Y-65663864D01*
X137112998Y-65800961D01*
X137109148Y-65968857D01*
G37*
X137109148Y-65968857D02*
X137098140Y-66116926D01*
X137079122Y-66253222D01*
X137051242Y-66385799D01*
X137013647Y-66522710D01*
X136956636Y-66686360D01*
X136851929Y-66907281D01*
X136723491Y-67105158D01*
X136573286Y-67278121D01*
X136403280Y-67424300D01*
X136215438Y-67541825D01*
X136011725Y-67628826D01*
X135794105Y-67683433D01*
X135791486Y-67683871D01*
X135632446Y-67699174D01*
X135457702Y-67697131D01*
X135279713Y-67679003D01*
X135110939Y-67646048D01*
X134963841Y-67599525D01*
X134901054Y-67571215D01*
X134819280Y-67528185D01*
X134735252Y-67478970D01*
X134657738Y-67428987D01*
X134595505Y-67383653D01*
X134557322Y-67348384D01*
X134548556Y-67338701D01*
X134538107Y-67335316D01*
X134531122Y-67352120D01*
X134525975Y-67394469D01*
X134521036Y-67467719D01*
X134511965Y-67620353D01*
X133122253Y-67629857D01*
X133170332Y-67547817D01*
X133173198Y-67542967D01*
X133187178Y-67520196D01*
X133199862Y-67499911D01*
X133211316Y-67480349D01*
X133221608Y-67459748D01*
X133230808Y-67436344D01*
X133238983Y-67408377D01*
X133246202Y-67374084D01*
X133252533Y-67331702D01*
X133258044Y-67279470D01*
X133262803Y-67215624D01*
X133266878Y-67138403D01*
X133270339Y-67046044D01*
X133273252Y-66936785D01*
X133275687Y-66808864D01*
X133277711Y-66660518D01*
X133279345Y-66494980D01*
X134602679Y-66494980D01*
X134693393Y-66554481D01*
X134728279Y-66575915D01*
X134808158Y-66618735D01*
X134883893Y-66652834D01*
X134917061Y-66664379D01*
X135022598Y-66687428D01*
X135156036Y-66699197D01*
X135223889Y-66701646D01*
X135286873Y-66701090D01*
X135333759Y-66694799D01*
X135375813Y-66681050D01*
X135424302Y-66658116D01*
X135517488Y-66596683D01*
X135598217Y-66509782D01*
X135662838Y-66397793D01*
X135711966Y-66258963D01*
X135746214Y-66091535D01*
X135766199Y-65893753D01*
X135772534Y-65663864D01*
X135772226Y-65611599D01*
X135763118Y-65369439D01*
X135741002Y-65158726D01*
X135705340Y-64977238D01*
X135655594Y-64822751D01*
X135591226Y-64693043D01*
X135511698Y-64585890D01*
X135478705Y-64553187D01*
X135376453Y-64485056D01*
X135256419Y-64443597D01*
X135123803Y-64429046D01*
X134983806Y-64441638D01*
X134841626Y-64481609D01*
X134702465Y-64549195D01*
X134602679Y-64609008D01*
X134602679Y-66494980D01*
X133279345Y-66494980D01*
X133279394Y-66489986D01*
X133280802Y-66295505D01*
X133282005Y-66075312D01*
X133283070Y-65827645D01*
X133284066Y-65550742D01*
X133285061Y-65242841D01*
X133286124Y-64902180D01*
X133287322Y-64526996D01*
X133296393Y-61760210D01*
X134017572Y-61755466D01*
X134070017Y-61755147D01*
X134224322Y-61754513D01*
X134365457Y-61754385D01*
X134489570Y-61754735D01*
X134592808Y-61755536D01*
X134671319Y-61756764D01*
X134721250Y-61758391D01*
X134738750Y-61760391D01*
X134736511Y-61766729D01*
X134719810Y-61796780D01*
X134692148Y-61840481D01*
X134689388Y-61844659D01*
X134667941Y-61878401D01*
X134649958Y-61911230D01*
X134635135Y-61946529D01*
X134623167Y-61987679D01*
X134613749Y-62038062D01*
X134606576Y-62101058D01*
X134601343Y-62180051D01*
X134597745Y-62278421D01*
X134595477Y-62399550D01*
X134594235Y-62546820D01*
X134593714Y-62723612D01*
X134593607Y-62933308D01*
X134593798Y-63097027D01*
X134594380Y-63257763D01*
X134595312Y-63403507D01*
X134596552Y-63530710D01*
X134598057Y-63635824D01*
X134599786Y-63715299D01*
X134601695Y-63765587D01*
X134603743Y-63783138D01*
X134610348Y-63780414D01*
X134639383Y-63761231D01*
X134680850Y-63729727D01*
X134740965Y-63687360D01*
X134853914Y-63624935D01*
X134983009Y-63569252D01*
X135116202Y-63525949D01*
X135228108Y-63503868D01*
X135367480Y-63489792D01*
X135518319Y-63484916D01*
X135668986Y-63489244D01*
X135807839Y-63502783D01*
X135923238Y-63525539D01*
X136040740Y-63563871D01*
X136236762Y-63656795D01*
X136418264Y-63780332D01*
X136581897Y-63931636D01*
X136724312Y-64107864D01*
X136842163Y-64306170D01*
X136871421Y-64366980D01*
X136953411Y-64572094D01*
X137017512Y-64794709D01*
X137064535Y-65038749D01*
X137095288Y-65308137D01*
X137110583Y-65606798D01*
X137111293Y-65663864D01*
X137112998Y-65800961D01*
X137109148Y-65968857D01*
G36*
X141205735Y-66518146D02*
G01*
X141188125Y-66654257D01*
X141161552Y-66767638D01*
X141119152Y-66884291D01*
X141020869Y-67076534D01*
X140895243Y-67245671D01*
X140743574Y-67390550D01*
X140567164Y-67510018D01*
X140367313Y-67602923D01*
X140145322Y-67668113D01*
X140054800Y-67682816D01*
X139925445Y-67693035D01*
X139784568Y-67695333D01*
X139643943Y-67689896D01*
X139515342Y-67676909D01*
X139410536Y-67656557D01*
X139357872Y-67640533D01*
X139238262Y-67593643D01*
X139116676Y-67534112D01*
X139005658Y-67468395D01*
X138917752Y-67402948D01*
X138916671Y-67402003D01*
X138868500Y-67361160D01*
X138831438Y-67332077D01*
X138813430Y-67320996D01*
X138811461Y-67323641D01*
X138807006Y-67352218D01*
X138803911Y-67405518D01*
X138802750Y-67475210D01*
X138802750Y-67629424D01*
X138122393Y-67629424D01*
X138104282Y-67629421D01*
X137952383Y-67629155D01*
X137812971Y-67628494D01*
X137690011Y-67627486D01*
X137587472Y-67626182D01*
X137509319Y-67624629D01*
X137459518Y-67622878D01*
X137442036Y-67620977D01*
X137442443Y-67619317D01*
X137453881Y-67594801D01*
X137477855Y-67548741D01*
X137510072Y-67489442D01*
X137578108Y-67366353D01*
X137588083Y-66151113D01*
X138875322Y-66151113D01*
X138875828Y-66247127D01*
X138878280Y-66348011D01*
X138883083Y-66420931D01*
X138890588Y-66470636D01*
X138901143Y-66501873D01*
X138914721Y-66524179D01*
X138965855Y-66584985D01*
X139034368Y-66648287D01*
X139109461Y-66704689D01*
X139180333Y-66744794D01*
X139219654Y-66759509D01*
X139310195Y-66779101D01*
X139428448Y-66789118D01*
X139553125Y-66787601D01*
X139671520Y-66766998D01*
X139770342Y-66724435D01*
X139855841Y-66657995D01*
X139879893Y-66633419D01*
X139942515Y-66549609D01*
X139976397Y-66459274D01*
X139986572Y-66350575D01*
X139983815Y-66293149D01*
X139956554Y-66174931D01*
X139899283Y-66073463D01*
X139810961Y-65987603D01*
X139690544Y-65916208D01*
X139536990Y-65858138D01*
X139475086Y-65842899D01*
X139400144Y-65832465D01*
X139305830Y-65826670D01*
X139183750Y-65824722D01*
X139163919Y-65824723D01*
X139072589Y-65825838D01*
X138994137Y-65828532D01*
X138936364Y-65832453D01*
X138907072Y-65837248D01*
X138903701Y-65838804D01*
X138892803Y-65848578D01*
X138885085Y-65868218D01*
X138880012Y-65903009D01*
X138877050Y-65958233D01*
X138875665Y-66039174D01*
X138875322Y-66151113D01*
X137588083Y-66151113D01*
X137588607Y-66087281D01*
X137590168Y-65900985D01*
X137592351Y-65663389D01*
X137594643Y-65457122D01*
X137597228Y-65279266D01*
X137600293Y-65126905D01*
X137604021Y-64997120D01*
X137608598Y-64886996D01*
X137614209Y-64793614D01*
X137621040Y-64714059D01*
X137629276Y-64645412D01*
X137639101Y-64584757D01*
X137650701Y-64529176D01*
X137664261Y-64475753D01*
X137679966Y-64421570D01*
X137698002Y-64363710D01*
X137769054Y-64182322D01*
X137866357Y-64014682D01*
X137987534Y-63871156D01*
X138133696Y-63750994D01*
X138305950Y-63653444D01*
X138505408Y-63577755D01*
X138733178Y-63523177D01*
X138990370Y-63488959D01*
X139080261Y-63482154D01*
X139231653Y-63477179D01*
X139381707Y-63481659D01*
X139537447Y-63496351D01*
X139705898Y-63522008D01*
X139894086Y-63559386D01*
X140109036Y-63609242D01*
X140158721Y-63621305D01*
X140283494Y-63650989D01*
X140401754Y-63678322D01*
X140506329Y-63701687D01*
X140590047Y-63719471D01*
X140645738Y-63730060D01*
X140774226Y-63751164D01*
X140593588Y-64188973D01*
X140548405Y-64298283D01*
X140503954Y-64405393D01*
X140465816Y-64496842D01*
X140435862Y-64568157D01*
X140415964Y-64614861D01*
X140407996Y-64632482D01*
X140406743Y-64632734D01*
X140383651Y-64624867D01*
X140338246Y-64604707D01*
X140278717Y-64575841D01*
X140154989Y-64519627D01*
X139984730Y-64458164D01*
X139810471Y-64411094D01*
X139639026Y-64379601D01*
X139477210Y-64364867D01*
X139331837Y-64368074D01*
X139209722Y-64390403D01*
X139124494Y-64425833D01*
X139027702Y-64498441D01*
X138953190Y-64596942D01*
X138903092Y-64718307D01*
X138879542Y-64859504D01*
X138871248Y-64989639D01*
X139304178Y-64990824D01*
X139450178Y-64992048D01*
X139611664Y-64996396D01*
X139749618Y-65004602D01*
X139871174Y-65017463D01*
X139983470Y-65035778D01*
X140093640Y-65060343D01*
X140208822Y-65091957D01*
X140381161Y-65152133D01*
X140583868Y-65251230D01*
X140761769Y-65372614D01*
X140913110Y-65514579D01*
X141036136Y-65675417D01*
X141129092Y-65853421D01*
X141190223Y-66046884D01*
X141199797Y-66098989D01*
X141212070Y-66227957D01*
X141213615Y-66350575D01*
X141213883Y-66371861D01*
X141205735Y-66518146D01*
G37*
X141205735Y-66518146D02*
X141188125Y-66654257D01*
X141161552Y-66767638D01*
X141119152Y-66884291D01*
X141020869Y-67076534D01*
X140895243Y-67245671D01*
X140743574Y-67390550D01*
X140567164Y-67510018D01*
X140367313Y-67602923D01*
X140145322Y-67668113D01*
X140054800Y-67682816D01*
X139925445Y-67693035D01*
X139784568Y-67695333D01*
X139643943Y-67689896D01*
X139515342Y-67676909D01*
X139410536Y-67656557D01*
X139357872Y-67640533D01*
X139238262Y-67593643D01*
X139116676Y-67534112D01*
X139005658Y-67468395D01*
X138917752Y-67402948D01*
X138916671Y-67402003D01*
X138868500Y-67361160D01*
X138831438Y-67332077D01*
X138813430Y-67320996D01*
X138811461Y-67323641D01*
X138807006Y-67352218D01*
X138803911Y-67405518D01*
X138802750Y-67475210D01*
X138802750Y-67629424D01*
X138122393Y-67629424D01*
X138104282Y-67629421D01*
X137952383Y-67629155D01*
X137812971Y-67628494D01*
X137690011Y-67627486D01*
X137587472Y-67626182D01*
X137509319Y-67624629D01*
X137459518Y-67622878D01*
X137442036Y-67620977D01*
X137442443Y-67619317D01*
X137453881Y-67594801D01*
X137477855Y-67548741D01*
X137510072Y-67489442D01*
X137578108Y-67366353D01*
X137588083Y-66151113D01*
X138875322Y-66151113D01*
X138875828Y-66247127D01*
X138878280Y-66348011D01*
X138883083Y-66420931D01*
X138890588Y-66470636D01*
X138901143Y-66501873D01*
X138914721Y-66524179D01*
X138965855Y-66584985D01*
X139034368Y-66648287D01*
X139109461Y-66704689D01*
X139180333Y-66744794D01*
X139219654Y-66759509D01*
X139310195Y-66779101D01*
X139428448Y-66789118D01*
X139553125Y-66787601D01*
X139671520Y-66766998D01*
X139770342Y-66724435D01*
X139855841Y-66657995D01*
X139879893Y-66633419D01*
X139942515Y-66549609D01*
X139976397Y-66459274D01*
X139986572Y-66350575D01*
X139983815Y-66293149D01*
X139956554Y-66174931D01*
X139899283Y-66073463D01*
X139810961Y-65987603D01*
X139690544Y-65916208D01*
X139536990Y-65858138D01*
X139475086Y-65842899D01*
X139400144Y-65832465D01*
X139305830Y-65826670D01*
X139183750Y-65824722D01*
X139163919Y-65824723D01*
X139072589Y-65825838D01*
X138994137Y-65828532D01*
X138936364Y-65832453D01*
X138907072Y-65837248D01*
X138903701Y-65838804D01*
X138892803Y-65848578D01*
X138885085Y-65868218D01*
X138880012Y-65903009D01*
X138877050Y-65958233D01*
X138875665Y-66039174D01*
X138875322Y-66151113D01*
X137588083Y-66151113D01*
X137588607Y-66087281D01*
X137590168Y-65900985D01*
X137592351Y-65663389D01*
X137594643Y-65457122D01*
X137597228Y-65279266D01*
X137600293Y-65126905D01*
X137604021Y-64997120D01*
X137608598Y-64886996D01*
X137614209Y-64793614D01*
X137621040Y-64714059D01*
X137629276Y-64645412D01*
X137639101Y-64584757D01*
X137650701Y-64529176D01*
X137664261Y-64475753D01*
X137679966Y-64421570D01*
X137698002Y-64363710D01*
X137769054Y-64182322D01*
X137866357Y-64014682D01*
X137987534Y-63871156D01*
X138133696Y-63750994D01*
X138305950Y-63653444D01*
X138505408Y-63577755D01*
X138733178Y-63523177D01*
X138990370Y-63488959D01*
X139080261Y-63482154D01*
X139231653Y-63477179D01*
X139381707Y-63481659D01*
X139537447Y-63496351D01*
X139705898Y-63522008D01*
X139894086Y-63559386D01*
X140109036Y-63609242D01*
X140158721Y-63621305D01*
X140283494Y-63650989D01*
X140401754Y-63678322D01*
X140506329Y-63701687D01*
X140590047Y-63719471D01*
X140645738Y-63730060D01*
X140774226Y-63751164D01*
X140593588Y-64188973D01*
X140548405Y-64298283D01*
X140503954Y-64405393D01*
X140465816Y-64496842D01*
X140435862Y-64568157D01*
X140415964Y-64614861D01*
X140407996Y-64632482D01*
X140406743Y-64632734D01*
X140383651Y-64624867D01*
X140338246Y-64604707D01*
X140278717Y-64575841D01*
X140154989Y-64519627D01*
X139984730Y-64458164D01*
X139810471Y-64411094D01*
X139639026Y-64379601D01*
X139477210Y-64364867D01*
X139331837Y-64368074D01*
X139209722Y-64390403D01*
X139124494Y-64425833D01*
X139027702Y-64498441D01*
X138953190Y-64596942D01*
X138903092Y-64718307D01*
X138879542Y-64859504D01*
X138871248Y-64989639D01*
X139304178Y-64990824D01*
X139450178Y-64992048D01*
X139611664Y-64996396D01*
X139749618Y-65004602D01*
X139871174Y-65017463D01*
X139983470Y-65035778D01*
X140093640Y-65060343D01*
X140208822Y-65091957D01*
X140381161Y-65152133D01*
X140583868Y-65251230D01*
X140761769Y-65372614D01*
X140913110Y-65514579D01*
X141036136Y-65675417D01*
X141129092Y-65853421D01*
X141190223Y-66046884D01*
X141199797Y-66098989D01*
X141212070Y-66227957D01*
X141213615Y-66350575D01*
X141213883Y-66371861D01*
X141205735Y-66518146D01*
G36*
X143039727Y-62020455D02*
G01*
X143283531Y-62042837D01*
X143510025Y-62087975D01*
X143727635Y-62157769D01*
X143944784Y-62254120D01*
X144159738Y-62377139D01*
X144390427Y-62544846D01*
X144604352Y-62738747D01*
X144796804Y-62954042D01*
X144963073Y-63185931D01*
X145098446Y-63429614D01*
X145110734Y-63455682D01*
X145213643Y-63707305D01*
X145291839Y-63968769D01*
X145346332Y-64245070D01*
X145378134Y-64541203D01*
X145388253Y-64862163D01*
X145375949Y-65193952D01*
X145336894Y-65520700D01*
X145270483Y-65826573D01*
X145176120Y-66113741D01*
X145053213Y-66384373D01*
X144901166Y-66640638D01*
X144758343Y-66836424D01*
X144561136Y-67056713D01*
X144346189Y-67245398D01*
X144113596Y-67402417D01*
X143863451Y-67527709D01*
X143595850Y-67621210D01*
X143310885Y-67682861D01*
X143307633Y-67683341D01*
X143252755Y-67688156D01*
X143169942Y-67691728D01*
X143066851Y-67693889D01*
X142951139Y-67694474D01*
X142830465Y-67693315D01*
X142745890Y-67691616D01*
X142620405Y-67687682D01*
X142519851Y-67682050D01*
X142436976Y-67674118D01*
X142364527Y-67663287D01*
X142295250Y-67648954D01*
X142217309Y-67630431D01*
X142135992Y-67609338D01*
X142062449Y-67587211D01*
X141990005Y-67561457D01*
X141911986Y-67529484D01*
X141821718Y-67488702D01*
X141712524Y-67436517D01*
X141577732Y-67370339D01*
X141204929Y-67186101D01*
X141503521Y-66695655D01*
X141542612Y-66631465D01*
X141612843Y-66516234D01*
X141675704Y-66413218D01*
X141728897Y-66326172D01*
X141770126Y-66258856D01*
X141797093Y-66215025D01*
X141807500Y-66198439D01*
X141810395Y-66198934D01*
X141833713Y-66215166D01*
X141874679Y-66248853D01*
X141926820Y-66294769D01*
X142019680Y-66374102D01*
X142185455Y-66491414D01*
X142346296Y-66573195D01*
X142462524Y-66614035D01*
X142659115Y-66655772D01*
X142852271Y-66663170D01*
X143039192Y-66636733D01*
X143217076Y-66576964D01*
X143383123Y-66484367D01*
X143534530Y-66359446D01*
X143618779Y-66267438D01*
X143737467Y-66097255D01*
X143834857Y-65899766D01*
X143911412Y-65673960D01*
X143967600Y-65418825D01*
X143970149Y-65402986D01*
X143981926Y-65300327D01*
X143990693Y-65172775D01*
X143996379Y-65029046D01*
X143998914Y-64877855D01*
X143998226Y-64727917D01*
X143994245Y-64587948D01*
X143986899Y-64466665D01*
X143976118Y-64372781D01*
X143934793Y-64160116D01*
X143865258Y-63911694D01*
X143777808Y-63694205D01*
X143672558Y-63507817D01*
X143549625Y-63352697D01*
X143409128Y-63229014D01*
X143251181Y-63136936D01*
X143075903Y-63076633D01*
X143037014Y-63069148D01*
X142939559Y-63059375D01*
X142825666Y-63056185D01*
X142708097Y-63059403D01*
X142599610Y-63068853D01*
X142512965Y-63084360D01*
X142368625Y-63133737D01*
X142201121Y-63223880D01*
X142051973Y-63342508D01*
X142025649Y-63367497D01*
X141977950Y-63411709D01*
X141944238Y-63441466D01*
X141930542Y-63451365D01*
X141927170Y-63446631D01*
X141906416Y-63416737D01*
X141868921Y-63362457D01*
X141817163Y-63287386D01*
X141753621Y-63195118D01*
X141680770Y-63089247D01*
X141601090Y-62973368D01*
X141275179Y-62499241D01*
X141347985Y-62477428D01*
X141355583Y-62474956D01*
X141405038Y-62455322D01*
X141476340Y-62423663D01*
X141561121Y-62383786D01*
X141651013Y-62339500D01*
X141690185Y-62319920D01*
X141907697Y-62218833D01*
X142108176Y-62140662D01*
X142299331Y-62083409D01*
X142488874Y-62045073D01*
X142684515Y-62023655D01*
X142893965Y-62017155D01*
X143039727Y-62020455D01*
G37*
X143039727Y-62020455D02*
X143283531Y-62042837D01*
X143510025Y-62087975D01*
X143727635Y-62157769D01*
X143944784Y-62254120D01*
X144159738Y-62377139D01*
X144390427Y-62544846D01*
X144604352Y-62738747D01*
X144796804Y-62954042D01*
X144963073Y-63185931D01*
X145098446Y-63429614D01*
X145110734Y-63455682D01*
X145213643Y-63707305D01*
X145291839Y-63968769D01*
X145346332Y-64245070D01*
X145378134Y-64541203D01*
X145388253Y-64862163D01*
X145375949Y-65193952D01*
X145336894Y-65520700D01*
X145270483Y-65826573D01*
X145176120Y-66113741D01*
X145053213Y-66384373D01*
X144901166Y-66640638D01*
X144758343Y-66836424D01*
X144561136Y-67056713D01*
X144346189Y-67245398D01*
X144113596Y-67402417D01*
X143863451Y-67527709D01*
X143595850Y-67621210D01*
X143310885Y-67682861D01*
X143307633Y-67683341D01*
X143252755Y-67688156D01*
X143169942Y-67691728D01*
X143066851Y-67693889D01*
X142951139Y-67694474D01*
X142830465Y-67693315D01*
X142745890Y-67691616D01*
X142620405Y-67687682D01*
X142519851Y-67682050D01*
X142436976Y-67674118D01*
X142364527Y-67663287D01*
X142295250Y-67648954D01*
X142217309Y-67630431D01*
X142135992Y-67609338D01*
X142062449Y-67587211D01*
X141990005Y-67561457D01*
X141911986Y-67529484D01*
X141821718Y-67488702D01*
X141712524Y-67436517D01*
X141577732Y-67370339D01*
X141204929Y-67186101D01*
X141503521Y-66695655D01*
X141542612Y-66631465D01*
X141612843Y-66516234D01*
X141675704Y-66413218D01*
X141728897Y-66326172D01*
X141770126Y-66258856D01*
X141797093Y-66215025D01*
X141807500Y-66198439D01*
X141810395Y-66198934D01*
X141833713Y-66215166D01*
X141874679Y-66248853D01*
X141926820Y-66294769D01*
X142019680Y-66374102D01*
X142185455Y-66491414D01*
X142346296Y-66573195D01*
X142462524Y-66614035D01*
X142659115Y-66655772D01*
X142852271Y-66663170D01*
X143039192Y-66636733D01*
X143217076Y-66576964D01*
X143383123Y-66484367D01*
X143534530Y-66359446D01*
X143618779Y-66267438D01*
X143737467Y-66097255D01*
X143834857Y-65899766D01*
X143911412Y-65673960D01*
X143967600Y-65418825D01*
X143970149Y-65402986D01*
X143981926Y-65300327D01*
X143990693Y-65172775D01*
X143996379Y-65029046D01*
X143998914Y-64877855D01*
X143998226Y-64727917D01*
X143994245Y-64587948D01*
X143986899Y-64466665D01*
X143976118Y-64372781D01*
X143934793Y-64160116D01*
X143865258Y-63911694D01*
X143777808Y-63694205D01*
X143672558Y-63507817D01*
X143549625Y-63352697D01*
X143409128Y-63229014D01*
X143251181Y-63136936D01*
X143075903Y-63076633D01*
X143037014Y-63069148D01*
X142939559Y-63059375D01*
X142825666Y-63056185D01*
X142708097Y-63059403D01*
X142599610Y-63068853D01*
X142512965Y-63084360D01*
X142368625Y-63133737D01*
X142201121Y-63223880D01*
X142051973Y-63342508D01*
X142025649Y-63367497D01*
X141977950Y-63411709D01*
X141944238Y-63441466D01*
X141930542Y-63451365D01*
X141927170Y-63446631D01*
X141906416Y-63416737D01*
X141868921Y-63362457D01*
X141817163Y-63287386D01*
X141753621Y-63195118D01*
X141680770Y-63089247D01*
X141601090Y-62973368D01*
X141275179Y-62499241D01*
X141347985Y-62477428D01*
X141355583Y-62474956D01*
X141405038Y-62455322D01*
X141476340Y-62423663D01*
X141561121Y-62383786D01*
X141651013Y-62339500D01*
X141690185Y-62319920D01*
X141907697Y-62218833D01*
X142108176Y-62140662D01*
X142299331Y-62083409D01*
X142488874Y-62045073D01*
X142684515Y-62023655D01*
X142893965Y-62017155D01*
X143039727Y-62020455D01*
G36*
X151447627Y-69414943D02*
G01*
X151447296Y-69549296D01*
X151447244Y-69650029D01*
X151446904Y-69753754D01*
X151446047Y-69833649D01*
X151444444Y-69893197D01*
X151441866Y-69935884D01*
X151438085Y-69965193D01*
X151432872Y-69984609D01*
X151425999Y-69997616D01*
X151417237Y-70007698D01*
X151407961Y-70015998D01*
X151390656Y-70025717D01*
X151365163Y-70032046D01*
X151326016Y-70035690D01*
X151267748Y-70037359D01*
X151184893Y-70037758D01*
X151119727Y-70037258D01*
X150977459Y-70031362D01*
X150858664Y-70017932D01*
X150759081Y-69995847D01*
X150674445Y-69963987D01*
X150600493Y-69921232D01*
X150532960Y-69866462D01*
X150524988Y-69858670D01*
X150475904Y-69794087D01*
X150434500Y-69713129D01*
X150405898Y-69627598D01*
X150398867Y-69576017D01*
X150594867Y-69576017D01*
X150619207Y-69643830D01*
X150658709Y-69704962D01*
X150720879Y-69761424D01*
X150802610Y-69801102D01*
X150907983Y-69826579D01*
X150909967Y-69826896D01*
X150975165Y-69834607D01*
X151053308Y-69840120D01*
X151127918Y-69842259D01*
X151251912Y-69842373D01*
X151251912Y-69256219D01*
X151150462Y-69256200D01*
X151146431Y-69256212D01*
X151078372Y-69258828D01*
X150998354Y-69265118D01*
X150922854Y-69273810D01*
X150856342Y-69286187D01*
X150756820Y-69321159D01*
X150680255Y-69373480D01*
X150625002Y-69444089D01*
X150596754Y-69512343D01*
X150594867Y-69576017D01*
X150398867Y-69576017D01*
X150395225Y-69549296D01*
X150396928Y-69521049D01*
X150413320Y-69444608D01*
X150443314Y-69364845D01*
X150482230Y-69292886D01*
X150525388Y-69239857D01*
X150551405Y-69217193D01*
X150624246Y-69165021D01*
X150704531Y-69124907D01*
X150796656Y-69095670D01*
X150905018Y-69076123D01*
X151034012Y-69065084D01*
X151188036Y-69061368D01*
X151240601Y-69060833D01*
X151301459Y-69060283D01*
X151349122Y-69062685D01*
X151385190Y-69071049D01*
X151411261Y-69088384D01*
X151428934Y-69117699D01*
X151439808Y-69162003D01*
X151445483Y-69224305D01*
X151446277Y-69256219D01*
X151447555Y-69307616D01*
X151447627Y-69414943D01*
G37*
X151447627Y-69414943D02*
X151447296Y-69549296D01*
X151447244Y-69650029D01*
X151446904Y-69753754D01*
X151446047Y-69833649D01*
X151444444Y-69893197D01*
X151441866Y-69935884D01*
X151438085Y-69965193D01*
X151432872Y-69984609D01*
X151425999Y-69997616D01*
X151417237Y-70007698D01*
X151407961Y-70015998D01*
X151390656Y-70025717D01*
X151365163Y-70032046D01*
X151326016Y-70035690D01*
X151267748Y-70037359D01*
X151184893Y-70037758D01*
X151119727Y-70037258D01*
X150977459Y-70031362D01*
X150858664Y-70017932D01*
X150759081Y-69995847D01*
X150674445Y-69963987D01*
X150600493Y-69921232D01*
X150532960Y-69866462D01*
X150524988Y-69858670D01*
X150475904Y-69794087D01*
X150434500Y-69713129D01*
X150405898Y-69627598D01*
X150398867Y-69576017D01*
X150594867Y-69576017D01*
X150619207Y-69643830D01*
X150658709Y-69704962D01*
X150720879Y-69761424D01*
X150802610Y-69801102D01*
X150907983Y-69826579D01*
X150909967Y-69826896D01*
X150975165Y-69834607D01*
X151053308Y-69840120D01*
X151127918Y-69842259D01*
X151251912Y-69842373D01*
X151251912Y-69256219D01*
X151150462Y-69256200D01*
X151146431Y-69256212D01*
X151078372Y-69258828D01*
X150998354Y-69265118D01*
X150922854Y-69273810D01*
X150856342Y-69286187D01*
X150756820Y-69321159D01*
X150680255Y-69373480D01*
X150625002Y-69444089D01*
X150596754Y-69512343D01*
X150594867Y-69576017D01*
X150398867Y-69576017D01*
X150395225Y-69549296D01*
X150396928Y-69521049D01*
X150413320Y-69444608D01*
X150443314Y-69364845D01*
X150482230Y-69292886D01*
X150525388Y-69239857D01*
X150551405Y-69217193D01*
X150624246Y-69165021D01*
X150704531Y-69124907D01*
X150796656Y-69095670D01*
X150905018Y-69076123D01*
X151034012Y-69065084D01*
X151188036Y-69061368D01*
X151240601Y-69060833D01*
X151301459Y-69060283D01*
X151349122Y-69062685D01*
X151385190Y-69071049D01*
X151411261Y-69088384D01*
X151428934Y-69117699D01*
X151439808Y-69162003D01*
X151445483Y-69224305D01*
X151446277Y-69256219D01*
X151447555Y-69307616D01*
X151447627Y-69414943D01*
%TD*%
M02*
