%TF.GenerationSoftware,KiCad,Pcbnew,(6.0.7)*%
%TF.CreationDate,2022-09-19T10:22:26-04:00*%
%TF.ProjectId,proj_2,70726f6a-5f32-42e6-9b69-6361645f7063,rev?*%
%TF.SameCoordinates,Original*%
%TF.FileFunction,Copper,L2,Bot*%
%TF.FilePolarity,Positive*%
%FSLAX46Y46*%
G04 Gerber Fmt 4.6, Leading zero omitted, Abs format (unit mm)*
G04 Created by KiCad (PCBNEW (6.0.7)) date 2022-09-19 10:22:26*
%MOMM*%
%LPD*%
G01*
G04 APERTURE LIST*
%TA.AperFunction,ComponentPad*%
%ADD10C,1.600000*%
%TD*%
%TA.AperFunction,ComponentPad*%
%ADD11O,1.600000X1.600000*%
%TD*%
%TA.AperFunction,ComponentPad*%
%ADD12R,1.600000X1.600000*%
%TD*%
%TA.AperFunction,ComponentPad*%
%ADD13R,2.170000X2.170000*%
%TD*%
%TA.AperFunction,ComponentPad*%
%ADD14C,2.500000*%
%TD*%
%TA.AperFunction,ComponentPad*%
%ADD15R,1.500000X1.050000*%
%TD*%
%TA.AperFunction,ComponentPad*%
%ADD16O,1.500000X1.050000*%
%TD*%
%TA.AperFunction,ComponentPad*%
%ADD17R,1.800000X1.800000*%
%TD*%
%TA.AperFunction,ComponentPad*%
%ADD18C,1.800000*%
%TD*%
%TA.AperFunction,ComponentPad*%
%ADD19C,1.524000*%
%TD*%
%TA.AperFunction,ComponentPad*%
%ADD20R,1.900000X1.900000*%
%TD*%
%TA.AperFunction,ComponentPad*%
%ADD21C,1.900000*%
%TD*%
%TA.AperFunction,Conductor*%
%ADD22C,0.250000*%
%TD*%
G04 APERTURE END LIST*
D10*
%TO.P,R5,1*%
%TO.N,Net-(C2-Pad1)*%
X171450000Y-94272000D03*
D11*
%TO.P,R5,2*%
%TO.N,Net-(Q1-Pad2)*%
X163830000Y-94272000D03*
%TD*%
D10*
%TO.P,R6,1*%
%TO.N,VCC*%
X156210000Y-88392000D03*
D11*
%TO.P,R6,2*%
%TO.N,Net-(D1-Pad2)*%
X156210000Y-80772000D03*
%TD*%
D12*
%TO.P,C1,1*%
%TO.N,Net-(C1-Pad1)*%
X155702000Y-101152888D03*
D10*
%TO.P,C1,2*%
%TO.N,GND*%
X155702000Y-103152888D03*
%TD*%
%TO.P,R7,1*%
%TO.N,VCC*%
X160782000Y-88392000D03*
D11*
%TO.P,R7,2*%
%TO.N,Net-(D2-Pad2)*%
X160782000Y-80772000D03*
%TD*%
D13*
%TO.P,BAT1,Neg*%
%TO.N,GND*%
X122936000Y-101231700D03*
D14*
%TO.P,BAT1,Pos*%
%TO.N,Net-(BAT1-PadPos)*%
X122936000Y-81231700D03*
%TD*%
D10*
%TO.P,R1,1*%
%TO.N,VCC*%
X146558000Y-88392000D03*
D11*
%TO.P,R1,2*%
%TO.N,Net-(R1-Pad2)*%
X146558000Y-80772000D03*
%TD*%
D15*
%TO.P,Q1,1,E*%
%TO.N,GND*%
X155808000Y-95504000D03*
D16*
%TO.P,Q1,2,B*%
%TO.N,Net-(Q1-Pad2)*%
X155808000Y-94234000D03*
%TO.P,Q1,3,C*%
%TO.N,Net-(D1-Pad1)*%
X155808000Y-92964000D03*
%TD*%
D17*
%TO.P,D2,1,K*%
%TO.N,Net-(D1-Pad1)*%
X152654000Y-34295000D03*
D18*
%TO.P,D2,2,A*%
%TO.N,Net-(D2-Pad2)*%
X152654000Y-31755000D03*
%TD*%
D10*
%TO.P,R4,1*%
%TO.N,Net-(C2-Pad1)*%
X170434000Y-88392000D03*
D11*
%TO.P,R4,2*%
%TO.N,GND*%
X170434000Y-80772000D03*
%TD*%
D17*
%TO.P,D1,1,K*%
%TO.N,Net-(D1-Pad1)*%
X131826000Y-34295000D03*
D18*
%TO.P,D1,2,A*%
%TO.N,Net-(D1-Pad2)*%
X131826000Y-31755000D03*
%TD*%
D19*
%TO.P,U1,1,GND*%
%TO.N,GND*%
X138430000Y-104648000D03*
%TO.P,U1,2,~{TRIG}*%
%TO.N,Net-(C1-Pad1)*%
X140970000Y-104648000D03*
%TO.P,U1,3,OUT*%
%TO.N,Net-(R3-Pad1)*%
X143510000Y-104648000D03*
%TO.P,U1,4,~{RST}*%
%TO.N,VCC*%
X146050000Y-104648000D03*
%TO.P,U1,5,CV*%
%TO.N,unconnected-(U1-Pad5)*%
X146050000Y-97028000D03*
%TO.P,U1,6,THRESH*%
%TO.N,Net-(C1-Pad1)*%
X143510000Y-97028000D03*
%TO.P,U1,7,DIS*%
%TO.N,Net-(R1-Pad2)*%
X140970000Y-97028000D03*
%TO.P,U1,8,VDD*%
%TO.N,VCC*%
X138430000Y-97028000D03*
%TD*%
D20*
%TO.P,S1,1*%
%TO.N,unconnected-(S1-Pad1)*%
X139700000Y-88138000D03*
D21*
%TO.P,S1,2*%
%TO.N,VCC*%
X139700000Y-85638000D03*
%TO.P,S1,3*%
%TO.N,Net-(BAT1-PadPos)*%
X139700000Y-83138000D03*
%TD*%
D12*
%TO.P,C2,1*%
%TO.N,Net-(C2-Pad1)*%
X167640000Y-100584000D03*
D10*
%TO.P,C2,2*%
%TO.N,GND*%
X167640000Y-103084000D03*
%TD*%
%TO.P,R2,1*%
%TO.N,Net-(R1-Pad2)*%
X151384000Y-88392000D03*
D11*
%TO.P,R2,2*%
%TO.N,Net-(C1-Pad1)*%
X151384000Y-80772000D03*
%TD*%
D10*
%TO.P,R3,1*%
%TO.N,Net-(R3-Pad1)*%
X165608000Y-88392000D03*
D11*
%TO.P,R3,2*%
%TO.N,Net-(C2-Pad1)*%
X165608000Y-80772000D03*
%TD*%
D22*
%TO.N,Net-(D1-Pad2)*%
X156210000Y-34798000D02*
X156210000Y-80772000D01*
X154432000Y-33020000D02*
X156210000Y-34798000D01*
X142494000Y-33020000D02*
X154432000Y-33020000D01*
X141229000Y-31755000D02*
X142494000Y-33020000D01*
X131826000Y-31755000D02*
X141229000Y-31755000D01*
%TO.N,Net-(D1-Pad1)*%
X140975000Y-34295000D02*
X145796000Y-39116000D01*
X145796000Y-39116000D02*
X152400000Y-39116000D01*
X131826000Y-34295000D02*
X140975000Y-34295000D01*
%TO.N,Net-(D2-Pad2)*%
X160782000Y-36068000D02*
X160782000Y-80772000D01*
X156469000Y-31755000D02*
X160782000Y-36068000D01*
X152654000Y-31755000D02*
X156469000Y-31755000D01*
%TO.N,Net-(D1-Pad1)*%
X152654000Y-34295000D02*
X152654000Y-38862000D01*
X152654000Y-38862000D02*
X152400000Y-39116000D01*
X153625000Y-90781000D02*
X155808000Y-92964000D01*
X152400000Y-39116000D02*
X153625000Y-40341000D01*
X153625000Y-40341000D02*
X153625000Y-90781000D01*
%TO.N,Net-(C1-Pad1)*%
X151384000Y-80772000D02*
X151384000Y-85814602D01*
X151384000Y-85814602D02*
X143510000Y-93688602D01*
X143510000Y-93688602D02*
X143510000Y-97028000D01*
%TO.N,Net-(R1-Pad2)*%
X145288000Y-80772000D02*
X146558000Y-80772000D01*
X143256000Y-91440000D02*
X143256000Y-82804000D01*
X140970000Y-93726000D02*
X143256000Y-91440000D01*
X140970000Y-97028000D02*
X140970000Y-93726000D01*
X143256000Y-82804000D02*
X145288000Y-80772000D01*
%TO.N,Net-(R3-Pad1)*%
X163830000Y-98044000D02*
X165608000Y-96266000D01*
X165608000Y-96266000D02*
X165608000Y-88392000D01*
X143510000Y-104648000D02*
X150114000Y-98044000D01*
X150114000Y-98044000D02*
X163830000Y-98044000D01*
%TD*%
%TA.AperFunction,Conductor*%
%TO.N,GND*%
G36*
X152933621Y-75966002D02*
G01*
X152980114Y-76019658D01*
X152991500Y-76072000D01*
X152991500Y-90702233D01*
X152990973Y-90713416D01*
X152989298Y-90720909D01*
X152989547Y-90728835D01*
X152989547Y-90728836D01*
X152991438Y-90788986D01*
X152991500Y-90792945D01*
X152991500Y-90820856D01*
X152991997Y-90824790D01*
X152991997Y-90824791D01*
X152992005Y-90824856D01*
X152992938Y-90836693D01*
X152994327Y-90880889D01*
X152999978Y-90900339D01*
X153003987Y-90919700D01*
X153006526Y-90939797D01*
X153009445Y-90947168D01*
X153009445Y-90947170D01*
X153022804Y-90980912D01*
X153026649Y-90992142D01*
X153038982Y-91034593D01*
X153043015Y-91041412D01*
X153043017Y-91041417D01*
X153049293Y-91052028D01*
X153057988Y-91069776D01*
X153065448Y-91088617D01*
X153070110Y-91095033D01*
X153070110Y-91095034D01*
X153091436Y-91124387D01*
X153097952Y-91134307D01*
X153120458Y-91172362D01*
X153134779Y-91186683D01*
X153147619Y-91201716D01*
X153159528Y-91218107D01*
X153165634Y-91223158D01*
X153193605Y-91246298D01*
X153202384Y-91254288D01*
X154544482Y-92596386D01*
X154578508Y-92658698D01*
X154575752Y-92722740D01*
X154565710Y-92755180D01*
X154544524Y-92956750D01*
X154562894Y-93158596D01*
X154564632Y-93164502D01*
X154564633Y-93164506D01*
X154598935Y-93281051D01*
X154620119Y-93353029D01*
X154622972Y-93358486D01*
X154622973Y-93358489D01*
X154652412Y-93414800D01*
X154713923Y-93532460D01*
X154713923Y-93532462D01*
X154714019Y-93532645D01*
X154713984Y-93532663D01*
X154733889Y-93598441D01*
X154718729Y-93659409D01*
X154625644Y-93831565D01*
X154621494Y-93844971D01*
X154582026Y-93972473D01*
X154565710Y-94025180D01*
X154544524Y-94226750D01*
X154562894Y-94428596D01*
X154564632Y-94434502D01*
X154564633Y-94434506D01*
X154582322Y-94494607D01*
X154619069Y-94619461D01*
X154620119Y-94623029D01*
X154619441Y-94623229D01*
X154625956Y-94689273D01*
X154612680Y-94726323D01*
X154604679Y-94740937D01*
X154559522Y-94861394D01*
X154555895Y-94876649D01*
X154550369Y-94927514D01*
X154550000Y-94934328D01*
X154550000Y-95231885D01*
X154554475Y-95247124D01*
X154555865Y-95248329D01*
X154563548Y-95250000D01*
X155361758Y-95250000D01*
X155375803Y-95250785D01*
X155524817Y-95267500D01*
X156084004Y-95267500D01*
X156234713Y-95252723D01*
X156237002Y-95252032D01*
X156257724Y-95250000D01*
X157047884Y-95250000D01*
X157063123Y-95245525D01*
X157064328Y-95244135D01*
X157065999Y-95236452D01*
X157065999Y-94934331D01*
X157065629Y-94927510D01*
X157060105Y-94876648D01*
X157056479Y-94861396D01*
X157011323Y-94740944D01*
X157002886Y-94725534D01*
X156987716Y-94656177D01*
X156993040Y-94627764D01*
X157048468Y-94448706D01*
X157050290Y-94442820D01*
X157068820Y-94266525D01*
X157070832Y-94247378D01*
X157070832Y-94247377D01*
X157071476Y-94241250D01*
X157053106Y-94039404D01*
X157042450Y-94003196D01*
X156997620Y-93850880D01*
X156995881Y-93844971D01*
X156991951Y-93837452D01*
X156946211Y-93749961D01*
X156901981Y-93665355D01*
X156902016Y-93665337D01*
X156882111Y-93599559D01*
X156897271Y-93538591D01*
X156916417Y-93503182D01*
X156990356Y-93366435D01*
X157031352Y-93234000D01*
X157048468Y-93178707D01*
X157048469Y-93178704D01*
X157050290Y-93172820D01*
X157071476Y-92971250D01*
X157053106Y-92769404D01*
X157047189Y-92749297D01*
X156997620Y-92580880D01*
X156995881Y-92574971D01*
X156901981Y-92395355D01*
X156774981Y-92237399D01*
X156619719Y-92107119D01*
X156614327Y-92104155D01*
X156614323Y-92104152D01*
X156447506Y-92012444D01*
X156442109Y-92009477D01*
X156248916Y-91948193D01*
X156242799Y-91947507D01*
X156242795Y-91947506D01*
X156168652Y-91939190D01*
X156091183Y-91930500D01*
X155722595Y-91930500D01*
X155654474Y-91910498D01*
X155633500Y-91893595D01*
X154295405Y-90555500D01*
X154261379Y-90493188D01*
X154258500Y-90466405D01*
X154258500Y-88392000D01*
X154896502Y-88392000D01*
X154916457Y-88620087D01*
X154975716Y-88841243D01*
X154978039Y-88846224D01*
X154978039Y-88846225D01*
X155070151Y-89043762D01*
X155070154Y-89043767D01*
X155072477Y-89048749D01*
X155203802Y-89236300D01*
X155365700Y-89398198D01*
X155370208Y-89401355D01*
X155370211Y-89401357D01*
X155441482Y-89451261D01*
X155553251Y-89529523D01*
X155558233Y-89531846D01*
X155558238Y-89531849D01*
X155728825Y-89611394D01*
X155760757Y-89626284D01*
X155766065Y-89627706D01*
X155766067Y-89627707D01*
X155976598Y-89684119D01*
X155976600Y-89684119D01*
X155981913Y-89685543D01*
X156210000Y-89705498D01*
X156438087Y-89685543D01*
X156443400Y-89684119D01*
X156443402Y-89684119D01*
X156653933Y-89627707D01*
X156653935Y-89627706D01*
X156659243Y-89626284D01*
X156691175Y-89611394D01*
X156861762Y-89531849D01*
X156861767Y-89531846D01*
X156866749Y-89529523D01*
X156978518Y-89451261D01*
X157049789Y-89401357D01*
X157049792Y-89401355D01*
X157054300Y-89398198D01*
X157216198Y-89236300D01*
X157347523Y-89048749D01*
X157349846Y-89043767D01*
X157349849Y-89043762D01*
X157441961Y-88846225D01*
X157441961Y-88846224D01*
X157444284Y-88841243D01*
X157503543Y-88620087D01*
X157523498Y-88392000D01*
X159468502Y-88392000D01*
X159488457Y-88620087D01*
X159547716Y-88841243D01*
X159550039Y-88846224D01*
X159550039Y-88846225D01*
X159642151Y-89043762D01*
X159642154Y-89043767D01*
X159644477Y-89048749D01*
X159775802Y-89236300D01*
X159937700Y-89398198D01*
X159942208Y-89401355D01*
X159942211Y-89401357D01*
X160013482Y-89451261D01*
X160125251Y-89529523D01*
X160130233Y-89531846D01*
X160130238Y-89531849D01*
X160300825Y-89611394D01*
X160332757Y-89626284D01*
X160338065Y-89627706D01*
X160338067Y-89627707D01*
X160548598Y-89684119D01*
X160548600Y-89684119D01*
X160553913Y-89685543D01*
X160782000Y-89705498D01*
X161010087Y-89685543D01*
X161015400Y-89684119D01*
X161015402Y-89684119D01*
X161225933Y-89627707D01*
X161225935Y-89627706D01*
X161231243Y-89626284D01*
X161263175Y-89611394D01*
X161433762Y-89531849D01*
X161433767Y-89531846D01*
X161438749Y-89529523D01*
X161550518Y-89451261D01*
X161621789Y-89401357D01*
X161621792Y-89401355D01*
X161626300Y-89398198D01*
X161788198Y-89236300D01*
X161919523Y-89048749D01*
X161921846Y-89043767D01*
X161921849Y-89043762D01*
X162013961Y-88846225D01*
X162013961Y-88846224D01*
X162016284Y-88841243D01*
X162075543Y-88620087D01*
X162095498Y-88392000D01*
X162075543Y-88163913D01*
X162016284Y-87942757D01*
X162013961Y-87937775D01*
X161921849Y-87740238D01*
X161921846Y-87740233D01*
X161919523Y-87735251D01*
X161788198Y-87547700D01*
X161626300Y-87385802D01*
X161621792Y-87382645D01*
X161621789Y-87382643D01*
X161543611Y-87327902D01*
X161438749Y-87254477D01*
X161433767Y-87252154D01*
X161433762Y-87252151D01*
X161236225Y-87160039D01*
X161236224Y-87160039D01*
X161231243Y-87157716D01*
X161225935Y-87156294D01*
X161225933Y-87156293D01*
X161015402Y-87099881D01*
X161015400Y-87099881D01*
X161010087Y-87098457D01*
X160782000Y-87078502D01*
X160553913Y-87098457D01*
X160548600Y-87099881D01*
X160548598Y-87099881D01*
X160338067Y-87156293D01*
X160338065Y-87156294D01*
X160332757Y-87157716D01*
X160327776Y-87160039D01*
X160327775Y-87160039D01*
X160130238Y-87252151D01*
X160130233Y-87252154D01*
X160125251Y-87254477D01*
X160020389Y-87327902D01*
X159942211Y-87382643D01*
X159942208Y-87382645D01*
X159937700Y-87385802D01*
X159775802Y-87547700D01*
X159644477Y-87735251D01*
X159642154Y-87740233D01*
X159642151Y-87740238D01*
X159550039Y-87937775D01*
X159547716Y-87942757D01*
X159488457Y-88163913D01*
X159468502Y-88392000D01*
X157523498Y-88392000D01*
X157503543Y-88163913D01*
X157444284Y-87942757D01*
X157441961Y-87937775D01*
X157349849Y-87740238D01*
X157349846Y-87740233D01*
X157347523Y-87735251D01*
X157216198Y-87547700D01*
X157054300Y-87385802D01*
X157049792Y-87382645D01*
X157049789Y-87382643D01*
X156971611Y-87327902D01*
X156866749Y-87254477D01*
X156861767Y-87252154D01*
X156861762Y-87252151D01*
X156664225Y-87160039D01*
X156664224Y-87160039D01*
X156659243Y-87157716D01*
X156653935Y-87156294D01*
X156653933Y-87156293D01*
X156443402Y-87099881D01*
X156443400Y-87099881D01*
X156438087Y-87098457D01*
X156210000Y-87078502D01*
X155981913Y-87098457D01*
X155976600Y-87099881D01*
X155976598Y-87099881D01*
X155766067Y-87156293D01*
X155766065Y-87156294D01*
X155760757Y-87157716D01*
X155755776Y-87160039D01*
X155755775Y-87160039D01*
X155558238Y-87252151D01*
X155558233Y-87252154D01*
X155553251Y-87254477D01*
X155448389Y-87327902D01*
X155370211Y-87382643D01*
X155370208Y-87382645D01*
X155365700Y-87385802D01*
X155203802Y-87547700D01*
X155072477Y-87735251D01*
X155070154Y-87740233D01*
X155070151Y-87740238D01*
X154978039Y-87937775D01*
X154975716Y-87942757D01*
X154916457Y-88163913D01*
X154896502Y-88392000D01*
X154258500Y-88392000D01*
X154258500Y-76072000D01*
X154278502Y-76003879D01*
X154332158Y-75957386D01*
X154384500Y-75946000D01*
X155450500Y-75946000D01*
X155518621Y-75966002D01*
X155565114Y-76019658D01*
X155576500Y-76072000D01*
X155576500Y-79552606D01*
X155556498Y-79620727D01*
X155522771Y-79655819D01*
X155370211Y-79762643D01*
X155370208Y-79762645D01*
X155365700Y-79765802D01*
X155203802Y-79927700D01*
X155072477Y-80115251D01*
X155070154Y-80120233D01*
X155070151Y-80120238D01*
X154988836Y-80294620D01*
X154975716Y-80322757D01*
X154974294Y-80328065D01*
X154974293Y-80328067D01*
X154926756Y-80505478D01*
X154916457Y-80543913D01*
X154896502Y-80772000D01*
X154916457Y-81000087D01*
X154917881Y-81005400D01*
X154917881Y-81005402D01*
X154927031Y-81039548D01*
X154975716Y-81221243D01*
X154978039Y-81226224D01*
X154978039Y-81226225D01*
X155070151Y-81423762D01*
X155070154Y-81423767D01*
X155072477Y-81428749D01*
X155203802Y-81616300D01*
X155365700Y-81778198D01*
X155370208Y-81781355D01*
X155370211Y-81781357D01*
X155401282Y-81803113D01*
X155553251Y-81909523D01*
X155558233Y-81911846D01*
X155558238Y-81911849D01*
X155637807Y-81948952D01*
X155760757Y-82006284D01*
X155766065Y-82007706D01*
X155766067Y-82007707D01*
X155976598Y-82064119D01*
X155976600Y-82064119D01*
X155981913Y-82065543D01*
X156210000Y-82085498D01*
X156438087Y-82065543D01*
X156443400Y-82064119D01*
X156443402Y-82064119D01*
X156653933Y-82007707D01*
X156653935Y-82007706D01*
X156659243Y-82006284D01*
X156782193Y-81948952D01*
X156861762Y-81911849D01*
X156861767Y-81911846D01*
X156866749Y-81909523D01*
X157018718Y-81803113D01*
X157049789Y-81781357D01*
X157049792Y-81781355D01*
X157054300Y-81778198D01*
X157216198Y-81616300D01*
X157347523Y-81428749D01*
X157349846Y-81423767D01*
X157349849Y-81423762D01*
X157441961Y-81226225D01*
X157441961Y-81226224D01*
X157444284Y-81221243D01*
X157492970Y-81039548D01*
X157502119Y-81005402D01*
X157502119Y-81005400D01*
X157503543Y-81000087D01*
X157523498Y-80772000D01*
X157503543Y-80543913D01*
X157493244Y-80505478D01*
X157445707Y-80328067D01*
X157445706Y-80328065D01*
X157444284Y-80322757D01*
X157431164Y-80294620D01*
X157349849Y-80120238D01*
X157349846Y-80120233D01*
X157347523Y-80115251D01*
X157216198Y-79927700D01*
X157054300Y-79765802D01*
X157049792Y-79762645D01*
X157049789Y-79762643D01*
X156897229Y-79655819D01*
X156852901Y-79600362D01*
X156843500Y-79552606D01*
X156843500Y-76072000D01*
X156863502Y-76003879D01*
X156917158Y-75957386D01*
X156969500Y-75946000D01*
X160022500Y-75946000D01*
X160090621Y-75966002D01*
X160137114Y-76019658D01*
X160148500Y-76072000D01*
X160148500Y-79552606D01*
X160128498Y-79620727D01*
X160094771Y-79655819D01*
X159942211Y-79762643D01*
X159942208Y-79762645D01*
X159937700Y-79765802D01*
X159775802Y-79927700D01*
X159644477Y-80115251D01*
X159642154Y-80120233D01*
X159642151Y-80120238D01*
X159560836Y-80294620D01*
X159547716Y-80322757D01*
X159546294Y-80328065D01*
X159546293Y-80328067D01*
X159498756Y-80505478D01*
X159488457Y-80543913D01*
X159468502Y-80772000D01*
X159488457Y-81000087D01*
X159489881Y-81005400D01*
X159489881Y-81005402D01*
X159499031Y-81039548D01*
X159547716Y-81221243D01*
X159550039Y-81226224D01*
X159550039Y-81226225D01*
X159642151Y-81423762D01*
X159642154Y-81423767D01*
X159644477Y-81428749D01*
X159775802Y-81616300D01*
X159937700Y-81778198D01*
X159942208Y-81781355D01*
X159942211Y-81781357D01*
X159973282Y-81803113D01*
X160125251Y-81909523D01*
X160130233Y-81911846D01*
X160130238Y-81911849D01*
X160209807Y-81948952D01*
X160332757Y-82006284D01*
X160338065Y-82007706D01*
X160338067Y-82007707D01*
X160548598Y-82064119D01*
X160548600Y-82064119D01*
X160553913Y-82065543D01*
X160782000Y-82085498D01*
X161010087Y-82065543D01*
X161015400Y-82064119D01*
X161015402Y-82064119D01*
X161225933Y-82007707D01*
X161225935Y-82007706D01*
X161231243Y-82006284D01*
X161354193Y-81948952D01*
X161433762Y-81911849D01*
X161433767Y-81911846D01*
X161438749Y-81909523D01*
X161590718Y-81803113D01*
X161621789Y-81781357D01*
X161621792Y-81781355D01*
X161626300Y-81778198D01*
X161788198Y-81616300D01*
X161919523Y-81428749D01*
X161921846Y-81423767D01*
X161921849Y-81423762D01*
X162013961Y-81226225D01*
X162013961Y-81226224D01*
X162016284Y-81221243D01*
X162064970Y-81039548D01*
X162074119Y-81005402D01*
X162074119Y-81005400D01*
X162075543Y-81000087D01*
X162095498Y-80772000D01*
X164294502Y-80772000D01*
X164314457Y-81000087D01*
X164315881Y-81005400D01*
X164315881Y-81005402D01*
X164325031Y-81039548D01*
X164373716Y-81221243D01*
X164376039Y-81226224D01*
X164376039Y-81226225D01*
X164468151Y-81423762D01*
X164468154Y-81423767D01*
X164470477Y-81428749D01*
X164601802Y-81616300D01*
X164763700Y-81778198D01*
X164768208Y-81781355D01*
X164768211Y-81781357D01*
X164799282Y-81803113D01*
X164951251Y-81909523D01*
X164956233Y-81911846D01*
X164956238Y-81911849D01*
X165035807Y-81948952D01*
X165158757Y-82006284D01*
X165164065Y-82007706D01*
X165164067Y-82007707D01*
X165374598Y-82064119D01*
X165374600Y-82064119D01*
X165379913Y-82065543D01*
X165608000Y-82085498D01*
X165836087Y-82065543D01*
X165841400Y-82064119D01*
X165841402Y-82064119D01*
X166051933Y-82007707D01*
X166051935Y-82007706D01*
X166057243Y-82006284D01*
X166180193Y-81948952D01*
X166259762Y-81911849D01*
X166259767Y-81911846D01*
X166264749Y-81909523D01*
X166416718Y-81803113D01*
X166447789Y-81781357D01*
X166447792Y-81781355D01*
X166452300Y-81778198D01*
X166614198Y-81616300D01*
X166745523Y-81428749D01*
X166747846Y-81423767D01*
X166747849Y-81423762D01*
X166839961Y-81226225D01*
X166839961Y-81226224D01*
X166842284Y-81221243D01*
X166890970Y-81039548D01*
X166891245Y-81038522D01*
X169151273Y-81038522D01*
X169198764Y-81215761D01*
X169202510Y-81226053D01*
X169294586Y-81423511D01*
X169300069Y-81433007D01*
X169425028Y-81611467D01*
X169432084Y-81619875D01*
X169586125Y-81773916D01*
X169594533Y-81780972D01*
X169772993Y-81905931D01*
X169782489Y-81911414D01*
X169979947Y-82003490D01*
X169990239Y-82007236D01*
X170162503Y-82053394D01*
X170176599Y-82053058D01*
X170180000Y-82045116D01*
X170180000Y-82039967D01*
X170688000Y-82039967D01*
X170691973Y-82053498D01*
X170700522Y-82054727D01*
X170877761Y-82007236D01*
X170888053Y-82003490D01*
X171085511Y-81911414D01*
X171095007Y-81905931D01*
X171273467Y-81780972D01*
X171281875Y-81773916D01*
X171435916Y-81619875D01*
X171442972Y-81611467D01*
X171567931Y-81433007D01*
X171573414Y-81423511D01*
X171665490Y-81226053D01*
X171669236Y-81215761D01*
X171715394Y-81043497D01*
X171715058Y-81029401D01*
X171707116Y-81026000D01*
X170706115Y-81026000D01*
X170690876Y-81030475D01*
X170689671Y-81031865D01*
X170688000Y-81039548D01*
X170688000Y-82039967D01*
X170180000Y-82039967D01*
X170180000Y-81044115D01*
X170175525Y-81028876D01*
X170174135Y-81027671D01*
X170166452Y-81026000D01*
X169166033Y-81026000D01*
X169152502Y-81029973D01*
X169151273Y-81038522D01*
X166891245Y-81038522D01*
X166900119Y-81005402D01*
X166900119Y-81005400D01*
X166901543Y-81000087D01*
X166921498Y-80772000D01*
X166901543Y-80543913D01*
X166891244Y-80505478D01*
X166889911Y-80500503D01*
X169152606Y-80500503D01*
X169152942Y-80514599D01*
X169160884Y-80518000D01*
X170161885Y-80518000D01*
X170177124Y-80513525D01*
X170178329Y-80512135D01*
X170180000Y-80504452D01*
X170180000Y-80499885D01*
X170688000Y-80499885D01*
X170692475Y-80515124D01*
X170693865Y-80516329D01*
X170701548Y-80518000D01*
X171701967Y-80518000D01*
X171715498Y-80514027D01*
X171716727Y-80505478D01*
X171669236Y-80328239D01*
X171665490Y-80317947D01*
X171573414Y-80120489D01*
X171567931Y-80110993D01*
X171442972Y-79932533D01*
X171435916Y-79924125D01*
X171281875Y-79770084D01*
X171273467Y-79763028D01*
X171095007Y-79638069D01*
X171085511Y-79632586D01*
X170888053Y-79540510D01*
X170877761Y-79536764D01*
X170705497Y-79490606D01*
X170691401Y-79490942D01*
X170688000Y-79498884D01*
X170688000Y-80499885D01*
X170180000Y-80499885D01*
X170180000Y-79504033D01*
X170176027Y-79490502D01*
X170167478Y-79489273D01*
X169990239Y-79536764D01*
X169979947Y-79540510D01*
X169782489Y-79632586D01*
X169772993Y-79638069D01*
X169594533Y-79763028D01*
X169586125Y-79770084D01*
X169432084Y-79924125D01*
X169425028Y-79932533D01*
X169300069Y-80110993D01*
X169294586Y-80120489D01*
X169202510Y-80317947D01*
X169198764Y-80328239D01*
X169152606Y-80500503D01*
X166889911Y-80500503D01*
X166843707Y-80328067D01*
X166843706Y-80328065D01*
X166842284Y-80322757D01*
X166829164Y-80294620D01*
X166747849Y-80120238D01*
X166747846Y-80120233D01*
X166745523Y-80115251D01*
X166614198Y-79927700D01*
X166452300Y-79765802D01*
X166447792Y-79762645D01*
X166447789Y-79762643D01*
X166369611Y-79707902D01*
X166264749Y-79634477D01*
X166259767Y-79632154D01*
X166259762Y-79632151D01*
X166062225Y-79540039D01*
X166062224Y-79540039D01*
X166057243Y-79537716D01*
X166051935Y-79536294D01*
X166051933Y-79536293D01*
X165841402Y-79479881D01*
X165841400Y-79479881D01*
X165836087Y-79478457D01*
X165608000Y-79458502D01*
X165379913Y-79478457D01*
X165374600Y-79479881D01*
X165374598Y-79479881D01*
X165164067Y-79536293D01*
X165164065Y-79536294D01*
X165158757Y-79537716D01*
X165153776Y-79540039D01*
X165153775Y-79540039D01*
X164956238Y-79632151D01*
X164956233Y-79632154D01*
X164951251Y-79634477D01*
X164846389Y-79707902D01*
X164768211Y-79762643D01*
X164768208Y-79762645D01*
X164763700Y-79765802D01*
X164601802Y-79927700D01*
X164470477Y-80115251D01*
X164468154Y-80120233D01*
X164468151Y-80120238D01*
X164386836Y-80294620D01*
X164373716Y-80322757D01*
X164372294Y-80328065D01*
X164372293Y-80328067D01*
X164324756Y-80505478D01*
X164314457Y-80543913D01*
X164294502Y-80772000D01*
X162095498Y-80772000D01*
X162075543Y-80543913D01*
X162065244Y-80505478D01*
X162017707Y-80328067D01*
X162017706Y-80328065D01*
X162016284Y-80322757D01*
X162003164Y-80294620D01*
X161921849Y-80120238D01*
X161921846Y-80120233D01*
X161919523Y-80115251D01*
X161788198Y-79927700D01*
X161626300Y-79765802D01*
X161621792Y-79762645D01*
X161621789Y-79762643D01*
X161469229Y-79655819D01*
X161424901Y-79600362D01*
X161415500Y-79552606D01*
X161415500Y-76072000D01*
X161435502Y-76003879D01*
X161489158Y-75957386D01*
X161541500Y-75946000D01*
X173102000Y-75946000D01*
X173170121Y-75966002D01*
X173216614Y-76019658D01*
X173228000Y-76072000D01*
X173228000Y-106300000D01*
X173207998Y-106368121D01*
X173154342Y-106414614D01*
X173102000Y-106426000D01*
X110362000Y-106426000D01*
X110293879Y-106405998D01*
X110247386Y-106352342D01*
X110236000Y-106300000D01*
X110236000Y-105706777D01*
X137735777Y-105706777D01*
X137745074Y-105718793D01*
X137788069Y-105748898D01*
X137797555Y-105754376D01*
X137988993Y-105843645D01*
X137999285Y-105847391D01*
X138203309Y-105902059D01*
X138214104Y-105903962D01*
X138424525Y-105922372D01*
X138435475Y-105922372D01*
X138645896Y-105903962D01*
X138656691Y-105902059D01*
X138860715Y-105847391D01*
X138871007Y-105843645D01*
X139062445Y-105754376D01*
X139071931Y-105748898D01*
X139115764Y-105718207D01*
X139124139Y-105707729D01*
X139117071Y-105694281D01*
X138442812Y-105020022D01*
X138428868Y-105012408D01*
X138427035Y-105012539D01*
X138420420Y-105016790D01*
X137742207Y-105695003D01*
X137735777Y-105706777D01*
X110236000Y-105706777D01*
X110236000Y-104653475D01*
X137155628Y-104653475D01*
X137174038Y-104863896D01*
X137175941Y-104874691D01*
X137230609Y-105078715D01*
X137234355Y-105089007D01*
X137323623Y-105280441D01*
X137329103Y-105289932D01*
X137359794Y-105333765D01*
X137370271Y-105342140D01*
X137383718Y-105335072D01*
X138057978Y-104660812D01*
X138064356Y-104649132D01*
X138794408Y-104649132D01*
X138794539Y-104650965D01*
X138798790Y-104657580D01*
X139477003Y-105335793D01*
X139488777Y-105342223D01*
X139500793Y-105332926D01*
X139530897Y-105289932D01*
X139536377Y-105280441D01*
X139585529Y-105175035D01*
X139632447Y-105121750D01*
X139700724Y-105102289D01*
X139768684Y-105122831D01*
X139813919Y-105175035D01*
X139863186Y-105280689D01*
X139863189Y-105280694D01*
X139865512Y-105285676D01*
X139868668Y-105290183D01*
X139868669Y-105290185D01*
X139905107Y-105342223D01*
X139993023Y-105467781D01*
X140150219Y-105624977D01*
X140154727Y-105628134D01*
X140154730Y-105628136D01*
X140230495Y-105681187D01*
X140332323Y-105752488D01*
X140337305Y-105754811D01*
X140337310Y-105754814D01*
X140527810Y-105843645D01*
X140533804Y-105846440D01*
X140539112Y-105847862D01*
X140539114Y-105847863D01*
X140604949Y-105865503D01*
X140748537Y-105903978D01*
X140970000Y-105923353D01*
X141191463Y-105903978D01*
X141335051Y-105865503D01*
X141400886Y-105847863D01*
X141400888Y-105847862D01*
X141406196Y-105846440D01*
X141412190Y-105843645D01*
X141602690Y-105754814D01*
X141602695Y-105754811D01*
X141607677Y-105752488D01*
X141709505Y-105681187D01*
X141785270Y-105628136D01*
X141785273Y-105628134D01*
X141789781Y-105624977D01*
X141946977Y-105467781D01*
X142034894Y-105342223D01*
X142071331Y-105290185D01*
X142071332Y-105290183D01*
X142074488Y-105285676D01*
X142076811Y-105280694D01*
X142076814Y-105280689D01*
X142125805Y-105175627D01*
X142172723Y-105122342D01*
X142241000Y-105102881D01*
X142308960Y-105123423D01*
X142354195Y-105175627D01*
X142403186Y-105280689D01*
X142403189Y-105280694D01*
X142405512Y-105285676D01*
X142408668Y-105290183D01*
X142408669Y-105290185D01*
X142445107Y-105342223D01*
X142533023Y-105467781D01*
X142690219Y-105624977D01*
X142694727Y-105628134D01*
X142694730Y-105628136D01*
X142770495Y-105681187D01*
X142872323Y-105752488D01*
X142877305Y-105754811D01*
X142877310Y-105754814D01*
X143067810Y-105843645D01*
X143073804Y-105846440D01*
X143079112Y-105847862D01*
X143079114Y-105847863D01*
X143144949Y-105865503D01*
X143288537Y-105903978D01*
X143510000Y-105923353D01*
X143731463Y-105903978D01*
X143875051Y-105865503D01*
X143940886Y-105847863D01*
X143940888Y-105847862D01*
X143946196Y-105846440D01*
X143952190Y-105843645D01*
X144142690Y-105754814D01*
X144142695Y-105754811D01*
X144147677Y-105752488D01*
X144249505Y-105681187D01*
X144325270Y-105628136D01*
X144325273Y-105628134D01*
X144329781Y-105624977D01*
X144486977Y-105467781D01*
X144574894Y-105342223D01*
X144611331Y-105290185D01*
X144611332Y-105290183D01*
X144614488Y-105285676D01*
X144616811Y-105280694D01*
X144616814Y-105280689D01*
X144665805Y-105175627D01*
X144712723Y-105122342D01*
X144781000Y-105102881D01*
X144848960Y-105123423D01*
X144894195Y-105175627D01*
X144943186Y-105280689D01*
X144943189Y-105280694D01*
X144945512Y-105285676D01*
X144948668Y-105290183D01*
X144948669Y-105290185D01*
X144985107Y-105342223D01*
X145073023Y-105467781D01*
X145230219Y-105624977D01*
X145234727Y-105628134D01*
X145234730Y-105628136D01*
X145310495Y-105681187D01*
X145412323Y-105752488D01*
X145417305Y-105754811D01*
X145417310Y-105754814D01*
X145607810Y-105843645D01*
X145613804Y-105846440D01*
X145619112Y-105847862D01*
X145619114Y-105847863D01*
X145684949Y-105865503D01*
X145828537Y-105903978D01*
X146050000Y-105923353D01*
X146271463Y-105903978D01*
X146415051Y-105865503D01*
X146480886Y-105847863D01*
X146480888Y-105847862D01*
X146486196Y-105846440D01*
X146492190Y-105843645D01*
X146682690Y-105754814D01*
X146682695Y-105754811D01*
X146687677Y-105752488D01*
X146789505Y-105681187D01*
X146865270Y-105628136D01*
X146865273Y-105628134D01*
X146869781Y-105624977D01*
X147026977Y-105467781D01*
X147114894Y-105342223D01*
X147151331Y-105290185D01*
X147151332Y-105290183D01*
X147154488Y-105285676D01*
X147156811Y-105280694D01*
X147156814Y-105280689D01*
X147246117Y-105089178D01*
X147246118Y-105089177D01*
X147248440Y-105084196D01*
X147305978Y-104869463D01*
X147325353Y-104648000D01*
X147305978Y-104426537D01*
X147255714Y-104238950D01*
X154980493Y-104238950D01*
X154989789Y-104250965D01*
X155040994Y-104286819D01*
X155050489Y-104292302D01*
X155247947Y-104384378D01*
X155258239Y-104388124D01*
X155468688Y-104444513D01*
X155479481Y-104446416D01*
X155696525Y-104465405D01*
X155707475Y-104465405D01*
X155924519Y-104446416D01*
X155935312Y-104444513D01*
X156145761Y-104388124D01*
X156156053Y-104384378D01*
X156353511Y-104292302D01*
X156363006Y-104286819D01*
X156415048Y-104250379D01*
X156423424Y-104239900D01*
X156416356Y-104226454D01*
X156359964Y-104170062D01*
X166918493Y-104170062D01*
X166927789Y-104182077D01*
X166978994Y-104217931D01*
X166988489Y-104223414D01*
X167185947Y-104315490D01*
X167196239Y-104319236D01*
X167406688Y-104375625D01*
X167417481Y-104377528D01*
X167634525Y-104396517D01*
X167645475Y-104396517D01*
X167862519Y-104377528D01*
X167873312Y-104375625D01*
X168083761Y-104319236D01*
X168094053Y-104315490D01*
X168291511Y-104223414D01*
X168301006Y-104217931D01*
X168353048Y-104181491D01*
X168361424Y-104171012D01*
X168354356Y-104157566D01*
X167652812Y-103456022D01*
X167638868Y-103448408D01*
X167637035Y-103448539D01*
X167630420Y-103452790D01*
X166924923Y-104158287D01*
X166918493Y-104170062D01*
X156359964Y-104170062D01*
X155714812Y-103524910D01*
X155700868Y-103517296D01*
X155699035Y-103517427D01*
X155692420Y-103521678D01*
X154986923Y-104227175D01*
X154980493Y-104238950D01*
X147255714Y-104238950D01*
X147252559Y-104227175D01*
X147249863Y-104217114D01*
X147249862Y-104217112D01*
X147248440Y-104211804D01*
X147230148Y-104172577D01*
X147156814Y-104015311D01*
X147156811Y-104015306D01*
X147154488Y-104010324D01*
X147151331Y-104005815D01*
X147030136Y-103832730D01*
X147030134Y-103832727D01*
X147026977Y-103828219D01*
X146869781Y-103671023D01*
X146865273Y-103667866D01*
X146865270Y-103667864D01*
X146778263Y-103606941D01*
X146687677Y-103543512D01*
X146682695Y-103541189D01*
X146682690Y-103541186D01*
X146491178Y-103451883D01*
X146491177Y-103451882D01*
X146486196Y-103449560D01*
X146480888Y-103448138D01*
X146480886Y-103448137D01*
X146380781Y-103421314D01*
X146271463Y-103392022D01*
X146050000Y-103372647D01*
X146044525Y-103373126D01*
X145990767Y-103377829D01*
X145921162Y-103363839D01*
X145870170Y-103314440D01*
X145853980Y-103245314D01*
X145877733Y-103178409D01*
X145890691Y-103163213D01*
X145895541Y-103158363D01*
X154389483Y-103158363D01*
X154408472Y-103375407D01*
X154410375Y-103386200D01*
X154466764Y-103596649D01*
X154470510Y-103606941D01*
X154562586Y-103804399D01*
X154568069Y-103813894D01*
X154604509Y-103865936D01*
X154614988Y-103874312D01*
X154628434Y-103867244D01*
X155612905Y-102882773D01*
X155675217Y-102848747D01*
X155746032Y-102853812D01*
X155791095Y-102882773D01*
X156776287Y-103867965D01*
X156788062Y-103874395D01*
X156800077Y-103865099D01*
X156835931Y-103813894D01*
X156841414Y-103804399D01*
X156933490Y-103606941D01*
X156937236Y-103596649D01*
X156993625Y-103386200D01*
X156995528Y-103375407D01*
X157014517Y-103158363D01*
X157014517Y-103147413D01*
X157009448Y-103089475D01*
X166327483Y-103089475D01*
X166346472Y-103306519D01*
X166348375Y-103317312D01*
X166404764Y-103527761D01*
X166408510Y-103538053D01*
X166500586Y-103735511D01*
X166506069Y-103745006D01*
X166542509Y-103797048D01*
X166552988Y-103805424D01*
X166566434Y-103798356D01*
X167267978Y-103096812D01*
X167274356Y-103085132D01*
X168004408Y-103085132D01*
X168004539Y-103086965D01*
X168008790Y-103093580D01*
X168714287Y-103799077D01*
X168726062Y-103805507D01*
X168738077Y-103796211D01*
X168773931Y-103745006D01*
X168779414Y-103735511D01*
X168871490Y-103538053D01*
X168875236Y-103527761D01*
X168931625Y-103317312D01*
X168933528Y-103306519D01*
X168952517Y-103089475D01*
X168952517Y-103078525D01*
X168933528Y-102861481D01*
X168931625Y-102850688D01*
X168875236Y-102640239D01*
X168871490Y-102629947D01*
X168779414Y-102432489D01*
X168773931Y-102422994D01*
X168737491Y-102370952D01*
X168727012Y-102362576D01*
X168713566Y-102369644D01*
X168012022Y-103071188D01*
X168004408Y-103085132D01*
X167274356Y-103085132D01*
X167275592Y-103082868D01*
X167275461Y-103081035D01*
X167271210Y-103074420D01*
X166565713Y-102368923D01*
X166553938Y-102362493D01*
X166541923Y-102371789D01*
X166506069Y-102422994D01*
X166500586Y-102432489D01*
X166408510Y-102629947D01*
X166404764Y-102640239D01*
X166348375Y-102850688D01*
X166346472Y-102861481D01*
X166327483Y-103078525D01*
X166327483Y-103089475D01*
X157009448Y-103089475D01*
X156995528Y-102930369D01*
X156993625Y-102919576D01*
X156937236Y-102709127D01*
X156933490Y-102698835D01*
X156841414Y-102501377D01*
X156835929Y-102491877D01*
X156835299Y-102490978D01*
X156835144Y-102490518D01*
X156833182Y-102487120D01*
X156833865Y-102486726D01*
X156812612Y-102423704D01*
X156829898Y-102354844D01*
X156852934Y-102329085D01*
X156851730Y-102327881D01*
X156858081Y-102321530D01*
X156865261Y-102316149D01*
X156870642Y-102308969D01*
X156870645Y-102308966D01*
X156947229Y-102206779D01*
X156952615Y-102199593D01*
X157003745Y-102063204D01*
X157010500Y-102001022D01*
X157010500Y-101432134D01*
X166331500Y-101432134D01*
X166338255Y-101494316D01*
X166389385Y-101630705D01*
X166476739Y-101747261D01*
X166593295Y-101834615D01*
X166729684Y-101885745D01*
X166773252Y-101890478D01*
X166788486Y-101892133D01*
X166788489Y-101892133D01*
X166791866Y-101892500D01*
X166795185Y-101892500D01*
X166862110Y-101916153D01*
X166897804Y-101962156D01*
X166899734Y-101961141D01*
X166905442Y-101972000D01*
X166905632Y-101972245D01*
X166905653Y-101972403D01*
X166925644Y-102010434D01*
X167627188Y-102711978D01*
X167641132Y-102719592D01*
X167642965Y-102719461D01*
X167649580Y-102715210D01*
X168355077Y-102009713D01*
X168377871Y-101967971D01*
X168380047Y-101957971D01*
X168430253Y-101907773D01*
X168483814Y-101892549D01*
X168484719Y-101892500D01*
X168488134Y-101892500D01*
X168491530Y-101892131D01*
X168491532Y-101892131D01*
X168503879Y-101890790D01*
X168550316Y-101885745D01*
X168686705Y-101834615D01*
X168803261Y-101747261D01*
X168890615Y-101630705D01*
X168941745Y-101494316D01*
X168948500Y-101432134D01*
X168948500Y-99735866D01*
X168941745Y-99673684D01*
X168890615Y-99537295D01*
X168803261Y-99420739D01*
X168686705Y-99333385D01*
X168550316Y-99282255D01*
X168488134Y-99275500D01*
X166791866Y-99275500D01*
X166729684Y-99282255D01*
X166593295Y-99333385D01*
X166476739Y-99420739D01*
X166389385Y-99537295D01*
X166338255Y-99673684D01*
X166331500Y-99735866D01*
X166331500Y-101432134D01*
X157010500Y-101432134D01*
X157010500Y-100304754D01*
X157003745Y-100242572D01*
X156952615Y-100106183D01*
X156865261Y-99989627D01*
X156748705Y-99902273D01*
X156612316Y-99851143D01*
X156550134Y-99844388D01*
X154853866Y-99844388D01*
X154791684Y-99851143D01*
X154655295Y-99902273D01*
X154538739Y-99989627D01*
X154451385Y-100106183D01*
X154400255Y-100242572D01*
X154393500Y-100304754D01*
X154393500Y-102001022D01*
X154400255Y-102063204D01*
X154451385Y-102199593D01*
X154456771Y-102206779D01*
X154533355Y-102308966D01*
X154533358Y-102308969D01*
X154538739Y-102316149D01*
X154545919Y-102321530D01*
X154552270Y-102327881D01*
X154550128Y-102330023D01*
X154583564Y-102374734D01*
X154588594Y-102445552D01*
X154570477Y-102486923D01*
X154570818Y-102487120D01*
X154569048Y-102490186D01*
X154568701Y-102490978D01*
X154568071Y-102491877D01*
X154562586Y-102501377D01*
X154470510Y-102698835D01*
X154466764Y-102709127D01*
X154410375Y-102919576D01*
X154408472Y-102930369D01*
X154389483Y-103147413D01*
X154389483Y-103158363D01*
X145895541Y-103158363D01*
X150339499Y-98714405D01*
X150401811Y-98680379D01*
X150428594Y-98677500D01*
X163751233Y-98677500D01*
X163762416Y-98678027D01*
X163769909Y-98679702D01*
X163777835Y-98679453D01*
X163777836Y-98679453D01*
X163837986Y-98677562D01*
X163841945Y-98677500D01*
X163869856Y-98677500D01*
X163873791Y-98677003D01*
X163873856Y-98676995D01*
X163885693Y-98676062D01*
X163917951Y-98675048D01*
X163921970Y-98674922D01*
X163929889Y-98674673D01*
X163949343Y-98669021D01*
X163968700Y-98665013D01*
X163980930Y-98663468D01*
X163980931Y-98663468D01*
X163988797Y-98662474D01*
X163996168Y-98659555D01*
X163996170Y-98659555D01*
X164029912Y-98646196D01*
X164041142Y-98642351D01*
X164075983Y-98632229D01*
X164075984Y-98632229D01*
X164083593Y-98630018D01*
X164090412Y-98625985D01*
X164090417Y-98625983D01*
X164101028Y-98619707D01*
X164118776Y-98611012D01*
X164137617Y-98603552D01*
X164173387Y-98577564D01*
X164183307Y-98571048D01*
X164214535Y-98552580D01*
X164214538Y-98552578D01*
X164221362Y-98548542D01*
X164235683Y-98534221D01*
X164250717Y-98521380D01*
X164260694Y-98514131D01*
X164267107Y-98509472D01*
X164295298Y-98475395D01*
X164303288Y-98466616D01*
X166000247Y-96769657D01*
X166008537Y-96762113D01*
X166015018Y-96758000D01*
X166061659Y-96708332D01*
X166064413Y-96705491D01*
X166084135Y-96685769D01*
X166086619Y-96682567D01*
X166094317Y-96673555D01*
X166119161Y-96647098D01*
X166124586Y-96641321D01*
X166134347Y-96623566D01*
X166145198Y-96607047D01*
X166157614Y-96591041D01*
X166175174Y-96550463D01*
X166180391Y-96539813D01*
X166201695Y-96501060D01*
X166206733Y-96481437D01*
X166213137Y-96462734D01*
X166218033Y-96451420D01*
X166218033Y-96451419D01*
X166221181Y-96444145D01*
X166222420Y-96436322D01*
X166222423Y-96436312D01*
X166228099Y-96400476D01*
X166230505Y-96388856D01*
X166239528Y-96353711D01*
X166239528Y-96353710D01*
X166241500Y-96346030D01*
X166241500Y-96325776D01*
X166243051Y-96306065D01*
X166244980Y-96293886D01*
X166246220Y-96286057D01*
X166242059Y-96242038D01*
X166241500Y-96230181D01*
X166241500Y-94272000D01*
X170136502Y-94272000D01*
X170156457Y-94500087D01*
X170157881Y-94505400D01*
X170157881Y-94505402D01*
X170207150Y-94689273D01*
X170215716Y-94721243D01*
X170218039Y-94726224D01*
X170218039Y-94726225D01*
X170310151Y-94923762D01*
X170310154Y-94923767D01*
X170312477Y-94928749D01*
X170443802Y-95116300D01*
X170605700Y-95278198D01*
X170610208Y-95281355D01*
X170610211Y-95281357D01*
X170611398Y-95282188D01*
X170793251Y-95409523D01*
X170798233Y-95411846D01*
X170798238Y-95411849D01*
X170995775Y-95503961D01*
X171000757Y-95506284D01*
X171006065Y-95507706D01*
X171006067Y-95507707D01*
X171216598Y-95564119D01*
X171216600Y-95564119D01*
X171221913Y-95565543D01*
X171450000Y-95585498D01*
X171678087Y-95565543D01*
X171683400Y-95564119D01*
X171683402Y-95564119D01*
X171893933Y-95507707D01*
X171893935Y-95507706D01*
X171899243Y-95506284D01*
X171904225Y-95503961D01*
X172101762Y-95411849D01*
X172101767Y-95411846D01*
X172106749Y-95409523D01*
X172288602Y-95282188D01*
X172289789Y-95281357D01*
X172289792Y-95281355D01*
X172294300Y-95278198D01*
X172456198Y-95116300D01*
X172587523Y-94928749D01*
X172589846Y-94923767D01*
X172589849Y-94923762D01*
X172681961Y-94726225D01*
X172681961Y-94726224D01*
X172684284Y-94721243D01*
X172692851Y-94689273D01*
X172742119Y-94505402D01*
X172742119Y-94505400D01*
X172743543Y-94500087D01*
X172763498Y-94272000D01*
X172743543Y-94043913D01*
X172740165Y-94031306D01*
X172685707Y-93828067D01*
X172685706Y-93828065D01*
X172684284Y-93822757D01*
X172681961Y-93817775D01*
X172589849Y-93620238D01*
X172589846Y-93620233D01*
X172587523Y-93615251D01*
X172473352Y-93452198D01*
X172459357Y-93432211D01*
X172459355Y-93432208D01*
X172456198Y-93427700D01*
X172294300Y-93265802D01*
X172289792Y-93262645D01*
X172289789Y-93262643D01*
X172187750Y-93191195D01*
X172106749Y-93134477D01*
X172101767Y-93132154D01*
X172101762Y-93132151D01*
X171904225Y-93040039D01*
X171904224Y-93040039D01*
X171899243Y-93037716D01*
X171893935Y-93036294D01*
X171893933Y-93036293D01*
X171683402Y-92979881D01*
X171683400Y-92979881D01*
X171678087Y-92978457D01*
X171450000Y-92958502D01*
X171221913Y-92978457D01*
X171216600Y-92979881D01*
X171216598Y-92979881D01*
X171006067Y-93036293D01*
X171006065Y-93036294D01*
X171000757Y-93037716D01*
X170995776Y-93040039D01*
X170995775Y-93040039D01*
X170798238Y-93132151D01*
X170798233Y-93132154D01*
X170793251Y-93134477D01*
X170712250Y-93191195D01*
X170610211Y-93262643D01*
X170610208Y-93262645D01*
X170605700Y-93265802D01*
X170443802Y-93427700D01*
X170440645Y-93432208D01*
X170440643Y-93432211D01*
X170426648Y-93452198D01*
X170312477Y-93615251D01*
X170310154Y-93620233D01*
X170310151Y-93620238D01*
X170218039Y-93817775D01*
X170215716Y-93822757D01*
X170214294Y-93828065D01*
X170214293Y-93828067D01*
X170159835Y-94031306D01*
X170156457Y-94043913D01*
X170136502Y-94272000D01*
X166241500Y-94272000D01*
X166241500Y-89611394D01*
X166261502Y-89543273D01*
X166295229Y-89508181D01*
X166447789Y-89401357D01*
X166447792Y-89401355D01*
X166452300Y-89398198D01*
X166614198Y-89236300D01*
X166745523Y-89048749D01*
X166747846Y-89043767D01*
X166747849Y-89043762D01*
X166839961Y-88846225D01*
X166839961Y-88846224D01*
X166842284Y-88841243D01*
X166901543Y-88620087D01*
X166921498Y-88392000D01*
X169120502Y-88392000D01*
X169140457Y-88620087D01*
X169199716Y-88841243D01*
X169202039Y-88846224D01*
X169202039Y-88846225D01*
X169294151Y-89043762D01*
X169294154Y-89043767D01*
X169296477Y-89048749D01*
X169427802Y-89236300D01*
X169589700Y-89398198D01*
X169594208Y-89401355D01*
X169594211Y-89401357D01*
X169665482Y-89451261D01*
X169777251Y-89529523D01*
X169782233Y-89531846D01*
X169782238Y-89531849D01*
X169952825Y-89611394D01*
X169984757Y-89626284D01*
X169990065Y-89627706D01*
X169990067Y-89627707D01*
X170200598Y-89684119D01*
X170200600Y-89684119D01*
X170205913Y-89685543D01*
X170434000Y-89705498D01*
X170662087Y-89685543D01*
X170667400Y-89684119D01*
X170667402Y-89684119D01*
X170877933Y-89627707D01*
X170877935Y-89627706D01*
X170883243Y-89626284D01*
X170915175Y-89611394D01*
X171085762Y-89531849D01*
X171085767Y-89531846D01*
X171090749Y-89529523D01*
X171202518Y-89451261D01*
X171273789Y-89401357D01*
X171273792Y-89401355D01*
X171278300Y-89398198D01*
X171440198Y-89236300D01*
X171571523Y-89048749D01*
X171573846Y-89043767D01*
X171573849Y-89043762D01*
X171665961Y-88846225D01*
X171665961Y-88846224D01*
X171668284Y-88841243D01*
X171727543Y-88620087D01*
X171747498Y-88392000D01*
X171727543Y-88163913D01*
X171668284Y-87942757D01*
X171665961Y-87937775D01*
X171573849Y-87740238D01*
X171573846Y-87740233D01*
X171571523Y-87735251D01*
X171440198Y-87547700D01*
X171278300Y-87385802D01*
X171273792Y-87382645D01*
X171273789Y-87382643D01*
X171195611Y-87327902D01*
X171090749Y-87254477D01*
X171085767Y-87252154D01*
X171085762Y-87252151D01*
X170888225Y-87160039D01*
X170888224Y-87160039D01*
X170883243Y-87157716D01*
X170877935Y-87156294D01*
X170877933Y-87156293D01*
X170667402Y-87099881D01*
X170667400Y-87099881D01*
X170662087Y-87098457D01*
X170434000Y-87078502D01*
X170205913Y-87098457D01*
X170200600Y-87099881D01*
X170200598Y-87099881D01*
X169990067Y-87156293D01*
X169990065Y-87156294D01*
X169984757Y-87157716D01*
X169979776Y-87160039D01*
X169979775Y-87160039D01*
X169782238Y-87252151D01*
X169782233Y-87252154D01*
X169777251Y-87254477D01*
X169672389Y-87327902D01*
X169594211Y-87382643D01*
X169594208Y-87382645D01*
X169589700Y-87385802D01*
X169427802Y-87547700D01*
X169296477Y-87735251D01*
X169294154Y-87740233D01*
X169294151Y-87740238D01*
X169202039Y-87937775D01*
X169199716Y-87942757D01*
X169140457Y-88163913D01*
X169120502Y-88392000D01*
X166921498Y-88392000D01*
X166901543Y-88163913D01*
X166842284Y-87942757D01*
X166839961Y-87937775D01*
X166747849Y-87740238D01*
X166747846Y-87740233D01*
X166745523Y-87735251D01*
X166614198Y-87547700D01*
X166452300Y-87385802D01*
X166447792Y-87382645D01*
X166447789Y-87382643D01*
X166369611Y-87327902D01*
X166264749Y-87254477D01*
X166259767Y-87252154D01*
X166259762Y-87252151D01*
X166062225Y-87160039D01*
X166062224Y-87160039D01*
X166057243Y-87157716D01*
X166051935Y-87156294D01*
X166051933Y-87156293D01*
X165841402Y-87099881D01*
X165841400Y-87099881D01*
X165836087Y-87098457D01*
X165608000Y-87078502D01*
X165379913Y-87098457D01*
X165374600Y-87099881D01*
X165374598Y-87099881D01*
X165164067Y-87156293D01*
X165164065Y-87156294D01*
X165158757Y-87157716D01*
X165153776Y-87160039D01*
X165153775Y-87160039D01*
X164956238Y-87252151D01*
X164956233Y-87252154D01*
X164951251Y-87254477D01*
X164846389Y-87327902D01*
X164768211Y-87382643D01*
X164768208Y-87382645D01*
X164763700Y-87385802D01*
X164601802Y-87547700D01*
X164470477Y-87735251D01*
X164468154Y-87740233D01*
X164468151Y-87740238D01*
X164376039Y-87937775D01*
X164373716Y-87942757D01*
X164314457Y-88163913D01*
X164294502Y-88392000D01*
X164314457Y-88620087D01*
X164373716Y-88841243D01*
X164376039Y-88846224D01*
X164376039Y-88846225D01*
X164468151Y-89043762D01*
X164468154Y-89043767D01*
X164470477Y-89048749D01*
X164601802Y-89236300D01*
X164763700Y-89398198D01*
X164768208Y-89401355D01*
X164768211Y-89401357D01*
X164920771Y-89508181D01*
X164965099Y-89563638D01*
X164974500Y-89611394D01*
X164974500Y-93261812D01*
X164954498Y-93329933D01*
X164900842Y-93376426D01*
X164830568Y-93386530D01*
X164765988Y-93357036D01*
X164759405Y-93350907D01*
X164674300Y-93265802D01*
X164669792Y-93262645D01*
X164669789Y-93262643D01*
X164567750Y-93191195D01*
X164486749Y-93134477D01*
X164481767Y-93132154D01*
X164481762Y-93132151D01*
X164284225Y-93040039D01*
X164284224Y-93040039D01*
X164279243Y-93037716D01*
X164273935Y-93036294D01*
X164273933Y-93036293D01*
X164063402Y-92979881D01*
X164063400Y-92979881D01*
X164058087Y-92978457D01*
X163830000Y-92958502D01*
X163601913Y-92978457D01*
X163596600Y-92979881D01*
X163596598Y-92979881D01*
X163386067Y-93036293D01*
X163386065Y-93036294D01*
X163380757Y-93037716D01*
X163375776Y-93040039D01*
X163375775Y-93040039D01*
X163178238Y-93132151D01*
X163178233Y-93132154D01*
X163173251Y-93134477D01*
X163092250Y-93191195D01*
X162990211Y-93262643D01*
X162990208Y-93262645D01*
X162985700Y-93265802D01*
X162823802Y-93427700D01*
X162820645Y-93432208D01*
X162820643Y-93432211D01*
X162806648Y-93452198D01*
X162692477Y-93615251D01*
X162690154Y-93620233D01*
X162690151Y-93620238D01*
X162598039Y-93817775D01*
X162595716Y-93822757D01*
X162594294Y-93828065D01*
X162594293Y-93828067D01*
X162539835Y-94031306D01*
X162536457Y-94043913D01*
X162516502Y-94272000D01*
X162536457Y-94500087D01*
X162537881Y-94505400D01*
X162537881Y-94505402D01*
X162587150Y-94689273D01*
X162595716Y-94721243D01*
X162598039Y-94726224D01*
X162598039Y-94726225D01*
X162690151Y-94923762D01*
X162690154Y-94923767D01*
X162692477Y-94928749D01*
X162823802Y-95116300D01*
X162985700Y-95278198D01*
X162990208Y-95281355D01*
X162990211Y-95281357D01*
X162991398Y-95282188D01*
X163173251Y-95409523D01*
X163178233Y-95411846D01*
X163178238Y-95411849D01*
X163375775Y-95503961D01*
X163380757Y-95506284D01*
X163386065Y-95507706D01*
X163386067Y-95507707D01*
X163596598Y-95564119D01*
X163596600Y-95564119D01*
X163601913Y-95565543D01*
X163830000Y-95585498D01*
X164058087Y-95565543D01*
X164063400Y-95564119D01*
X164063402Y-95564119D01*
X164273933Y-95507707D01*
X164273935Y-95507706D01*
X164279243Y-95506284D01*
X164284225Y-95503961D01*
X164481762Y-95411849D01*
X164481767Y-95411846D01*
X164486749Y-95409523D01*
X164668602Y-95282188D01*
X164669789Y-95281357D01*
X164669792Y-95281355D01*
X164674300Y-95278198D01*
X164759405Y-95193093D01*
X164821717Y-95159067D01*
X164892532Y-95164132D01*
X164949368Y-95206679D01*
X164974179Y-95273199D01*
X164974500Y-95282188D01*
X164974500Y-95951406D01*
X164954498Y-96019527D01*
X164937595Y-96040501D01*
X163604500Y-97373595D01*
X163542188Y-97407621D01*
X163515405Y-97410500D01*
X150192763Y-97410500D01*
X150181579Y-97409973D01*
X150174091Y-97408299D01*
X150166168Y-97408548D01*
X150106033Y-97410438D01*
X150102075Y-97410500D01*
X150074144Y-97410500D01*
X150070229Y-97410995D01*
X150070225Y-97410995D01*
X150070167Y-97411003D01*
X150070138Y-97411006D01*
X150058296Y-97411939D01*
X150014110Y-97413327D01*
X149996744Y-97418372D01*
X149994658Y-97418978D01*
X149975306Y-97422986D01*
X149968235Y-97423880D01*
X149955203Y-97425526D01*
X149947834Y-97428443D01*
X149947832Y-97428444D01*
X149914097Y-97441800D01*
X149902869Y-97445645D01*
X149860407Y-97457982D01*
X149853585Y-97462016D01*
X149853579Y-97462019D01*
X149842968Y-97468294D01*
X149825218Y-97476990D01*
X149813756Y-97481528D01*
X149813751Y-97481531D01*
X149806383Y-97484448D01*
X149799968Y-97489109D01*
X149770625Y-97510427D01*
X149760707Y-97516943D01*
X149742019Y-97527995D01*
X149722637Y-97539458D01*
X149708313Y-97553782D01*
X149693281Y-97566621D01*
X149676893Y-97578528D01*
X149648712Y-97612593D01*
X149640722Y-97621373D01*
X143892221Y-103369874D01*
X143829909Y-103403900D01*
X143770514Y-103402485D01*
X143736783Y-103393447D01*
X143736777Y-103393446D01*
X143731463Y-103392022D01*
X143510000Y-103372647D01*
X143288537Y-103392022D01*
X143179219Y-103421314D01*
X143079114Y-103448137D01*
X143079112Y-103448138D01*
X143073804Y-103449560D01*
X143068823Y-103451882D01*
X143068822Y-103451883D01*
X142877311Y-103541186D01*
X142877306Y-103541189D01*
X142872324Y-103543512D01*
X142867817Y-103546668D01*
X142867815Y-103546669D01*
X142694730Y-103667864D01*
X142694727Y-103667866D01*
X142690219Y-103671023D01*
X142533023Y-103828219D01*
X142529866Y-103832727D01*
X142529864Y-103832730D01*
X142408669Y-104005815D01*
X142405512Y-104010324D01*
X142403189Y-104015306D01*
X142403186Y-104015311D01*
X142354195Y-104120373D01*
X142307277Y-104173658D01*
X142239000Y-104193119D01*
X142171040Y-104172577D01*
X142125805Y-104120373D01*
X142076814Y-104015311D01*
X142076811Y-104015306D01*
X142074488Y-104010324D01*
X142071331Y-104005815D01*
X141950136Y-103832730D01*
X141950134Y-103832727D01*
X141946977Y-103828219D01*
X141789781Y-103671023D01*
X141785273Y-103667866D01*
X141785270Y-103667864D01*
X141698263Y-103606941D01*
X141607677Y-103543512D01*
X141602695Y-103541189D01*
X141602690Y-103541186D01*
X141411178Y-103451883D01*
X141411177Y-103451882D01*
X141406196Y-103449560D01*
X141400888Y-103448138D01*
X141400886Y-103448137D01*
X141300781Y-103421314D01*
X141191463Y-103392022D01*
X140970000Y-103372647D01*
X140748537Y-103392022D01*
X140639219Y-103421314D01*
X140539114Y-103448137D01*
X140539112Y-103448138D01*
X140533804Y-103449560D01*
X140528823Y-103451882D01*
X140528822Y-103451883D01*
X140337311Y-103541186D01*
X140337306Y-103541189D01*
X140332324Y-103543512D01*
X140327817Y-103546668D01*
X140327815Y-103546669D01*
X140154730Y-103667864D01*
X140154727Y-103667866D01*
X140150219Y-103671023D01*
X139993023Y-103828219D01*
X139989866Y-103832727D01*
X139989864Y-103832730D01*
X139868669Y-104005815D01*
X139865512Y-104010324D01*
X139863189Y-104015306D01*
X139863186Y-104015311D01*
X139813919Y-104120965D01*
X139767001Y-104174250D01*
X139698724Y-104193711D01*
X139630764Y-104173169D01*
X139585529Y-104120965D01*
X139536377Y-104015559D01*
X139530897Y-104006068D01*
X139500206Y-103962235D01*
X139489729Y-103953860D01*
X139476282Y-103960928D01*
X138802022Y-104635188D01*
X138794408Y-104649132D01*
X138064356Y-104649132D01*
X138065592Y-104646868D01*
X138065461Y-104645035D01*
X138061210Y-104638420D01*
X137382997Y-103960207D01*
X137371223Y-103953777D01*
X137359207Y-103963074D01*
X137329103Y-104006068D01*
X137323623Y-104015559D01*
X137234355Y-104206993D01*
X137230609Y-104217285D01*
X137175941Y-104421309D01*
X137174038Y-104432104D01*
X137155628Y-104642525D01*
X137155628Y-104653475D01*
X110236000Y-104653475D01*
X110236000Y-103588271D01*
X137735860Y-103588271D01*
X137742928Y-103601718D01*
X138417188Y-104275978D01*
X138431132Y-104283592D01*
X138432965Y-104283461D01*
X138439580Y-104279210D01*
X139117793Y-103600997D01*
X139124223Y-103589223D01*
X139114926Y-103577207D01*
X139071931Y-103547102D01*
X139062445Y-103541624D01*
X138871007Y-103452355D01*
X138860715Y-103448609D01*
X138656691Y-103393941D01*
X138645896Y-103392038D01*
X138435475Y-103373628D01*
X138424525Y-103373628D01*
X138214104Y-103392038D01*
X138203309Y-103393941D01*
X137999285Y-103448609D01*
X137988993Y-103452355D01*
X137797559Y-103541623D01*
X137788068Y-103547103D01*
X137744235Y-103577794D01*
X137735860Y-103588271D01*
X110236000Y-103588271D01*
X110236000Y-102361369D01*
X121343001Y-102361369D01*
X121343371Y-102368190D01*
X121348895Y-102419052D01*
X121352521Y-102434304D01*
X121397676Y-102554754D01*
X121406214Y-102570349D01*
X121482715Y-102672424D01*
X121495276Y-102684985D01*
X121597351Y-102761486D01*
X121612946Y-102770024D01*
X121733394Y-102815178D01*
X121748649Y-102818805D01*
X121799514Y-102824331D01*
X121806328Y-102824700D01*
X122663885Y-102824700D01*
X122679124Y-102820225D01*
X122680329Y-102818835D01*
X122682000Y-102811152D01*
X122682000Y-102806584D01*
X123190000Y-102806584D01*
X123194475Y-102821823D01*
X123195865Y-102823028D01*
X123203548Y-102824699D01*
X124065669Y-102824699D01*
X124072490Y-102824329D01*
X124123352Y-102818805D01*
X124138604Y-102815179D01*
X124259054Y-102770024D01*
X124274649Y-102761486D01*
X124376724Y-102684985D01*
X124389285Y-102672424D01*
X124465786Y-102570349D01*
X124474324Y-102554754D01*
X124519478Y-102434306D01*
X124523105Y-102419051D01*
X124528631Y-102368186D01*
X124529000Y-102361372D01*
X124529000Y-101503815D01*
X124524525Y-101488576D01*
X124523135Y-101487371D01*
X124515452Y-101485700D01*
X123208115Y-101485700D01*
X123192876Y-101490175D01*
X123191671Y-101491565D01*
X123190000Y-101499248D01*
X123190000Y-102806584D01*
X122682000Y-102806584D01*
X122682000Y-101503815D01*
X122677525Y-101488576D01*
X122676135Y-101487371D01*
X122668452Y-101485700D01*
X121361116Y-101485700D01*
X121345877Y-101490175D01*
X121344672Y-101491565D01*
X121343001Y-101499248D01*
X121343001Y-102361369D01*
X110236000Y-102361369D01*
X110236000Y-100959585D01*
X121343000Y-100959585D01*
X121347475Y-100974824D01*
X121348865Y-100976029D01*
X121356548Y-100977700D01*
X122663885Y-100977700D01*
X122679124Y-100973225D01*
X122680329Y-100971835D01*
X122682000Y-100964152D01*
X122682000Y-100959585D01*
X123190000Y-100959585D01*
X123194475Y-100974824D01*
X123195865Y-100976029D01*
X123203548Y-100977700D01*
X124510884Y-100977700D01*
X124526123Y-100973225D01*
X124527328Y-100971835D01*
X124528999Y-100964152D01*
X124528999Y-100102031D01*
X124528629Y-100095210D01*
X124523105Y-100044348D01*
X124519479Y-100029096D01*
X124474324Y-99908646D01*
X124465786Y-99893051D01*
X124389285Y-99790976D01*
X124376724Y-99778415D01*
X124274649Y-99701914D01*
X124259054Y-99693376D01*
X124138606Y-99648222D01*
X124123351Y-99644595D01*
X124072486Y-99639069D01*
X124065672Y-99638700D01*
X123208115Y-99638700D01*
X123192876Y-99643175D01*
X123191671Y-99644565D01*
X123190000Y-99652248D01*
X123190000Y-100959585D01*
X122682000Y-100959585D01*
X122682000Y-99656816D01*
X122677525Y-99641577D01*
X122676135Y-99640372D01*
X122668452Y-99638701D01*
X121806331Y-99638701D01*
X121799510Y-99639071D01*
X121748648Y-99644595D01*
X121733396Y-99648221D01*
X121612946Y-99693376D01*
X121597351Y-99701914D01*
X121495276Y-99778415D01*
X121482715Y-99790976D01*
X121406214Y-99893051D01*
X121397676Y-99908646D01*
X121352522Y-100029094D01*
X121348895Y-100044349D01*
X121343369Y-100095214D01*
X121343000Y-100102028D01*
X121343000Y-100959585D01*
X110236000Y-100959585D01*
X110236000Y-97028000D01*
X137154647Y-97028000D01*
X137174022Y-97249463D01*
X137175446Y-97254776D01*
X137226146Y-97443989D01*
X137231560Y-97464196D01*
X137233882Y-97469177D01*
X137233883Y-97469178D01*
X137323186Y-97660689D01*
X137323189Y-97660694D01*
X137325512Y-97665676D01*
X137453023Y-97847781D01*
X137610219Y-98004977D01*
X137614727Y-98008134D01*
X137614730Y-98008136D01*
X137690495Y-98061187D01*
X137792323Y-98132488D01*
X137797305Y-98134811D01*
X137797310Y-98134814D01*
X137988822Y-98224117D01*
X137993804Y-98226440D01*
X137999112Y-98227862D01*
X137999114Y-98227863D01*
X138064949Y-98245503D01*
X138208537Y-98283978D01*
X138430000Y-98303353D01*
X138651463Y-98283978D01*
X138795051Y-98245503D01*
X138860886Y-98227863D01*
X138860888Y-98227862D01*
X138866196Y-98226440D01*
X138871178Y-98224117D01*
X139062690Y-98134814D01*
X139062695Y-98134811D01*
X139067677Y-98132488D01*
X139169505Y-98061187D01*
X139245270Y-98008136D01*
X139245273Y-98008134D01*
X139249781Y-98004977D01*
X139406977Y-97847781D01*
X139534488Y-97665676D01*
X139536811Y-97660694D01*
X139536814Y-97660689D01*
X139585805Y-97555627D01*
X139632723Y-97502342D01*
X139701000Y-97482881D01*
X139768960Y-97503423D01*
X139814195Y-97555627D01*
X139863186Y-97660689D01*
X139863189Y-97660694D01*
X139865512Y-97665676D01*
X139993023Y-97847781D01*
X140150219Y-98004977D01*
X140154727Y-98008134D01*
X140154730Y-98008136D01*
X140230495Y-98061187D01*
X140332323Y-98132488D01*
X140337305Y-98134811D01*
X140337310Y-98134814D01*
X140528822Y-98224117D01*
X140533804Y-98226440D01*
X140539112Y-98227862D01*
X140539114Y-98227863D01*
X140604949Y-98245503D01*
X140748537Y-98283978D01*
X140970000Y-98303353D01*
X141191463Y-98283978D01*
X141335051Y-98245503D01*
X141400886Y-98227863D01*
X141400888Y-98227862D01*
X141406196Y-98226440D01*
X141411178Y-98224117D01*
X141602690Y-98134814D01*
X141602695Y-98134811D01*
X141607677Y-98132488D01*
X141709505Y-98061187D01*
X141785270Y-98008136D01*
X141785273Y-98008134D01*
X141789781Y-98004977D01*
X141946977Y-97847781D01*
X142074488Y-97665676D01*
X142076811Y-97660694D01*
X142076814Y-97660689D01*
X142125805Y-97555627D01*
X142172723Y-97502342D01*
X142241000Y-97482881D01*
X142308960Y-97503423D01*
X142354195Y-97555627D01*
X142403186Y-97660689D01*
X142403189Y-97660694D01*
X142405512Y-97665676D01*
X142533023Y-97847781D01*
X142690219Y-98004977D01*
X142694727Y-98008134D01*
X142694730Y-98008136D01*
X142770495Y-98061187D01*
X142872323Y-98132488D01*
X142877305Y-98134811D01*
X142877310Y-98134814D01*
X143068822Y-98224117D01*
X143073804Y-98226440D01*
X143079112Y-98227862D01*
X143079114Y-98227863D01*
X143144949Y-98245503D01*
X143288537Y-98283978D01*
X143510000Y-98303353D01*
X143731463Y-98283978D01*
X143875051Y-98245503D01*
X143940886Y-98227863D01*
X143940888Y-98227862D01*
X143946196Y-98226440D01*
X143951178Y-98224117D01*
X144142690Y-98134814D01*
X144142695Y-98134811D01*
X144147677Y-98132488D01*
X144249505Y-98061187D01*
X144325270Y-98008136D01*
X144325273Y-98008134D01*
X144329781Y-98004977D01*
X144486977Y-97847781D01*
X144614488Y-97665676D01*
X144616811Y-97660694D01*
X144616814Y-97660689D01*
X144665805Y-97555627D01*
X144712723Y-97502342D01*
X144781000Y-97482881D01*
X144848960Y-97503423D01*
X144894195Y-97555627D01*
X144943186Y-97660689D01*
X144943189Y-97660694D01*
X144945512Y-97665676D01*
X145073023Y-97847781D01*
X145230219Y-98004977D01*
X145234727Y-98008134D01*
X145234730Y-98008136D01*
X145310495Y-98061187D01*
X145412323Y-98132488D01*
X145417305Y-98134811D01*
X145417310Y-98134814D01*
X145608822Y-98224117D01*
X145613804Y-98226440D01*
X145619112Y-98227862D01*
X145619114Y-98227863D01*
X145684949Y-98245503D01*
X145828537Y-98283978D01*
X146050000Y-98303353D01*
X146271463Y-98283978D01*
X146415051Y-98245503D01*
X146480886Y-98227863D01*
X146480888Y-98227862D01*
X146486196Y-98226440D01*
X146491178Y-98224117D01*
X146682690Y-98134814D01*
X146682695Y-98134811D01*
X146687677Y-98132488D01*
X146789505Y-98061187D01*
X146865270Y-98008136D01*
X146865273Y-98008134D01*
X146869781Y-98004977D01*
X147026977Y-97847781D01*
X147154488Y-97665676D01*
X147156811Y-97660694D01*
X147156814Y-97660689D01*
X147246117Y-97469178D01*
X147246118Y-97469177D01*
X147248440Y-97464196D01*
X147253855Y-97443989D01*
X147304554Y-97254776D01*
X147305978Y-97249463D01*
X147325353Y-97028000D01*
X147305978Y-96806537D01*
X147259848Y-96634378D01*
X147249863Y-96597114D01*
X147249862Y-96597112D01*
X147248440Y-96591804D01*
X147230148Y-96552577D01*
X147156814Y-96395311D01*
X147156811Y-96395306D01*
X147154488Y-96390324D01*
X147150567Y-96384724D01*
X147030136Y-96212730D01*
X147030134Y-96212727D01*
X147026977Y-96208219D01*
X146892427Y-96073669D01*
X154550001Y-96073669D01*
X154550371Y-96080490D01*
X154555895Y-96131352D01*
X154559521Y-96146604D01*
X154604676Y-96267054D01*
X154613214Y-96282649D01*
X154689715Y-96384724D01*
X154702276Y-96397285D01*
X154804351Y-96473786D01*
X154819946Y-96482324D01*
X154940394Y-96527478D01*
X154955649Y-96531105D01*
X155006514Y-96536631D01*
X155013328Y-96537000D01*
X155535885Y-96537000D01*
X155551124Y-96532525D01*
X155552329Y-96531135D01*
X155554000Y-96523452D01*
X155554000Y-96518884D01*
X156062000Y-96518884D01*
X156066475Y-96534123D01*
X156067865Y-96535328D01*
X156075548Y-96536999D01*
X156602669Y-96536999D01*
X156609490Y-96536629D01*
X156660352Y-96531105D01*
X156675604Y-96527479D01*
X156796054Y-96482324D01*
X156811649Y-96473786D01*
X156913724Y-96397285D01*
X156926285Y-96384724D01*
X157002786Y-96282649D01*
X157011324Y-96267054D01*
X157056478Y-96146606D01*
X157060105Y-96131351D01*
X157065631Y-96080486D01*
X157066000Y-96073672D01*
X157066000Y-95776115D01*
X157061525Y-95760876D01*
X157060135Y-95759671D01*
X157052452Y-95758000D01*
X156080115Y-95758000D01*
X156064876Y-95762475D01*
X156063671Y-95763865D01*
X156062000Y-95771548D01*
X156062000Y-96518884D01*
X155554000Y-96518884D01*
X155554000Y-95776115D01*
X155549525Y-95760876D01*
X155548135Y-95759671D01*
X155540452Y-95758000D01*
X154568116Y-95758000D01*
X154552877Y-95762475D01*
X154551672Y-95763865D01*
X154550001Y-95771548D01*
X154550001Y-96073669D01*
X146892427Y-96073669D01*
X146869781Y-96051023D01*
X146865273Y-96047866D01*
X146865270Y-96047864D01*
X146737229Y-95958209D01*
X146687677Y-95923512D01*
X146682695Y-95921189D01*
X146682690Y-95921186D01*
X146491178Y-95831883D01*
X146491177Y-95831882D01*
X146486196Y-95829560D01*
X146480888Y-95828138D01*
X146480886Y-95828137D01*
X146415051Y-95810497D01*
X146271463Y-95772022D01*
X146050000Y-95752647D01*
X145828537Y-95772022D01*
X145684949Y-95810497D01*
X145619114Y-95828137D01*
X145619112Y-95828138D01*
X145613804Y-95829560D01*
X145608823Y-95831882D01*
X145608822Y-95831883D01*
X145417311Y-95921186D01*
X145417306Y-95921189D01*
X145412324Y-95923512D01*
X145407817Y-95926668D01*
X145407815Y-95926669D01*
X145234730Y-96047864D01*
X145234727Y-96047866D01*
X145230219Y-96051023D01*
X145073023Y-96208219D01*
X145069866Y-96212727D01*
X145069864Y-96212730D01*
X144949433Y-96384724D01*
X144945512Y-96390324D01*
X144943189Y-96395306D01*
X144943186Y-96395311D01*
X144894195Y-96500373D01*
X144847277Y-96553658D01*
X144779000Y-96573119D01*
X144711040Y-96552577D01*
X144665805Y-96500373D01*
X144616814Y-96395311D01*
X144616811Y-96395306D01*
X144614488Y-96390324D01*
X144610567Y-96384724D01*
X144490136Y-96212730D01*
X144490134Y-96212727D01*
X144486977Y-96208219D01*
X144329781Y-96051023D01*
X144325273Y-96047866D01*
X144325270Y-96047864D01*
X144197229Y-95958209D01*
X144152901Y-95902752D01*
X144143500Y-95854996D01*
X144143500Y-94003196D01*
X144163502Y-93935075D01*
X144180405Y-93914101D01*
X149860997Y-88233509D01*
X149923309Y-88199483D01*
X149994124Y-88204548D01*
X150050960Y-88247095D01*
X150075771Y-88313615D01*
X150075612Y-88333587D01*
X150070981Y-88386515D01*
X150070981Y-88386525D01*
X150070502Y-88392000D01*
X150090457Y-88620087D01*
X150149716Y-88841243D01*
X150152039Y-88846224D01*
X150152039Y-88846225D01*
X150244151Y-89043762D01*
X150244154Y-89043767D01*
X150246477Y-89048749D01*
X150377802Y-89236300D01*
X150539700Y-89398198D01*
X150544208Y-89401355D01*
X150544211Y-89401357D01*
X150615482Y-89451261D01*
X150727251Y-89529523D01*
X150732233Y-89531846D01*
X150732238Y-89531849D01*
X150902825Y-89611394D01*
X150934757Y-89626284D01*
X150940065Y-89627706D01*
X150940067Y-89627707D01*
X151150598Y-89684119D01*
X151150600Y-89684119D01*
X151155913Y-89685543D01*
X151384000Y-89705498D01*
X151612087Y-89685543D01*
X151617400Y-89684119D01*
X151617402Y-89684119D01*
X151827933Y-89627707D01*
X151827935Y-89627706D01*
X151833243Y-89626284D01*
X151865175Y-89611394D01*
X152035762Y-89531849D01*
X152035767Y-89531846D01*
X152040749Y-89529523D01*
X152152518Y-89451261D01*
X152223789Y-89401357D01*
X152223792Y-89401355D01*
X152228300Y-89398198D01*
X152390198Y-89236300D01*
X152521523Y-89048749D01*
X152523846Y-89043767D01*
X152523849Y-89043762D01*
X152615961Y-88846225D01*
X152615961Y-88846224D01*
X152618284Y-88841243D01*
X152677543Y-88620087D01*
X152697498Y-88392000D01*
X152677543Y-88163913D01*
X152618284Y-87942757D01*
X152615961Y-87937775D01*
X152523849Y-87740238D01*
X152523846Y-87740233D01*
X152521523Y-87735251D01*
X152390198Y-87547700D01*
X152228300Y-87385802D01*
X152223792Y-87382645D01*
X152223789Y-87382643D01*
X152145611Y-87327902D01*
X152040749Y-87254477D01*
X152035767Y-87252154D01*
X152035762Y-87252151D01*
X151838225Y-87160039D01*
X151838224Y-87160039D01*
X151833243Y-87157716D01*
X151827935Y-87156294D01*
X151827933Y-87156293D01*
X151617402Y-87099881D01*
X151617400Y-87099881D01*
X151612087Y-87098457D01*
X151384000Y-87078502D01*
X151378525Y-87078981D01*
X151378515Y-87078981D01*
X151325587Y-87083612D01*
X151255982Y-87069624D01*
X151204989Y-87020225D01*
X151188798Y-86951099D01*
X151212550Y-86884194D01*
X151225509Y-86868997D01*
X151776247Y-86318259D01*
X151784537Y-86310715D01*
X151791018Y-86306602D01*
X151837659Y-86256934D01*
X151840413Y-86254093D01*
X151860135Y-86234371D01*
X151862612Y-86231178D01*
X151870317Y-86222157D01*
X151895159Y-86195702D01*
X151900586Y-86189923D01*
X151907828Y-86176750D01*
X151910346Y-86172170D01*
X151921202Y-86155643D01*
X151928757Y-86145904D01*
X151928758Y-86145902D01*
X151933614Y-86139642D01*
X151951174Y-86099062D01*
X151956391Y-86088414D01*
X151973875Y-86056611D01*
X151973876Y-86056609D01*
X151977695Y-86049662D01*
X151982733Y-86030039D01*
X151989137Y-86011336D01*
X151994033Y-86000022D01*
X151994033Y-86000021D01*
X151997181Y-85992747D01*
X151998420Y-85984924D01*
X151998423Y-85984914D01*
X152004099Y-85949078D01*
X152006505Y-85937458D01*
X152015528Y-85902313D01*
X152015528Y-85902312D01*
X152017500Y-85894632D01*
X152017500Y-85874378D01*
X152019051Y-85854667D01*
X152020980Y-85842488D01*
X152022220Y-85834659D01*
X152018059Y-85790640D01*
X152017500Y-85778783D01*
X152017500Y-81991394D01*
X152037502Y-81923273D01*
X152071229Y-81888181D01*
X152223789Y-81781357D01*
X152223792Y-81781355D01*
X152228300Y-81778198D01*
X152390198Y-81616300D01*
X152521523Y-81428749D01*
X152523846Y-81423767D01*
X152523849Y-81423762D01*
X152615961Y-81226225D01*
X152615961Y-81226224D01*
X152618284Y-81221243D01*
X152666970Y-81039548D01*
X152676119Y-81005402D01*
X152676119Y-81005400D01*
X152677543Y-81000087D01*
X152697498Y-80772000D01*
X152677543Y-80543913D01*
X152667244Y-80505478D01*
X152619707Y-80328067D01*
X152619706Y-80328065D01*
X152618284Y-80322757D01*
X152605164Y-80294620D01*
X152523849Y-80120238D01*
X152523846Y-80120233D01*
X152521523Y-80115251D01*
X152390198Y-79927700D01*
X152228300Y-79765802D01*
X152223792Y-79762645D01*
X152223789Y-79762643D01*
X152145611Y-79707902D01*
X152040749Y-79634477D01*
X152035767Y-79632154D01*
X152035762Y-79632151D01*
X151838225Y-79540039D01*
X151838224Y-79540039D01*
X151833243Y-79537716D01*
X151827935Y-79536294D01*
X151827933Y-79536293D01*
X151617402Y-79479881D01*
X151617400Y-79479881D01*
X151612087Y-79478457D01*
X151384000Y-79458502D01*
X151155913Y-79478457D01*
X151150600Y-79479881D01*
X151150598Y-79479881D01*
X150940067Y-79536293D01*
X150940065Y-79536294D01*
X150934757Y-79537716D01*
X150929776Y-79540039D01*
X150929775Y-79540039D01*
X150732238Y-79632151D01*
X150732233Y-79632154D01*
X150727251Y-79634477D01*
X150622389Y-79707902D01*
X150544211Y-79762643D01*
X150544208Y-79762645D01*
X150539700Y-79765802D01*
X150377802Y-79927700D01*
X150246477Y-80115251D01*
X150244154Y-80120233D01*
X150244151Y-80120238D01*
X150162836Y-80294620D01*
X150149716Y-80322757D01*
X150148294Y-80328065D01*
X150148293Y-80328067D01*
X150100756Y-80505478D01*
X150090457Y-80543913D01*
X150070502Y-80772000D01*
X150090457Y-81000087D01*
X150091881Y-81005400D01*
X150091881Y-81005402D01*
X150101031Y-81039548D01*
X150149716Y-81221243D01*
X150152039Y-81226224D01*
X150152039Y-81226225D01*
X150244151Y-81423762D01*
X150244154Y-81423767D01*
X150246477Y-81428749D01*
X150377802Y-81616300D01*
X150539700Y-81778198D01*
X150544208Y-81781355D01*
X150544211Y-81781357D01*
X150696771Y-81888181D01*
X150741099Y-81943638D01*
X150750500Y-81991394D01*
X150750500Y-85500008D01*
X150730498Y-85568129D01*
X150713595Y-85589103D01*
X148065336Y-88237362D01*
X148003024Y-88271388D01*
X147932209Y-88266323D01*
X147875373Y-88223776D01*
X147852155Y-88170144D01*
X147852022Y-88169392D01*
X147851543Y-88163913D01*
X147792284Y-87942757D01*
X147789961Y-87937775D01*
X147697849Y-87740238D01*
X147697846Y-87740233D01*
X147695523Y-87735251D01*
X147564198Y-87547700D01*
X147402300Y-87385802D01*
X147397792Y-87382645D01*
X147397789Y-87382643D01*
X147319611Y-87327902D01*
X147214749Y-87254477D01*
X147209767Y-87252154D01*
X147209762Y-87252151D01*
X147012225Y-87160039D01*
X147012224Y-87160039D01*
X147007243Y-87157716D01*
X147001935Y-87156294D01*
X147001933Y-87156293D01*
X146791402Y-87099881D01*
X146791400Y-87099881D01*
X146786087Y-87098457D01*
X146558000Y-87078502D01*
X146329913Y-87098457D01*
X146324600Y-87099881D01*
X146324598Y-87099881D01*
X146114067Y-87156293D01*
X146114065Y-87156294D01*
X146108757Y-87157716D01*
X146103776Y-87160039D01*
X146103775Y-87160039D01*
X145906238Y-87252151D01*
X145906233Y-87252154D01*
X145901251Y-87254477D01*
X145796389Y-87327902D01*
X145718211Y-87382643D01*
X145718208Y-87382645D01*
X145713700Y-87385802D01*
X145551802Y-87547700D01*
X145420477Y-87735251D01*
X145418154Y-87740233D01*
X145418151Y-87740238D01*
X145326039Y-87937775D01*
X145323716Y-87942757D01*
X145264457Y-88163913D01*
X145244502Y-88392000D01*
X145264457Y-88620087D01*
X145323716Y-88841243D01*
X145326039Y-88846224D01*
X145326039Y-88846225D01*
X145418151Y-89043762D01*
X145418154Y-89043767D01*
X145420477Y-89048749D01*
X145551802Y-89236300D01*
X145713700Y-89398198D01*
X145718208Y-89401355D01*
X145718211Y-89401357D01*
X145789482Y-89451261D01*
X145901251Y-89529523D01*
X145906233Y-89531846D01*
X145906238Y-89531849D01*
X146076825Y-89611394D01*
X146108757Y-89626284D01*
X146114065Y-89627706D01*
X146114067Y-89627707D01*
X146219335Y-89655913D01*
X146329913Y-89685543D01*
X146335391Y-89686022D01*
X146336144Y-89686155D01*
X146399757Y-89717681D01*
X146436227Y-89778595D01*
X146433975Y-89849556D01*
X146403361Y-89899336D01*
X143117747Y-93184950D01*
X143109461Y-93192490D01*
X143102982Y-93196602D01*
X143097557Y-93202379D01*
X143056357Y-93246253D01*
X143053602Y-93249095D01*
X143033865Y-93268832D01*
X143031385Y-93272029D01*
X143023682Y-93281049D01*
X142993414Y-93313281D01*
X142989595Y-93320227D01*
X142989593Y-93320230D01*
X142983652Y-93331036D01*
X142972801Y-93347555D01*
X142960386Y-93363561D01*
X142957241Y-93370830D01*
X142957238Y-93370834D01*
X142942826Y-93404139D01*
X142937609Y-93414789D01*
X142916305Y-93453542D01*
X142914334Y-93461217D01*
X142914334Y-93461218D01*
X142911267Y-93473164D01*
X142904863Y-93491868D01*
X142896819Y-93510457D01*
X142895580Y-93518280D01*
X142895577Y-93518290D01*
X142889901Y-93554126D01*
X142887495Y-93565746D01*
X142876500Y-93608572D01*
X142876500Y-93628826D01*
X142874949Y-93648536D01*
X142871780Y-93668545D01*
X142872526Y-93676437D01*
X142875941Y-93712563D01*
X142876500Y-93724421D01*
X142876500Y-95854996D01*
X142856498Y-95923117D01*
X142822771Y-95958209D01*
X142694730Y-96047864D01*
X142694727Y-96047866D01*
X142690219Y-96051023D01*
X142533023Y-96208219D01*
X142529866Y-96212727D01*
X142529864Y-96212730D01*
X142409433Y-96384724D01*
X142405512Y-96390324D01*
X142403189Y-96395306D01*
X142403186Y-96395311D01*
X142354195Y-96500373D01*
X142307277Y-96553658D01*
X142239000Y-96573119D01*
X142171040Y-96552577D01*
X142125805Y-96500373D01*
X142076814Y-96395311D01*
X142076811Y-96395306D01*
X142074488Y-96390324D01*
X142070567Y-96384724D01*
X141950136Y-96212730D01*
X141950134Y-96212727D01*
X141946977Y-96208219D01*
X141789781Y-96051023D01*
X141785273Y-96047866D01*
X141785270Y-96047864D01*
X141657229Y-95958209D01*
X141612901Y-95902752D01*
X141603500Y-95854996D01*
X141603500Y-94040594D01*
X141623502Y-93972473D01*
X141640405Y-93951499D01*
X143648247Y-91943657D01*
X143656537Y-91936113D01*
X143663018Y-91932000D01*
X143709659Y-91882332D01*
X143712413Y-91879491D01*
X143732134Y-91859770D01*
X143734612Y-91856575D01*
X143742318Y-91847553D01*
X143767158Y-91821101D01*
X143772586Y-91815321D01*
X143782346Y-91797568D01*
X143793199Y-91781045D01*
X143800753Y-91771306D01*
X143805613Y-91765041D01*
X143823176Y-91724457D01*
X143828383Y-91713827D01*
X143849695Y-91675060D01*
X143851666Y-91667383D01*
X143851668Y-91667378D01*
X143854732Y-91655442D01*
X143861138Y-91636730D01*
X143866033Y-91625419D01*
X143869181Y-91618145D01*
X143870421Y-91610317D01*
X143870423Y-91610310D01*
X143876099Y-91574476D01*
X143878505Y-91562856D01*
X143887528Y-91527711D01*
X143887528Y-91527710D01*
X143889500Y-91520030D01*
X143889500Y-91499776D01*
X143891051Y-91480065D01*
X143892980Y-91467886D01*
X143894220Y-91460057D01*
X143890059Y-91416038D01*
X143889500Y-91404181D01*
X143889500Y-83118594D01*
X143909502Y-83050473D01*
X143926405Y-83029499D01*
X145358232Y-81597673D01*
X145420544Y-81563647D01*
X145491360Y-81568712D01*
X145543418Y-81608995D01*
X145545108Y-81607576D01*
X145548643Y-81611789D01*
X145551802Y-81616300D01*
X145713700Y-81778198D01*
X145718208Y-81781355D01*
X145718211Y-81781357D01*
X145749282Y-81803113D01*
X145901251Y-81909523D01*
X145906233Y-81911846D01*
X145906238Y-81911849D01*
X145985807Y-81948952D01*
X146108757Y-82006284D01*
X146114065Y-82007706D01*
X146114067Y-82007707D01*
X146324598Y-82064119D01*
X146324600Y-82064119D01*
X146329913Y-82065543D01*
X146558000Y-82085498D01*
X146786087Y-82065543D01*
X146791400Y-82064119D01*
X146791402Y-82064119D01*
X147001933Y-82007707D01*
X147001935Y-82007706D01*
X147007243Y-82006284D01*
X147130193Y-81948952D01*
X147209762Y-81911849D01*
X147209767Y-81911846D01*
X147214749Y-81909523D01*
X147366718Y-81803113D01*
X147397789Y-81781357D01*
X147397792Y-81781355D01*
X147402300Y-81778198D01*
X147564198Y-81616300D01*
X147695523Y-81428749D01*
X147697846Y-81423767D01*
X147697849Y-81423762D01*
X147789961Y-81226225D01*
X147789961Y-81226224D01*
X147792284Y-81221243D01*
X147840970Y-81039548D01*
X147850119Y-81005402D01*
X147850119Y-81005400D01*
X147851543Y-81000087D01*
X147871498Y-80772000D01*
X147851543Y-80543913D01*
X147841244Y-80505478D01*
X147793707Y-80328067D01*
X147793706Y-80328065D01*
X147792284Y-80322757D01*
X147779164Y-80294620D01*
X147697849Y-80120238D01*
X147697846Y-80120233D01*
X147695523Y-80115251D01*
X147564198Y-79927700D01*
X147402300Y-79765802D01*
X147397792Y-79762645D01*
X147397789Y-79762643D01*
X147319611Y-79707902D01*
X147214749Y-79634477D01*
X147209767Y-79632154D01*
X147209762Y-79632151D01*
X147012225Y-79540039D01*
X147012224Y-79540039D01*
X147007243Y-79537716D01*
X147001935Y-79536294D01*
X147001933Y-79536293D01*
X146791402Y-79479881D01*
X146791400Y-79479881D01*
X146786087Y-79478457D01*
X146558000Y-79458502D01*
X146329913Y-79478457D01*
X146324600Y-79479881D01*
X146324598Y-79479881D01*
X146114067Y-79536293D01*
X146114065Y-79536294D01*
X146108757Y-79537716D01*
X146103776Y-79540039D01*
X146103775Y-79540039D01*
X145906238Y-79632151D01*
X145906233Y-79632154D01*
X145901251Y-79634477D01*
X145796389Y-79707902D01*
X145718211Y-79762643D01*
X145718208Y-79762645D01*
X145713700Y-79765802D01*
X145551802Y-79927700D01*
X145548645Y-79932208D01*
X145548643Y-79932211D01*
X145443227Y-80082760D01*
X145387770Y-80127088D01*
X145343973Y-80136427D01*
X145285587Y-80138262D01*
X145279999Y-80138438D01*
X145276043Y-80138500D01*
X145248144Y-80138500D01*
X145244154Y-80139004D01*
X145232320Y-80139936D01*
X145188111Y-80141326D01*
X145180497Y-80143538D01*
X145180492Y-80143539D01*
X145168659Y-80146977D01*
X145149296Y-80150988D01*
X145129203Y-80153526D01*
X145121836Y-80156443D01*
X145121831Y-80156444D01*
X145088092Y-80169802D01*
X145076865Y-80173646D01*
X145034407Y-80185982D01*
X145027581Y-80190019D01*
X145016972Y-80196293D01*
X144999224Y-80204988D01*
X144980383Y-80212448D01*
X144973967Y-80217110D01*
X144973966Y-80217110D01*
X144944613Y-80238436D01*
X144934693Y-80244952D01*
X144903465Y-80263420D01*
X144903462Y-80263422D01*
X144896638Y-80267458D01*
X144882317Y-80281779D01*
X144867284Y-80294619D01*
X144850893Y-80306528D01*
X144832932Y-80328239D01*
X144822702Y-80340605D01*
X144814712Y-80349384D01*
X142863747Y-82300348D01*
X142855461Y-82307888D01*
X142848982Y-82312000D01*
X142843557Y-82317777D01*
X142802357Y-82361651D01*
X142799602Y-82364493D01*
X142779865Y-82384230D01*
X142777385Y-82387427D01*
X142769682Y-82396447D01*
X142739414Y-82428679D01*
X142735595Y-82435625D01*
X142735593Y-82435628D01*
X142729652Y-82446434D01*
X142718801Y-82462953D01*
X142706386Y-82478959D01*
X142703241Y-82486228D01*
X142703238Y-82486232D01*
X142688826Y-82519537D01*
X142683609Y-82530187D01*
X142662305Y-82568940D01*
X142660334Y-82576615D01*
X142660334Y-82576616D01*
X142657267Y-82588562D01*
X142650863Y-82607266D01*
X142642819Y-82625855D01*
X142641580Y-82633678D01*
X142641577Y-82633688D01*
X142635901Y-82669524D01*
X142633495Y-82681144D01*
X142622500Y-82723970D01*
X142622500Y-82744224D01*
X142620949Y-82763934D01*
X142617780Y-82783943D01*
X142618526Y-82791835D01*
X142621941Y-82827961D01*
X142622500Y-82839819D01*
X142622500Y-91125405D01*
X142602498Y-91193526D01*
X142585595Y-91214500D01*
X140577747Y-93222348D01*
X140569461Y-93229888D01*
X140562982Y-93234000D01*
X140557557Y-93239777D01*
X140516357Y-93283651D01*
X140513602Y-93286493D01*
X140493865Y-93306230D01*
X140491385Y-93309427D01*
X140483682Y-93318447D01*
X140453414Y-93350679D01*
X140449595Y-93357625D01*
X140449593Y-93357628D01*
X140443652Y-93368434D01*
X140432801Y-93384953D01*
X140420386Y-93400959D01*
X140417241Y-93408228D01*
X140417238Y-93408232D01*
X140402826Y-93441537D01*
X140397609Y-93452187D01*
X140376305Y-93490940D01*
X140374334Y-93498615D01*
X140374334Y-93498616D01*
X140371267Y-93510562D01*
X140364863Y-93529266D01*
X140356819Y-93547855D01*
X140355580Y-93555678D01*
X140355577Y-93555688D01*
X140349901Y-93591524D01*
X140347495Y-93603144D01*
X140338472Y-93638289D01*
X140336500Y-93645970D01*
X140336500Y-93666224D01*
X140334949Y-93685934D01*
X140331780Y-93705943D01*
X140332526Y-93713835D01*
X140335941Y-93749961D01*
X140336500Y-93761819D01*
X140336500Y-95854996D01*
X140316498Y-95923117D01*
X140282771Y-95958209D01*
X140154730Y-96047864D01*
X140154727Y-96047866D01*
X140150219Y-96051023D01*
X139993023Y-96208219D01*
X139989866Y-96212727D01*
X139989864Y-96212730D01*
X139869433Y-96384724D01*
X139865512Y-96390324D01*
X139863189Y-96395306D01*
X139863186Y-96395311D01*
X139814195Y-96500373D01*
X139767277Y-96553658D01*
X139699000Y-96573119D01*
X139631040Y-96552577D01*
X139585805Y-96500373D01*
X139536814Y-96395311D01*
X139536811Y-96395306D01*
X139534488Y-96390324D01*
X139530567Y-96384724D01*
X139410136Y-96212730D01*
X139410134Y-96212727D01*
X139406977Y-96208219D01*
X139249781Y-96051023D01*
X139245273Y-96047866D01*
X139245270Y-96047864D01*
X139117229Y-95958209D01*
X139067677Y-95923512D01*
X139062695Y-95921189D01*
X139062690Y-95921186D01*
X138871178Y-95831883D01*
X138871177Y-95831882D01*
X138866196Y-95829560D01*
X138860888Y-95828138D01*
X138860886Y-95828137D01*
X138795051Y-95810497D01*
X138651463Y-95772022D01*
X138430000Y-95752647D01*
X138208537Y-95772022D01*
X138064949Y-95810497D01*
X137999114Y-95828137D01*
X137999112Y-95828138D01*
X137993804Y-95829560D01*
X137988823Y-95831882D01*
X137988822Y-95831883D01*
X137797311Y-95921186D01*
X137797306Y-95921189D01*
X137792324Y-95923512D01*
X137787817Y-95926668D01*
X137787815Y-95926669D01*
X137614730Y-96047864D01*
X137614727Y-96047866D01*
X137610219Y-96051023D01*
X137453023Y-96208219D01*
X137449866Y-96212727D01*
X137449864Y-96212730D01*
X137329433Y-96384724D01*
X137325512Y-96390324D01*
X137323189Y-96395306D01*
X137323186Y-96395311D01*
X137249852Y-96552577D01*
X137231560Y-96591804D01*
X137230138Y-96597112D01*
X137230137Y-96597114D01*
X137220152Y-96634378D01*
X137174022Y-96806537D01*
X137154647Y-97028000D01*
X110236000Y-97028000D01*
X110236000Y-85602244D01*
X138236938Y-85602244D01*
X138250744Y-85841680D01*
X138251879Y-85846717D01*
X138251880Y-85846723D01*
X138288977Y-86011336D01*
X138303470Y-86075646D01*
X138326504Y-86132372D01*
X138376505Y-86255507D01*
X138393702Y-86297859D01*
X138519014Y-86502351D01*
X138550671Y-86538896D01*
X138580152Y-86603481D01*
X138570037Y-86673753D01*
X138523535Y-86727401D01*
X138515942Y-86731911D01*
X138511697Y-86734235D01*
X138503295Y-86737385D01*
X138386739Y-86824739D01*
X138299385Y-86941295D01*
X138248255Y-87077684D01*
X138241500Y-87139866D01*
X138241500Y-89136134D01*
X138248255Y-89198316D01*
X138299385Y-89334705D01*
X138386739Y-89451261D01*
X138503295Y-89538615D01*
X138639684Y-89589745D01*
X138701866Y-89596500D01*
X140698134Y-89596500D01*
X140760316Y-89589745D01*
X140896705Y-89538615D01*
X141013261Y-89451261D01*
X141100615Y-89334705D01*
X141151745Y-89198316D01*
X141158500Y-89136134D01*
X141158500Y-87139866D01*
X141151745Y-87077684D01*
X141100615Y-86941295D01*
X141013261Y-86824739D01*
X140896705Y-86737385D01*
X140888303Y-86734235D01*
X140884089Y-86731928D01*
X140833943Y-86681670D01*
X140818930Y-86612279D01*
X140842276Y-86547883D01*
X140951445Y-86395958D01*
X140954463Y-86391758D01*
X141003240Y-86293067D01*
X141058433Y-86181392D01*
X141058434Y-86181390D01*
X141060727Y-86176750D01*
X141130447Y-85947274D01*
X141161752Y-85709492D01*
X141163499Y-85638000D01*
X141152154Y-85500008D01*
X141144271Y-85404124D01*
X141144270Y-85404118D01*
X141143847Y-85398973D01*
X141085420Y-85166364D01*
X141083364Y-85161634D01*
X141083361Y-85161627D01*
X140991847Y-84951159D01*
X140991845Y-84951156D01*
X140989787Y-84946422D01*
X140972574Y-84919814D01*
X140862325Y-84749396D01*
X140862323Y-84749393D01*
X140859515Y-84745053D01*
X140830580Y-84713253D01*
X140701582Y-84571487D01*
X140701580Y-84571486D01*
X140698104Y-84567665D01*
X140694053Y-84564466D01*
X140694049Y-84564462D01*
X140596946Y-84487775D01*
X140555883Y-84429858D01*
X140552651Y-84358935D01*
X140588276Y-84297523D01*
X140601869Y-84286314D01*
X140640424Y-84258813D01*
X140644627Y-84255815D01*
X140814511Y-84086523D01*
X140954463Y-83891758D01*
X141003240Y-83793067D01*
X141058433Y-83681392D01*
X141058434Y-83681390D01*
X141060727Y-83676750D01*
X141130447Y-83447274D01*
X141161752Y-83209492D01*
X141163499Y-83138000D01*
X141156303Y-83050473D01*
X141144271Y-82904124D01*
X141144270Y-82904118D01*
X141143847Y-82898973D01*
X141097960Y-82716289D01*
X141086679Y-82671375D01*
X141086678Y-82671371D01*
X141085420Y-82666364D01*
X141083364Y-82661634D01*
X141083361Y-82661627D01*
X140991847Y-82451159D01*
X140991845Y-82451156D01*
X140989787Y-82446422D01*
X140978309Y-82428679D01*
X140862325Y-82249396D01*
X140862323Y-82249393D01*
X140859515Y-82245053D01*
X140830580Y-82213253D01*
X140701582Y-82071487D01*
X140701580Y-82071486D01*
X140698104Y-82067665D01*
X140694053Y-82064466D01*
X140694049Y-82064462D01*
X140542211Y-81944548D01*
X140509888Y-81919021D01*
X140299922Y-81803113D01*
X140177458Y-81759746D01*
X140078720Y-81724781D01*
X140078716Y-81724780D01*
X140073845Y-81723055D01*
X140068752Y-81722148D01*
X140068749Y-81722147D01*
X139842816Y-81681902D01*
X139842810Y-81681901D01*
X139837727Y-81680996D01*
X139750460Y-81679930D01*
X139603081Y-81678129D01*
X139603079Y-81678129D01*
X139597911Y-81678066D01*
X139360837Y-81714343D01*
X139132871Y-81788854D01*
X138920136Y-81899597D01*
X138916003Y-81902700D01*
X138916000Y-81902702D01*
X138776147Y-82007707D01*
X138728345Y-82043598D01*
X138658752Y-82116423D01*
X138598770Y-82179191D01*
X138562648Y-82216990D01*
X138427495Y-82415117D01*
X138326516Y-82632656D01*
X138281931Y-82793426D01*
X138266127Y-82850417D01*
X138262424Y-82863768D01*
X138236938Y-83102244D01*
X138237235Y-83107396D01*
X138237235Y-83107400D01*
X138238806Y-83134646D01*
X138250744Y-83341680D01*
X138303470Y-83575646D01*
X138393702Y-83797859D01*
X138519014Y-84002351D01*
X138676043Y-84183630D01*
X138799727Y-84286314D01*
X138805807Y-84291362D01*
X138845442Y-84350264D01*
X138846940Y-84421245D01*
X138809825Y-84481768D01*
X138800978Y-84489063D01*
X138728345Y-84543598D01*
X138562648Y-84716990D01*
X138427495Y-84915117D01*
X138326516Y-85132656D01*
X138262424Y-85363768D01*
X138236938Y-85602244D01*
X110236000Y-85602244D01*
X110236000Y-81185539D01*
X121173173Y-81185539D01*
X121173397Y-81190205D01*
X121173397Y-81190211D01*
X121174633Y-81215933D01*
X121185713Y-81446608D01*
X121236704Y-81702956D01*
X121325026Y-81948952D01*
X121327242Y-81953076D01*
X121391753Y-82073137D01*
X121448737Y-82179191D01*
X121451532Y-82182934D01*
X121451534Y-82182937D01*
X121602330Y-82384877D01*
X121602335Y-82384883D01*
X121605122Y-82388615D01*
X121608431Y-82391895D01*
X121608436Y-82391901D01*
X121742691Y-82524989D01*
X121790743Y-82572623D01*
X121794505Y-82575381D01*
X121794508Y-82575384D01*
X121997154Y-82723970D01*
X122001524Y-82727174D01*
X122005667Y-82729354D01*
X122005669Y-82729355D01*
X122228684Y-82846689D01*
X122228689Y-82846691D01*
X122232834Y-82848872D01*
X122479590Y-82935044D01*
X122484183Y-82935916D01*
X122731785Y-82982924D01*
X122731788Y-82982924D01*
X122736374Y-82983795D01*
X122866959Y-82988926D01*
X122992875Y-82993874D01*
X122992881Y-82993874D01*
X122997543Y-82994057D01*
X123076977Y-82985357D01*
X123252707Y-82966112D01*
X123252712Y-82966111D01*
X123257360Y-82965602D01*
X123370116Y-82935916D01*
X123505594Y-82900248D01*
X123505596Y-82900247D01*
X123510117Y-82899057D01*
X123750262Y-82795882D01*
X123817714Y-82754142D01*
X123968547Y-82660804D01*
X123968548Y-82660804D01*
X123972519Y-82658346D01*
X123976082Y-82655329D01*
X123976087Y-82655326D01*
X124168439Y-82492487D01*
X124168440Y-82492486D01*
X124172005Y-82489468D01*
X124213560Y-82442084D01*
X124341257Y-82296474D01*
X124341261Y-82296469D01*
X124344339Y-82292959D01*
X124485733Y-82073137D01*
X124593083Y-81834829D01*
X124627064Y-81714343D01*
X124662760Y-81587776D01*
X124662761Y-81587773D01*
X124664030Y-81583272D01*
X124680832Y-81451196D01*
X124696616Y-81327121D01*
X124696616Y-81327117D01*
X124697014Y-81323991D01*
X124699431Y-81231700D01*
X124685445Y-81043497D01*
X124680407Y-80975700D01*
X124680406Y-80975696D01*
X124680061Y-80971048D01*
X124668725Y-80920948D01*
X124623408Y-80720680D01*
X124622377Y-80716123D01*
X124544682Y-80516329D01*
X124529340Y-80476876D01*
X124529339Y-80476873D01*
X124527647Y-80472523D01*
X124397951Y-80245602D01*
X124236138Y-80040343D01*
X124045763Y-79861257D01*
X123831009Y-79712276D01*
X123826816Y-79710208D01*
X123600781Y-79598740D01*
X123600778Y-79598739D01*
X123596593Y-79596675D01*
X123550449Y-79581904D01*
X123352123Y-79518420D01*
X123347665Y-79516993D01*
X123089693Y-79474979D01*
X122975942Y-79473490D01*
X122833022Y-79471619D01*
X122833019Y-79471619D01*
X122828345Y-79471558D01*
X122569362Y-79506804D01*
X122318433Y-79579943D01*
X122314180Y-79581903D01*
X122314179Y-79581904D01*
X122277659Y-79598740D01*
X122081072Y-79689368D01*
X122042067Y-79714941D01*
X121866404Y-79830110D01*
X121866399Y-79830114D01*
X121862491Y-79832676D01*
X121667494Y-80006718D01*
X121500363Y-80207670D01*
X121497934Y-80211673D01*
X121430527Y-80322757D01*
X121364771Y-80431119D01*
X121263697Y-80672155D01*
X121199359Y-80925483D01*
X121173173Y-81185539D01*
X110236000Y-81185539D01*
X110236000Y-76072000D01*
X110256002Y-76003879D01*
X110309658Y-75957386D01*
X110362000Y-75946000D01*
X152865500Y-75946000D01*
X152933621Y-75966002D01*
G37*
%TD.AperFunction*%
%TD*%
M02*
