%TF.GenerationSoftware,KiCad,Pcbnew,(6.0.7)*%
%TF.CreationDate,2022-08-26T10:14:31-04:00*%
%TF.ProjectId,Proj_0,50726f6a-5f30-42e6-9b69-6361645f7063,rev?*%
%TF.SameCoordinates,Original*%
%TF.FileFunction,Legend,Bot*%
%TF.FilePolarity,Positive*%
%FSLAX46Y46*%
G04 Gerber Fmt 4.6, Leading zero omitted, Abs format (unit mm)*
G04 Created by KiCad (PCBNEW (6.0.7)) date 2022-08-26 10:14:31*
%MOMM*%
%LPD*%
G01*
G04 APERTURE LIST*
%ADD10C,0.150000*%
G04 APERTURE END LIST*
D10*
X121720952Y-68962380D02*
X121149523Y-68962380D01*
X121435238Y-69962380D02*
X121435238Y-68962380D01*
X120816190Y-68962380D02*
X120816190Y-69771904D01*
X120768571Y-69867142D01*
X120720952Y-69914761D01*
X120625714Y-69962380D01*
X120435238Y-69962380D01*
X120340000Y-69914761D01*
X120292380Y-69867142D01*
X120244761Y-69771904D01*
X120244761Y-68962380D01*
X119006666Y-69438571D02*
X118673333Y-69438571D01*
X118530476Y-69962380D02*
X119006666Y-69962380D01*
X119006666Y-68962380D01*
X118530476Y-68962380D01*
X117530476Y-69867142D02*
X117578095Y-69914761D01*
X117720952Y-69962380D01*
X117816190Y-69962380D01*
X117959047Y-69914761D01*
X118054285Y-69819523D01*
X118101904Y-69724285D01*
X118149523Y-69533809D01*
X118149523Y-69390952D01*
X118101904Y-69200476D01*
X118054285Y-69105238D01*
X117959047Y-69010000D01*
X117816190Y-68962380D01*
X117720952Y-68962380D01*
X117578095Y-69010000D01*
X117530476Y-69057619D01*
X117101904Y-69438571D02*
X116768571Y-69438571D01*
X116625714Y-69962380D02*
X117101904Y-69962380D01*
X117101904Y-68962380D01*
X116625714Y-68962380D01*
X115006666Y-69295714D02*
X115006666Y-69962380D01*
X115244761Y-68914761D02*
X115482857Y-69629047D01*
X114863809Y-69629047D01*
X113959047Y-69962380D02*
X114530476Y-69962380D01*
X114244761Y-69962380D02*
X114244761Y-68962380D01*
X114340000Y-69105238D01*
X114435238Y-69200476D01*
X114530476Y-69248095D01*
X113006666Y-69962380D02*
X113578095Y-69962380D01*
X113292380Y-69962380D02*
X113292380Y-68962380D01*
X113387619Y-69105238D01*
X113482857Y-69200476D01*
X113578095Y-69248095D01*
X112387619Y-68962380D02*
X112292380Y-68962380D01*
X112197142Y-69010000D01*
X112149523Y-69057619D01*
X112101904Y-69152857D01*
X112054285Y-69343333D01*
X112054285Y-69581428D01*
X112101904Y-69771904D01*
X112149523Y-69867142D01*
X112197142Y-69914761D01*
X112292380Y-69962380D01*
X112387619Y-69962380D01*
X112482857Y-69914761D01*
X112530476Y-69867142D01*
X112578095Y-69771904D01*
X112625714Y-69581428D01*
X112625714Y-69343333D01*
X112578095Y-69152857D01*
X112530476Y-69057619D01*
X112482857Y-69010000D01*
X112387619Y-68962380D01*
X120101904Y-71572380D02*
X120101904Y-70572380D01*
X119720952Y-70572380D01*
X119625714Y-70620000D01*
X119578095Y-70667619D01*
X119530476Y-70762857D01*
X119530476Y-70905714D01*
X119578095Y-71000952D01*
X119625714Y-71048571D01*
X119720952Y-71096190D01*
X120101904Y-71096190D01*
X119101904Y-71572380D02*
X119101904Y-70905714D01*
X119101904Y-71096190D02*
X119054285Y-71000952D01*
X119006666Y-70953333D01*
X118911428Y-70905714D01*
X118816190Y-70905714D01*
X118340000Y-71572380D02*
X118435238Y-71524761D01*
X118482857Y-71477142D01*
X118530476Y-71381904D01*
X118530476Y-71096190D01*
X118482857Y-71000952D01*
X118435238Y-70953333D01*
X118340000Y-70905714D01*
X118197142Y-70905714D01*
X118101904Y-70953333D01*
X118054285Y-71000952D01*
X118006666Y-71096190D01*
X118006666Y-71381904D01*
X118054285Y-71477142D01*
X118101904Y-71524761D01*
X118197142Y-71572380D01*
X118340000Y-71572380D01*
X117578095Y-70905714D02*
X117578095Y-71762857D01*
X117625714Y-71858095D01*
X117720952Y-71905714D01*
X117768571Y-71905714D01*
X117578095Y-70572380D02*
X117625714Y-70620000D01*
X117578095Y-70667619D01*
X117530476Y-70620000D01*
X117578095Y-70572380D01*
X117578095Y-70667619D01*
X116720952Y-71524761D02*
X116816190Y-71572380D01*
X117006666Y-71572380D01*
X117101904Y-71524761D01*
X117149523Y-71429523D01*
X117149523Y-71048571D01*
X117101904Y-70953333D01*
X117006666Y-70905714D01*
X116816190Y-70905714D01*
X116720952Y-70953333D01*
X116673333Y-71048571D01*
X116673333Y-71143809D01*
X117149523Y-71239047D01*
X115816190Y-71524761D02*
X115911428Y-71572380D01*
X116101904Y-71572380D01*
X116197142Y-71524761D01*
X116244761Y-71477142D01*
X116292380Y-71381904D01*
X116292380Y-71096190D01*
X116244761Y-71000952D01*
X116197142Y-70953333D01*
X116101904Y-70905714D01*
X115911428Y-70905714D01*
X115816190Y-70953333D01*
X115530476Y-70905714D02*
X115149523Y-70905714D01*
X115387619Y-70572380D02*
X115387619Y-71429523D01*
X115340000Y-71524761D01*
X115244761Y-71572380D01*
X115149523Y-71572380D01*
X113863809Y-70572380D02*
X113768571Y-70572380D01*
X113673333Y-70620000D01*
X113625714Y-70667619D01*
X113578095Y-70762857D01*
X113530476Y-70953333D01*
X113530476Y-71191428D01*
X113578095Y-71381904D01*
X113625714Y-71477142D01*
X113673333Y-71524761D01*
X113768571Y-71572380D01*
X113863809Y-71572380D01*
X113959047Y-71524761D01*
X114006666Y-71477142D01*
X114054285Y-71381904D01*
X114101904Y-71191428D01*
X114101904Y-70953333D01*
X114054285Y-70762857D01*
X114006666Y-70667619D01*
X113959047Y-70620000D01*
X113863809Y-70572380D01*
X120316190Y-73182380D02*
X120649523Y-72706190D01*
X120887619Y-73182380D02*
X120887619Y-72182380D01*
X120506666Y-72182380D01*
X120411428Y-72230000D01*
X120363809Y-72277619D01*
X120316190Y-72372857D01*
X120316190Y-72515714D01*
X120363809Y-72610952D01*
X120411428Y-72658571D01*
X120506666Y-72706190D01*
X120887619Y-72706190D01*
X119744761Y-73182380D02*
X119840000Y-73134761D01*
X119887619Y-73087142D01*
X119935238Y-72991904D01*
X119935238Y-72706190D01*
X119887619Y-72610952D01*
X119840000Y-72563333D01*
X119744761Y-72515714D01*
X119601904Y-72515714D01*
X119506666Y-72563333D01*
X119459047Y-72610952D01*
X119411428Y-72706190D01*
X119411428Y-72991904D01*
X119459047Y-73087142D01*
X119506666Y-73134761D01*
X119601904Y-73182380D01*
X119744761Y-73182380D01*
X118982857Y-73182380D02*
X118982857Y-72182380D01*
X118982857Y-72563333D02*
X118887619Y-72515714D01*
X118697142Y-72515714D01*
X118601904Y-72563333D01*
X118554285Y-72610952D01*
X118506666Y-72706190D01*
X118506666Y-72991904D01*
X118554285Y-73087142D01*
X118601904Y-73134761D01*
X118697142Y-73182380D01*
X118887619Y-73182380D01*
X118982857Y-73134761D01*
X116840000Y-73182380D02*
X117316190Y-73182380D01*
X117316190Y-72182380D01*
X115411428Y-72658571D02*
X115268571Y-72706190D01*
X115220952Y-72753809D01*
X115173333Y-72849047D01*
X115173333Y-72991904D01*
X115220952Y-73087142D01*
X115268571Y-73134761D01*
X115363809Y-73182380D01*
X115744761Y-73182380D01*
X115744761Y-72182380D01*
X115411428Y-72182380D01*
X115316190Y-72230000D01*
X115268571Y-72277619D01*
X115220952Y-72372857D01*
X115220952Y-72468095D01*
X115268571Y-72563333D01*
X115316190Y-72610952D01*
X115411428Y-72658571D01*
X115744761Y-72658571D01*
X114316190Y-73182380D02*
X114316190Y-72658571D01*
X114363809Y-72563333D01*
X114459047Y-72515714D01*
X114649523Y-72515714D01*
X114744761Y-72563333D01*
X114316190Y-73134761D02*
X114411428Y-73182380D01*
X114649523Y-73182380D01*
X114744761Y-73134761D01*
X114792380Y-73039523D01*
X114792380Y-72944285D01*
X114744761Y-72849047D01*
X114649523Y-72801428D01*
X114411428Y-72801428D01*
X114316190Y-72753809D01*
X113840000Y-73182380D02*
X113840000Y-72515714D01*
X113840000Y-72706190D02*
X113792380Y-72610952D01*
X113744761Y-72563333D01*
X113649523Y-72515714D01*
X113554285Y-72515714D01*
X112792380Y-73182380D02*
X112792380Y-72658571D01*
X112840000Y-72563333D01*
X112935238Y-72515714D01*
X113125714Y-72515714D01*
X113220952Y-72563333D01*
X112792380Y-73134761D02*
X112887619Y-73182380D01*
X113125714Y-73182380D01*
X113220952Y-73134761D01*
X113268571Y-73039523D01*
X113268571Y-72944285D01*
X113220952Y-72849047D01*
X113125714Y-72801428D01*
X112887619Y-72801428D01*
X112792380Y-72753809D01*
M02*
