%TF.GenerationSoftware,KiCad,Pcbnew,(6.0.7)*%
%TF.CreationDate,2022-08-26T10:14:31-04:00*%
%TF.ProjectId,Proj_0,50726f6a-5f30-42e6-9b69-6361645f7063,rev?*%
%TF.SameCoordinates,Original*%
%TF.FileFunction,Legend,Top*%
%TF.FilePolarity,Positive*%
%FSLAX46Y46*%
G04 Gerber Fmt 4.6, Leading zero omitted, Abs format (unit mm)*
G04 Created by KiCad (PCBNEW (6.0.7)) date 2022-08-26 10:14:31*
%MOMM*%
%LPD*%
G01*
G04 APERTURE LIST*
%ADD10C,0.150000*%
%ADD11C,0.120000*%
G04 APERTURE END LIST*
D10*
%TO.C,R1*%
X115313333Y-68902380D02*
X114980000Y-68426190D01*
X114741904Y-68902380D02*
X114741904Y-67902380D01*
X115122857Y-67902380D01*
X115218095Y-67950000D01*
X115265714Y-67997619D01*
X115313333Y-68092857D01*
X115313333Y-68235714D01*
X115265714Y-68330952D01*
X115218095Y-68378571D01*
X115122857Y-68426190D01*
X114741904Y-68426190D01*
X116265714Y-68902380D02*
X115694285Y-68902380D01*
X115980000Y-68902380D02*
X115980000Y-67902380D01*
X115884761Y-68045238D01*
X115789523Y-68140476D01*
X115694285Y-68188095D01*
%TO.C,BT1*%
X108434285Y-73798571D02*
X108577142Y-73846190D01*
X108624761Y-73893809D01*
X108672380Y-73989047D01*
X108672380Y-74131904D01*
X108624761Y-74227142D01*
X108577142Y-74274761D01*
X108481904Y-74322380D01*
X108100952Y-74322380D01*
X108100952Y-73322380D01*
X108434285Y-73322380D01*
X108529523Y-73370000D01*
X108577142Y-73417619D01*
X108624761Y-73512857D01*
X108624761Y-73608095D01*
X108577142Y-73703333D01*
X108529523Y-73750952D01*
X108434285Y-73798571D01*
X108100952Y-73798571D01*
X108958095Y-73322380D02*
X109529523Y-73322380D01*
X109243809Y-74322380D02*
X109243809Y-73322380D01*
X110386666Y-74322380D02*
X109815238Y-74322380D01*
X110100952Y-74322380D02*
X110100952Y-73322380D01*
X110005714Y-73465238D01*
X109910476Y-73560476D01*
X109815238Y-73608095D01*
%TO.C,D1*%
X119911904Y-75232380D02*
X119911904Y-74232380D01*
X120150000Y-74232380D01*
X120292857Y-74280000D01*
X120388095Y-74375238D01*
X120435714Y-74470476D01*
X120483333Y-74660952D01*
X120483333Y-74803809D01*
X120435714Y-74994285D01*
X120388095Y-75089523D01*
X120292857Y-75184761D01*
X120150000Y-75232380D01*
X119911904Y-75232380D01*
X121435714Y-75232380D02*
X120864285Y-75232380D01*
X121150000Y-75232380D02*
X121150000Y-74232380D01*
X121054761Y-74375238D01*
X120959523Y-74470476D01*
X120864285Y-74518095D01*
D11*
%TO.C,R1*%
X112210000Y-69450000D02*
X112210000Y-72190000D01*
X118750000Y-69450000D02*
X112210000Y-69450000D01*
X122060000Y-70820000D02*
X118750000Y-70820000D01*
X112210000Y-72190000D02*
X118750000Y-72190000D01*
X108900000Y-70820000D02*
X112210000Y-70820000D01*
X118750000Y-72190000D02*
X118750000Y-69450000D01*
%TO.C,BT1*%
X107890000Y-76200000D02*
X107890000Y-74870000D01*
X107890000Y-80070000D02*
X110550000Y-80070000D01*
X107890000Y-77470000D02*
X110550000Y-77470000D01*
X110550000Y-77470000D02*
X110550000Y-80070000D01*
X107890000Y-77470000D02*
X107890000Y-80070000D01*
X107890000Y-74870000D02*
X109220000Y-74870000D01*
%TO.C,D1*%
X118090000Y-77195000D02*
X118090000Y-80285000D01*
X118090000Y-80284830D02*
G75*
G03*
X123640000Y-78739538I2560000J1544830D01*
G01*
X123640000Y-78740462D02*
G75*
G03*
X118090000Y-77195170I-2990000J462D01*
G01*
X123150000Y-78740000D02*
G75*
G03*
X123150000Y-78740000I-2500000J0D01*
G01*
%TD*%
M02*
