%TF.GenerationSoftware,KiCad,Pcbnew,(6.0.7)*%
%TF.CreationDate,2022-09-02T10:13:45-04:00*%
%TF.ProjectId,proj_1,70726f6a-5f31-42e6-9b69-6361645f7063,V1*%
%TF.SameCoordinates,Original*%
%TF.FileFunction,Legend,Bot*%
%TF.FilePolarity,Positive*%
%FSLAX46Y46*%
G04 Gerber Fmt 4.6, Leading zero omitted, Abs format (unit mm)*
G04 Created by KiCad (PCBNEW (6.0.7)) date 2022-09-02 10:13:45*
%MOMM*%
%LPD*%
G01*
G04 APERTURE LIST*
%ADD10C,0.150000*%
%ADD11C,0.010000*%
G04 APERTURE END LIST*
D10*
X158200952Y-102227380D02*
X157629523Y-102227380D01*
X157915238Y-103227380D02*
X157915238Y-102227380D01*
X157296190Y-102227380D02*
X157296190Y-103036904D01*
X157248571Y-103132142D01*
X157200952Y-103179761D01*
X157105714Y-103227380D01*
X156915238Y-103227380D01*
X156820000Y-103179761D01*
X156772380Y-103132142D01*
X156724761Y-103036904D01*
X156724761Y-102227380D01*
X155486666Y-102703571D02*
X155153333Y-102703571D01*
X155010476Y-103227380D02*
X155486666Y-103227380D01*
X155486666Y-102227380D01*
X155010476Y-102227380D01*
X154010476Y-103132142D02*
X154058095Y-103179761D01*
X154200952Y-103227380D01*
X154296190Y-103227380D01*
X154439047Y-103179761D01*
X154534285Y-103084523D01*
X154581904Y-102989285D01*
X154629523Y-102798809D01*
X154629523Y-102655952D01*
X154581904Y-102465476D01*
X154534285Y-102370238D01*
X154439047Y-102275000D01*
X154296190Y-102227380D01*
X154200952Y-102227380D01*
X154058095Y-102275000D01*
X154010476Y-102322619D01*
X153581904Y-102703571D02*
X153248571Y-102703571D01*
X153105714Y-103227380D02*
X153581904Y-103227380D01*
X153581904Y-102227380D01*
X153105714Y-102227380D01*
X151486666Y-102560714D02*
X151486666Y-103227380D01*
X151724761Y-102179761D02*
X151962857Y-102894047D01*
X151343809Y-102894047D01*
X150439047Y-103227380D02*
X151010476Y-103227380D01*
X150724761Y-103227380D02*
X150724761Y-102227380D01*
X150820000Y-102370238D01*
X150915238Y-102465476D01*
X151010476Y-102513095D01*
X149486666Y-103227380D02*
X150058095Y-103227380D01*
X149772380Y-103227380D02*
X149772380Y-102227380D01*
X149867619Y-102370238D01*
X149962857Y-102465476D01*
X150058095Y-102513095D01*
X148867619Y-102227380D02*
X148772380Y-102227380D01*
X148677142Y-102275000D01*
X148629523Y-102322619D01*
X148581904Y-102417857D01*
X148534285Y-102608333D01*
X148534285Y-102846428D01*
X148581904Y-103036904D01*
X148629523Y-103132142D01*
X148677142Y-103179761D01*
X148772380Y-103227380D01*
X148867619Y-103227380D01*
X148962857Y-103179761D01*
X149010476Y-103132142D01*
X149058095Y-103036904D01*
X149105714Y-102846428D01*
X149105714Y-102608333D01*
X149058095Y-102417857D01*
X149010476Y-102322619D01*
X148962857Y-102275000D01*
X148867619Y-102227380D01*
X162248571Y-104837380D02*
X162248571Y-103837380D01*
X161867619Y-103837380D01*
X161772380Y-103885000D01*
X161724761Y-103932619D01*
X161677142Y-104027857D01*
X161677142Y-104170714D01*
X161724761Y-104265952D01*
X161772380Y-104313571D01*
X161867619Y-104361190D01*
X162248571Y-104361190D01*
X161248571Y-104837380D02*
X161248571Y-104170714D01*
X161248571Y-104361190D02*
X161200952Y-104265952D01*
X161153333Y-104218333D01*
X161058095Y-104170714D01*
X160962857Y-104170714D01*
X160486666Y-104837380D02*
X160581904Y-104789761D01*
X160629523Y-104742142D01*
X160677142Y-104646904D01*
X160677142Y-104361190D01*
X160629523Y-104265952D01*
X160581904Y-104218333D01*
X160486666Y-104170714D01*
X160343809Y-104170714D01*
X160248571Y-104218333D01*
X160200952Y-104265952D01*
X160153333Y-104361190D01*
X160153333Y-104646904D01*
X160200952Y-104742142D01*
X160248571Y-104789761D01*
X160343809Y-104837380D01*
X160486666Y-104837380D01*
X159724761Y-104170714D02*
X159724761Y-105027857D01*
X159772380Y-105123095D01*
X159867619Y-105170714D01*
X159915238Y-105170714D01*
X159724761Y-103837380D02*
X159772380Y-103885000D01*
X159724761Y-103932619D01*
X159677142Y-103885000D01*
X159724761Y-103837380D01*
X159724761Y-103932619D01*
X158867619Y-104789761D02*
X158962857Y-104837380D01*
X159153333Y-104837380D01*
X159248571Y-104789761D01*
X159296190Y-104694523D01*
X159296190Y-104313571D01*
X159248571Y-104218333D01*
X159153333Y-104170714D01*
X158962857Y-104170714D01*
X158867619Y-104218333D01*
X158820000Y-104313571D01*
X158820000Y-104408809D01*
X159296190Y-104504047D01*
X157962857Y-104789761D02*
X158058095Y-104837380D01*
X158248571Y-104837380D01*
X158343809Y-104789761D01*
X158391428Y-104742142D01*
X158439047Y-104646904D01*
X158439047Y-104361190D01*
X158391428Y-104265952D01*
X158343809Y-104218333D01*
X158248571Y-104170714D01*
X158058095Y-104170714D01*
X157962857Y-104218333D01*
X157677142Y-104170714D02*
X157296190Y-104170714D01*
X157534285Y-103837380D02*
X157534285Y-104694523D01*
X157486666Y-104789761D01*
X157391428Y-104837380D01*
X157296190Y-104837380D01*
X155677142Y-104837380D02*
X156248571Y-104837380D01*
X155962857Y-104837380D02*
X155962857Y-103837380D01*
X156058095Y-103980238D01*
X156153333Y-104075476D01*
X156248571Y-104123095D01*
X155248571Y-104742142D02*
X155200952Y-104789761D01*
X155248571Y-104837380D01*
X155296190Y-104789761D01*
X155248571Y-104742142D01*
X155248571Y-104837380D01*
X155248571Y-104218333D02*
X155200952Y-104265952D01*
X155248571Y-104313571D01*
X155296190Y-104265952D01*
X155248571Y-104218333D01*
X155248571Y-104313571D01*
X153534285Y-104837380D02*
X154010476Y-104837380D01*
X154010476Y-103837380D01*
X153200952Y-104313571D02*
X152867619Y-104313571D01*
X152724761Y-104837380D02*
X153200952Y-104837380D01*
X153200952Y-103837380D01*
X152724761Y-103837380D01*
X152296190Y-104837380D02*
X152296190Y-103837380D01*
X152058095Y-103837380D01*
X151915238Y-103885000D01*
X151820000Y-103980238D01*
X151772380Y-104075476D01*
X151724761Y-104265952D01*
X151724761Y-104408809D01*
X151772380Y-104599285D01*
X151820000Y-104694523D01*
X151915238Y-104789761D01*
X152058095Y-104837380D01*
X152296190Y-104837380D01*
X150677142Y-103837380D02*
X150105714Y-103837380D01*
X150391428Y-104837380D02*
X150391428Y-103837380D01*
X149629523Y-104837380D02*
X149724761Y-104789761D01*
X149772380Y-104742142D01*
X149820000Y-104646904D01*
X149820000Y-104361190D01*
X149772380Y-104265952D01*
X149724761Y-104218333D01*
X149629523Y-104170714D01*
X149486666Y-104170714D01*
X149391428Y-104218333D01*
X149343809Y-104265952D01*
X149296190Y-104361190D01*
X149296190Y-104646904D01*
X149343809Y-104742142D01*
X149391428Y-104789761D01*
X149486666Y-104837380D01*
X149629523Y-104837380D01*
X148867619Y-104837380D02*
X148867619Y-104170714D01*
X148867619Y-104361190D02*
X148820000Y-104265952D01*
X148772380Y-104218333D01*
X148677142Y-104170714D01*
X148581904Y-104170714D01*
X147820000Y-104789761D02*
X147915238Y-104837380D01*
X148105714Y-104837380D01*
X148200952Y-104789761D01*
X148248571Y-104742142D01*
X148296190Y-104646904D01*
X148296190Y-104361190D01*
X148248571Y-104265952D01*
X148200952Y-104218333D01*
X148105714Y-104170714D01*
X147915238Y-104170714D01*
X147820000Y-104218333D01*
X147391428Y-104837380D02*
X147391428Y-103837380D01*
X146962857Y-104837380D02*
X146962857Y-104313571D01*
X147010476Y-104218333D01*
X147105714Y-104170714D01*
X147248571Y-104170714D01*
X147343809Y-104218333D01*
X147391428Y-104265952D01*
X145867619Y-103837380D02*
X145534285Y-104837380D01*
X145200952Y-103837380D01*
X144343809Y-104837380D02*
X144915238Y-104837380D01*
X144629523Y-104837380D02*
X144629523Y-103837380D01*
X144724761Y-103980238D01*
X144820000Y-104075476D01*
X144915238Y-104123095D01*
X156010476Y-106447380D02*
X156343809Y-105971190D01*
X156581904Y-106447380D02*
X156581904Y-105447380D01*
X156200952Y-105447380D01*
X156105714Y-105495000D01*
X156058095Y-105542619D01*
X156010476Y-105637857D01*
X156010476Y-105780714D01*
X156058095Y-105875952D01*
X156105714Y-105923571D01*
X156200952Y-105971190D01*
X156581904Y-105971190D01*
X155439047Y-106447380D02*
X155534285Y-106399761D01*
X155581904Y-106352142D01*
X155629523Y-106256904D01*
X155629523Y-105971190D01*
X155581904Y-105875952D01*
X155534285Y-105828333D01*
X155439047Y-105780714D01*
X155296190Y-105780714D01*
X155200952Y-105828333D01*
X155153333Y-105875952D01*
X155105714Y-105971190D01*
X155105714Y-106256904D01*
X155153333Y-106352142D01*
X155200952Y-106399761D01*
X155296190Y-106447380D01*
X155439047Y-106447380D01*
X154677142Y-106447380D02*
X154677142Y-105447380D01*
X154677142Y-105828333D02*
X154581904Y-105780714D01*
X154391428Y-105780714D01*
X154296190Y-105828333D01*
X154248571Y-105875952D01*
X154200952Y-105971190D01*
X154200952Y-106256904D01*
X154248571Y-106352142D01*
X154296190Y-106399761D01*
X154391428Y-106447380D01*
X154581904Y-106447380D01*
X154677142Y-106399761D01*
X152677142Y-105923571D02*
X152534285Y-105971190D01*
X152486666Y-106018809D01*
X152439047Y-106114047D01*
X152439047Y-106256904D01*
X152486666Y-106352142D01*
X152534285Y-106399761D01*
X152629523Y-106447380D01*
X153010476Y-106447380D01*
X153010476Y-105447380D01*
X152677142Y-105447380D01*
X152581904Y-105495000D01*
X152534285Y-105542619D01*
X152486666Y-105637857D01*
X152486666Y-105733095D01*
X152534285Y-105828333D01*
X152581904Y-105875952D01*
X152677142Y-105923571D01*
X153010476Y-105923571D01*
X151581904Y-106447380D02*
X151581904Y-105923571D01*
X151629523Y-105828333D01*
X151724761Y-105780714D01*
X151915238Y-105780714D01*
X152010476Y-105828333D01*
X151581904Y-106399761D02*
X151677142Y-106447380D01*
X151915238Y-106447380D01*
X152010476Y-106399761D01*
X152058095Y-106304523D01*
X152058095Y-106209285D01*
X152010476Y-106114047D01*
X151915238Y-106066428D01*
X151677142Y-106066428D01*
X151581904Y-106018809D01*
X151105714Y-106447380D02*
X151105714Y-105780714D01*
X151105714Y-105971190D02*
X151058095Y-105875952D01*
X151010476Y-105828333D01*
X150915238Y-105780714D01*
X150820000Y-105780714D01*
X150058095Y-106447380D02*
X150058095Y-105923571D01*
X150105714Y-105828333D01*
X150200952Y-105780714D01*
X150391428Y-105780714D01*
X150486666Y-105828333D01*
X150058095Y-106399761D02*
X150153333Y-106447380D01*
X150391428Y-106447380D01*
X150486666Y-106399761D01*
X150534285Y-106304523D01*
X150534285Y-106209285D01*
X150486666Y-106114047D01*
X150391428Y-106066428D01*
X150153333Y-106066428D01*
X150058095Y-106018809D01*
X156939047Y-108057380D02*
X156748571Y-108057380D01*
X156653333Y-108009761D01*
X156605714Y-107962142D01*
X156510476Y-107819285D01*
X156462857Y-107628809D01*
X156462857Y-107247857D01*
X156510476Y-107152619D01*
X156558095Y-107105000D01*
X156653333Y-107057380D01*
X156843809Y-107057380D01*
X156939047Y-107105000D01*
X156986666Y-107152619D01*
X157034285Y-107247857D01*
X157034285Y-107485952D01*
X156986666Y-107581190D01*
X156939047Y-107628809D01*
X156843809Y-107676428D01*
X156653333Y-107676428D01*
X156558095Y-107628809D01*
X156510476Y-107581190D01*
X156462857Y-107485952D01*
X155320000Y-107009761D02*
X156177142Y-108295476D01*
X155034285Y-107152619D02*
X154986666Y-107105000D01*
X154891428Y-107057380D01*
X154653333Y-107057380D01*
X154558095Y-107105000D01*
X154510476Y-107152619D01*
X154462857Y-107247857D01*
X154462857Y-107343095D01*
X154510476Y-107485952D01*
X155081904Y-108057380D01*
X154462857Y-108057380D01*
X153320000Y-107009761D02*
X154177142Y-108295476D01*
X153034285Y-107152619D02*
X152986666Y-107105000D01*
X152891428Y-107057380D01*
X152653333Y-107057380D01*
X152558095Y-107105000D01*
X152510476Y-107152619D01*
X152462857Y-107247857D01*
X152462857Y-107343095D01*
X152510476Y-107485952D01*
X153081904Y-108057380D01*
X152462857Y-108057380D01*
X151843809Y-107057380D02*
X151748571Y-107057380D01*
X151653333Y-107105000D01*
X151605714Y-107152619D01*
X151558095Y-107247857D01*
X151510476Y-107438333D01*
X151510476Y-107676428D01*
X151558095Y-107866904D01*
X151605714Y-107962142D01*
X151653333Y-108009761D01*
X151748571Y-108057380D01*
X151843809Y-108057380D01*
X151939047Y-108009761D01*
X151986666Y-107962142D01*
X152034285Y-107866904D01*
X152081904Y-107676428D01*
X152081904Y-107438333D01*
X152034285Y-107247857D01*
X151986666Y-107152619D01*
X151939047Y-107105000D01*
X151843809Y-107057380D01*
X151129523Y-107152619D02*
X151081904Y-107105000D01*
X150986666Y-107057380D01*
X150748571Y-107057380D01*
X150653333Y-107105000D01*
X150605714Y-107152619D01*
X150558095Y-107247857D01*
X150558095Y-107343095D01*
X150605714Y-107485952D01*
X151177142Y-108057380D01*
X150558095Y-108057380D01*
X150177142Y-107152619D02*
X150129523Y-107105000D01*
X150034285Y-107057380D01*
X149796190Y-107057380D01*
X149700952Y-107105000D01*
X149653333Y-107152619D01*
X149605714Y-107247857D01*
X149605714Y-107343095D01*
X149653333Y-107485952D01*
X150224761Y-108057380D01*
X149605714Y-108057380D01*
%TO.C,REF\u002A\u002A*%
G36*
X153098847Y-96448078D02*
G01*
X153283348Y-96465015D01*
X153454749Y-96499174D01*
X153619427Y-96551991D01*
X153783756Y-96624905D01*
X153946424Y-96718001D01*
X154120999Y-96844914D01*
X154282888Y-96991650D01*
X154428528Y-97154576D01*
X154554352Y-97330059D01*
X154656797Y-97514468D01*
X154666096Y-97534196D01*
X154743973Y-97724613D01*
X154803148Y-97922477D01*
X154844387Y-98131570D01*
X154868452Y-98355670D01*
X154876111Y-98598559D01*
X154866799Y-98849643D01*
X154837244Y-99096912D01*
X154786987Y-99328383D01*
X154715577Y-99545699D01*
X154622566Y-99750502D01*
X154507504Y-99944433D01*
X154399422Y-100092594D01*
X154250184Y-100259300D01*
X154087521Y-100402089D01*
X153911505Y-100520914D01*
X153722207Y-100615729D01*
X153519697Y-100686487D01*
X153304048Y-100733142D01*
X153301587Y-100733505D01*
X153260058Y-100737149D01*
X153197388Y-100739852D01*
X153119373Y-100741487D01*
X153031808Y-100741930D01*
X152940487Y-100741052D01*
X152876484Y-100739767D01*
X152781523Y-100736790D01*
X152705428Y-100732528D01*
X152642712Y-100726526D01*
X152587885Y-100718329D01*
X152535460Y-100707482D01*
X152476477Y-100693465D01*
X152414940Y-100677503D01*
X152359286Y-100660758D01*
X152304463Y-100641268D01*
X152245422Y-100617073D01*
X152177111Y-100586210D01*
X152094478Y-100546719D01*
X151992473Y-100496639D01*
X151710352Y-100357215D01*
X151936313Y-99986067D01*
X151965896Y-99937490D01*
X152019043Y-99850289D01*
X152066614Y-99772331D01*
X152106868Y-99706458D01*
X152138068Y-99655516D01*
X152158476Y-99622347D01*
X152166352Y-99609795D01*
X152168542Y-99610170D01*
X152186188Y-99622454D01*
X152217189Y-99647947D01*
X152256647Y-99682694D01*
X152326920Y-99742729D01*
X152452371Y-99831506D01*
X152574089Y-99893394D01*
X152662045Y-99924300D01*
X152810817Y-99955885D01*
X152956989Y-99961484D01*
X153098443Y-99941477D01*
X153233058Y-99896246D01*
X153358714Y-99826173D01*
X153473293Y-99731639D01*
X153537049Y-99662011D01*
X153626867Y-99533224D01*
X153700567Y-99383773D01*
X153758501Y-99212892D01*
X153801021Y-99019817D01*
X153802951Y-99007831D01*
X153811863Y-98930143D01*
X153818497Y-98833617D01*
X153822800Y-98724849D01*
X153824719Y-98610434D01*
X153824198Y-98496968D01*
X153821185Y-98391046D01*
X153815626Y-98299263D01*
X153807467Y-98228217D01*
X153776194Y-98067280D01*
X153723574Y-97879286D01*
X153657395Y-97714700D01*
X153577747Y-97573649D01*
X153484717Y-97456260D01*
X153378394Y-97362663D01*
X153258867Y-97292982D01*
X153126224Y-97247347D01*
X153096795Y-97241683D01*
X153023044Y-97234288D01*
X152936856Y-97231874D01*
X152847884Y-97234308D01*
X152765786Y-97241460D01*
X152700217Y-97253195D01*
X152590986Y-97290561D01*
X152464227Y-97358778D01*
X152351358Y-97448550D01*
X152331437Y-97467461D01*
X152295340Y-97500918D01*
X152269829Y-97523438D01*
X152259464Y-97530928D01*
X152256913Y-97527346D01*
X152241206Y-97504723D01*
X152212832Y-97463647D01*
X152173664Y-97406836D01*
X152125578Y-97337012D01*
X152070448Y-97256893D01*
X152010149Y-97169201D01*
X151763514Y-96810402D01*
X151818611Y-96793895D01*
X151824360Y-96792024D01*
X151861785Y-96777166D01*
X151915744Y-96753208D01*
X151979902Y-96723031D01*
X152047929Y-96689517D01*
X152077572Y-96674700D01*
X152242176Y-96598201D01*
X152393890Y-96539045D01*
X152538548Y-96495718D01*
X152681986Y-96466707D01*
X152830038Y-96450499D01*
X152988541Y-96445580D01*
X153098847Y-96448078D01*
G37*
D11*
X153098847Y-96448078D02*
X153283348Y-96465015D01*
X153454749Y-96499174D01*
X153619427Y-96551991D01*
X153783756Y-96624905D01*
X153946424Y-96718001D01*
X154120999Y-96844914D01*
X154282888Y-96991650D01*
X154428528Y-97154576D01*
X154554352Y-97330059D01*
X154656797Y-97514468D01*
X154666096Y-97534196D01*
X154743973Y-97724613D01*
X154803148Y-97922477D01*
X154844387Y-98131570D01*
X154868452Y-98355670D01*
X154876111Y-98598559D01*
X154866799Y-98849643D01*
X154837244Y-99096912D01*
X154786987Y-99328383D01*
X154715577Y-99545699D01*
X154622566Y-99750502D01*
X154507504Y-99944433D01*
X154399422Y-100092594D01*
X154250184Y-100259300D01*
X154087521Y-100402089D01*
X153911505Y-100520914D01*
X153722207Y-100615729D01*
X153519697Y-100686487D01*
X153304048Y-100733142D01*
X153301587Y-100733505D01*
X153260058Y-100737149D01*
X153197388Y-100739852D01*
X153119373Y-100741487D01*
X153031808Y-100741930D01*
X152940487Y-100741052D01*
X152876484Y-100739767D01*
X152781523Y-100736790D01*
X152705428Y-100732528D01*
X152642712Y-100726526D01*
X152587885Y-100718329D01*
X152535460Y-100707482D01*
X152476477Y-100693465D01*
X152414940Y-100677503D01*
X152359286Y-100660758D01*
X152304463Y-100641268D01*
X152245422Y-100617073D01*
X152177111Y-100586210D01*
X152094478Y-100546719D01*
X151992473Y-100496639D01*
X151710352Y-100357215D01*
X151936313Y-99986067D01*
X151965896Y-99937490D01*
X152019043Y-99850289D01*
X152066614Y-99772331D01*
X152106868Y-99706458D01*
X152138068Y-99655516D01*
X152158476Y-99622347D01*
X152166352Y-99609795D01*
X152168542Y-99610170D01*
X152186188Y-99622454D01*
X152217189Y-99647947D01*
X152256647Y-99682694D01*
X152326920Y-99742729D01*
X152452371Y-99831506D01*
X152574089Y-99893394D01*
X152662045Y-99924300D01*
X152810817Y-99955885D01*
X152956989Y-99961484D01*
X153098443Y-99941477D01*
X153233058Y-99896246D01*
X153358714Y-99826173D01*
X153473293Y-99731639D01*
X153537049Y-99662011D01*
X153626867Y-99533224D01*
X153700567Y-99383773D01*
X153758501Y-99212892D01*
X153801021Y-99019817D01*
X153802951Y-99007831D01*
X153811863Y-98930143D01*
X153818497Y-98833617D01*
X153822800Y-98724849D01*
X153824719Y-98610434D01*
X153824198Y-98496968D01*
X153821185Y-98391046D01*
X153815626Y-98299263D01*
X153807467Y-98228217D01*
X153776194Y-98067280D01*
X153723574Y-97879286D01*
X153657395Y-97714700D01*
X153577747Y-97573649D01*
X153484717Y-97456260D01*
X153378394Y-97362663D01*
X153258867Y-97292982D01*
X153126224Y-97247347D01*
X153096795Y-97241683D01*
X153023044Y-97234288D01*
X152936856Y-97231874D01*
X152847884Y-97234308D01*
X152765786Y-97241460D01*
X152700217Y-97253195D01*
X152590986Y-97290561D01*
X152464227Y-97358778D01*
X152351358Y-97448550D01*
X152331437Y-97467461D01*
X152295340Y-97500918D01*
X152269829Y-97523438D01*
X152259464Y-97530928D01*
X152256913Y-97527346D01*
X152241206Y-97504723D01*
X152212832Y-97463647D01*
X152173664Y-97406836D01*
X152125578Y-97337012D01*
X152070448Y-97256893D01*
X152010149Y-97169201D01*
X151763514Y-96810402D01*
X151818611Y-96793895D01*
X151824360Y-96792024D01*
X151861785Y-96777166D01*
X151915744Y-96753208D01*
X151979902Y-96723031D01*
X152047929Y-96689517D01*
X152077572Y-96674700D01*
X152242176Y-96598201D01*
X152393890Y-96539045D01*
X152538548Y-96495718D01*
X152681986Y-96466707D01*
X152830038Y-96450499D01*
X152988541Y-96445580D01*
X153098847Y-96448078D01*
G36*
X156211012Y-95316581D02*
G01*
X156316536Y-95342436D01*
X156416560Y-95388841D01*
X156507934Y-95455803D01*
X156587505Y-95543328D01*
X156652120Y-95651426D01*
X156669443Y-95689506D01*
X156683477Y-95728103D01*
X156691352Y-95766689D01*
X156694803Y-95814415D01*
X156695568Y-95880433D01*
X156695105Y-95935381D01*
X156692319Y-95985880D01*
X156685487Y-96025280D01*
X156672904Y-96062628D01*
X156652864Y-96106973D01*
X156647066Y-96118791D01*
X156578545Y-96227001D01*
X156492365Y-96316033D01*
X156390972Y-96383797D01*
X156276811Y-96428206D01*
X156218234Y-96440598D01*
X156099399Y-96446397D01*
X155984300Y-96427634D01*
X155876312Y-96386232D01*
X155778809Y-96324115D01*
X155695168Y-96243207D01*
X155628763Y-96145432D01*
X155582969Y-96032714D01*
X155566214Y-95940471D01*
X155564705Y-95838677D01*
X155578332Y-95739660D01*
X155606445Y-95653892D01*
X155638930Y-95592573D01*
X155711247Y-95495288D01*
X155796978Y-95418507D01*
X155892973Y-95362238D01*
X155996079Y-95326490D01*
X156103142Y-95311268D01*
X156211012Y-95316581D01*
G37*
X156211012Y-95316581D02*
X156316536Y-95342436D01*
X156416560Y-95388841D01*
X156507934Y-95455803D01*
X156587505Y-95543328D01*
X156652120Y-95651426D01*
X156669443Y-95689506D01*
X156683477Y-95728103D01*
X156691352Y-95766689D01*
X156694803Y-95814415D01*
X156695568Y-95880433D01*
X156695105Y-95935381D01*
X156692319Y-95985880D01*
X156685487Y-96025280D01*
X156672904Y-96062628D01*
X156652864Y-96106973D01*
X156647066Y-96118791D01*
X156578545Y-96227001D01*
X156492365Y-96316033D01*
X156390972Y-96383797D01*
X156276811Y-96428206D01*
X156218234Y-96440598D01*
X156099399Y-96446397D01*
X155984300Y-96427634D01*
X155876312Y-96386232D01*
X155778809Y-96324115D01*
X155695168Y-96243207D01*
X155628763Y-96145432D01*
X155582969Y-96032714D01*
X155566214Y-95940471D01*
X155564705Y-95838677D01*
X155578332Y-95739660D01*
X155606445Y-95653892D01*
X155638930Y-95592573D01*
X155711247Y-95495288D01*
X155796978Y-95418507D01*
X155892973Y-95362238D01*
X155996079Y-95326490D01*
X156103142Y-95311268D01*
X156211012Y-95316581D01*
G36*
X160926532Y-100826310D02*
G01*
X160924777Y-100918024D01*
X160922646Y-100996117D01*
X160920102Y-101061724D01*
X160917111Y-101115981D01*
X160913635Y-101160023D01*
X160909640Y-101194985D01*
X160905089Y-101222003D01*
X160899947Y-101242212D01*
X160894179Y-101256747D01*
X160887748Y-101266744D01*
X160880619Y-101273338D01*
X160872755Y-101277665D01*
X160864122Y-101280859D01*
X160854684Y-101284056D01*
X160844404Y-101288391D01*
X160838620Y-101290563D01*
X160828010Y-101292936D01*
X160812245Y-101295110D01*
X160790210Y-101297093D01*
X160760790Y-101298896D01*
X160722869Y-101300525D01*
X160675332Y-101301991D01*
X160617064Y-101303301D01*
X160546950Y-101304465D01*
X160463874Y-101305491D01*
X160366721Y-101306388D01*
X160254376Y-101307165D01*
X160125725Y-101307830D01*
X159979650Y-101308392D01*
X159815038Y-101308860D01*
X159630773Y-101309242D01*
X159425740Y-101309548D01*
X159198824Y-101309785D01*
X158948909Y-101309963D01*
X158674881Y-101310091D01*
X158375623Y-101310176D01*
X158050021Y-101310228D01*
X157946839Y-101310238D01*
X157628303Y-101310245D01*
X157335787Y-101310205D01*
X157068188Y-101310110D01*
X156824404Y-101309953D01*
X156603332Y-101309725D01*
X156403872Y-101309419D01*
X156224921Y-101309025D01*
X156065376Y-101308538D01*
X155924136Y-101307947D01*
X155800099Y-101307247D01*
X155692163Y-101306427D01*
X155599226Y-101305481D01*
X155520185Y-101304400D01*
X155453939Y-101303177D01*
X155399385Y-101301803D01*
X155355422Y-101300271D01*
X155320947Y-101298572D01*
X155294859Y-101296698D01*
X155276056Y-101294642D01*
X155263435Y-101292396D01*
X155255894Y-101289950D01*
X155253495Y-101288862D01*
X155243673Y-101285287D01*
X155234666Y-101282676D01*
X155226437Y-101279893D01*
X155218950Y-101275800D01*
X155212168Y-101269260D01*
X155206055Y-101259137D01*
X155200575Y-101244293D01*
X155195690Y-101223591D01*
X155191364Y-101195895D01*
X155187561Y-101160068D01*
X155184244Y-101114973D01*
X155181376Y-101059472D01*
X155178922Y-100992429D01*
X155176844Y-100912707D01*
X155175107Y-100819170D01*
X155173673Y-100710679D01*
X155173202Y-100660440D01*
X155535255Y-100660440D01*
X155535652Y-100665251D01*
X155542935Y-100669150D01*
X155559389Y-100672232D01*
X155587301Y-100674594D01*
X155628957Y-100676330D01*
X155686642Y-100677536D01*
X155762642Y-100678308D01*
X155859244Y-100678741D01*
X155978734Y-100678931D01*
X156123396Y-100678973D01*
X156729373Y-100678973D01*
X156678146Y-100586298D01*
X156626919Y-100493622D01*
X156626919Y-97802595D01*
X156678146Y-97709919D01*
X156729373Y-97617244D01*
X155646211Y-97617244D01*
X155638379Y-100466162D01*
X155599981Y-100548168D01*
X155579736Y-100588815D01*
X155556813Y-100629532D01*
X155539501Y-100654574D01*
X155539458Y-100654622D01*
X155535255Y-100660440D01*
X155173202Y-100660440D01*
X155172506Y-100586098D01*
X155171570Y-100444290D01*
X155170828Y-100284119D01*
X155170243Y-100104447D01*
X155169779Y-99904137D01*
X155169400Y-99682052D01*
X155169069Y-99437056D01*
X155168749Y-99168012D01*
X155168404Y-98873782D01*
X155167998Y-98553230D01*
X155167945Y-98514424D01*
X155167492Y-98195903D01*
X155167059Y-97903572D01*
X155166677Y-97636293D01*
X155166380Y-97392929D01*
X155166198Y-97172342D01*
X155166165Y-96973395D01*
X155166311Y-96794950D01*
X155166670Y-96635871D01*
X155167274Y-96495019D01*
X155168154Y-96371257D01*
X155169342Y-96263447D01*
X155170871Y-96170453D01*
X155172772Y-96091137D01*
X155175078Y-96024360D01*
X155177821Y-95968987D01*
X155181032Y-95923879D01*
X155184745Y-95887899D01*
X155188990Y-95859909D01*
X155193801Y-95838772D01*
X155199208Y-95823351D01*
X155205245Y-95812508D01*
X155211943Y-95805106D01*
X155219335Y-95800007D01*
X155227451Y-95796073D01*
X155236325Y-95792168D01*
X155245989Y-95787154D01*
X155248817Y-95785556D01*
X155291604Y-95770089D01*
X155338443Y-95763732D01*
X155391244Y-95763734D01*
X155392124Y-95883867D01*
X155392347Y-95897692D01*
X155409129Y-96038215D01*
X155451873Y-96170435D01*
X155519983Y-96292952D01*
X155612868Y-96404363D01*
X155662712Y-96449803D01*
X155773695Y-96525120D01*
X155894788Y-96577643D01*
X156022465Y-96607342D01*
X156153197Y-96614190D01*
X156283460Y-96598159D01*
X156409725Y-96559221D01*
X156513522Y-96505135D01*
X156972907Y-96505135D01*
X157033319Y-96548599D01*
X157084410Y-96589448D01*
X157156403Y-96656076D01*
X157238060Y-96739580D01*
X157326290Y-96836778D01*
X157418000Y-96944487D01*
X157441617Y-96973290D01*
X157481827Y-97022692D01*
X157534387Y-97087505D01*
X157597556Y-97165566D01*
X157669592Y-97254711D01*
X157748754Y-97352778D01*
X157833302Y-97457604D01*
X157921493Y-97567024D01*
X157961944Y-97617244D01*
X158011586Y-97678876D01*
X158101840Y-97790997D01*
X158190515Y-97901224D01*
X158275868Y-98007392D01*
X158356158Y-98107340D01*
X158429644Y-98198903D01*
X158494585Y-98279919D01*
X158549240Y-98348224D01*
X158591866Y-98401655D01*
X158620724Y-98438048D01*
X158634071Y-98455242D01*
X158635173Y-98461703D01*
X158631508Y-98473992D01*
X158622013Y-98493325D01*
X158605738Y-98521074D01*
X158581736Y-98558610D01*
X158549060Y-98607304D01*
X158506761Y-98668529D01*
X158453891Y-98743654D01*
X158389503Y-98834052D01*
X158312648Y-98941094D01*
X158222380Y-99066152D01*
X158117749Y-99210596D01*
X157997809Y-99375798D01*
X157902242Y-99507297D01*
X157785648Y-99667605D01*
X157683088Y-99808387D01*
X157593369Y-99931204D01*
X157515300Y-100037619D01*
X157447688Y-100129195D01*
X157389338Y-100207494D01*
X157339060Y-100274079D01*
X157295661Y-100330511D01*
X157257946Y-100378354D01*
X157224725Y-100419169D01*
X157194803Y-100454520D01*
X157166989Y-100485968D01*
X157140090Y-100515076D01*
X157112913Y-100543406D01*
X157084265Y-100572522D01*
X156978692Y-100678973D01*
X158398054Y-100679031D01*
X158393595Y-100593019D01*
X158393379Y-100588697D01*
X158392532Y-100554313D01*
X158394137Y-100521368D01*
X158399266Y-100488058D01*
X158408993Y-100452578D01*
X158424391Y-100413125D01*
X158446534Y-100367893D01*
X158476495Y-100315077D01*
X158515348Y-100252874D01*
X158564166Y-100179477D01*
X158624022Y-100093084D01*
X158695990Y-99991890D01*
X158781143Y-99874088D01*
X158880554Y-99737876D01*
X158995298Y-99581449D01*
X159400325Y-99030041D01*
X159403893Y-99669382D01*
X159404209Y-99729020D01*
X159404767Y-99889657D01*
X159404513Y-100026289D01*
X159403150Y-100141502D01*
X159400377Y-100237883D01*
X159395898Y-100318016D01*
X159389413Y-100384487D01*
X159380623Y-100439883D01*
X159369230Y-100486788D01*
X159354935Y-100527788D01*
X159337440Y-100565469D01*
X159316447Y-100602417D01*
X159291655Y-100641217D01*
X159266734Y-100678973D01*
X160561884Y-100678973D01*
X160528429Y-100634352D01*
X160523190Y-100627293D01*
X160481302Y-100562594D01*
X160452427Y-100497190D01*
X160433466Y-100422248D01*
X160421321Y-100328933D01*
X160420987Y-100324865D01*
X160419225Y-100286375D01*
X160417633Y-100222156D01*
X160416220Y-100133676D01*
X160414992Y-100022403D01*
X160413956Y-99889803D01*
X160413118Y-99737345D01*
X160412486Y-99566496D01*
X160412067Y-99378722D01*
X160411868Y-99175493D01*
X160411895Y-98958274D01*
X160412155Y-98728535D01*
X160412655Y-98487741D01*
X160413185Y-98271748D01*
X160413752Y-98036635D01*
X160414311Y-97826279D01*
X160414930Y-97639206D01*
X160415681Y-97473942D01*
X160416634Y-97329013D01*
X160417858Y-97202947D01*
X160419423Y-97094268D01*
X160421401Y-97001504D01*
X160423860Y-96923180D01*
X160426871Y-96857822D01*
X160430504Y-96803958D01*
X160434829Y-96760113D01*
X160439916Y-96724813D01*
X160445835Y-96696585D01*
X160452657Y-96673955D01*
X160460451Y-96655449D01*
X160469288Y-96639594D01*
X160479237Y-96624915D01*
X160490369Y-96609940D01*
X160502754Y-96593193D01*
X160514732Y-96576412D01*
X160537885Y-96543231D01*
X160551753Y-96522298D01*
X160552088Y-96521421D01*
X160547246Y-96517462D01*
X160530157Y-96514159D01*
X160498921Y-96511461D01*
X160451635Y-96509317D01*
X160386398Y-96507676D01*
X160301310Y-96506489D01*
X160194467Y-96505703D01*
X160063969Y-96505269D01*
X159907914Y-96505135D01*
X159253722Y-96505135D01*
X159288200Y-96546110D01*
X159308182Y-96574253D01*
X159341443Y-96640608D01*
X159370591Y-96723135D01*
X159392838Y-96814679D01*
X159394256Y-96823369D01*
X159398474Y-96869183D01*
X159401669Y-96939989D01*
X159403849Y-97036275D01*
X159405021Y-97158532D01*
X159405195Y-97307251D01*
X159404378Y-97482922D01*
X159400325Y-98069412D01*
X158981568Y-97539859D01*
X158969574Y-97524690D01*
X158863381Y-97390255D01*
X158772721Y-97275124D01*
X158696151Y-97177339D01*
X158632227Y-97094943D01*
X158579507Y-97025978D01*
X158536549Y-96968486D01*
X158501909Y-96920510D01*
X158474145Y-96880093D01*
X158451814Y-96845276D01*
X158433472Y-96814103D01*
X158417678Y-96784615D01*
X158402988Y-96754855D01*
X158380390Y-96702177D01*
X158365791Y-96646606D01*
X158361908Y-96586666D01*
X158362298Y-96505135D01*
X156972907Y-96505135D01*
X156513522Y-96505135D01*
X156528466Y-96497348D01*
X156636157Y-96412511D01*
X156666094Y-96382602D01*
X156754577Y-96271862D01*
X156817364Y-96151684D01*
X156854789Y-96021291D01*
X156867189Y-95879910D01*
X156867189Y-95763730D01*
X158838088Y-95763730D01*
X158961220Y-95763725D01*
X159225743Y-95763689D01*
X159464702Y-95763663D01*
X159679418Y-95763699D01*
X159871213Y-95763849D01*
X160041407Y-95764166D01*
X160191323Y-95764702D01*
X160322282Y-95765508D01*
X160435605Y-95766638D01*
X160532614Y-95768144D01*
X160614629Y-95770077D01*
X160682974Y-95772491D01*
X160738968Y-95775436D01*
X160783933Y-95778966D01*
X160819191Y-95783133D01*
X160846063Y-95787989D01*
X160865871Y-95793586D01*
X160879935Y-95799976D01*
X160889578Y-95807212D01*
X160896121Y-95815346D01*
X160900885Y-95824431D01*
X160905192Y-95834518D01*
X160910363Y-95845659D01*
X160910455Y-95845841D01*
X160912966Y-95853134D01*
X160915268Y-95865347D01*
X160917372Y-95883605D01*
X160919286Y-95909037D01*
X160921018Y-95942769D01*
X160922578Y-95985928D01*
X160923973Y-96039641D01*
X160925213Y-96105035D01*
X160926307Y-96183238D01*
X160927263Y-96275376D01*
X160928090Y-96382576D01*
X160928797Y-96505966D01*
X160929393Y-96646671D01*
X160929885Y-96805820D01*
X160930284Y-96984540D01*
X160930597Y-97183957D01*
X160930833Y-97405198D01*
X160931002Y-97649390D01*
X160931112Y-97917661D01*
X160931172Y-98211137D01*
X160931189Y-98530946D01*
X160931190Y-98593773D01*
X160931220Y-98910249D01*
X160931267Y-99200615D01*
X160931295Y-99466007D01*
X160931267Y-99707560D01*
X160931150Y-99926410D01*
X160930905Y-100123691D01*
X160930498Y-100300539D01*
X160929893Y-100458090D01*
X160929054Y-100597479D01*
X160928315Y-100678973D01*
X160927945Y-100719840D01*
X160926532Y-100826310D01*
G37*
X160926532Y-100826310D02*
X160924777Y-100918024D01*
X160922646Y-100996117D01*
X160920102Y-101061724D01*
X160917111Y-101115981D01*
X160913635Y-101160023D01*
X160909640Y-101194985D01*
X160905089Y-101222003D01*
X160899947Y-101242212D01*
X160894179Y-101256747D01*
X160887748Y-101266744D01*
X160880619Y-101273338D01*
X160872755Y-101277665D01*
X160864122Y-101280859D01*
X160854684Y-101284056D01*
X160844404Y-101288391D01*
X160838620Y-101290563D01*
X160828010Y-101292936D01*
X160812245Y-101295110D01*
X160790210Y-101297093D01*
X160760790Y-101298896D01*
X160722869Y-101300525D01*
X160675332Y-101301991D01*
X160617064Y-101303301D01*
X160546950Y-101304465D01*
X160463874Y-101305491D01*
X160366721Y-101306388D01*
X160254376Y-101307165D01*
X160125725Y-101307830D01*
X159979650Y-101308392D01*
X159815038Y-101308860D01*
X159630773Y-101309242D01*
X159425740Y-101309548D01*
X159198824Y-101309785D01*
X158948909Y-101309963D01*
X158674881Y-101310091D01*
X158375623Y-101310176D01*
X158050021Y-101310228D01*
X157946839Y-101310238D01*
X157628303Y-101310245D01*
X157335787Y-101310205D01*
X157068188Y-101310110D01*
X156824404Y-101309953D01*
X156603332Y-101309725D01*
X156403872Y-101309419D01*
X156224921Y-101309025D01*
X156065376Y-101308538D01*
X155924136Y-101307947D01*
X155800099Y-101307247D01*
X155692163Y-101306427D01*
X155599226Y-101305481D01*
X155520185Y-101304400D01*
X155453939Y-101303177D01*
X155399385Y-101301803D01*
X155355422Y-101300271D01*
X155320947Y-101298572D01*
X155294859Y-101296698D01*
X155276056Y-101294642D01*
X155263435Y-101292396D01*
X155255894Y-101289950D01*
X155253495Y-101288862D01*
X155243673Y-101285287D01*
X155234666Y-101282676D01*
X155226437Y-101279893D01*
X155218950Y-101275800D01*
X155212168Y-101269260D01*
X155206055Y-101259137D01*
X155200575Y-101244293D01*
X155195690Y-101223591D01*
X155191364Y-101195895D01*
X155187561Y-101160068D01*
X155184244Y-101114973D01*
X155181376Y-101059472D01*
X155178922Y-100992429D01*
X155176844Y-100912707D01*
X155175107Y-100819170D01*
X155173673Y-100710679D01*
X155173202Y-100660440D01*
X155535255Y-100660440D01*
X155535652Y-100665251D01*
X155542935Y-100669150D01*
X155559389Y-100672232D01*
X155587301Y-100674594D01*
X155628957Y-100676330D01*
X155686642Y-100677536D01*
X155762642Y-100678308D01*
X155859244Y-100678741D01*
X155978734Y-100678931D01*
X156123396Y-100678973D01*
X156729373Y-100678973D01*
X156678146Y-100586298D01*
X156626919Y-100493622D01*
X156626919Y-97802595D01*
X156678146Y-97709919D01*
X156729373Y-97617244D01*
X155646211Y-97617244D01*
X155638379Y-100466162D01*
X155599981Y-100548168D01*
X155579736Y-100588815D01*
X155556813Y-100629532D01*
X155539501Y-100654574D01*
X155539458Y-100654622D01*
X155535255Y-100660440D01*
X155173202Y-100660440D01*
X155172506Y-100586098D01*
X155171570Y-100444290D01*
X155170828Y-100284119D01*
X155170243Y-100104447D01*
X155169779Y-99904137D01*
X155169400Y-99682052D01*
X155169069Y-99437056D01*
X155168749Y-99168012D01*
X155168404Y-98873782D01*
X155167998Y-98553230D01*
X155167945Y-98514424D01*
X155167492Y-98195903D01*
X155167059Y-97903572D01*
X155166677Y-97636293D01*
X155166380Y-97392929D01*
X155166198Y-97172342D01*
X155166165Y-96973395D01*
X155166311Y-96794950D01*
X155166670Y-96635871D01*
X155167274Y-96495019D01*
X155168154Y-96371257D01*
X155169342Y-96263447D01*
X155170871Y-96170453D01*
X155172772Y-96091137D01*
X155175078Y-96024360D01*
X155177821Y-95968987D01*
X155181032Y-95923879D01*
X155184745Y-95887899D01*
X155188990Y-95859909D01*
X155193801Y-95838772D01*
X155199208Y-95823351D01*
X155205245Y-95812508D01*
X155211943Y-95805106D01*
X155219335Y-95800007D01*
X155227451Y-95796073D01*
X155236325Y-95792168D01*
X155245989Y-95787154D01*
X155248817Y-95785556D01*
X155291604Y-95770089D01*
X155338443Y-95763732D01*
X155391244Y-95763734D01*
X155392124Y-95883867D01*
X155392347Y-95897692D01*
X155409129Y-96038215D01*
X155451873Y-96170435D01*
X155519983Y-96292952D01*
X155612868Y-96404363D01*
X155662712Y-96449803D01*
X155773695Y-96525120D01*
X155894788Y-96577643D01*
X156022465Y-96607342D01*
X156153197Y-96614190D01*
X156283460Y-96598159D01*
X156409725Y-96559221D01*
X156513522Y-96505135D01*
X156972907Y-96505135D01*
X157033319Y-96548599D01*
X157084410Y-96589448D01*
X157156403Y-96656076D01*
X157238060Y-96739580D01*
X157326290Y-96836778D01*
X157418000Y-96944487D01*
X157441617Y-96973290D01*
X157481827Y-97022692D01*
X157534387Y-97087505D01*
X157597556Y-97165566D01*
X157669592Y-97254711D01*
X157748754Y-97352778D01*
X157833302Y-97457604D01*
X157921493Y-97567024D01*
X157961944Y-97617244D01*
X158011586Y-97678876D01*
X158101840Y-97790997D01*
X158190515Y-97901224D01*
X158275868Y-98007392D01*
X158356158Y-98107340D01*
X158429644Y-98198903D01*
X158494585Y-98279919D01*
X158549240Y-98348224D01*
X158591866Y-98401655D01*
X158620724Y-98438048D01*
X158634071Y-98455242D01*
X158635173Y-98461703D01*
X158631508Y-98473992D01*
X158622013Y-98493325D01*
X158605738Y-98521074D01*
X158581736Y-98558610D01*
X158549060Y-98607304D01*
X158506761Y-98668529D01*
X158453891Y-98743654D01*
X158389503Y-98834052D01*
X158312648Y-98941094D01*
X158222380Y-99066152D01*
X158117749Y-99210596D01*
X157997809Y-99375798D01*
X157902242Y-99507297D01*
X157785648Y-99667605D01*
X157683088Y-99808387D01*
X157593369Y-99931204D01*
X157515300Y-100037619D01*
X157447688Y-100129195D01*
X157389338Y-100207494D01*
X157339060Y-100274079D01*
X157295661Y-100330511D01*
X157257946Y-100378354D01*
X157224725Y-100419169D01*
X157194803Y-100454520D01*
X157166989Y-100485968D01*
X157140090Y-100515076D01*
X157112913Y-100543406D01*
X157084265Y-100572522D01*
X156978692Y-100678973D01*
X158398054Y-100679031D01*
X158393595Y-100593019D01*
X158393379Y-100588697D01*
X158392532Y-100554313D01*
X158394137Y-100521368D01*
X158399266Y-100488058D01*
X158408993Y-100452578D01*
X158424391Y-100413125D01*
X158446534Y-100367893D01*
X158476495Y-100315077D01*
X158515348Y-100252874D01*
X158564166Y-100179477D01*
X158624022Y-100093084D01*
X158695990Y-99991890D01*
X158781143Y-99874088D01*
X158880554Y-99737876D01*
X158995298Y-99581449D01*
X159400325Y-99030041D01*
X159403893Y-99669382D01*
X159404209Y-99729020D01*
X159404767Y-99889657D01*
X159404513Y-100026289D01*
X159403150Y-100141502D01*
X159400377Y-100237883D01*
X159395898Y-100318016D01*
X159389413Y-100384487D01*
X159380623Y-100439883D01*
X159369230Y-100486788D01*
X159354935Y-100527788D01*
X159337440Y-100565469D01*
X159316447Y-100602417D01*
X159291655Y-100641217D01*
X159266734Y-100678973D01*
X160561884Y-100678973D01*
X160528429Y-100634352D01*
X160523190Y-100627293D01*
X160481302Y-100562594D01*
X160452427Y-100497190D01*
X160433466Y-100422248D01*
X160421321Y-100328933D01*
X160420987Y-100324865D01*
X160419225Y-100286375D01*
X160417633Y-100222156D01*
X160416220Y-100133676D01*
X160414992Y-100022403D01*
X160413956Y-99889803D01*
X160413118Y-99737345D01*
X160412486Y-99566496D01*
X160412067Y-99378722D01*
X160411868Y-99175493D01*
X160411895Y-98958274D01*
X160412155Y-98728535D01*
X160412655Y-98487741D01*
X160413185Y-98271748D01*
X160413752Y-98036635D01*
X160414311Y-97826279D01*
X160414930Y-97639206D01*
X160415681Y-97473942D01*
X160416634Y-97329013D01*
X160417858Y-97202947D01*
X160419423Y-97094268D01*
X160421401Y-97001504D01*
X160423860Y-96923180D01*
X160426871Y-96857822D01*
X160430504Y-96803958D01*
X160434829Y-96760113D01*
X160439916Y-96724813D01*
X160445835Y-96696585D01*
X160452657Y-96673955D01*
X160460451Y-96655449D01*
X160469288Y-96639594D01*
X160479237Y-96624915D01*
X160490369Y-96609940D01*
X160502754Y-96593193D01*
X160514732Y-96576412D01*
X160537885Y-96543231D01*
X160551753Y-96522298D01*
X160552088Y-96521421D01*
X160547246Y-96517462D01*
X160530157Y-96514159D01*
X160498921Y-96511461D01*
X160451635Y-96509317D01*
X160386398Y-96507676D01*
X160301310Y-96506489D01*
X160194467Y-96505703D01*
X160063969Y-96505269D01*
X159907914Y-96505135D01*
X159253722Y-96505135D01*
X159288200Y-96546110D01*
X159308182Y-96574253D01*
X159341443Y-96640608D01*
X159370591Y-96723135D01*
X159392838Y-96814679D01*
X159394256Y-96823369D01*
X159398474Y-96869183D01*
X159401669Y-96939989D01*
X159403849Y-97036275D01*
X159405021Y-97158532D01*
X159405195Y-97307251D01*
X159404378Y-97482922D01*
X159400325Y-98069412D01*
X158981568Y-97539859D01*
X158969574Y-97524690D01*
X158863381Y-97390255D01*
X158772721Y-97275124D01*
X158696151Y-97177339D01*
X158632227Y-97094943D01*
X158579507Y-97025978D01*
X158536549Y-96968486D01*
X158501909Y-96920510D01*
X158474145Y-96880093D01*
X158451814Y-96845276D01*
X158433472Y-96814103D01*
X158417678Y-96784615D01*
X158402988Y-96754855D01*
X158380390Y-96702177D01*
X158365791Y-96646606D01*
X158361908Y-96586666D01*
X158362298Y-96505135D01*
X156972907Y-96505135D01*
X156513522Y-96505135D01*
X156528466Y-96497348D01*
X156636157Y-96412511D01*
X156666094Y-96382602D01*
X156754577Y-96271862D01*
X156817364Y-96151684D01*
X156854789Y-96021291D01*
X156867189Y-95879910D01*
X156867189Y-95763730D01*
X158838088Y-95763730D01*
X158961220Y-95763725D01*
X159225743Y-95763689D01*
X159464702Y-95763663D01*
X159679418Y-95763699D01*
X159871213Y-95763849D01*
X160041407Y-95764166D01*
X160191323Y-95764702D01*
X160322282Y-95765508D01*
X160435605Y-95766638D01*
X160532614Y-95768144D01*
X160614629Y-95770077D01*
X160682974Y-95772491D01*
X160738968Y-95775436D01*
X160783933Y-95778966D01*
X160819191Y-95783133D01*
X160846063Y-95787989D01*
X160865871Y-95793586D01*
X160879935Y-95799976D01*
X160889578Y-95807212D01*
X160896121Y-95815346D01*
X160900885Y-95824431D01*
X160905192Y-95834518D01*
X160910363Y-95845659D01*
X160910455Y-95845841D01*
X160912966Y-95853134D01*
X160915268Y-95865347D01*
X160917372Y-95883605D01*
X160919286Y-95909037D01*
X160921018Y-95942769D01*
X160922578Y-95985928D01*
X160923973Y-96039641D01*
X160925213Y-96105035D01*
X160926307Y-96183238D01*
X160927263Y-96275376D01*
X160928090Y-96382576D01*
X160928797Y-96505966D01*
X160929393Y-96646671D01*
X160929885Y-96805820D01*
X160930284Y-96984540D01*
X160930597Y-97183957D01*
X160930833Y-97405198D01*
X160931002Y-97649390D01*
X160931112Y-97917661D01*
X160931172Y-98211137D01*
X160931189Y-98530946D01*
X160931190Y-98593773D01*
X160931220Y-98910249D01*
X160931267Y-99200615D01*
X160931295Y-99466007D01*
X160931267Y-99707560D01*
X160931150Y-99926410D01*
X160930905Y-100123691D01*
X160930498Y-100300539D01*
X160929893Y-100458090D01*
X160929054Y-100597479D01*
X160928315Y-100678973D01*
X160927945Y-100719840D01*
X160926532Y-100826310D01*
G36*
X151710962Y-99851736D02*
G01*
X151697635Y-99954739D01*
X151677526Y-100040541D01*
X151645440Y-100128818D01*
X151571063Y-100274299D01*
X151475994Y-100402295D01*
X151361218Y-100511933D01*
X151227719Y-100602342D01*
X151076480Y-100672648D01*
X150908487Y-100721981D01*
X150839983Y-100733108D01*
X150742093Y-100740841D01*
X150635484Y-100742580D01*
X150529065Y-100738465D01*
X150431745Y-100728637D01*
X150352433Y-100713236D01*
X150312579Y-100701110D01*
X150222063Y-100665626D01*
X150130052Y-100620575D01*
X150046038Y-100570843D01*
X149979515Y-100521316D01*
X149978697Y-100520601D01*
X149942243Y-100489692D01*
X149914196Y-100467683D01*
X149900569Y-100459298D01*
X149899079Y-100461300D01*
X149895708Y-100482926D01*
X149893365Y-100523260D01*
X149892487Y-100576000D01*
X149892487Y-100692703D01*
X149377622Y-100692703D01*
X149363916Y-100692701D01*
X149248965Y-100692500D01*
X149143464Y-100691999D01*
X149050414Y-100691237D01*
X148972817Y-100690249D01*
X148913674Y-100689074D01*
X148875986Y-100687749D01*
X148862757Y-100686311D01*
X148863065Y-100685054D01*
X148871720Y-100666501D01*
X148889863Y-100631645D01*
X148914244Y-100586770D01*
X148965730Y-100493622D01*
X148973279Y-99573981D01*
X149947406Y-99573981D01*
X149947789Y-99646640D01*
X149949644Y-99722985D01*
X149953279Y-99778168D01*
X149958958Y-99815782D01*
X149966946Y-99839421D01*
X149977222Y-99856301D01*
X150015918Y-99902317D01*
X150067765Y-99950221D01*
X150124592Y-99992904D01*
X150178225Y-100023253D01*
X150207982Y-100034389D01*
X150276499Y-100049216D01*
X150365988Y-100056796D01*
X150460338Y-100055648D01*
X150549934Y-100040056D01*
X150624718Y-100007846D01*
X150689421Y-99957567D01*
X150707622Y-99938970D01*
X150755011Y-99875546D01*
X150780652Y-99807184D01*
X150788352Y-99724925D01*
X150786266Y-99681467D01*
X150765635Y-99592005D01*
X150722295Y-99515219D01*
X150655457Y-99450243D01*
X150564331Y-99396215D01*
X150448128Y-99352270D01*
X150401281Y-99340738D01*
X150344568Y-99332842D01*
X150273195Y-99328457D01*
X150180811Y-99326982D01*
X150165804Y-99326983D01*
X150096689Y-99327827D01*
X150037320Y-99329866D01*
X149993600Y-99332833D01*
X149971433Y-99336461D01*
X149968882Y-99337639D01*
X149960635Y-99345035D01*
X149954794Y-99359899D01*
X149950955Y-99386227D01*
X149948713Y-99428018D01*
X149947665Y-99489270D01*
X149947406Y-99573981D01*
X148973279Y-99573981D01*
X148973676Y-99525676D01*
X148974857Y-99384695D01*
X148976509Y-99204893D01*
X148978243Y-99048799D01*
X148980200Y-98914205D01*
X148982519Y-98798905D01*
X148985340Y-98700689D01*
X148988804Y-98617352D01*
X148993050Y-98546685D01*
X148998220Y-98486480D01*
X149004452Y-98434531D01*
X149011887Y-98388630D01*
X149020666Y-98346569D01*
X149030927Y-98306141D01*
X149042813Y-98265137D01*
X149056461Y-98221352D01*
X149110230Y-98084085D01*
X149183865Y-97957222D01*
X149275566Y-97848608D01*
X149386175Y-97757674D01*
X149516530Y-97683853D01*
X149667471Y-97626575D01*
X149839837Y-97585273D01*
X150034469Y-97559378D01*
X150102495Y-97554229D01*
X150217062Y-97550464D01*
X150330616Y-97553854D01*
X150448473Y-97564972D01*
X150575950Y-97584388D01*
X150718363Y-97612674D01*
X150881027Y-97650403D01*
X150918627Y-97659532D01*
X151013049Y-97681996D01*
X151102543Y-97702679D01*
X151181681Y-97720361D01*
X151245036Y-97733820D01*
X151287180Y-97741833D01*
X151384414Y-97757803D01*
X151247716Y-98089118D01*
X151213523Y-98171840D01*
X151179885Y-98252896D01*
X151151023Y-98322101D01*
X151128355Y-98376068D01*
X151113297Y-98411412D01*
X151107267Y-98424746D01*
X151106319Y-98424937D01*
X151088844Y-98418984D01*
X151054483Y-98403728D01*
X151009434Y-98381883D01*
X150915802Y-98339343D01*
X150786958Y-98292830D01*
X150655086Y-98257210D01*
X150525344Y-98233378D01*
X150402889Y-98222227D01*
X150292877Y-98224654D01*
X150200465Y-98241552D01*
X150135969Y-98268364D01*
X150062720Y-98323310D01*
X150006333Y-98397852D01*
X149968421Y-98489695D01*
X149950599Y-98596547D01*
X149944323Y-98695027D01*
X150271945Y-98695924D01*
X150382432Y-98696851D01*
X150504638Y-98700141D01*
X150609035Y-98706351D01*
X150701024Y-98716084D01*
X150786004Y-98729943D01*
X150869377Y-98748533D01*
X150956541Y-98772458D01*
X151086960Y-98817996D01*
X151240360Y-98892988D01*
X151374988Y-98984847D01*
X151489516Y-99092280D01*
X151582616Y-99213995D01*
X151652961Y-99348701D01*
X151699223Y-99495105D01*
X151706468Y-99534536D01*
X151715756Y-99632133D01*
X151716926Y-99724925D01*
X151717128Y-99741034D01*
X151710962Y-99851736D01*
G37*
X151710962Y-99851736D02*
X151697635Y-99954739D01*
X151677526Y-100040541D01*
X151645440Y-100128818D01*
X151571063Y-100274299D01*
X151475994Y-100402295D01*
X151361218Y-100511933D01*
X151227719Y-100602342D01*
X151076480Y-100672648D01*
X150908487Y-100721981D01*
X150839983Y-100733108D01*
X150742093Y-100740841D01*
X150635484Y-100742580D01*
X150529065Y-100738465D01*
X150431745Y-100728637D01*
X150352433Y-100713236D01*
X150312579Y-100701110D01*
X150222063Y-100665626D01*
X150130052Y-100620575D01*
X150046038Y-100570843D01*
X149979515Y-100521316D01*
X149978697Y-100520601D01*
X149942243Y-100489692D01*
X149914196Y-100467683D01*
X149900569Y-100459298D01*
X149899079Y-100461300D01*
X149895708Y-100482926D01*
X149893365Y-100523260D01*
X149892487Y-100576000D01*
X149892487Y-100692703D01*
X149377622Y-100692703D01*
X149363916Y-100692701D01*
X149248965Y-100692500D01*
X149143464Y-100691999D01*
X149050414Y-100691237D01*
X148972817Y-100690249D01*
X148913674Y-100689074D01*
X148875986Y-100687749D01*
X148862757Y-100686311D01*
X148863065Y-100685054D01*
X148871720Y-100666501D01*
X148889863Y-100631645D01*
X148914244Y-100586770D01*
X148965730Y-100493622D01*
X148973279Y-99573981D01*
X149947406Y-99573981D01*
X149947789Y-99646640D01*
X149949644Y-99722985D01*
X149953279Y-99778168D01*
X149958958Y-99815782D01*
X149966946Y-99839421D01*
X149977222Y-99856301D01*
X150015918Y-99902317D01*
X150067765Y-99950221D01*
X150124592Y-99992904D01*
X150178225Y-100023253D01*
X150207982Y-100034389D01*
X150276499Y-100049216D01*
X150365988Y-100056796D01*
X150460338Y-100055648D01*
X150549934Y-100040056D01*
X150624718Y-100007846D01*
X150689421Y-99957567D01*
X150707622Y-99938970D01*
X150755011Y-99875546D01*
X150780652Y-99807184D01*
X150788352Y-99724925D01*
X150786266Y-99681467D01*
X150765635Y-99592005D01*
X150722295Y-99515219D01*
X150655457Y-99450243D01*
X150564331Y-99396215D01*
X150448128Y-99352270D01*
X150401281Y-99340738D01*
X150344568Y-99332842D01*
X150273195Y-99328457D01*
X150180811Y-99326982D01*
X150165804Y-99326983D01*
X150096689Y-99327827D01*
X150037320Y-99329866D01*
X149993600Y-99332833D01*
X149971433Y-99336461D01*
X149968882Y-99337639D01*
X149960635Y-99345035D01*
X149954794Y-99359899D01*
X149950955Y-99386227D01*
X149948713Y-99428018D01*
X149947665Y-99489270D01*
X149947406Y-99573981D01*
X148973279Y-99573981D01*
X148973676Y-99525676D01*
X148974857Y-99384695D01*
X148976509Y-99204893D01*
X148978243Y-99048799D01*
X148980200Y-98914205D01*
X148982519Y-98798905D01*
X148985340Y-98700689D01*
X148988804Y-98617352D01*
X148993050Y-98546685D01*
X148998220Y-98486480D01*
X149004452Y-98434531D01*
X149011887Y-98388630D01*
X149020666Y-98346569D01*
X149030927Y-98306141D01*
X149042813Y-98265137D01*
X149056461Y-98221352D01*
X149110230Y-98084085D01*
X149183865Y-97957222D01*
X149275566Y-97848608D01*
X149386175Y-97757674D01*
X149516530Y-97683853D01*
X149667471Y-97626575D01*
X149839837Y-97585273D01*
X150034469Y-97559378D01*
X150102495Y-97554229D01*
X150217062Y-97550464D01*
X150330616Y-97553854D01*
X150448473Y-97564972D01*
X150575950Y-97584388D01*
X150718363Y-97612674D01*
X150881027Y-97650403D01*
X150918627Y-97659532D01*
X151013049Y-97681996D01*
X151102543Y-97702679D01*
X151181681Y-97720361D01*
X151245036Y-97733820D01*
X151287180Y-97741833D01*
X151384414Y-97757803D01*
X151247716Y-98089118D01*
X151213523Y-98171840D01*
X151179885Y-98252896D01*
X151151023Y-98322101D01*
X151128355Y-98376068D01*
X151113297Y-98411412D01*
X151107267Y-98424746D01*
X151106319Y-98424937D01*
X151088844Y-98418984D01*
X151054483Y-98403728D01*
X151009434Y-98381883D01*
X150915802Y-98339343D01*
X150786958Y-98292830D01*
X150655086Y-98257210D01*
X150525344Y-98233378D01*
X150402889Y-98222227D01*
X150292877Y-98224654D01*
X150200465Y-98241552D01*
X150135969Y-98268364D01*
X150062720Y-98323310D01*
X150006333Y-98397852D01*
X149968421Y-98489695D01*
X149950599Y-98596547D01*
X149944323Y-98695027D01*
X150271945Y-98695924D01*
X150382432Y-98696851D01*
X150504638Y-98700141D01*
X150609035Y-98706351D01*
X150701024Y-98716084D01*
X150786004Y-98729943D01*
X150869377Y-98748533D01*
X150956541Y-98772458D01*
X151086960Y-98817996D01*
X151240360Y-98892988D01*
X151374988Y-98984847D01*
X151489516Y-99092280D01*
X151582616Y-99213995D01*
X151652961Y-99348701D01*
X151699223Y-99495105D01*
X151706468Y-99534536D01*
X151715756Y-99632133D01*
X151716926Y-99724925D01*
X151717128Y-99741034D01*
X151710962Y-99851736D01*
G36*
X148610842Y-99436057D02*
G01*
X148602512Y-99548109D01*
X148588120Y-99651252D01*
X148567021Y-99751581D01*
X148538570Y-99855190D01*
X148495428Y-99979033D01*
X148416190Y-100146216D01*
X148318993Y-100295961D01*
X148205325Y-100426852D01*
X148076672Y-100537474D01*
X147934521Y-100626412D01*
X147780359Y-100692250D01*
X147615674Y-100733574D01*
X147613692Y-100733906D01*
X147493337Y-100745486D01*
X147361099Y-100743941D01*
X147226404Y-100730222D01*
X147098684Y-100705283D01*
X146987366Y-100670077D01*
X146939851Y-100648653D01*
X146877969Y-100616090D01*
X146814380Y-100578846D01*
X146755721Y-100541021D01*
X146708626Y-100506714D01*
X146679730Y-100480024D01*
X146673097Y-100472696D01*
X146665189Y-100470135D01*
X146659903Y-100482851D01*
X146656008Y-100514899D01*
X146652271Y-100570331D01*
X146645406Y-100685838D01*
X146119569Y-100689434D01*
X145593732Y-100693031D01*
X145630116Y-100630946D01*
X145632285Y-100627276D01*
X145642865Y-100610044D01*
X145652463Y-100594693D01*
X145661131Y-100579889D01*
X145668920Y-100564299D01*
X145675882Y-100546589D01*
X145682069Y-100525424D01*
X145687531Y-100499473D01*
X145692322Y-100467400D01*
X145696492Y-100427872D01*
X145700094Y-100379557D01*
X145703178Y-100321119D01*
X145705797Y-100251226D01*
X145708002Y-100168544D01*
X145709844Y-100071739D01*
X145711376Y-99959477D01*
X145712612Y-99834205D01*
X146714054Y-99834205D01*
X146782703Y-99879233D01*
X146809103Y-99895453D01*
X146869552Y-99927857D01*
X146926865Y-99953661D01*
X146951965Y-99962398D01*
X147031831Y-99979841D01*
X147132811Y-99988748D01*
X147184159Y-99990601D01*
X147231823Y-99990179D01*
X147267304Y-99985419D01*
X147299129Y-99975014D01*
X147335823Y-99957659D01*
X147406342Y-99911169D01*
X147467435Y-99845406D01*
X147516337Y-99760658D01*
X147553515Y-99655597D01*
X147579432Y-99528895D01*
X147594556Y-99379222D01*
X147599350Y-99205252D01*
X147599117Y-99165700D01*
X147592225Y-98982444D01*
X147575488Y-98822985D01*
X147548501Y-98685643D01*
X147510855Y-98568734D01*
X147462144Y-98470577D01*
X147401961Y-98389488D01*
X147376993Y-98364740D01*
X147299613Y-98313181D01*
X147208776Y-98281807D01*
X147108419Y-98270795D01*
X147002475Y-98280324D01*
X146894879Y-98310572D01*
X146789568Y-98361718D01*
X146714054Y-98406982D01*
X146714054Y-99834205D01*
X145712612Y-99834205D01*
X145712649Y-99830425D01*
X145713715Y-99683250D01*
X145714625Y-99516618D01*
X145715431Y-99329194D01*
X145716185Y-99119646D01*
X145716938Y-98886640D01*
X145717742Y-98628842D01*
X145718649Y-98344919D01*
X145725514Y-96251135D01*
X146271271Y-96247545D01*
X146310959Y-96247304D01*
X146427730Y-96246825D01*
X146534535Y-96246727D01*
X146628458Y-96246992D01*
X146706584Y-96247599D01*
X146765998Y-96248528D01*
X146803784Y-96249759D01*
X146817027Y-96251272D01*
X146815333Y-96256069D01*
X146802694Y-96278810D01*
X146781760Y-96311881D01*
X146779672Y-96315043D01*
X146763442Y-96340577D01*
X146749833Y-96365421D01*
X146738616Y-96392134D01*
X146729559Y-96423274D01*
X146722431Y-96461402D01*
X146717003Y-96509075D01*
X146713043Y-96568853D01*
X146710320Y-96643295D01*
X146708605Y-96734960D01*
X146707665Y-96846408D01*
X146707270Y-96980196D01*
X146707189Y-97138885D01*
X146707333Y-97262781D01*
X146707774Y-97384419D01*
X146708479Y-97494711D01*
X146709417Y-97590973D01*
X146710557Y-97670519D01*
X146711865Y-97730663D01*
X146713310Y-97768718D01*
X146714859Y-97782000D01*
X146719858Y-97779939D01*
X146741831Y-97765422D01*
X146773211Y-97741581D01*
X146818704Y-97709519D01*
X146904178Y-97662279D01*
X147001872Y-97620140D01*
X147102666Y-97587370D01*
X147187352Y-97570660D01*
X147292823Y-97560009D01*
X147406971Y-97556318D01*
X147520989Y-97559594D01*
X147626067Y-97569840D01*
X147713396Y-97587060D01*
X147802317Y-97616068D01*
X147950658Y-97686389D01*
X148088010Y-97779877D01*
X148211841Y-97894377D01*
X148319615Y-98027739D01*
X148408799Y-98177808D01*
X148430940Y-98223826D01*
X148492987Y-98379048D01*
X148541496Y-98547513D01*
X148577080Y-98732192D01*
X148600353Y-98936053D01*
X148611927Y-99162067D01*
X148612465Y-99205252D01*
X148613755Y-99309001D01*
X148610842Y-99436057D01*
G37*
X148610842Y-99436057D02*
X148602512Y-99548109D01*
X148588120Y-99651252D01*
X148567021Y-99751581D01*
X148538570Y-99855190D01*
X148495428Y-99979033D01*
X148416190Y-100146216D01*
X148318993Y-100295961D01*
X148205325Y-100426852D01*
X148076672Y-100537474D01*
X147934521Y-100626412D01*
X147780359Y-100692250D01*
X147615674Y-100733574D01*
X147613692Y-100733906D01*
X147493337Y-100745486D01*
X147361099Y-100743941D01*
X147226404Y-100730222D01*
X147098684Y-100705283D01*
X146987366Y-100670077D01*
X146939851Y-100648653D01*
X146877969Y-100616090D01*
X146814380Y-100578846D01*
X146755721Y-100541021D01*
X146708626Y-100506714D01*
X146679730Y-100480024D01*
X146673097Y-100472696D01*
X146665189Y-100470135D01*
X146659903Y-100482851D01*
X146656008Y-100514899D01*
X146652271Y-100570331D01*
X146645406Y-100685838D01*
X146119569Y-100689434D01*
X145593732Y-100693031D01*
X145630116Y-100630946D01*
X145632285Y-100627276D01*
X145642865Y-100610044D01*
X145652463Y-100594693D01*
X145661131Y-100579889D01*
X145668920Y-100564299D01*
X145675882Y-100546589D01*
X145682069Y-100525424D01*
X145687531Y-100499473D01*
X145692322Y-100467400D01*
X145696492Y-100427872D01*
X145700094Y-100379557D01*
X145703178Y-100321119D01*
X145705797Y-100251226D01*
X145708002Y-100168544D01*
X145709844Y-100071739D01*
X145711376Y-99959477D01*
X145712612Y-99834205D01*
X146714054Y-99834205D01*
X146782703Y-99879233D01*
X146809103Y-99895453D01*
X146869552Y-99927857D01*
X146926865Y-99953661D01*
X146951965Y-99962398D01*
X147031831Y-99979841D01*
X147132811Y-99988748D01*
X147184159Y-99990601D01*
X147231823Y-99990179D01*
X147267304Y-99985419D01*
X147299129Y-99975014D01*
X147335823Y-99957659D01*
X147406342Y-99911169D01*
X147467435Y-99845406D01*
X147516337Y-99760658D01*
X147553515Y-99655597D01*
X147579432Y-99528895D01*
X147594556Y-99379222D01*
X147599350Y-99205252D01*
X147599117Y-99165700D01*
X147592225Y-98982444D01*
X147575488Y-98822985D01*
X147548501Y-98685643D01*
X147510855Y-98568734D01*
X147462144Y-98470577D01*
X147401961Y-98389488D01*
X147376993Y-98364740D01*
X147299613Y-98313181D01*
X147208776Y-98281807D01*
X147108419Y-98270795D01*
X147002475Y-98280324D01*
X146894879Y-98310572D01*
X146789568Y-98361718D01*
X146714054Y-98406982D01*
X146714054Y-99834205D01*
X145712612Y-99834205D01*
X145712649Y-99830425D01*
X145713715Y-99683250D01*
X145714625Y-99516618D01*
X145715431Y-99329194D01*
X145716185Y-99119646D01*
X145716938Y-98886640D01*
X145717742Y-98628842D01*
X145718649Y-98344919D01*
X145725514Y-96251135D01*
X146271271Y-96247545D01*
X146310959Y-96247304D01*
X146427730Y-96246825D01*
X146534535Y-96246727D01*
X146628458Y-96246992D01*
X146706584Y-96247599D01*
X146765998Y-96248528D01*
X146803784Y-96249759D01*
X146817027Y-96251272D01*
X146815333Y-96256069D01*
X146802694Y-96278810D01*
X146781760Y-96311881D01*
X146779672Y-96315043D01*
X146763442Y-96340577D01*
X146749833Y-96365421D01*
X146738616Y-96392134D01*
X146729559Y-96423274D01*
X146722431Y-96461402D01*
X146717003Y-96509075D01*
X146713043Y-96568853D01*
X146710320Y-96643295D01*
X146708605Y-96734960D01*
X146707665Y-96846408D01*
X146707270Y-96980196D01*
X146707189Y-97138885D01*
X146707333Y-97262781D01*
X146707774Y-97384419D01*
X146708479Y-97494711D01*
X146709417Y-97590973D01*
X146710557Y-97670519D01*
X146711865Y-97730663D01*
X146713310Y-97768718D01*
X146714859Y-97782000D01*
X146719858Y-97779939D01*
X146741831Y-97765422D01*
X146773211Y-97741581D01*
X146818704Y-97709519D01*
X146904178Y-97662279D01*
X147001872Y-97620140D01*
X147102666Y-97587370D01*
X147187352Y-97570660D01*
X147292823Y-97560009D01*
X147406971Y-97556318D01*
X147520989Y-97559594D01*
X147626067Y-97569840D01*
X147713396Y-97587060D01*
X147802317Y-97616068D01*
X147950658Y-97686389D01*
X148088010Y-97779877D01*
X148211841Y-97894377D01*
X148319615Y-98027739D01*
X148408799Y-98177808D01*
X148430940Y-98223826D01*
X148492987Y-98379048D01*
X148541496Y-98547513D01*
X148577080Y-98732192D01*
X148600353Y-98936053D01*
X148611927Y-99162067D01*
X148612465Y-99205252D01*
X148613755Y-99309001D01*
X148610842Y-99436057D01*
%TD*%
M02*
