%TF.GenerationSoftware,KiCad,Pcbnew,(6.0.7)*%
%TF.CreationDate,2022-09-02T10:13:45-04:00*%
%TF.ProjectId,proj_1,70726f6a-5f31-42e6-9b69-6361645f7063,V1*%
%TF.SameCoordinates,Original*%
%TF.FileFunction,Legend,Top*%
%TF.FilePolarity,Positive*%
%FSLAX46Y46*%
G04 Gerber Fmt 4.6, Leading zero omitted, Abs format (unit mm)*
G04 Created by KiCad (PCBNEW (6.0.7)) date 2022-09-02 10:13:45*
%MOMM*%
%LPD*%
G01*
G04 APERTURE LIST*
%ADD10C,0.150000*%
%ADD11C,0.120000*%
G04 APERTURE END LIST*
D10*
X98359047Y-105031428D02*
X99120952Y-105031428D01*
X106219047Y-106991428D02*
X106980952Y-106991428D01*
X106600000Y-107372380D02*
X106600000Y-106610476D01*
%TO.C,H1*%
X131468095Y-102552380D02*
X131468095Y-101552380D01*
X131468095Y-102028571D02*
X132039523Y-102028571D01*
X132039523Y-102552380D02*
X132039523Y-101552380D01*
X133039523Y-102552380D02*
X132468095Y-102552380D01*
X132753809Y-102552380D02*
X132753809Y-101552380D01*
X132658571Y-101695238D01*
X132563333Y-101790476D01*
X132468095Y-101838095D01*
%TO.C,BT1*%
X152264285Y-112798571D02*
X152407142Y-112846190D01*
X152454761Y-112893809D01*
X152502380Y-112989047D01*
X152502380Y-113131904D01*
X152454761Y-113227142D01*
X152407142Y-113274761D01*
X152311904Y-113322380D01*
X151930952Y-113322380D01*
X151930952Y-112322380D01*
X152264285Y-112322380D01*
X152359523Y-112370000D01*
X152407142Y-112417619D01*
X152454761Y-112512857D01*
X152454761Y-112608095D01*
X152407142Y-112703333D01*
X152359523Y-112750952D01*
X152264285Y-112798571D01*
X151930952Y-112798571D01*
X152788095Y-112322380D02*
X153359523Y-112322380D01*
X153073809Y-113322380D02*
X153073809Y-112322380D01*
X154216666Y-113322380D02*
X153645238Y-113322380D01*
X153930952Y-113322380D02*
X153930952Y-112322380D01*
X153835714Y-112465238D01*
X153740476Y-112560476D01*
X153645238Y-112608095D01*
%TO.C,SW1*%
X121956666Y-100834761D02*
X122099523Y-100882380D01*
X122337619Y-100882380D01*
X122432857Y-100834761D01*
X122480476Y-100787142D01*
X122528095Y-100691904D01*
X122528095Y-100596666D01*
X122480476Y-100501428D01*
X122432857Y-100453809D01*
X122337619Y-100406190D01*
X122147142Y-100358571D01*
X122051904Y-100310952D01*
X122004285Y-100263333D01*
X121956666Y-100168095D01*
X121956666Y-100072857D01*
X122004285Y-99977619D01*
X122051904Y-99930000D01*
X122147142Y-99882380D01*
X122385238Y-99882380D01*
X122528095Y-99930000D01*
X122861428Y-99882380D02*
X123099523Y-100882380D01*
X123290000Y-100168095D01*
X123480476Y-100882380D01*
X123718571Y-99882380D01*
X124623333Y-100882380D02*
X124051904Y-100882380D01*
X124337619Y-100882380D02*
X124337619Y-99882380D01*
X124242380Y-100025238D01*
X124147142Y-100120476D01*
X124051904Y-100168095D01*
%TO.C,R1*%
X111182380Y-104726666D02*
X110706190Y-105060000D01*
X111182380Y-105298095D02*
X110182380Y-105298095D01*
X110182380Y-104917142D01*
X110230000Y-104821904D01*
X110277619Y-104774285D01*
X110372857Y-104726666D01*
X110515714Y-104726666D01*
X110610952Y-104774285D01*
X110658571Y-104821904D01*
X110706190Y-104917142D01*
X110706190Y-105298095D01*
X111182380Y-103774285D02*
X111182380Y-104345714D01*
X111182380Y-104060000D02*
X110182380Y-104060000D01*
X110325238Y-104155238D01*
X110420476Y-104250476D01*
X110468095Y-104345714D01*
%TO.C,H2*%
X113818095Y-102732380D02*
X113818095Y-101732380D01*
X113818095Y-102208571D02*
X114389523Y-102208571D01*
X114389523Y-102732380D02*
X114389523Y-101732380D01*
X114818095Y-101827619D02*
X114865714Y-101780000D01*
X114960952Y-101732380D01*
X115199047Y-101732380D01*
X115294285Y-101780000D01*
X115341904Y-101827619D01*
X115389523Y-101922857D01*
X115389523Y-102018095D01*
X115341904Y-102160952D01*
X114770476Y-102732380D01*
X115389523Y-102732380D01*
%TO.C,D1*%
X102046904Y-101392380D02*
X102046904Y-100392380D01*
X102285000Y-100392380D01*
X102427857Y-100440000D01*
X102523095Y-100535238D01*
X102570714Y-100630476D01*
X102618333Y-100820952D01*
X102618333Y-100963809D01*
X102570714Y-101154285D01*
X102523095Y-101249523D01*
X102427857Y-101344761D01*
X102285000Y-101392380D01*
X102046904Y-101392380D01*
X103570714Y-101392380D02*
X102999285Y-101392380D01*
X103285000Y-101392380D02*
X103285000Y-100392380D01*
X103189761Y-100535238D01*
X103094523Y-100630476D01*
X102999285Y-100678095D01*
X102142142Y-109312380D02*
X101665952Y-109312380D01*
X101665952Y-108312380D01*
X102475476Y-108788571D02*
X102808809Y-108788571D01*
X102951666Y-109312380D02*
X102475476Y-109312380D01*
X102475476Y-108312380D01*
X102951666Y-108312380D01*
X103380238Y-109312380D02*
X103380238Y-108312380D01*
X103618333Y-108312380D01*
X103761190Y-108360000D01*
X103856428Y-108455238D01*
X103904047Y-108550476D01*
X103951666Y-108740952D01*
X103951666Y-108883809D01*
X103904047Y-109074285D01*
X103856428Y-109169523D01*
X103761190Y-109264761D01*
X103618333Y-109312380D01*
X103380238Y-109312380D01*
D11*
%TO.C,BT1*%
X138740000Y-107150000D02*
X138740000Y-108860000D01*
X167360000Y-107150000D02*
X167360000Y-108860000D01*
X142358000Y-108860000D02*
X138740000Y-108860000D01*
X163742000Y-101640000D02*
X167360000Y-101640000D01*
X149190000Y-113360000D02*
X145202700Y-113360000D01*
X154710000Y-111160000D02*
X151390000Y-111160000D01*
X138740000Y-101640000D02*
X142358000Y-101640000D01*
X154710000Y-111160000D02*
X156910000Y-113360000D01*
X145202700Y-97140000D02*
X160897300Y-97140000D01*
X160897300Y-113360000D02*
X156910000Y-113360000D01*
X167360000Y-103350000D02*
X167360000Y-101640000D01*
X151390000Y-111160000D02*
X149190000Y-113360000D01*
X167360000Y-108860000D02*
X163742000Y-108860000D01*
X138740000Y-103350000D02*
X138740000Y-101640000D01*
X145204628Y-97138210D02*
G75*
G03*
X142358000Y-101640000I7845392J-8111800D01*
G01*
X163742001Y-101640000D02*
G75*
G03*
X160895371Y-97138211I-10692001J-3610000D01*
G01*
X160895371Y-113361789D02*
G75*
G03*
X163742000Y-108860000I-7845391J8111801D01*
G01*
X142358000Y-108860000D02*
G75*
G03*
X145204629Y-113361789I10691995J3609996D01*
G01*
%TO.C,SW1*%
X120640000Y-107850000D02*
X125840000Y-107850000D01*
X120170000Y-105880000D02*
X120170000Y-103680000D01*
X121240000Y-101610000D02*
X125640000Y-101610000D01*
X126410000Y-103680000D02*
X126410000Y-105880000D01*
X124704214Y-104730000D02*
G75*
G03*
X124704214Y-104730000I-1414214J0D01*
G01*
%TO.C,R1*%
X107890000Y-106480000D02*
X109730000Y-106480000D01*
X108810000Y-107430000D02*
X108810000Y-106480000D01*
X109730000Y-102640000D02*
X107890000Y-102640000D01*
X109730000Y-106480000D02*
X109730000Y-102640000D01*
X107890000Y-102640000D02*
X107890000Y-106480000D01*
X108810000Y-101690000D02*
X108810000Y-102640000D01*
%TO.C,D1*%
X100225000Y-103355000D02*
X100225000Y-106445000D01*
X100225000Y-106444830D02*
G75*
G03*
X105775000Y-104899538I2560000J1544830D01*
G01*
X105775000Y-104900462D02*
G75*
G03*
X100225000Y-103355170I-2990000J462D01*
G01*
X105285000Y-104900000D02*
G75*
G03*
X105285000Y-104900000I-2500000J0D01*
G01*
%TD*%
M02*
